<svg id="svg" version="1.1" xmlns="http://www.w3.org/2000/svg" xmlns:xlink="http://www.w3.org/1999/xlink" width="400" height="400" viewBox="0, 0, 400,400"><g id="svgg"><path id="path0" d="M69.337 123.900 C 68.492 124.945,67.429 126.340,66.975 127.000 C 65.882 128.588,59.600 141.549,59.600 142.215 C 59.600 142.360,59.346 143.046,59.034 143.740 C 58.723 144.433,58.250 145.720,57.982 146.600 C 57.715 147.480,57.356 148.380,57.185 148.600 C 57.015 148.820,56.745 149.900,56.585 151.000 C 56.426 152.100,56.068 153.450,55.789 154.000 C 55.511 154.551,55.149 156.081,54.985 157.400 C 54.822 158.720,54.427 160.520,54.108 161.400 C 52.253 166.517,53.514 195.032,55.797 199.600 C 56.072 200.150,56.426 201.320,56.585 202.200 C 57.014 204.588,58.458 208.912,59.066 209.631 C 59.360 209.979,59.600 210.599,59.600 211.011 C 59.600 211.916,66.381 225.600,66.830 225.600 C 67.004 225.600,67.266 225.977,67.412 226.438 C 67.558 226.898,68.245 228.087,68.939 229.078 C 69.632 230.070,70.380 231.158,70.600 231.496 C 70.820 231.833,71.585 232.760,72.301 233.555 C 73.016 234.350,73.709 235.333,73.840 235.739 C 74.105 236.559,74.108 236.563,77.947 240.800 C 79.442 242.450,81.371 244.602,82.233 245.582 C 83.095 246.562,84.360 247.863,85.044 248.474 C 85.728 249.085,87.611 250.864,89.229 252.428 C 90.847 253.992,93.887 256.545,95.985 258.100 C 98.083 259.656,100.000 261.170,100.244 261.464 C 100.488 261.759,100.870 262.000,101.092 262.000 C 101.314 262.000,102.400 262.720,103.505 263.600 C 104.610 264.480,105.636 265.200,105.784 265.200 C 105.933 265.200,107.694 266.280,109.697 267.600 C 111.701 268.920,113.551 270.000,113.808 270.000 C 114.066 270.000,114.602 270.360,115.000 270.800 C 115.398 271.240,116.045 271.600,116.438 271.600 C 116.831 271.600,117.256 271.767,117.383 271.972 C 117.696 272.479,122.389 274.800,123.101 274.800 C 123.416 274.800,124.131 275.160,124.691 275.600 C 125.250 276.040,126.022 276.400,126.405 276.400 C 126.788 276.400,127.326 276.670,127.600 277.000 C 127.874 277.330,128.289 277.600,128.523 277.600 C 128.756 277.600,129.679 277.950,130.574 278.377 C 132.343 279.222,134.994 280.214,137.200 280.857 C 137.970 281.081,140.130 281.859,142.000 282.587 C 143.870 283.314,146.164 284.035,147.098 284.189 C 148.032 284.343,148.891 284.624,149.007 284.812 C 149.124 285.000,150.069 285.279,151.109 285.431 C 152.149 285.584,153.450 285.891,154.000 286.114 C 155.680 286.795,168.747 289.291,174.400 290.010 C 176.270 290.249,179.060 290.622,180.600 290.840 C 189.073 292.040,210.979 292.035,219.400 290.832 C 220.940 290.612,223.730 290.255,225.600 290.039 C 230.414 289.484,236.322 288.446,238.200 287.826 C 239.080 287.536,240.880 287.168,242.200 287.009 C 243.520 286.849,244.914 286.551,245.299 286.346 C 245.683 286.141,246.983 285.791,248.188 285.568 C 249.393 285.346,250.879 284.903,251.490 284.584 C 252.100 284.266,253.006 284.004,253.503 284.002 C 253.999 284.001,255.979 283.387,257.903 282.638 C 259.826 281.889,261.850 281.155,262.400 281.007 C 265.685 280.119,275.348 275.931,275.800 275.199 C 275.936 274.980,276.352 274.802,276.724 274.805 C 277.622 274.811,284.912 271.174,285.320 270.516 C 285.496 270.232,285.978 270.000,286.391 270.000 C 286.805 270.000,287.381 269.775,287.671 269.500 C 287.962 269.225,289.010 268.477,290.000 267.837 C 290.990 267.198,292.288 266.343,292.884 265.937 C 293.480 265.532,294.091 265.200,294.243 265.200 C 294.394 265.200,295.286 264.570,296.226 263.800 C 297.166 263.030,298.103 262.400,298.309 262.400 C 298.515 262.400,299.136 261.995,299.690 261.500 C 300.243 261.005,301.205 260.240,301.828 259.800 C 304.272 258.072,309.072 254.170,310.412 252.821 C 311.189 252.040,312.809 250.485,314.012 249.366 C 315.215 248.247,316.905 246.537,317.767 245.566 C 318.629 244.595,320.558 242.450,322.053 240.800 C 325.892 236.563,325.895 236.559,326.160 235.739 C 326.291 235.333,327.029 234.315,327.799 233.478 C 328.570 232.640,329.200 231.868,329.200 231.761 C 329.200 231.654,329.920 230.591,330.800 229.400 C 331.680 228.209,332.400 226.984,332.400 226.679 C 332.400 226.374,332.744 225.813,333.165 225.432 C 333.585 225.051,334.770 223.089,335.797 221.070 C 336.824 219.052,337.819 217.130,338.008 216.800 C 338.958 215.139,340.400 211.555,340.400 210.853 C 340.400 210.415,340.637 209.819,340.927 209.529 C 341.217 209.238,341.654 208.280,341.898 207.400 C 342.143 206.520,342.618 205.080,342.954 204.200 C 343.290 203.320,343.573 202.178,343.582 201.662 C 343.592 201.146,343.848 200.246,344.151 199.662 C 346.473 195.191,347.774 166.593,345.892 161.400 C 345.573 160.520,345.178 158.720,345.015 157.400 C 344.851 156.081,344.489 154.551,344.211 154.000 C 343.932 153.450,343.579 152.144,343.427 151.098 C 343.275 150.052,342.893 148.702,342.578 148.098 C 342.263 147.494,342.004 146.757,342.002 146.460 C 342.000 145.935,341.770 145.367,339.711 140.800 C 339.165 139.590,338.489 138.060,338.207 137.400 C 337.926 136.740,336.759 134.310,335.614 132.000 C 329.266 119.188,326.406 118.421,326.230 129.483 C 326.130 135.777,325.294 143.117,324.507 144.613 C 324.279 145.046,323.963 146.185,323.804 147.145 C 323.429 149.406,318.479 159.163,316.761 161.026 C 316.343 161.480,316.000 162.001,316.000 162.185 C 316.000 163.115,304.542 175.200,303.660 175.200 C 303.471 175.200,302.858 175.605,302.297 176.100 C 301.736 176.595,300.812 177.360,300.242 177.800 C 299.673 178.240,298.818 178.915,298.343 179.300 C 297.867 179.685,297.338 180.000,297.167 180.000 C 296.997 180.000,296.610 180.247,296.309 180.548 C 296.008 180.850,295.230 181.395,294.580 181.760 C 293.931 182.126,292.860 182.775,292.200 183.204 C 289.435 185.000,280.354 189.600,279.574 189.600 C 279.202 189.600,278.680 189.863,278.413 190.185 C 278.146 190.506,277.539 190.883,277.064 191.022 C 276.589 191.160,275.390 191.634,274.400 192.073 C 271.429 193.392,271.081 193.525,269.000 194.135 C 267.900 194.458,266.460 194.913,265.800 195.146 C 265.140 195.379,263.250 195.956,261.600 196.428 C 259.950 196.900,257.520 197.609,256.200 198.003 C 254.880 198.398,252.999 198.837,252.020 198.978 C 251.041 199.119,250.045 199.397,249.807 199.594 C 249.569 199.792,247.932 200.134,246.170 200.355 C 244.408 200.576,242.515 200.928,241.963 201.138 C 241.412 201.348,239.710 201.647,238.180 201.803 C 236.651 201.958,234.320 202.335,233.000 202.639 C 231.680 202.944,227.180 203.380,223.000 203.608 C 218.820 203.837,214.320 204.198,213.000 204.409 C 209.893 204.907,192.404 204.907,188.000 204.409 C 186.130 204.197,181.180 203.837,177.000 203.608 C 172.820 203.380,168.320 202.944,167.000 202.639 C 165.680 202.335,163.349 201.958,161.820 201.803 C 160.290 201.647,158.642 201.368,158.157 201.184 C 157.672 200.999,155.774 200.643,153.940 200.392 C 152.105 200.141,150.414 199.777,150.182 199.585 C 149.950 199.393,148.959 199.119,147.980 198.978 C 147.001 198.837,145.120 198.398,143.800 198.003 C 142.480 197.609,140.050 196.900,138.400 196.428 C 136.750 195.956,134.860 195.379,134.200 195.146 C 133.540 194.913,132.100 194.458,131.000 194.135 C 128.919 193.525,128.571 193.392,125.600 192.073 C 124.610 191.634,123.411 191.160,122.936 191.022 C 122.461 190.883,121.854 190.506,121.587 190.185 C 121.320 189.863,120.798 189.600,120.426 189.600 C 119.646 189.600,110.565 185.000,107.800 183.204 C 107.140 182.775,106.069 182.126,105.420 181.760 C 104.770 181.395,103.992 180.850,103.691 180.548 C 103.390 180.247,103.003 180.000,102.833 180.000 C 102.662 180.000,102.133 179.685,101.657 179.300 C 101.182 178.915,100.327 178.240,99.758 177.800 C 99.188 177.360,98.264 176.595,97.703 176.100 C 97.142 175.605,96.529 175.200,96.340 175.200 C 95.458 175.200,84.000 163.115,84.000 162.185 C 84.000 162.001,83.657 161.480,83.239 161.026 C 81.618 159.268,76.619 149.524,76.237 147.377 C 76.083 146.510,75.698 145.080,75.383 144.200 C 74.113 140.656,73.074 126.929,73.952 125.290 C 74.277 124.683,74.230 124.183,73.762 123.243 C 72.788 121.292,71.264 121.518,69.337 123.900 " stroke="none" fill="#073ef6" fill-rule="evenodd"></path><path id="path1" d="M0.000 200.000 L 0.000 400.000 200.000 400.000 L 400.000 400.000 400.000 200.000 L 400.000 0.000 200.000 0.000 L 0.000 0.000 0.000 200.000 M74.447 121.200 C 75.087 122.080,75.189 123.259,75.303 131.057 C 75.393 137.268,75.577 140.091,75.919 140.503 C 76.187 140.826,76.601 142.142,76.839 143.428 C 77.077 144.714,77.525 146.129,77.836 146.572 C 78.146 147.015,78.400 147.707,78.400 148.110 C 78.400 148.512,78.744 149.507,79.165 150.321 C 79.586 151.134,80.441 152.832,81.065 154.094 C 82.828 157.658,83.474 158.798,84.163 159.559 C 84.513 159.946,84.800 160.448,84.800 160.673 C 84.800 160.899,85.205 161.542,85.700 162.103 C 86.195 162.664,87.500 164.148,88.600 165.402 C 89.700 166.655,91.489 168.518,92.576 169.541 C 93.663 170.563,94.923 171.762,95.376 172.205 C 95.829 172.648,97.100 173.725,98.200 174.598 C 99.300 175.472,100.262 176.329,100.337 176.504 C 100.412 176.678,101.177 177.180,102.037 177.619 C 102.897 178.057,103.600 178.593,103.600 178.808 C 103.600 179.024,103.777 179.200,103.992 179.200 C 104.208 179.200,105.423 179.870,106.692 180.689 C 109.299 182.371,110.349 182.967,113.896 184.784 C 115.268 185.487,116.485 186.215,116.600 186.400 C 116.715 186.586,117.335 186.854,117.977 186.995 C 118.619 187.136,119.350 187.498,119.600 187.800 C 119.850 188.102,120.628 188.470,121.328 188.619 C 122.027 188.767,122.870 189.122,123.200 189.407 C 123.530 189.692,124.610 190.140,125.600 190.402 C 126.590 190.664,127.580 191.017,127.800 191.187 C 128.020 191.357,128.920 191.721,129.800 191.996 C 130.680 192.271,131.571 192.655,131.780 192.848 C 131.989 193.042,132.626 193.200,133.195 193.200 C 133.765 193.200,134.937 193.560,135.800 194.000 C 136.663 194.440,137.826 194.808,138.385 194.818 C 138.943 194.827,140.120 195.111,141.000 195.449 C 141.880 195.787,143.448 196.236,144.483 196.447 C 145.519 196.658,146.869 197.092,147.483 197.413 C 148.098 197.733,149.044 197.996,149.587 197.998 C 150.130 197.999,152.020 198.343,153.787 198.763 C 155.554 199.183,158.530 199.724,160.400 199.965 C 162.270 200.206,165.150 200.587,166.800 200.811 C 180.209 202.634,179.558 202.600,200.600 202.599 C 215.557 202.599,221.640 202.463,223.400 202.091 C 224.720 201.811,227.894 201.410,230.454 201.199 C 233.013 200.988,235.589 200.632,236.179 200.408 C 236.768 200.184,238.814 199.885,240.725 199.742 C 242.636 199.600,245.258 199.150,246.552 198.742 C 247.846 198.334,249.466 197.999,250.152 197.998 C 250.838 197.996,251.902 197.733,252.517 197.413 C 253.131 197.092,254.481 196.658,255.517 196.447 C 256.552 196.236,258.120 195.787,259.000 195.449 C 259.880 195.111,261.057 194.827,261.615 194.818 C 262.174 194.808,263.337 194.440,264.200 194.000 C 265.063 193.560,266.235 193.200,266.805 193.200 C 267.374 193.200,268.011 193.042,268.220 192.848 C 268.429 192.655,269.320 192.271,270.200 191.996 C 271.080 191.721,271.980 191.357,272.200 191.187 C 272.420 191.017,273.410 190.664,274.400 190.402 C 275.390 190.140,276.470 189.692,276.800 189.407 C 277.130 189.122,277.973 188.767,278.672 188.619 C 279.372 188.470,280.150 188.102,280.400 187.800 C 280.650 187.498,281.370 187.138,282.000 187.000 C 282.630 186.862,283.340 186.514,283.578 186.226 C 283.817 185.939,285.044 185.211,286.306 184.609 C 289.234 183.212,290.461 182.525,293.308 180.689 C 294.577 179.870,295.792 179.200,296.008 179.200 C 296.223 179.200,296.400 179.024,296.400 178.808 C 296.400 178.593,297.103 178.057,297.963 177.619 C 298.823 177.180,299.588 176.671,299.663 176.487 C 299.738 176.303,300.700 175.441,301.800 174.571 C 304.116 172.741,308.163 169.035,309.369 167.639 C 309.826 167.110,310.740 166.105,311.400 165.405 C 313.312 163.378,314.800 161.543,314.800 161.213 C 314.800 161.045,315.199 160.401,315.687 159.781 C 316.656 158.548,317.220 157.561,318.935 154.094 C 319.559 152.832,320.414 151.134,320.835 150.321 C 321.256 149.507,321.600 148.512,321.600 148.110 C 321.600 147.707,321.854 147.015,322.164 146.572 C 322.475 146.129,322.923 144.714,323.161 143.428 C 323.399 142.142,323.802 140.839,324.057 140.531 C 324.363 140.162,324.587 136.981,324.717 131.150 C 324.909 122.509,324.933 122.304,325.892 121.164 C 327.496 119.257,330.981 120.221,331.799 122.797 C 331.932 123.216,332.392 123.670,332.820 123.806 C 333.312 123.962,333.600 124.414,333.600 125.027 C 333.600 125.562,333.769 126.000,333.975 126.000 C 334.181 126.000,334.982 127.215,335.754 128.700 C 339.511 135.927,341.200 139.455,341.200 140.074 C 341.200 140.447,341.375 140.861,341.589 140.993 C 341.803 141.126,342.168 141.991,342.401 142.917 C 342.633 143.843,343.071 145.050,343.375 145.600 C 343.678 146.150,344.057 147.320,344.215 148.200 C 344.374 149.080,344.666 150.004,344.863 150.253 C 345.060 150.503,345.486 152.096,345.811 153.793 C 346.136 155.490,346.506 157.048,346.633 157.254 C 346.760 157.460,347.123 159.467,347.440 161.714 C 347.756 163.961,348.210 167.150,348.447 168.800 C 348.958 172.338,348.685 186.319,348.085 187.442 C 347.861 187.860,347.492 190.059,347.265 192.329 C 347.037 194.599,346.671 196.673,346.451 196.938 C 346.231 197.203,345.925 198.405,345.771 199.610 C 345.617 200.814,345.261 202.256,344.980 202.814 C 344.699 203.371,344.343 204.541,344.189 205.414 C 344.036 206.286,343.660 207.399,343.355 207.886 C 343.050 208.373,342.798 209.003,342.796 209.286 C 342.794 209.569,342.350 210.700,341.809 211.800 C 341.268 212.900,340.819 214.093,340.813 214.451 C 340.806 214.809,340.542 215.317,340.226 215.579 C 339.910 215.841,339.538 216.570,339.400 217.200 C 339.262 217.830,338.890 218.559,338.574 218.821 C 338.258 219.083,338.000 219.467,338.000 219.674 C 338.000 220.256,335.913 224.569,335.497 224.846 C 335.073 225.128,334.301 226.408,333.388 228.341 C 332.711 229.775,332.213 230.467,331.100 231.517 C 330.715 231.880,330.400 232.392,330.400 232.655 C 330.400 233.101,329.541 234.265,327.900 236.042 C 327.515 236.459,327.200 236.974,327.200 237.186 C 327.200 237.398,326.840 237.765,326.400 238.000 C 325.960 238.235,325.600 238.647,325.600 238.914 C 325.600 239.329,324.632 240.469,319.841 245.700 C 319.488 246.085,319.200 246.580,319.200 246.800 C 319.200 247.020,319.002 247.200,318.760 247.200 C 318.276 247.200,316.000 249.502,316.000 249.993 C 316.000 250.162,313.798 252.078,311.108 254.250 C 308.417 256.423,305.897 258.515,305.508 258.900 C 305.118 259.285,304.630 259.600,304.423 259.600 C 304.215 259.600,303.810 259.917,303.523 260.304 C 303.004 261.004,298.206 264.435,296.098 265.615 C 293.713 266.949,289.600 269.746,289.600 270.033 C 289.600 270.200,289.015 270.462,288.300 270.615 C 287.585 270.768,286.678 271.232,286.284 271.647 C 285.891 272.061,285.299 272.400,284.968 272.400 C 284.638 272.400,283.880 272.722,283.284 273.116 C 280.867 274.713,273.721 278.400,273.043 278.400 C 272.793 278.400,271.961 278.736,271.194 279.147 C 270.427 279.557,269.215 280.022,268.500 280.178 C 267.785 280.335,267.200 280.622,267.200 280.816 C 267.200 281.010,266.435 281.361,265.500 281.596 C 264.565 281.831,263.322 282.288,262.738 282.612 C 262.154 282.935,261.344 283.201,260.938 283.203 C 260.532 283.204,259.660 283.563,259.000 284.000 C 258.340 284.437,257.167 284.796,256.394 284.797 C 255.621 284.799,254.316 285.160,253.496 285.600 C 252.675 286.040,251.543 286.400,250.982 286.400 C 250.420 286.400,249.448 286.665,248.822 286.989 C 248.196 287.312,246.900 287.685,245.942 287.816 C 244.984 287.948,243.480 288.303,242.600 288.605 C 241.720 288.907,240.010 289.348,238.800 289.585 C 237.590 289.821,235.430 290.278,234.000 290.599 C 232.570 290.920,230.673 291.187,229.784 291.192 C 228.895 291.196,227.185 291.453,225.984 291.761 C 218.085 293.791,183.248 293.819,174.200 291.804 C 172.880 291.510,170.489 291.152,168.887 291.009 C 167.284 290.866,165.124 290.506,164.087 290.208 C 163.049 289.911,161.390 289.541,160.400 289.386 C 159.410 289.232,158.114 288.857,157.520 288.553 C 156.926 288.249,155.846 287.994,155.120 287.987 C 154.394 287.980,152.810 287.626,151.600 287.200 C 150.390 286.774,149.037 286.420,148.594 286.413 C 148.151 286.406,147.116 286.040,146.296 285.600 C 145.475 285.160,144.217 284.799,143.501 284.797 C 142.786 284.796,141.660 284.437,141.000 284.000 C 140.340 283.563,139.468 283.204,139.062 283.203 C 138.656 283.201,137.846 282.935,137.262 282.612 C 136.678 282.288,135.435 281.831,134.500 281.596 C 133.565 281.361,132.800 281.010,132.800 280.816 C 132.800 280.622,132.215 280.335,131.500 280.178 C 130.785 280.022,129.573 279.557,128.806 279.147 C 128.039 278.736,127.220 278.400,126.984 278.400 C 126.294 278.400,119.149 274.723,116.716 273.116 C 116.120 272.722,115.362 272.400,115.032 272.400 C 114.701 272.400,114.109 272.065,113.716 271.656 C 113.322 271.247,112.499 270.792,111.886 270.645 C 111.273 270.498,109.563 269.521,108.086 268.473 C 106.609 267.426,104.822 266.216,104.115 265.784 C 101.230 264.023,96.967 260.964,96.477 260.304 C 96.190 259.917,95.785 259.600,95.577 259.600 C 95.370 259.600,94.882 259.285,94.492 258.900 C 94.103 258.515,91.583 256.423,88.892 254.250 C 86.202 252.078,84.000 250.162,84.000 249.993 C 84.000 249.502,81.724 247.200,81.240 247.200 C 80.998 247.200,80.800 247.020,80.800 246.800 C 80.800 246.580,80.512 246.085,80.159 245.700 C 75.368 240.469,74.400 239.329,74.400 238.914 C 74.400 238.647,74.040 238.235,73.600 238.000 C 73.160 237.765,72.800 237.398,72.800 237.186 C 72.800 236.974,72.485 236.459,72.100 236.042 C 70.595 234.412,69.600 233.117,69.600 232.787 C 69.600 232.597,69.126 231.937,68.547 231.321 C 67.968 230.704,67.228 229.570,66.902 228.800 C 66.576 228.030,66.195 227.310,66.055 227.200 C 65.149 226.490,62.000 220.645,62.000 219.674 C 62.000 219.467,61.742 219.083,61.426 218.821 C 61.110 218.559,60.738 217.830,60.600 217.200 C 60.462 216.570,60.090 215.841,59.774 215.579 C 59.458 215.317,59.194 214.809,59.187 214.451 C 59.181 214.093,58.732 212.900,58.191 211.800 C 57.650 210.700,57.206 209.569,57.204 209.286 C 57.202 209.003,56.950 208.373,56.645 207.886 C 56.340 207.399,55.964 206.286,55.811 205.414 C 55.657 204.541,55.301 203.371,55.020 202.814 C 54.739 202.256,54.383 200.814,54.229 199.610 C 54.075 198.405,53.769 197.203,53.549 196.938 C 53.329 196.673,52.963 194.599,52.735 192.329 C 52.508 190.059,52.139 187.860,51.915 187.442 C 51.315 186.319,51.042 172.338,51.553 168.800 C 51.790 167.150,52.244 163.961,52.560 161.714 C 52.877 159.467,53.240 157.460,53.367 157.254 C 53.494 157.048,53.864 155.490,54.189 153.793 C 54.514 152.096,54.940 150.503,55.137 150.253 C 55.334 150.004,55.626 149.080,55.785 148.200 C 55.943 147.320,56.322 146.150,56.625 145.600 C 56.929 145.050,57.367 143.843,57.599 142.917 C 57.832 141.991,58.197 141.126,58.411 140.993 C 58.625 140.861,58.800 140.431,58.800 140.038 C 58.800 139.419,61.718 133.306,63.115 131.000 C 63.382 130.560,63.787 129.750,64.017 129.200 C 64.814 127.290,66.759 124.368,67.693 123.677 C 68.082 123.390,68.400 122.911,68.400 122.613 C 68.400 120.371,73.054 119.283,74.447 121.200 " stroke="none" fill="#fbfbfb" fill-rule="evenodd"></path><path id="path2" d="M69.655 121.015 C 68.965 121.596,68.400 122.315,68.400 122.613 C 68.400 122.911,68.082 123.390,67.693 123.677 C 66.759 124.368,64.814 127.290,64.017 129.200 C 63.787 129.750,63.382 130.560,63.115 131.000 C 61.718 133.306,58.800 139.419,58.800 140.038 C 58.800 140.431,58.625 140.861,58.411 140.993 C 58.197 141.126,57.832 141.991,57.599 142.917 C 57.367 143.843,56.929 145.050,56.625 145.600 C 56.322 146.150,55.943 147.320,55.785 148.200 C 55.626 149.080,55.334 150.004,55.137 150.253 C 54.940 150.503,54.514 152.096,54.189 153.793 C 53.864 155.490,53.494 157.048,53.367 157.254 C 53.240 157.460,52.877 159.467,52.560 161.714 C 52.244 163.961,51.790 167.150,51.553 168.800 C 51.042 172.338,51.315 186.319,51.915 187.442 C 52.139 187.860,52.508 190.059,52.735 192.329 C 52.963 194.599,53.329 196.673,53.549 196.938 C 53.769 197.203,54.075 198.405,54.229 199.610 C 54.383 200.814,54.739 202.256,55.020 202.814 C 55.301 203.371,55.657 204.541,55.811 205.414 C 55.964 206.286,56.340 207.399,56.645 207.886 C 56.950 208.373,57.202 209.003,57.204 209.286 C 57.206 209.569,57.650 210.700,58.191 211.800 C 58.732 212.900,59.181 214.093,59.187 214.451 C 59.194 214.809,59.458 215.317,59.774 215.579 C 60.090 215.841,60.462 216.570,60.600 217.200 C 60.738 217.830,61.110 218.559,61.426 218.821 C 61.742 219.083,62.000 219.467,62.000 219.674 C 62.000 220.645,65.149 226.490,66.055 227.200 C 66.195 227.310,66.576 228.030,66.902 228.800 C 67.228 229.570,67.968 230.704,68.547 231.321 C 69.126 231.937,69.600 232.597,69.600 232.787 C 69.600 233.117,70.595 234.412,72.100 236.042 C 72.485 236.459,72.800 236.974,72.800 237.186 C 72.800 237.398,73.160 237.765,73.600 238.000 C 74.040 238.235,74.400 238.647,74.400 238.914 C 74.400 239.329,75.368 240.469,80.159 245.700 C 80.512 246.085,80.800 246.580,80.800 246.800 C 80.800 247.020,80.998 247.200,81.240 247.200 C 81.724 247.200,84.000 249.502,84.000 249.993 C 84.000 250.162,86.202 252.078,88.892 254.250 C 91.583 256.423,94.103 258.515,94.492 258.900 C 94.882 259.285,95.370 259.600,95.577 259.600 C 95.785 259.600,96.190 259.917,96.477 260.304 C 96.967 260.964,101.230 264.023,104.115 265.784 C 104.822 266.216,106.609 267.426,108.086 268.473 C 109.563 269.521,111.273 270.498,111.886 270.645 C 112.499 270.792,113.322 271.247,113.716 271.656 C 114.109 272.065,114.701 272.400,115.032 272.400 C 115.362 272.400,116.120 272.722,116.716 273.116 C 119.149 274.723,126.294 278.400,126.984 278.400 C 127.220 278.400,128.039 278.736,128.806 279.147 C 129.573 279.557,130.785 280.022,131.500 280.178 C 132.215 280.335,132.800 280.622,132.800 280.816 C 132.800 281.010,133.565 281.361,134.500 281.596 C 135.435 281.831,136.678 282.288,137.262 282.612 C 137.846 282.935,138.656 283.201,139.062 283.203 C 139.468 283.204,140.340 283.563,141.000 284.000 C 141.660 284.437,142.786 284.796,143.501 284.797 C 144.217 284.799,145.475 285.160,146.296 285.600 C 147.116 286.040,148.151 286.406,148.594 286.413 C 149.037 286.420,150.390 286.774,151.600 287.200 C 152.810 287.626,154.394 287.980,155.120 287.987 C 155.846 287.994,156.926 288.249,157.520 288.553 C 158.114 288.857,159.410 289.232,160.400 289.386 C 161.390 289.541,163.049 289.911,164.087 290.208 C 165.124 290.506,167.284 290.866,168.887 291.009 C 170.489 291.152,172.880 291.510,174.200 291.804 C 183.248 293.819,218.085 293.791,225.984 291.761 C 227.185 291.453,228.895 291.196,229.784 291.192 C 230.673 291.187,232.570 290.920,234.000 290.599 C 235.430 290.278,237.590 289.821,238.800 289.585 C 240.010 289.348,241.720 288.907,242.600 288.605 C 243.480 288.303,244.984 287.948,245.942 287.816 C 246.900 287.685,248.196 287.312,248.822 286.989 C 249.448 286.665,250.420 286.400,250.982 286.400 C 251.543 286.400,252.675 286.040,253.496 285.600 C 254.316 285.160,255.621 284.799,256.394 284.797 C 257.167 284.796,258.340 284.437,259.000 284.000 C 259.660 283.563,260.532 283.204,260.938 283.203 C 261.344 283.201,262.154 282.935,262.738 282.612 C 263.322 282.288,264.565 281.831,265.500 281.596 C 266.435 281.361,267.200 281.010,267.200 280.816 C 267.200 280.622,267.785 280.335,268.500 280.178 C 269.215 280.022,270.427 279.557,271.194 279.147 C 271.961 278.736,272.793 278.400,273.043 278.400 C 273.721 278.400,280.867 274.713,283.284 273.116 C 283.880 272.722,284.638 272.400,284.968 272.400 C 285.299 272.400,285.891 272.061,286.284 271.647 C 286.678 271.232,287.585 270.768,288.300 270.615 C 289.015 270.462,289.600 270.200,289.600 270.033 C 289.600 269.746,293.713 266.949,296.098 265.615 C 298.206 264.435,303.004 261.004,303.523 260.304 C 303.810 259.917,304.215 259.600,304.423 259.600 C 304.630 259.600,305.118 259.285,305.508 258.900 C 305.897 258.515,308.417 256.423,311.108 254.250 C 313.798 252.078,316.000 250.162,316.000 249.993 C 316.000 249.502,318.276 247.200,318.760 247.200 C 319.002 247.200,319.200 247.020,319.200 246.800 C 319.200 246.580,319.488 246.085,319.841 245.700 C 324.632 240.469,325.600 239.329,325.600 238.914 C 325.600 238.647,325.960 238.235,326.400 238.000 C 326.840 237.765,327.200 237.398,327.200 237.186 C 327.200 236.974,327.515 236.459,327.900 236.042 C 329.541 234.265,330.400 233.101,330.400 232.655 C 330.400 232.392,330.715 231.880,331.100 231.517 C 332.213 230.467,332.711 229.775,333.388 228.341 C 334.301 226.408,335.073 225.128,335.497 224.846 C 335.913 224.569,338.000 220.256,338.000 219.674 C 338.000 219.467,338.258 219.083,338.574 218.821 C 338.890 218.559,339.262 217.830,339.400 217.200 C 339.538 216.570,339.910 215.841,340.226 215.579 C 340.542 215.317,340.806 214.809,340.813 214.451 C 340.819 214.093,341.268 212.900,341.809 211.800 C 342.350 210.700,342.794 209.569,342.796 209.286 C 342.798 209.003,343.050 208.373,343.355 207.886 C 343.660 207.399,344.036 206.286,344.189 205.414 C 344.343 204.541,344.699 203.371,344.980 202.814 C 345.261 202.256,345.617 200.814,345.771 199.610 C 345.925 198.405,346.231 197.203,346.451 196.938 C 346.671 196.673,347.037 194.599,347.265 192.329 C 347.492 190.059,347.861 187.860,348.085 187.442 C 348.685 186.319,348.958 172.338,348.447 168.800 C 348.210 167.150,347.756 163.961,347.440 161.714 C 347.123 159.467,346.760 157.460,346.633 157.254 C 346.506 157.048,346.136 155.490,345.811 153.793 C 345.486 152.096,345.060 150.503,344.863 150.253 C 344.666 150.004,344.374 149.080,344.215 148.200 C 344.057 147.320,343.678 146.150,343.375 145.600 C 343.071 145.050,342.633 143.843,342.401 142.917 C 342.168 141.991,341.803 141.126,341.589 140.993 C 341.375 140.861,341.200 140.447,341.200 140.074 C 341.200 139.455,339.511 135.927,335.754 128.700 C 334.982 127.215,334.181 126.000,333.975 126.000 C 333.769 126.000,333.600 125.562,333.600 125.027 C 333.600 124.414,333.312 123.962,332.820 123.806 C 332.392 123.670,331.932 123.216,331.799 122.797 C 330.981 120.221,327.496 119.257,325.892 121.164 C 324.933 122.304,324.909 122.509,324.717 131.150 C 324.587 136.981,324.363 140.162,324.057 140.531 C 323.802 140.839,323.399 142.142,323.161 143.428 C 322.923 144.714,322.475 146.129,322.164 146.572 C 321.854 147.015,321.600 147.707,321.600 148.110 C 321.600 148.512,321.256 149.507,320.835 150.321 C 320.414 151.134,319.559 152.832,318.935 154.094 C 317.220 157.561,316.656 158.548,315.687 159.781 C 315.199 160.401,314.800 161.045,314.800 161.213 C 314.800 161.543,313.312 163.378,311.400 165.405 C 310.740 166.105,309.826 167.110,309.369 167.639 C 308.163 169.035,304.116 172.741,301.800 174.571 C 300.700 175.441,299.738 176.303,299.663 176.487 C 299.588 176.671,298.823 177.180,297.963 177.619 C 297.103 178.057,296.400 178.593,296.400 178.808 C 296.400 179.024,296.223 179.200,296.008 179.200 C 295.792 179.200,294.577 179.870,293.308 180.689 C 290.461 182.525,289.234 183.212,286.306 184.609 C 285.044 185.211,283.817 185.939,283.578 186.226 C 283.340 186.514,282.630 186.862,282.000 187.000 C 281.370 187.138,280.650 187.498,280.400 187.800 C 280.150 188.102,279.372 188.470,278.672 188.619 C 277.973 188.767,277.130 189.122,276.800 189.407 C 276.470 189.692,275.390 190.140,274.400 190.402 C 273.410 190.664,272.420 191.017,272.200 191.187 C 271.980 191.357,271.080 191.721,270.200 191.996 C 269.320 192.271,268.429 192.655,268.220 192.848 C 268.011 193.042,267.374 193.200,266.805 193.200 C 266.235 193.200,265.063 193.560,264.200 194.000 C 263.337 194.440,262.174 194.808,261.615 194.818 C 261.057 194.827,259.880 195.111,259.000 195.449 C 258.120 195.787,256.552 196.236,255.517 196.447 C 254.481 196.658,253.131 197.092,252.517 197.413 C 251.902 197.733,250.838 197.996,250.152 197.998 C 249.466 197.999,247.846 198.334,246.552 198.742 C 245.258 199.150,242.636 199.600,240.725 199.742 C 238.814 199.885,236.768 200.184,236.179 200.408 C 235.589 200.632,233.013 200.988,230.454 201.199 C 227.894 201.410,224.720 201.811,223.400 202.091 C 221.640 202.463,215.557 202.599,200.600 202.599 C 179.558 202.600,180.209 202.634,166.800 200.811 C 165.150 200.587,162.270 200.206,160.400 199.965 C 158.530 199.724,155.554 199.183,153.787 198.763 C 152.020 198.343,150.130 197.999,149.587 197.998 C 149.044 197.996,148.098 197.733,147.483 197.413 C 146.869 197.092,145.519 196.658,144.483 196.447 C 143.448 196.236,141.880 195.787,141.000 195.449 C 140.120 195.111,138.943 194.827,138.385 194.818 C 137.826 194.808,136.663 194.440,135.800 194.000 C 134.937 193.560,133.765 193.200,133.195 193.200 C 132.626 193.200,131.989 193.042,131.780 192.848 C 131.571 192.655,130.680 192.271,129.800 191.996 C 128.920 191.721,128.020 191.357,127.800 191.187 C 127.580 191.017,126.590 190.664,125.600 190.402 C 124.610 190.140,123.530 189.692,123.200 189.407 C 122.870 189.122,122.027 188.767,121.328 188.619 C 120.628 188.470,119.850 188.102,119.600 187.800 C 119.350 187.498,118.619 187.136,117.977 186.995 C 117.335 186.854,116.715 186.586,116.600 186.400 C 116.485 186.215,115.268 185.487,113.896 184.784 C 110.349 182.967,109.299 182.371,106.692 180.689 C 105.423 179.870,104.208 179.200,103.992 179.200 C 103.777 179.200,103.600 179.024,103.600 178.808 C 103.600 178.593,102.897 178.057,102.037 177.619 C 101.177 177.180,100.412 176.678,100.337 176.504 C 100.262 176.329,99.300 175.472,98.200 174.598 C 97.100 173.725,95.829 172.648,95.376 172.205 C 94.923 171.762,93.663 170.563,92.576 169.541 C 91.489 168.518,89.700 166.655,88.600 165.402 C 87.500 164.148,86.195 162.664,85.700 162.103 C 85.205 161.542,84.800 160.899,84.800 160.673 C 84.800 160.448,84.513 159.946,84.163 159.559 C 83.474 158.798,82.828 157.658,81.065 154.094 C 80.441 152.832,79.586 151.134,79.165 150.321 C 78.744 149.507,78.400 148.512,78.400 148.110 C 78.400 147.707,78.146 147.015,77.836 146.572 C 77.525 146.129,77.077 144.714,76.839 143.428 C 76.601 142.142,76.187 140.826,75.919 140.503 C 75.577 140.091,75.393 137.268,75.303 131.057 C 75.189 123.259,75.087 122.080,74.447 121.200 C 73.380 119.732,71.277 119.650,69.655 121.015 M74.013 121.900 C 74.826 122.928,74.866 123.276,74.620 127.200 C 74.060 136.106,75.650 144.688,79.250 152.200 C 83.688 161.459,88.446 167.557,96.200 173.918 C 97.960 175.361,99.580 176.737,99.800 176.974 C 101.652 178.973,119.565 189.200,121.214 189.200 C 121.558 189.200,122.045 189.405,122.295 189.655 C 122.794 190.154,131.378 193.598,132.132 193.602 C 132.389 193.604,133.138 193.886,133.797 194.229 C 134.455 194.572,136.075 195.104,137.397 195.411 C 138.718 195.718,141.060 196.329,142.600 196.767 C 175.272 206.073,224.728 206.073,257.400 196.767 C 258.940 196.329,261.282 195.718,262.603 195.411 C 263.925 195.104,265.545 194.572,266.203 194.229 C 266.862 193.886,267.611 193.604,267.868 193.602 C 268.622 193.598,277.206 190.154,277.705 189.655 C 277.955 189.405,278.454 189.200,278.813 189.200 C 279.409 189.200,283.735 187.065,287.858 184.736 C 296.031 180.119,297.318 179.256,303.000 174.590 C 309.216 169.484,314.893 163.164,317.542 158.400 C 320.046 153.897,322.348 148.969,322.961 146.800 C 323.365 145.370,323.940 143.390,324.238 142.400 C 325.084 139.598,325.676 131.815,325.382 127.381 C 325.120 123.424,325.132 123.342,326.193 122.081 C 327.823 120.145,330.554 120.936,331.396 123.588 C 331.538 124.034,331.804 124.400,331.987 124.400 C 332.399 124.400,333.604 126.367,335.907 130.800 C 336.878 132.670,337.991 134.740,338.381 135.400 C 339.248 136.870,341.857 143.354,342.244 145.000 C 342.400 145.660,342.750 146.560,343.024 147.000 C 343.298 147.440,343.640 148.430,343.785 149.200 C 343.931 149.970,344.303 151.500,344.612 152.600 C 347.809 163.966,348.601 174.202,347.238 186.534 C 346.780 190.677,346.306 194.229,346.184 194.425 C 346.063 194.622,345.720 196.002,345.423 197.492 C 344.469 202.274,341.264 212.008,339.616 215.129 C 339.421 215.498,338.596 217.150,337.781 218.800 C 336.465 221.468,334.989 224.161,332.663 228.139 C 332.258 228.833,331.522 229.850,331.027 230.400 C 330.532 230.950,329.705 232.105,329.190 232.967 C 327.112 236.439,319.053 245.872,314.600 250.045 C 311.270 253.166,305.217 258.372,304.074 259.098 C 303.483 259.474,302.910 259.882,302.800 260.005 C 302.312 260.552,295.196 265.600,294.914 265.600 C 294.741 265.600,293.339 266.502,291.800 267.605 C 289.231 269.444,288.535 269.859,286.800 270.587 C 286.470 270.725,285.480 271.270,284.600 271.797 C 283.195 272.639,276.004 276.242,273.800 277.207 C 273.360 277.400,271.793 278.107,270.317 278.779 C 268.841 279.450,267.429 280.000,267.178 280.000 C 266.928 280.000,266.246 280.256,265.662 280.569 C 265.078 280.882,263.610 281.437,262.400 281.803 C 261.190 282.169,259.120 282.873,257.800 283.367 C 256.480 283.861,254.140 284.641,252.600 285.100 C 251.060 285.558,248.810 286.229,247.600 286.591 C 241.179 288.508,227.081 290.973,216.400 292.047 C 198.503 293.846,165.160 291.005,152.600 286.611 C 151.720 286.303,150.333 285.943,149.517 285.811 C 148.701 285.678,147.531 285.308,146.917 284.988 C 146.303 284.667,145.467 284.404,145.060 284.402 C 144.654 284.401,143.754 284.138,143.060 283.818 C 141.410 283.055,138.599 282.051,136.600 281.508 C 135.720 281.270,134.645 280.832,134.211 280.537 C 133.777 280.242,133.181 280.000,132.887 280.000 C 132.592 280.000,130.877 279.306,129.076 278.458 C 127.274 277.611,125.359 276.777,124.820 276.606 C 123.426 276.164,114.725 271.640,113.969 270.964 C 113.621 270.654,113.152 270.400,112.926 270.400 C 112.699 270.400,110.872 269.320,108.865 268.000 C 106.858 266.680,105.096 265.600,104.949 265.600 C 104.802 265.600,103.914 264.970,102.974 264.200 C 102.034 263.430,101.142 262.800,100.990 262.800 C 100.839 262.800,100.150 262.352,99.458 261.804 C 98.172 260.785,97.697 260.422,95.135 258.499 C 93.267 257.098,85.716 250.529,84.400 249.160 C 78.677 243.208,73.287 236.757,70.663 232.718 C 69.848 231.462,69.004 230.326,68.789 230.193 C 68.245 229.857,64.442 223.293,62.420 219.200 C 61.496 217.330,60.581 215.498,60.385 215.129 C 59.645 213.732,57.249 207.304,56.611 205.000 C 56.245 203.680,55.694 201.790,55.387 200.800 C 51.117 187.028,51.131 166.071,55.418 152.588 C 55.700 151.702,56.056 150.262,56.210 149.388 C 56.364 148.515,56.716 147.437,56.992 146.994 C 57.269 146.551,57.632 145.567,57.798 144.807 C 57.965 144.048,58.254 143.150,58.441 142.813 C 58.627 142.476,59.254 141.030,59.834 139.600 C 61.848 134.628,66.606 125.794,68.042 124.358 C 68.459 123.941,68.800 123.427,68.800 123.216 C 68.800 121.191,72.677 120.212,74.013 121.900 " stroke="none" fill="#94aff6" fill-rule="evenodd"></path><path id="path3" d="M72.322 121.885 C 72.845 121.985,73.411 122.504,73.633 123.086 C 73.847 123.650,74.114 124.019,74.226 123.907 C 74.796 123.337,73.418 121.603,72.436 121.654 C 71.464 121.706,71.457 121.720,72.322 121.885 M326.588 122.159 C 325.906 122.658,325.792 123.485,325.532 129.845 C 324.818 147.329,320.191 158.237,308.591 169.784 C 306.040 172.323,303.793 174.400,303.597 174.400 C 303.402 174.400,302.197 175.264,300.921 176.321 C 298.813 178.065,297.616 178.892,292.600 182.065 C 291.009 183.072,287.982 184.754,283.400 187.179 C 279.495 189.246,272.419 192.265,269.229 193.226 C 267.595 193.718,265.795 194.363,265.229 194.658 C 264.663 194.953,263.937 195.196,263.615 195.198 C 262.761 195.201,251.633 198.359,250.050 199.048 C 249.308 199.370,246.518 199.891,243.850 200.204 C 241.183 200.518,237.560 201.043,235.800 201.373 C 219.234 204.472,182.333 204.481,164.212 201.391 C 161.125 200.865,157.160 200.344,155.400 200.234 C 152.290 200.039,152.267 200.044,154.581 200.412 C 155.891 200.621,157.511 200.963,158.181 201.173 C 158.851 201.383,160.480 201.666,161.800 201.803 C 163.120 201.939,165.427 202.314,166.928 202.636 C 168.428 202.958,173.018 203.403,177.128 203.623 C 181.237 203.844,186.130 204.197,188.000 204.409 C 192.404 204.907,209.893 204.907,213.000 204.409 C 214.320 204.198,218.820 203.837,223.000 203.608 C 227.180 203.380,231.680 202.944,233.000 202.639 C 234.320 202.335,236.651 201.958,238.180 201.803 C 239.710 201.647,241.412 201.348,241.963 201.138 C 242.515 200.928,244.408 200.576,246.170 200.355 C 247.932 200.134,249.569 199.792,249.807 199.594 C 250.045 199.397,251.041 199.119,252.020 198.978 C 252.999 198.837,254.880 198.398,256.200 198.003 C 257.520 197.609,259.950 196.900,261.600 196.428 C 263.250 195.956,265.140 195.379,265.800 195.146 C 266.460 194.913,267.900 194.458,269.000 194.135 C 271.081 193.525,271.429 193.392,274.400 192.073 C 275.390 191.634,276.589 191.160,277.064 191.022 C 277.539 190.883,278.146 190.506,278.413 190.185 C 278.680 189.863,279.202 189.600,279.574 189.600 C 280.354 189.600,289.435 185.000,292.200 183.204 C 292.860 182.775,293.931 182.126,294.580 181.760 C 295.230 181.395,296.008 180.850,296.309 180.548 C 296.610 180.247,296.997 180.000,297.167 180.000 C 297.338 180.000,297.867 179.685,298.343 179.300 C 298.818 178.915,299.673 178.240,300.242 177.800 C 300.812 177.360,301.736 176.595,302.297 176.100 C 302.858 175.605,303.471 175.200,303.660 175.200 C 304.542 175.200,316.000 163.115,316.000 162.185 C 316.000 162.001,316.343 161.480,316.761 161.026 C 318.479 159.163,323.429 149.406,323.804 147.145 C 323.963 146.185,324.279 145.046,324.507 144.613 C 325.295 143.116,326.130 135.775,326.230 129.470 C 326.315 124.106,326.437 123.022,327.027 122.370 C 327.847 121.464,327.661 121.374,326.588 122.159 M68.920 123.606 C 64.194 128.067,57.168 144.317,54.027 158.055 C 50.025 175.553,53.441 203.241,61.232 216.455 C 61.888 217.568,62.839 219.495,63.344 220.739 C 64.413 223.369,66.249 226.400,66.773 226.400 C 66.973 226.400,67.255 226.940,67.400 227.600 C 67.545 228.260,68.279 229.537,69.032 230.438 C 69.784 231.339,70.400 232.210,70.400 232.374 C 70.400 232.538,71.210 233.530,72.200 234.578 C 73.190 235.626,74.000 236.310,74.000 236.097 C 74.000 235.739,71.873 232.865,71.267 232.403 C 71.120 232.291,70.820 231.903,70.600 231.541 C 70.380 231.178,69.632 230.070,68.939 229.078 C 68.245 228.087,67.558 226.898,67.412 226.438 C 67.266 225.977,67.004 225.600,66.830 225.600 C 66.381 225.600,59.600 211.916,59.600 211.011 C 59.600 210.599,59.360 209.979,59.066 209.631 C 58.458 208.912,57.014 204.588,56.585 202.200 C 56.426 201.320,56.072 200.150,55.797 199.600 C 53.514 195.032,52.253 166.517,54.108 161.400 C 54.427 160.520,54.822 158.720,54.985 157.400 C 55.149 156.081,55.511 154.551,55.789 154.000 C 56.068 153.450,56.426 152.100,56.585 151.000 C 56.745 149.900,57.015 148.820,57.185 148.600 C 57.356 148.380,57.715 147.480,57.982 146.600 C 58.250 145.720,58.723 144.433,59.034 143.740 C 59.346 143.046,59.600 142.360,59.600 142.215 C 59.600 141.549,65.882 128.588,66.975 127.000 C 67.429 126.340,68.492 124.945,69.337 123.900 C 71.203 121.594,71.117 121.532,68.920 123.606 M330.800 123.959 C 330.800 124.176,331.115 124.591,331.500 124.881 C 331.885 125.170,332.500 125.945,332.867 126.603 C 333.771 128.226,337.572 135.911,338.207 137.400 C 338.489 138.060,339.165 139.590,339.711 140.800 C 341.770 145.367,342.000 145.935,342.002 146.460 C 342.004 146.757,342.263 147.494,342.578 148.098 C 342.893 148.702,343.275 150.052,343.427 151.098 C 343.579 152.144,343.932 153.450,344.211 154.000 C 344.489 154.551,344.851 156.081,345.015 157.400 C 345.178 158.720,345.573 160.520,345.892 161.400 C 347.774 166.593,346.473 195.191,344.151 199.662 C 343.848 200.246,343.592 201.146,343.582 201.662 C 343.573 202.178,343.290 203.320,342.954 204.200 C 342.618 205.080,342.143 206.520,341.898 207.400 C 341.654 208.280,341.217 209.238,340.927 209.529 C 340.637 209.819,340.400 210.415,340.400 210.853 C 340.400 211.555,338.958 215.139,338.008 216.800 C 337.819 217.130,336.824 219.052,335.797 221.070 C 334.770 223.089,333.585 225.051,333.165 225.432 C 332.744 225.813,332.400 226.383,332.400 226.700 C 332.400 228.925,338.900 217.297,341.735 209.999 C 350.151 188.341,349.527 159.828,340.208 140.189 C 339.425 138.539,338.445 136.337,338.030 135.295 C 337.276 133.399,334.773 128.462,333.416 126.196 C 332.633 124.887,330.800 123.319,330.800 123.959 M73.777 125.748 C 73.140 128.285,74.250 141.039,75.383 144.200 C 75.698 145.080,76.083 146.510,76.237 147.377 C 76.619 149.524,81.618 159.268,83.239 161.026 C 83.657 161.480,84.000 162.001,84.000 162.185 C 84.000 163.115,95.458 175.200,96.340 175.200 C 96.529 175.200,97.142 175.605,97.703 176.100 C 98.264 176.595,99.188 177.360,99.758 177.800 C 100.327 178.240,101.182 178.915,101.657 179.300 C 102.133 179.685,102.662 180.000,102.833 180.000 C 103.003 180.000,103.390 180.247,103.691 180.548 C 103.992 180.850,104.770 181.395,105.420 181.760 C 106.069 182.126,107.140 182.775,107.800 183.204 C 110.565 185.000,119.646 189.600,120.426 189.600 C 120.798 189.600,121.320 189.863,121.587 190.185 C 121.854 190.506,122.461 190.883,122.936 191.022 C 123.411 191.160,124.610 191.634,125.600 192.073 C 128.571 193.392,128.919 193.525,131.000 194.135 C 132.100 194.458,133.540 194.913,134.200 195.146 C 134.860 195.379,136.750 195.956,138.400 196.428 C 140.050 196.900,142.480 197.609,143.800 198.003 C 145.120 198.398,147.001 198.837,147.980 198.978 C 148.959 199.119,149.988 199.424,150.267 199.655 C 150.545 199.887,150.982 200.006,151.237 199.921 C 152.191 199.603,138.366 195.206,136.385 195.198 C 136.063 195.196,135.337 194.953,134.771 194.658 C 134.205 194.363,132.405 193.721,130.771 193.233 C 125.541 191.669,114.112 186.285,108.400 182.693 C 102.328 178.874,100.435 177.586,99.155 176.399 C 98.410 175.708,97.304 174.880,96.697 174.560 C 94.427 173.359,86.917 165.320,84.150 161.129 C 76.880 150.115,74.221 141.272,74.459 128.898 C 74.531 125.141,74.252 123.855,73.777 125.748 M330.650 229.584 C 329.852 230.694,329.200 231.681,329.200 231.779 C 329.200 231.876,328.570 232.640,327.799 233.478 C 327.029 234.315,326.291 235.333,326.160 235.739 C 325.895 236.559,325.892 236.563,322.053 240.800 C 320.558 242.450,318.629 244.595,317.767 245.566 C 316.905 246.537,315.215 248.247,314.012 249.366 C 312.809 250.485,311.189 252.040,310.412 252.821 C 309.072 254.170,304.272 258.072,301.828 259.800 C 301.205 260.240,300.243 261.005,299.690 261.500 C 299.136 261.995,298.515 262.400,298.309 262.400 C 298.103 262.400,297.166 263.030,296.226 263.800 C 295.286 264.570,294.394 265.200,294.243 265.200 C 294.091 265.200,293.480 265.532,292.884 265.937 C 292.288 266.343,290.990 267.198,290.000 267.837 C 289.010 268.477,287.962 269.225,287.671 269.500 C 287.381 269.775,286.805 270.000,286.391 270.000 C 285.978 270.000,285.496 270.232,285.320 270.516 C 284.912 271.174,277.622 274.811,276.724 274.805 C 276.352 274.802,275.936 274.980,275.800 275.199 C 275.348 275.931,265.685 280.119,262.400 281.007 C 261.850 281.155,259.826 281.889,257.903 282.638 C 255.979 283.387,253.999 284.001,253.503 284.002 C 253.006 284.004,252.100 284.266,251.490 284.584 C 250.879 284.903,249.393 285.346,248.188 285.568 C 246.983 285.791,245.683 286.141,245.299 286.346 C 244.914 286.551,243.520 286.849,242.200 287.009 C 240.880 287.168,239.080 287.536,238.200 287.826 C 236.316 288.448,230.397 289.487,225.600 290.037 C 223.730 290.252,220.850 290.623,219.200 290.861 C 214.244 291.577,203.970 291.963,194.000 291.810 C 183.424 291.646,183.540 291.801,194.417 292.365 C 212.804 293.317,231.018 290.984,253.400 284.811 C 259.450 283.143,272.820 277.893,274.979 276.337 C 275.847 275.712,276.837 275.200,277.179 275.200 C 278.174 275.200,285.080 271.594,289.066 268.992 C 291.082 267.677,294.047 265.790,295.654 264.800 C 299.351 262.522,302.427 260.425,303.200 259.654 C 303.530 259.326,305.420 257.752,307.400 256.159 C 313.298 251.412,322.250 242.345,325.076 238.257 C 325.859 237.126,326.995 235.660,327.602 235.000 C 328.600 233.915,329.516 232.617,331.748 229.131 C 333.041 227.110,332.168 227.471,330.650 229.584 M74.797 238.100 C 78.198 243.730,93.676 257.894,103.000 263.909 C 105.200 265.328,107.990 267.161,109.200 267.981 C 111.185 269.326,113.256 270.498,119.941 274.060 C 121.118 274.687,122.362 275.200,122.706 275.200 C 123.049 275.200,124.186 275.749,125.232 276.421 C 127.704 278.007,135.800 281.357,140.800 282.862 C 141.570 283.094,142.380 283.425,142.600 283.599 C 143.741 284.501,167.386 290.001,173.400 290.763 C 175.160 290.986,178.310 291.269,180.400 291.391 C 185.973 291.716,183.608 290.935,177.399 290.400 C 174.640 290.162,172.135 289.873,171.834 289.758 C 171.533 289.642,169.332 289.206,166.944 288.789 C 160.156 287.603,155.092 286.557,154.000 286.114 C 153.450 285.891,152.149 285.584,151.109 285.431 C 150.069 285.279,149.124 285.000,149.007 284.812 C 148.891 284.624,148.032 284.343,147.098 284.189 C 146.164 284.035,143.870 283.314,142.000 282.587 C 140.130 281.859,137.970 281.081,137.200 280.857 C 134.994 280.214,132.343 279.222,130.574 278.377 C 129.679 277.950,128.756 277.600,128.523 277.600 C 128.289 277.600,127.874 277.330,127.600 277.000 C 127.326 276.670,126.788 276.400,126.405 276.400 C 126.022 276.400,125.250 276.040,124.691 275.600 C 124.131 275.160,123.416 274.800,123.101 274.800 C 122.389 274.800,117.696 272.479,117.383 271.972 C 117.256 271.767,116.831 271.600,116.438 271.600 C 116.045 271.600,115.398 271.240,115.000 270.800 C 114.602 270.360,114.066 270.000,113.808 270.000 C 113.551 270.000,111.701 268.920,109.697 267.600 C 107.694 266.280,105.933 265.200,105.784 265.200 C 105.636 265.200,104.610 264.480,103.505 263.600 C 102.400 262.720,101.314 262.000,101.092 262.000 C 100.870 262.000,100.488 261.759,100.244 261.464 C 100.000 261.170,98.083 259.656,95.985 258.100 C 93.887 256.545,90.847 253.992,89.229 252.428 C 87.611 250.864,85.728 249.085,85.044 248.474 C 84.360 247.863,83.097 246.562,82.237 245.582 C 81.378 244.602,79.550 242.605,78.175 241.145 C 76.801 239.684,75.472 238.109,75.224 237.645 C 74.975 237.180,74.601 236.800,74.392 236.800 C 74.183 236.800,74.365 237.385,74.797 238.100 " stroke="none" fill="#7494e9" fill-rule="evenodd"></path><path id="path4" d="M70.159 121.530 C 69.696 121.917,69.088 122.676,68.807 123.217 C 68.310 124.174,68.328 124.170,69.486 123.085 C 72.196 120.544,74.108 121.347,74.522 125.200 C 74.650 126.395,74.681 126.330,74.736 124.754 C 74.850 121.455,72.353 119.696,70.159 121.530 M326.236 122.031 C 325.367 123.063,325.209 123.627,325.255 125.531 L 325.309 127.800 325.600 125.235 C 326.000 121.698,327.501 120.827,329.800 122.796 C 331.313 124.092,331.738 124.206,331.181 123.165 C 329.829 120.638,327.799 120.173,326.236 122.031 M338.671 136.900 C 339.304 138.520,340.400 140.446,340.400 139.939 C 340.400 139.497,338.413 135.200,338.208 135.200 C 338.097 135.200,338.305 135.965,338.671 136.900 M76.448 146.000 C 76.442 146.330,76.683 147.140,76.986 147.800 C 77.693 149.345,77.703 148.626,77.000 146.800 C 76.703 146.030,76.455 145.670,76.448 146.000 M322.880 147.080 C 322.288 149.009,322.575 149.295,323.200 147.400 C 323.464 146.601,323.602 145.869,323.507 145.774 C 323.412 145.678,323.130 146.266,322.880 147.080 M87.570 165.899 C 88.506 167.053,89.481 168.123,89.736 168.276 C 90.397 168.671,89.280 167.273,87.439 165.400 L 85.867 163.800 87.570 165.899 M312.381 165.500 C 310.569 167.465,309.685 168.622,310.264 168.276 C 310.774 167.970,314.168 164.000,313.920 164.000 C 313.835 164.000,313.142 164.675,312.381 165.500 M52.131 173.400 C 52.133 174.940,52.205 175.521,52.292 174.691 C 52.379 173.861,52.377 172.601,52.289 171.891 C 52.200 171.181,52.129 171.860,52.131 173.400 M347.731 173.400 C 347.733 174.940,347.805 175.521,347.892 174.691 C 347.979 173.861,347.977 172.601,347.889 171.891 C 347.800 171.181,347.729 171.860,347.731 173.400 M94.367 172.956 C 94.679 173.334,95.309 173.843,95.767 174.087 C 96.525 174.491,96.549 174.469,96.033 173.844 C 95.721 173.466,95.091 172.957,94.633 172.713 C 93.875 172.309,93.851 172.331,94.367 172.956 M304.522 173.424 C 303.705 174.170,303.626 174.339,304.233 174.046 C 305.063 173.645,306.302 172.400,305.871 172.400 C 305.747 172.400,305.140 172.861,304.522 173.424 M52.101 179.800 C 52.105 180.680,52.187 180.993,52.283 180.495 C 52.379 179.998,52.375 179.278,52.275 178.895 C 52.175 178.513,52.096 178.920,52.101 179.800 M347.701 179.800 C 347.705 180.680,347.787 180.993,347.883 180.495 C 347.979 179.998,347.975 179.278,347.875 178.895 C 347.775 178.513,347.696 178.920,347.701 179.800 M150.400 199.195 C 151.170 199.619,152.520 199.962,153.400 199.956 L 155.000 199.946 153.382 199.440 C 152.492 199.161,151.142 198.818,150.382 198.678 L 149.000 198.423 150.400 199.195 M248.000 199.035 C 244.958 199.841,244.677 200.041,246.913 199.809 C 247.966 199.701,249.316 199.346,249.913 199.022 C 251.266 198.287,250.812 198.291,248.000 199.035 M169.700 202.276 C 170.085 202.376,170.715 202.376,171.100 202.276 C 171.485 202.175,171.170 202.093,170.400 202.093 C 169.630 202.093,169.315 202.175,169.700 202.276 M228.900 202.276 C 229.285 202.376,229.915 202.376,230.300 202.276 C 230.685 202.175,230.370 202.093,229.600 202.093 C 228.830 202.093,228.515 202.175,228.900 202.276 M61.203 216.890 C 61.201 217.050,61.559 217.770,61.999 218.490 C 62.438 219.211,62.796 219.620,62.796 219.400 C 62.795 219.180,62.437 218.460,62.000 217.800 C 61.563 217.140,61.204 216.731,61.203 216.890 M333.490 225.901 C 332.824 226.637,331.876 228.800,332.220 228.800 C 332.330 228.800,332.594 228.395,332.806 227.900 C 333.018 227.405,333.486 226.595,333.845 226.100 C 334.619 225.033,334.391 224.905,333.490 225.901 M66.726 227.199 C 67.088 227.831,67.426 228.307,67.477 228.257 C 67.739 227.995,67.048 226.427,66.594 226.253 C 66.211 226.106,66.248 226.367,66.726 227.199 M73.200 236.400 C 73.897 237.280,74.536 238.000,74.620 238.000 C 75.016 238.000,73.088 235.243,72.548 235.035 C 72.209 234.905,72.502 235.519,73.200 236.400 M326.400 236.400 C 325.703 237.280,325.223 238.000,325.333 238.000 C 325.443 238.000,326.103 237.280,326.800 236.400 C 327.497 235.520,327.977 234.800,327.867 234.800 C 327.757 234.800,327.097 235.520,326.400 236.400 M85.000 249.854 C 85.220 250.048,86.029 250.745,86.799 251.403 L 88.197 252.600 87.199 251.463 C 86.649 250.838,85.840 250.141,85.400 249.914 C 84.960 249.688,84.780 249.661,85.000 249.854 M313.476 250.900 C 312.230 252.133,312.225 252.149,313.381 251.203 C 314.052 250.655,314.771 250.070,314.980 249.903 C 315.189 249.736,315.231 249.600,315.074 249.600 C 314.917 249.600,314.198 250.185,313.476 250.900 M92.524 256.277 C 92.860 256.821,96.000 259.355,96.000 259.082 C 96.000 258.980,95.153 258.203,94.119 257.355 C 93.084 256.507,92.366 256.022,92.524 256.277 M305.600 257.654 L 303.800 259.285 305.494 258.013 C 306.968 256.907,307.914 255.974,307.524 256.012 C 307.456 256.019,306.590 256.758,305.600 257.654 M296.000 264.600 C 295.255 265.150,294.815 265.594,295.022 265.586 C 295.424 265.570,297.955 263.605,297.578 263.602 C 297.455 263.601,296.745 264.050,296.000 264.600 M290.153 268.241 C 286.985 270.359,286.934 270.400,287.461 270.400 C 287.678 270.400,288.772 269.725,289.892 268.900 C 291.012 268.075,292.259 267.186,292.664 266.924 C 293.069 266.661,293.289 266.436,293.153 266.424 C 293.017 266.411,291.667 267.228,290.153 268.241 M117.000 272.800 C 117.660 273.237,118.380 273.595,118.600 273.596 C 118.820 273.596,118.411 273.238,117.690 272.799 C 115.992 271.763,115.436 271.764,117.000 272.800 M123.000 275.792 C 124.100 276.331,125.180 276.775,125.400 276.779 C 126.169 276.793,123.389 275.296,122.200 275.056 C 121.313 274.876,121.522 275.068,123.000 275.792 M275.544 276.001 C 274.725 276.696,274.706 276.766,275.400 276.534 C 276.751 276.083,277.898 275.200,277.133 275.200 C 276.779 275.200,276.064 275.560,275.544 276.001 M158.909 288.173 C 159.739 288.470,161.269 288.814,162.309 288.940 C 163.943 289.136,163.819 289.062,161.400 288.393 C 158.198 287.507,156.662 287.372,158.909 288.173 M239.000 288.400 C 238.496 288.617,238.422 288.744,238.800 288.744 C 239.130 288.744,239.760 288.589,240.200 288.400 C 240.704 288.183,240.778 288.056,240.400 288.056 C 240.070 288.056,239.440 288.211,239.000 288.400 M181.700 291.887 C 182.305 291.978,183.295 291.978,183.900 291.887 C 184.505 291.795,184.010 291.720,182.800 291.720 C 181.590 291.720,181.095 291.795,181.700 291.887 M217.505 291.883 C 218.002 291.979,218.722 291.975,219.105 291.875 C 219.487 291.775,219.080 291.696,218.200 291.701 C 217.320 291.705,217.007 291.787,217.505 291.883 M187.491 292.289 C 188.201 292.377,189.461 292.379,190.291 292.292 C 191.121 292.205,190.540 292.133,189.000 292.131 C 187.460 292.129,186.781 292.200,187.491 292.289 M212.500 292.276 C 212.885 292.376,213.515 292.376,213.900 292.276 C 214.285 292.175,213.970 292.093,213.200 292.093 C 212.430 292.093,212.115 292.175,212.500 292.276 M197.700 292.676 C 198.085 292.776,198.715 292.776,199.100 292.676 C 199.485 292.575,199.170 292.493,198.400 292.493 C 197.630 292.493,197.315 292.575,197.700 292.676 " stroke="none" fill="#7c94e4" fill-rule="evenodd"></path></g></svg>