<svg id="svg" version="1.1" xmlns="http://www.w3.org/2000/svg" xmlns:xlink="http://www.w3.org/1999/xlink" width="400" height="400" viewBox="0, 0, 400,400"><g id="svgg"><path id="path0" d="M214.400 121.265 C 193.552 123.109,180.990 145.657,190.034 165.000 C 197.874 181.768,219.481 187.776,234.791 177.445 C 240.659 173.485,245.326 167.355,247.158 161.200 C 247.452 160.210,247.852 158.878,248.047 158.240 C 248.614 156.378,248.470 147.104,247.837 144.720 C 243.630 128.874,230.725 119.822,214.400 121.265 M47.200 153.798 L 47.200 184.795 77.900 184.898 L 108.600 185.000 108.702 231.500 L 108.803 278.000 139.802 278.000 L 170.800 278.000 170.800 200.400 L 170.800 122.800 109.000 122.800 L 47.200 122.800 47.200 153.798 M280.824 123.900 C 280.546 124.505,279.782 126.350,279.125 128.000 C 278.468 129.650,277.496 131.950,276.965 133.112 C 276.434 134.273,276.000 135.310,276.000 135.416 C 276.000 135.522,275.619 136.462,275.153 137.504 C 274.688 138.547,274.058 139.985,273.753 140.700 C 273.449 141.415,272.912 142.675,272.559 143.500 C 272.207 144.325,271.775 145.360,271.599 145.800 C 271.423 146.240,270.902 147.453,270.440 148.496 C 269.978 149.538,269.600 150.485,269.600 150.600 C 269.600 150.715,269.222 151.662,268.760 152.704 C 267.551 155.434,267.442 155.691,265.177 161.200 C 264.046 163.950,262.689 167.150,262.161 168.312 C 261.632 169.473,261.200 170.571,261.200 170.750 C 261.200 170.930,260.950 171.600,260.644 172.239 C 260.075 173.425,258.971 175.964,258.400 177.400 C 258.052 178.274,257.276 180.113,256.207 182.600 C 255.828 183.480,255.375 184.560,255.200 185.000 C 255.025 185.440,254.610 186.430,254.277 187.200 C 253.945 187.970,252.953 190.310,252.074 192.400 C 251.194 194.490,249.197 199.229,247.637 202.931 C 246.077 206.633,244.800 209.734,244.800 209.821 C 244.800 210.045,242.469 215.255,241.994 216.095 C 241.777 216.477,241.600 216.974,241.600 217.199 C 241.600 217.424,241.219 218.462,240.753 219.504 C 240.288 220.547,239.658 221.985,239.353 222.700 C 238.277 225.228,237.514 227.010,237.169 227.800 C 236.977 228.240,234.998 233.010,232.771 238.400 C 228.839 247.918,228.417 248.926,227.047 252.100 C 225.855 254.863,225.121 256.594,224.800 257.400 C 224.625 257.840,224.172 258.920,223.793 259.800 C 222.737 262.255,221.951 264.119,221.599 265.000 C 221.423 265.440,220.902 266.653,220.440 267.696 C 219.978 268.738,219.600 269.685,219.600 269.800 C 219.600 269.915,219.219 270.862,218.753 271.904 C 216.647 276.618,216.400 277.215,216.400 277.596 C 216.400 277.865,228.311 278.000,252.102 278.000 L 287.805 278.000 288.368 276.700 C 288.678 275.985,289.105 274.950,289.317 274.400 C 289.528 273.850,290.061 272.590,290.501 271.600 C 290.941 270.610,291.440 269.440,291.610 269.000 C 291.897 268.255,292.267 267.376,293.800 263.800 C 294.130 263.030,294.670 261.770,295.000 261.000 C 295.330 260.230,295.853 259.015,296.162 258.300 C 296.471 257.585,298.024 253.850,299.613 250.000 C 302.398 243.255,305.648 235.462,306.371 233.800 C 306.562 233.360,307.007 232.325,307.359 231.500 C 307.712 230.675,308.288 229.325,308.641 228.500 C 308.993 227.675,309.425 226.640,309.601 226.200 C 309.777 225.760,310.298 224.547,310.760 223.504 C 311.222 222.462,311.600 221.515,311.600 221.400 C 311.600 221.285,311.960 220.383,312.400 219.396 C 312.840 218.408,313.560 216.792,314.000 215.804 C 314.440 214.817,314.800 213.915,314.800 213.800 C 314.800 213.685,315.137 212.828,315.548 211.896 C 315.960 210.963,316.783 209.030,317.376 207.600 C 317.970 206.170,318.615 204.640,318.810 204.200 C 319.005 203.760,319.639 202.230,320.220 200.800 C 320.801 199.370,321.529 197.615,321.838 196.900 C 324.010 191.876,324.714 190.221,325.241 188.900 C 325.438 188.405,325.762 187.595,325.960 187.100 C 326.158 186.605,326.698 185.347,327.160 184.304 C 327.622 183.262,328.000 182.315,328.000 182.200 C 328.000 182.085,328.381 181.138,328.847 180.096 C 330.292 176.859,332.892 170.727,337.197 160.400 C 338.343 157.650,339.736 154.320,340.292 153.000 C 340.848 151.680,341.528 150.060,341.804 149.400 C 342.079 148.740,342.618 147.480,343.000 146.600 C 343.382 145.720,343.963 144.370,344.291 143.600 C 344.619 142.830,345.138 141.677,345.444 141.039 C 345.750 140.400,346.000 139.730,346.000 139.550 C 346.000 139.371,346.431 138.273,346.957 137.112 C 347.708 135.456,351.659 125.937,352.690 123.300 C 352.846 122.902,345.567 122.800,317.107 122.800 L 281.328 122.800 280.824 123.900 " stroke="none" fill="#fbfbfb" fill-rule="evenodd"></path><path id="path1" d="M0.000 200.000 L 0.000 400.000 200.000 400.000 L 400.000 400.000 400.000 200.000 L 400.000 0.000 200.000 0.000 L 0.000 0.000 0.000 200.000 M220.836 120.413 C 244.794 123.351,257.112 149.419,243.923 169.265 C 235.475 181.976,218.560 186.687,204.400 180.273 C 199.534 178.068,191.625 170.558,190.529 167.100 C 190.407 166.715,190.148 166.400,189.953 166.400 C 189.759 166.400,189.600 166.135,189.600 165.812 C 189.600 165.489,189.277 164.634,188.881 163.912 C 188.200 162.667,187.824 161.539,186.832 157.754 C 186.277 155.637,186.273 147.984,186.826 145.846 C 187.859 141.853,188.123 141.079,189.370 138.400 C 193.839 128.799,202.794 122.220,213.600 120.598 C 215.470 120.317,217.106 120.068,217.236 120.044 C 217.366 120.020,218.986 120.186,220.836 120.413 M171.200 200.400 L 171.200 278.400 139.800 278.400 L 108.400 278.400 108.400 232.002 L 108.400 185.605 77.700 185.502 L 47.000 185.400 46.898 153.900 L 46.795 122.400 108.998 122.400 L 171.200 122.400 171.200 200.400 M353.264 123.381 C 353.189 123.811,352.803 124.891,352.405 125.781 C 352.008 126.672,351.106 128.840,350.400 130.600 C 349.695 132.360,348.576 135.060,347.915 136.600 C 346.049 140.946,345.544 142.136,345.200 143.000 C 345.025 143.440,344.593 144.475,344.241 145.300 C 343.888 146.125,343.312 147.475,342.959 148.300 C 342.607 149.125,342.175 150.160,342.000 150.600 C 341.825 151.040,341.393 152.075,341.041 152.900 C 340.688 153.725,340.112 155.075,339.759 155.900 C 339.407 156.725,338.975 157.760,338.799 158.200 C 338.623 158.640,338.102 159.853,337.640 160.896 C 337.178 161.938,336.800 162.878,336.800 162.984 C 336.800 163.090,336.368 164.127,335.839 165.288 C 335.310 166.450,333.852 169.920,332.599 173.000 C 331.345 176.080,330.050 179.230,329.719 180.000 C 329.389 180.770,328.980 181.760,328.810 182.200 C 328.640 182.640,328.096 183.900,327.600 185.000 C 327.104 186.100,326.520 187.450,326.303 188.000 C 326.085 188.550,325.748 189.313,325.553 189.695 C 325.359 190.077,325.200 190.662,325.200 190.995 C 325.200 191.328,325.020 191.600,324.800 191.600 C 324.580 191.600,324.400 191.872,324.400 192.205 C 324.400 192.538,324.240 193.123,324.044 193.505 C 323.403 194.755,322.093 197.770,321.570 199.200 C 321.289 199.970,320.658 201.500,320.168 202.600 C 319.678 203.700,318.282 207.030,317.066 210.000 C 314.345 216.640,312.911 219.985,312.395 220.895 C 312.178 221.277,312.000 221.774,312.000 221.999 C 312.000 222.381,311.558 223.446,309.509 228.000 C 309.063 228.990,308.560 230.160,308.390 230.600 C 308.220 231.040,307.793 232.075,307.441 232.900 C 307.088 233.725,306.512 235.075,306.159 235.900 C 305.807 236.725,305.375 237.760,305.200 238.200 C 305.025 238.640,304.607 239.630,304.272 240.400 C 303.937 241.170,303.274 242.790,302.800 244.000 C 302.326 245.210,301.693 246.740,301.394 247.400 C 301.095 248.060,300.377 249.770,299.800 251.200 C 299.222 252.630,298.401 254.563,297.975 255.496 C 297.549 256.428,297.200 257.285,297.200 257.400 C 297.200 257.515,296.822 258.462,296.360 259.504 C 295.898 260.547,295.381 261.760,295.211 262.200 C 295.041 262.640,294.496 263.900,294.000 265.000 C 293.082 267.036,292.527 268.368,291.997 269.800 C 291.834 270.240,291.296 271.500,290.800 272.600 C 290.304 273.700,289.766 274.960,289.603 275.400 C 289.440 275.840,289.073 276.695,288.786 277.300 L 288.265 278.400 252.156 278.400 C 232.286 278.400,215.951 278.244,215.833 278.054 C 215.654 277.764,218.570 270.227,220.613 265.700 C 221.197 264.406,221.458 263.789,223.194 259.600 C 223.696 258.390,224.465 256.590,224.904 255.600 C 225.342 254.610,225.840 253.440,226.010 253.000 C 226.180 252.560,226.607 251.525,226.959 250.700 C 227.312 249.875,227.888 248.525,228.241 247.700 C 228.593 246.875,229.023 245.840,229.196 245.400 C 229.369 244.960,229.965 243.520,230.520 242.200 C 231.075 240.880,232.374 237.730,233.406 235.200 C 234.438 232.670,235.714 229.650,236.241 228.488 C 236.768 227.327,237.200 226.290,237.200 226.184 C 237.200 226.078,237.578 225.138,238.040 224.096 C 238.502 223.053,239.023 221.840,239.199 221.400 C 239.375 220.960,239.807 219.925,240.159 219.100 C 240.512 218.275,241.088 216.925,241.441 216.100 C 241.793 215.275,242.225 214.240,242.400 213.800 C 242.748 212.926,243.524 211.087,244.593 208.600 C 244.972 207.720,245.425 206.640,245.600 206.200 C 245.775 205.760,246.190 204.770,246.523 204.000 C 246.856 203.230,248.055 200.350,249.188 197.600 C 251.519 191.944,251.673 191.574,252.559 189.500 C 252.912 188.675,253.488 187.325,253.841 186.500 C 254.193 185.675,254.620 184.640,254.790 184.200 C 254.960 183.760,255.504 182.500,256.000 181.400 C 256.496 180.300,257.080 178.950,257.297 178.400 C 257.515 177.850,257.852 177.087,258.047 176.705 C 258.241 176.323,258.400 175.738,258.400 175.405 C 258.400 175.072,258.580 174.800,258.800 174.800 C 259.020 174.800,259.200 174.457,259.200 174.038 C 259.200 173.619,259.544 172.584,259.963 171.738 C 260.976 169.699,262.400 166.462,262.400 166.200 C 262.400 166.085,262.742 165.228,263.161 164.296 C 263.580 163.363,264.820 160.440,265.918 157.800 C 270.739 146.204,272.292 142.504,273.847 138.900 C 274.818 136.651,275.644 134.696,276.000 133.800 C 276.175 133.360,276.607 132.325,276.959 131.500 C 277.312 130.675,277.888 129.325,278.241 128.500 C 278.593 127.675,279.025 126.640,279.200 126.200 C 279.375 125.760,279.816 124.724,280.179 123.898 L 280.840 122.396 317.120 122.498 C 352.864 122.598,353.398 122.612,353.264 123.381 " stroke="none" fill="#141424" fill-rule="evenodd"></path><path id="path2" d="M222.833 120.943 C 222.925 121.022,223.720 121.197,224.600 121.332 C 225.690 121.499,226.009 121.455,225.600 121.195 C 225.053 120.846,222.445 120.609,222.833 120.943 M239.800 129.600 C 240.659 130.480,241.452 131.200,241.562 131.200 C 241.672 131.200,241.059 130.480,240.200 129.600 C 239.341 128.720,238.548 128.000,238.438 128.000 C 238.328 128.000,238.941 128.720,239.800 129.600 M350.036 130.500 C 349.847 130.995,349.221 132.555,348.647 133.967 C 348.072 135.379,347.668 136.602,347.751 136.684 C 347.833 136.766,348.211 136.061,348.591 135.117 C 350.432 130.543,350.773 129.600,350.584 129.600 C 350.472 129.600,350.225 130.005,350.036 130.500 M246.126 138.773 C 246.820 140.298,247.457 141.476,247.541 141.392 C 247.725 141.208,245.322 136.000,245.053 136.000 C 244.949 136.000,245.432 137.248,246.126 138.773 M272.200 142.661 C 271.864 143.465,271.682 144.215,271.795 144.328 C 271.908 144.441,272.000 144.435,272.000 144.316 C 272.000 144.196,272.272 143.446,272.605 142.649 C 272.938 141.852,273.121 141.200,273.011 141.200 C 272.901 141.200,272.536 141.858,272.200 142.661 M187.449 143.015 C 187.312 143.373,187.215 143.966,187.234 144.333 C 187.253 144.700,187.427 144.469,187.621 143.820 C 187.998 142.558,187.865 141.933,187.449 143.015 M248.493 146.000 C 248.493 146.770,248.575 147.085,248.676 146.700 C 248.776 146.315,248.776 145.685,248.676 145.300 C 248.575 144.915,248.493 145.230,248.493 146.000 M186.656 146.484 C 186.521 146.988,186.441 149.560,186.479 152.200 L 186.547 157.000 186.783 151.400 C 187.037 145.374,187.029 145.092,186.656 146.484 M270.286 147.283 C 270.169 147.567,269.784 148.475,269.431 149.300 C 269.078 150.125,268.873 150.800,268.976 150.800 C 269.243 150.800,270.841 147.108,270.654 146.921 C 270.569 146.835,270.403 146.998,270.286 147.283 M187.206 159.233 C 187.209 159.765,187.389 160.470,187.606 160.800 C 187.882 161.222,187.923 160.985,187.742 160.000 C 187.425 158.275,187.198 157.949,187.206 159.233 M246.657 163.484 C 246.523 163.878,246.236 164.605,246.019 165.100 C 245.379 166.564,245.903 166.125,246.634 164.586 C 247.003 163.808,247.214 163.081,247.103 162.970 C 246.992 162.859,246.792 163.090,246.657 163.484 M244.653 167.700 L 243.933 169.000 244.758 168.000 C 245.489 167.113,245.814 166.400,245.486 166.400 C 245.424 166.400,245.049 166.985,244.653 167.700 M242.467 170.777 C 241.770 171.644,241.200 172.467,241.200 172.607 C 241.200 172.836,242.033 171.880,243.558 169.900 C 244.652 168.482,243.692 169.252,242.467 170.777 M192.800 170.925 C 192.800 170.994,193.385 171.579,194.100 172.225 L 195.400 173.400 194.225 172.100 C 193.130 170.888,192.800 170.616,192.800 170.925 M197.000 175.200 C 197.859 176.080,198.652 176.800,198.762 176.800 C 198.872 176.800,198.259 176.080,197.400 175.200 C 196.541 174.320,195.748 173.600,195.638 173.600 C 195.528 173.600,196.141 174.320,197.000 175.200 M330.390 177.400 C 330.176 177.950,329.809 178.895,329.575 179.500 C 329.341 180.105,329.314 180.420,329.515 180.200 C 329.986 179.683,331.258 176.400,330.987 176.400 C 330.873 176.400,330.605 176.850,330.390 177.400 M202.400 179.164 C 202.950 179.614,203.580 179.983,203.800 179.985 C 204.228 179.988,203.505 179.434,202.200 178.760 C 201.669 178.485,201.736 178.621,202.400 179.164 M215.913 183.095 C 217.076 183.176,218.876 183.176,219.913 183.093 C 220.951 183.011,220.000 182.945,217.800 182.946 C 215.600 182.947,214.751 183.014,215.913 183.095 M62.530 185.500 C 71.071 185.560,84.931 185.560,93.330 185.500 C 101.728 185.440,94.740 185.390,77.800 185.390 C 60.860 185.390,53.988 185.440,62.530 185.500 M251.179 192.655 C 250.958 193.236,250.852 193.785,250.943 193.876 C 251.033 193.967,251.299 193.492,251.533 192.820 C 252.053 191.328,251.739 191.182,251.179 192.655 M315.396 213.072 C 315.058 213.881,314.833 214.700,314.897 214.891 C 314.961 215.082,315.316 214.420,315.687 213.419 C 316.493 211.245,316.270 210.979,315.396 213.072 M311.113 223.381 C 310.742 224.381,310.517 225.200,310.614 225.200 C 310.893 225.200,312.031 222.294,311.903 221.909 C 311.839 221.718,311.484 222.380,311.113 223.381 M235.638 229.700 C 235.449 230.195,235.004 231.297,234.648 232.149 C 233.944 233.831,233.809 234.567,234.385 233.585 C 234.991 232.549,236.401 228.800,236.184 228.800 C 236.072 228.800,235.826 229.205,235.638 229.700 M233.265 235.417 C 232.595 236.888,232.723 237.202,233.447 235.865 C 233.786 235.240,233.988 234.654,233.896 234.563 C 233.805 234.471,233.521 234.856,233.265 235.417 M299.867 250.067 C 299.505 250.988,299.274 251.807,299.354 251.888 C 299.434 251.968,299.800 251.283,300.167 250.367 C 300.533 249.450,300.764 248.631,300.679 248.546 C 300.594 248.461,300.229 249.145,299.867 250.067 M298.467 253.580 C 298.233 254.251,298.127 254.800,298.231 254.800 C 298.501 254.800,299.256 252.722,299.057 252.524 C 298.967 252.433,298.701 252.908,298.467 253.580 M123.870 278.300 C 132.489 278.360,146.709 278.360,155.470 278.300 C 164.232 278.240,157.180 278.191,139.800 278.190 C 122.420 278.190,115.252 278.240,123.870 278.300 M233.870 278.300 C 243.808 278.359,260.188 278.359,270.270 278.300 C 280.351 278.240,272.220 278.192,252.200 278.192 C 232.180 278.192,223.931 278.240,233.870 278.300 " stroke="none" fill="#6c6c74" fill-rule="evenodd"></path><path id="path3" d="M78.131 122.700 C 95.254 122.758,123.154 122.758,140.131 122.700 C 157.109 122.642,143.100 122.595,109.000 122.595 C 74.900 122.595,61.009 122.642,78.131 122.700 M299.300 122.700 C 309.145 122.759,325.255 122.759,335.100 122.700 C 344.945 122.640,336.890 122.592,317.200 122.592 C 297.510 122.592,289.455 122.640,299.300 122.700 " stroke="none" fill="#7c7c84" fill-rule="evenodd"></path><path id="path4" d="M215.400 120.809 C 214.007 120.973,214.780 121.062,217.949 121.104 C 220.451 121.137,222.431 121.107,222.349 121.036 C 222.011 120.746,217.257 120.590,215.400 120.809 M210.200 121.600 C 209.696 121.817,209.622 121.944,210.000 121.944 C 210.330 121.944,210.960 121.789,211.400 121.600 C 211.904 121.383,211.978 121.256,211.600 121.256 C 211.270 121.256,210.640 121.411,210.200 121.600 M224.200 121.600 C 224.640 121.789,225.270 121.944,225.600 121.944 C 225.978 121.944,225.904 121.817,225.400 121.600 C 224.960 121.411,224.330 121.256,224.000 121.256 C 223.622 121.256,223.696 121.383,224.200 121.600 M227.200 122.400 C 227.530 122.613,228.070 122.788,228.400 122.788 C 228.933 122.788,228.933 122.745,228.400 122.400 C 228.070 122.187,227.530 122.012,227.200 122.012 C 226.667 122.012,226.667 122.055,227.200 122.400 M46.996 153.800 L 47.000 185.000 77.698 185.102 L 108.397 185.205 108.501 231.302 L 108.605 277.400 108.603 231.200 L 108.600 185.000 77.902 184.898 L 47.205 184.795 47.099 153.698 L 46.993 122.600 46.996 153.800 M170.996 200.400 C 170.996 243.190,171.043 260.695,171.100 239.300 C 171.157 217.905,171.157 182.895,171.100 161.500 C 171.043 140.105,170.996 157.610,170.996 200.400 M352.692 123.283 C 351.177 127.065,350.801 128.136,351.104 127.800 C 351.592 127.260,353.248 123.114,353.053 122.920 C 352.968 122.835,352.806 122.998,352.692 123.283 M203.000 124.400 C 201.436 125.436,201.992 125.437,203.690 124.401 C 204.411 123.962,204.820 123.604,204.600 123.604 C 204.380 123.605,203.660 123.963,203.000 124.400 M232.800 124.524 C 232.800 124.617,233.565 125.198,234.500 125.815 C 235.435 126.432,235.989 126.680,235.731 126.368 C 235.234 125.767,232.800 124.236,232.800 124.524 M279.579 125.855 C 279.358 126.436,279.252 126.985,279.343 127.076 C 279.433 127.167,279.699 126.692,279.933 126.020 C 280.453 124.528,280.139 124.382,279.579 125.855 M196.246 129.429 C 193.668 131.981,189.462 137.600,190.129 137.600 C 190.227 137.600,191.068 136.430,192.000 135.000 C 192.932 133.570,194.961 131.140,196.511 129.600 C 198.060 128.060,199.231 126.800,199.114 126.800 C 198.996 126.800,197.706 127.983,196.246 129.429 M236.400 126.903 C 236.400 127.000,237.525 128.049,238.900 129.232 C 240.275 130.416,241.148 131.068,240.841 130.680 C 240.194 129.866,236.400 126.638,236.400 126.903 M278.692 128.083 C 277.177 131.865,276.801 132.936,277.104 132.600 C 277.592 132.060,279.248 127.914,279.053 127.720 C 278.968 127.635,278.806 127.798,278.692 128.083 M275.600 135.284 C 275.600 135.404,275.328 136.154,274.995 136.951 C 274.662 137.748,274.479 138.400,274.589 138.400 C 274.906 138.400,276.033 135.500,275.805 135.272 C 275.692 135.159,275.600 135.165,275.600 135.284 M187.800 143.200 C 187.650 143.673,187.617 144.150,187.727 144.260 C 187.837 144.370,188.050 144.073,188.200 143.600 C 188.350 143.127,188.383 142.650,188.273 142.540 C 188.163 142.430,187.950 142.727,187.800 143.200 M247.656 144.000 C 247.656 144.330,247.811 144.960,248.000 145.400 C 248.217 145.904,248.344 145.978,248.344 145.600 C 248.344 145.270,248.189 144.640,248.000 144.200 C 247.783 143.696,247.656 143.622,247.656 144.000 M186.982 146.982 C 186.829 148.002,186.794 148.927,186.904 149.037 C 187.014 149.147,187.229 148.402,187.382 147.382 C 187.535 146.361,187.570 145.437,187.460 145.327 C 187.350 145.217,187.135 145.961,186.982 146.982 M342.600 147.461 C 342.264 148.265,342.082 149.015,342.195 149.128 C 342.308 149.241,342.400 149.235,342.400 149.116 C 342.400 148.996,342.672 148.246,343.005 147.449 C 343.338 146.652,343.521 146.000,343.411 146.000 C 343.301 146.000,342.936 146.658,342.600 147.461 M248.496 151.800 C 248.497 155.799,248.529 155.987,248.840 153.859 C 249.030 152.558,249.029 150.603,248.838 149.459 C 248.542 147.690,248.494 148.019,248.496 151.800 M340.686 152.083 C 340.569 152.367,340.184 153.275,339.831 154.100 C 339.478 154.925,339.273 155.600,339.376 155.600 C 339.643 155.600,341.241 151.908,341.054 151.721 C 340.969 151.635,340.803 151.798,340.686 152.083 M186.868 155.400 C 186.862 156.060,187.011 156.960,187.200 157.400 C 187.670 158.494,187.670 156.667,187.200 155.200 C 186.888 154.225,186.879 154.230,186.868 155.400 M266.267 157.667 C 265.905 158.588,265.674 159.407,265.754 159.488 C 265.834 159.568,266.200 158.883,266.567 157.967 C 266.933 157.050,267.164 156.231,267.079 156.146 C 266.994 156.061,266.629 156.745,266.267 157.667 M247.829 158.629 C 247.681 159.215,247.638 159.772,247.732 159.866 C 247.827 159.960,248.024 159.558,248.171 158.971 C 248.319 158.385,248.362 157.828,248.268 157.734 C 248.173 157.640,247.976 158.042,247.829 158.629 M187.612 159.600 C 187.612 159.930,187.787 160.470,188.000 160.800 C 188.345 161.333,188.388 161.333,188.388 160.800 C 188.388 160.470,188.213 159.930,188.000 159.600 C 187.655 159.067,187.612 159.067,187.612 159.600 M335.913 163.381 C 335.542 164.381,335.317 165.200,335.414 165.200 C 335.693 165.200,336.831 162.294,336.703 161.909 C 336.639 161.718,336.284 162.380,335.913 163.381 M263.190 165.000 C 262.976 165.550,262.609 166.495,262.375 167.100 C 262.141 167.705,262.114 168.020,262.315 167.800 C 262.786 167.283,264.058 164.000,263.787 164.000 C 263.673 164.000,263.405 164.450,263.190 165.000 M191.477 168.431 C 191.875 169.108,192.456 169.873,192.768 170.131 C 193.080 170.389,192.832 169.835,192.215 168.900 C 190.920 166.937,190.409 166.612,191.477 168.431 M241.762 171.100 C 240.919 172.145,239.878 173.316,239.450 173.703 C 239.022 174.089,238.765 174.498,238.879 174.612 C 239.055 174.788,241.192 172.433,243.155 169.900 C 244.397 168.299,243.173 169.353,241.762 171.100 M195.800 173.600 C 197.328 175.140,198.669 176.400,198.779 176.400 C 198.889 176.400,197.728 175.140,196.200 173.600 C 194.672 172.060,193.331 170.800,193.221 170.800 C 193.111 170.800,194.272 172.060,195.800 173.600 M260.000 172.484 C 260.000 172.604,259.728 173.354,259.395 174.151 C 259.062 174.948,258.879 175.600,258.989 175.600 C 259.306 175.600,260.433 172.700,260.205 172.472 C 260.092 172.359,260.000 172.365,260.000 172.484 M212.600 182.380 C 213.361 182.726,216.317 182.964,215.967 182.651 C 215.875 182.569,214.900 182.393,213.800 182.259 C 212.454 182.095,212.061 182.135,212.600 182.380 M220.800 182.400 L 219.400 182.695 220.800 182.707 C 221.570 182.715,222.650 182.576,223.200 182.400 L 224.200 182.080 223.200 182.093 C 222.650 182.100,221.570 182.238,220.800 182.400 M321.722 197.100 C 321.583 197.485,321.048 198.767,320.534 199.950 C 319.497 202.337,319.324 203.166,320.201 201.553 C 321.027 200.033,322.424 196.400,322.182 196.400 C 322.068 196.400,321.861 196.715,321.722 197.100 M247.400 202.661 C 247.064 203.465,246.882 204.215,246.995 204.328 C 247.108 204.441,247.200 204.435,247.200 204.316 C 247.200 204.196,247.472 203.446,247.805 202.649 C 248.138 201.852,248.321 201.200,248.211 201.200 C 248.101 201.200,247.736 201.858,247.400 202.661 M318.379 205.055 C 318.158 205.636,318.052 206.185,318.143 206.276 C 318.233 206.367,318.499 205.892,318.733 205.220 C 319.253 203.728,318.939 203.582,318.379 205.055 M240.713 218.581 C 240.342 219.581,240.117 220.400,240.214 220.400 C 240.493 220.400,241.631 217.494,241.503 217.109 C 241.439 216.918,241.084 217.580,240.713 218.581 M305.800 235.061 C 305.464 235.865,305.282 236.615,305.395 236.728 C 305.508 236.841,305.600 236.835,305.600 236.716 C 305.600 236.596,305.872 235.846,306.205 235.049 C 306.538 234.252,306.721 233.600,306.611 233.600 C 306.501 233.600,306.136 234.258,305.800 235.061 M233.472 235.819 C 233.102 236.593,232.804 237.446,232.809 237.714 C 232.814 237.981,233.177 237.408,233.616 236.440 C 234.567 234.344,234.439 233.791,233.472 235.819 M231.800 239.861 C 231.464 240.665,231.282 241.415,231.395 241.528 C 231.508 241.641,231.600 241.635,231.600 241.516 C 231.600 241.396,231.872 240.646,232.205 239.849 C 232.538 239.052,232.721 238.400,232.611 238.400 C 232.501 238.400,232.136 239.058,231.800 239.861 M303.600 240.084 C 303.600 240.204,303.328 240.954,302.995 241.751 C 302.662 242.548,302.479 243.200,302.589 243.200 C 302.906 243.200,304.033 240.300,303.805 240.072 C 303.692 239.959,303.600 239.965,303.600 240.084 M229.631 244.900 C 229.439 245.395,228.906 246.745,228.447 247.900 C 227.987 249.055,227.704 250.000,227.816 250.000 C 227.928 250.000,228.177 249.595,228.369 249.100 C 228.561 248.605,229.094 247.255,229.553 246.100 C 230.013 244.945,230.296 244.000,230.184 244.000 C 230.072 244.000,229.823 244.405,229.631 244.900 M290.262 272.100 C 289.362 274.131,289.168 274.867,289.605 274.597 C 289.822 274.463,290.000 274.014,290.000 273.600 C 290.000 273.186,290.158 272.749,290.352 272.630 C 290.701 272.414,291.256 270.800,290.981 270.800 C 290.902 270.800,290.578 271.385,290.262 272.100 " stroke="none" fill="#8c8c94" fill-rule="evenodd"></path></g></svg>