<?xml version="1.0" standalone="no"?>
<!DOCTYPE svg PUBLIC "-//W3C//DTD SVG 20010904//EN"
 "http://www.w3.org/TR/2001/REC-SVG-20010904/DTD/svg10.dtd">
<svg version="1.0" xmlns="http://www.w3.org/2000/svg"
 width="600.000000pt" height="600.000000pt" viewBox="0 0 600.000000 600.000000"
 preserveAspectRatio="xMidYMid meet">
<defs>
<linearGradient id="metallicGold" x1="5%" y1="0%" x2="95%" y2="100%">
<stop offset="0%" stop-color="#5f3f00"/>
<stop offset="16%" stop-color="#b7841d"/>
<stop offset="33%" stop-color="#f7e6a5"/>
<stop offset="49%" stop-color="#d4a741"/>
<stop offset="65%" stop-color="#fff3c3"/>
<stop offset="82%" stop-color="#af7a17"/>
<stop offset="100%" stop-color="#4f3300"/>
</linearGradient>
</defs>
<g transform="translate(0.000000,600.000000) scale(0.100000,-0.100000)"
fill="none" stroke="none">
<path fill="url(#metallicGold)" d="M4660 4763 c-843 -18 -1196 -183 -1507 -703 -165 -276 -358 -769
-573 -1460 -28 -91 -56 -178 -61 -195 -6 -16 -53 -167 -105 -335 -52 -168
-112 -359 -134 -425 -21 -66 -50 -158 -65 -205 -14 -47 -62 -196 -106 -331
-43 -136 -79 -250 -79 -254 0 -13 213 3 340 25 406 69 749 247 1046 544 169
170 279 322 372 518 l40 85 79 7 c309 28 652 166 868 350 259 221 432 496 525
836 24 90 24 84 3 75 -10 -3 -88 -17 -173 -31 -186 -29 -415 -40 -565 -26
-130 12 -295 41 -295 52 0 5 19 11 43 15 63 10 330 91 432 132 260 103 513
261 704 437 66 62 192 212 251 300 29 43 76 129 106 190 56 118 134 339 134
381 l0 25 -582 -2 c-321 -1 -635 -3 -698 -5z"/>
<path fill="url(#metallicGold)" d="M4752 4736 c6 4 295 5 976 4 l182 0
0 -22 c0 -13 -9 -43 -20 -67 -11 -23 -18 -46 -15 -51 6 -10 -17 -70 -28 -70
-4 0 -6 -4 -3 -9 3 -5 -5 -33 -19 -63 -14 -29 -25 -46 -26 -38 0 8 -5 2 -9
-14 -5 -16 -6 -34 -3 -39 3 -6 1 -7 -5 -3 -11 6 -15 -5 -11 -31 0 -3 -6 -10
-14 -15 -9 -4 -18 -21 -22 -37 -3 -16 -13 -32 -21 -35 -9 -3 -12 -11 -9 -17 4
-6 -2 -19 -14 -30 -12 -11 -21 -26 -21 -33 0 -8 -10 -13 -22 -12 -21 1 -24 -6
-15 -34 1 -3 -2 -5 -6 -5 -5 0 -16 -13 -24 -30 -25 -49 -45 -68 -55 -53 -7 10
-8 9 -6 -2 4 -24 -22 -62 -38 -56 -9 4 -12 2 -8 -5 9 -15 -85 -109 -102 -102
-9 3 -12 0 -9 -9 7 -18 -20 -42 -36 -32 -9 5 -10 2 -6 -10 5 -14 3 -17 -8 -12
-8 3 -14 0 -12 -6 1 -6 -21 -25 -50 -41 -29 -17 -50 -34 -47 -39 3 -5 2 -7 -3
-6 -10 3 -83 -44 -83 -54 0 -3 -8 -4 -19 -1 -10 3 -22 0 -25 -6 -5 -7 0 -9 11
-5 10 3 3 -3 -15 -15 -18 -12 -37 -21 -42 -21 -6 0 -10 -5 -10 -11 0 -5 -5 -7
-10 -4 -6 3 -24 -3 -40 -15 -17 -12 -30 -19 -30 -16 0 3 -9 -3 -20 -14 -11
-11 -27 -20 -35 -20 -8 0 -15 -4 -15 -9 0 -4 -21 -14 -47 -21 -27 -7 -56 -20
-65 -28 -9 -7 -21 -11 -27 -8 -6 4 -21 0 -33 -7 -13 -8 -39 -18 -60 -21 -20
-4 -39 -13 -42 -21 -3 -9 -9 -14 -13 -13 -4 2 -28 -3 -53 -10 -25 -8 -63 -18
-85 -24 -22 -6 -50 -15 -63 -21 -13 -6 -39 -10 -57 -10 -19 1 -33 -3 -30 -7 3
-5 -4 -6 -15 -3 -12 3 -20 0 -20 -6 0 -7 -3 -10 -7 -8 -12 7 -32 -18 -25 -30
4 -5 22 -15 39 -22 18 -7 31 -16 28 -20 -2 -4 9 -5 26 -3 16 2 50 -1 76 -7 71
-18 497 -36 471 -19 -9 5 51 9 174 11 15 0 25 3 22 8 -2 4 11 5 31 2 24 -4 35
-2 35 7 0 8 8 10 21 7 11 -3 36 1 54 9 38 15 69 19 61 6 -3 -5 -7 -21 -10 -37
-9 -51 -38 -135 -45 -130 -4 2 -7 -11 -8 -29 -1 -30 -52 -135 -79 -163 -7 -7
-10 -22 -7 -34 4 -14 2 -20 -5 -15 -6 3 -13 -6 -17 -23 -3 -16 -13 -32 -21
-35 -8 -3 -14 -15 -14 -26 0 -11 -7 -23 -15 -26 -8 -4 -15 -15 -15 -25 0 -10
-4 -19 -9 -19 -6 0 -21 -18 -34 -40 -18 -31 -26 -37 -36 -27 -10 9 -11 9 -6
-4 3 -9 -3 -23 -15 -34 -11 -10 -20 -22 -20 -28 0 -12 -99 -107 -112 -107 -5
0 -6 -5 -3 -10 3 -6 -4 -14 -17 -19 -13 -5 -30 -16 -37 -25 -7 -9 -21 -16 -30
-16 -14 0 -14 -2 -1 -10 13 -8 13 -10 -1 -10 -9 0 -24 -9 -34 -20 -10 -11 -20
-18 -23 -16 -4 4 -13 -2 -45 -30 -19 -17 -61 -29 -53 -15 4 6 2 11 -3 11 -14
0 -14 -12 -1 -28 6 -6 7 -10 4 -7 -4 2 -19 -4 -33 -14 -14 -10 -43 -24 -63
-32 -21 -7 -38 -16 -38 -20 0 -6 -97 -40 -130 -45 -8 -2 -16 -8 -18 -14 -2 -5
-8 -8 -13 -4 -8 5 -65 -10 -197 -52 -23 -8 -63 -14 -87 -14 -25 0 -45 -4 -45
-8 0 -5 -24 -7 -54 -4 -64 5 -84 -11 -123 -101 -14 -31 -30 -57 -35 -57 -5 0
-6 -5 -3 -10 3 -6 -1 -17 -9 -26 -9 -8 -16 -23 -16 -31 0 -9 -3 -13 -6 -10 -4
4 -16 -12 -27 -35 -24 -48 -52 -79 -63 -70 -4 4 -4 1 1 -7 4 -7 4 -16 -1 -20
-5 -3 -15 -19 -22 -34 -7 -15 -17 -25 -22 -22 -6 4 -7 -1 -3 -11 5 -14 3 -16
-11 -11 -10 4 -15 3 -11 -3 3 -5 -8 -24 -25 -41 -16 -18 -30 -36 -30 -40 0 -5
-8 -5 -17 -2 -16 6 -16 5 -4 -10 12 -15 10 -18 -10 -26 -13 -5 -20 -10 -15
-10 5 -1 -7 -14 -27 -30 -20 -15 -33 -32 -29 -37 4 -5 -1 -2 -10 5 -15 11 -17
10 -13 -8 2 -12 0 -19 -4 -17 -4 3 -33 -19 -63 -48 -64 -63 -90 -78 -115 -70
-16 6 -16 5 2 -10 11 -10 14 -15 7 -11 -6 3 -15 -1 -18 -9 -3 -9 -14 -16 -24
-16 -11 0 -22 -5 -26 -12 -5 -7 -3 -8 7 -3 12 8 12 6 0 -9 -8 -9 -20 -15 -28
-12 -7 3 -13 1 -13 -4 0 -5 -9 -12 -20 -15 -11 -4 -17 -11 -14 -17 4 -6 2 -8
-3 -5 -6 4 -22 -2 -36 -13 -14 -11 -42 -26 -63 -33 -22 -7 -38 -19 -36 -25 2
-10 -3 -10 -18 -2 -15 8 -20 8 -18 -1 2 -6 -28 -25 -67 -41 -38 -15 -85 -35
-103 -44 -18 -8 -42 -17 -53 -19 -11 -2 -46 -14 -77 -25 -54 -20 -109 -20 -97
0 4 6 -1 7 -11 3 -11 -4 -13 -8 -6 -11 24 -8 11 -22 -14 -16 -18 5 -25 3 -20
-4 4 -6 -2 -8 -16 -4 -13 3 -19 1 -15 -5 4 -6 1 -10 -6 -9 -6 0 -55 -5 -107
-11 -180 -23 -219 -23 -225 -2 -4 10 1 29 9 41 9 12 16 30 16 38 0 9 12 45 26
81 14 35 27 75 29 89 4 28 30 106 45 132 6 10 10 26 10 36 0 9 7 28 16 40 9
13 13 31 9 43 -5 15 -4 19 4 15 7 -4 11 0 11 12 0 10 6 38 14 63 7 24 19 64
26 89 7 25 20 68 30 95 17 45 28 87 30 107 0 5 8 23 19 40 10 18 21 51 25 73
13 69 48 175 56 170 4 -3 6 3 3 14 -3 10 0 22 6 25 5 4 8 13 5 21 -3 7 0 23 6
35 6 12 13 29 16 38 18 72 33 114 33 93 2 -43 12 -15 13 34 0 33 3 43 10 34 7
-10 8 -8 5 9 -3 12 -1 22 3 22 5 0 8 8 7 18 -2 27 44 182 54 182 5 0 9 9 9 19
0 11 5 32 12 48 6 15 13 38 14 50 2 12 12 43 23 68 11 25 17 53 14 62 -5 12
-3 14 7 8 8 -5 11 -4 6 3 -3 6 3 26 14 44 21 35 26 53 11 44 -5 -4 -4 7 2 23
6 17 15 27 21 24 5 -3 6 -1 2 5 -3 6 -2 21 3 34 9 21 19 47 28 73 2 6 6 25 9
42 4 19 11 30 17 26 6 -4 8 3 3 21 -3 14 -3 26 1 26 5 0 17 28 27 63 11 34 28
75 37 91 10 16 16 33 13 38 -3 4 1 18 8 30 7 13 11 29 9 37 -1 7 2 10 8 6 7
-3 8 0 5 9 -4 9 -1 16 6 16 7 0 10 7 6 15 -3 8 1 18 8 22 7 5 20 34 30 65 10
32 22 61 28 64 5 3 7 12 4 20 -3 8 -1 14 4 14 5 0 6 7 3 17 -4 9 -2 14 3 10 5
-3 14 6 21 19 6 13 8 22 4 19 -12 -7 58 127 76 148 9 9 13 17 9 17 -3 0 3 18
14 40 11 22 25 40 31 40 6 0 8 4 4 9 -3 5 1 15 8 23 7 7 20 28 28 46 7 17 17
32 20 32 4 0 9 9 12 21 3 12 10 18 16 14 6 -3 11 2 11 13 0 11 7 22 15 26 8 3
15 12 15 19 0 19 35 49 45 40 4 -5 5 -2 1 5 -11 18 4 37 16 21 8 -11 8 -10 4
4 -4 11 3 25 19 39 14 12 25 27 25 34 0 6 15 22 34 35 19 13 32 27 30 31 -3 4
2 5 10 2 10 -4 16 -1 16 9 0 9 16 25 35 37 19 12 35 25 35 30 0 4 7 11 16 14
13 5 14 3 6 -7 -8 -10 -6 -13 8 -13 10 0 17 4 14 8 -6 9 36 48 53 48 7 0 13 4
13 8 0 9 65 36 93 38 10 1 21 5 25 9 4 5 -2 5 -13 1 -13 -5 -17 -4 -10 3 12
12 123 48 173 57 20 3 56 13 79 21 23 9 49 13 56 10 8 -3 18 -2 23 3 5 4 38
11 74 15 36 3 73 8 82 11 21 6 209 17 315 18 44 1 80 4 78 7 -2 3 21 2 52 -2
31 -4 60 -6 65 -3z"/>
<path fill="url(#metallicGold)" d="M1755 4745 c-421 -58 -796 -245 -1100 -552 -257 -258 -427 -556 -518
-908 -40 -155 -57 -298 -57 -479 0 -404 109 -764 332 -1098 65 -97 115 -156
238 -278 161 -162 269 -245 450 -344 167 -93 475 -195 635 -212 l61 -6 41 128
c22 71 79 251 126 399 47 149 128 404 180 568 52 163 93 297 92 297 -1 0 -22
-7 -46 -15 -69 -25 -183 -29 -269 -11 -317 66 -523 380 -456 691 14 66 53 158
86 205 12 17 18 35 14 42 -4 7 -4 10 1 6 4 -4 37 20 74 54 67 63 168 118 252
137 69 16 238 13 300 -5 89 -26 182 -81 247 -146 34 -33 62 -64 62 -69 0 -5 4
-9 8 -9 5 0 24 44 42 98 86 253 229 594 329 787 75 146 178 314 223 365 l29
34 -68 44 c-90 58 -226 126 -336 168 -117 45 -340 101 -453 114 -118 13 -406
11 -519 -5z"/>
<path fill="url(#metallicGold)" d="M2088 4740 c40 0 71 -3 69 -7 -3 -5 14 -7 37 -5 47 4 189 -15 266
-35 14 -3 29 -5 33 -5 4 1 18 -3 30 -10 12 -7 27 -13 32 -14 37 -3 85 -18 85
-26 0 -5 5 -6 10 -3 6 4 27 -3 46 -14 19 -12 33 -17 30 -12 -4 5 3 7 15 4 13
-4 17 -8 9 -13 -6 -4 7 -10 29 -13 22 -3 57 -16 78 -28 21 -13 40 -24 43 -24
3 0 15 -10 27 -22 15 -15 29 -20 44 -16 15 4 20 3 15 -5 -4 -7 -1 -12 7 -12 8
0 26 -11 42 -26 15 -14 29 -23 32 -20 3 3 11 0 17 -7 10 -8 8 -16 -7 -34 -11
-12 -25 -20 -30 -16 -6 3 -7 1 -4 -4 4 -6 0 -24 -8 -39 -8 -16 -15 -24 -15
-19 0 6 -6 -1 -13 -15 -8 -14 -18 -24 -24 -23 -6 1 -9 -9 -7 -23 1 -13 -2 -22
-7 -18 -5 3 -9 -4 -9 -15 0 -11 -4 -23 -10 -26 -5 -3 -19 -25 -30 -48 -10 -23
-20 -37 -20 -32 0 6 -13 -19 -29 -54 -18 -39 -31 -58 -35 -50 -3 8 -4 4 -2 -9
2 -12 0 -20 -5 -16 -9 5 -11 0 -13 -28 -1 -7 -7 -19 -14 -26 -7 -8 -10 -18 -7
-23 4 -5 1 -9 -4 -9 -6 0 -11 -8 -11 -18 0 -10 -6 -26 -13 -37 -13 -16 -13
-15 -9 16 2 19 1 31 -3 27 -3 -3 -7 -27 -7 -52 0 -25 -4 -46 -9 -46 -6 0 -9
-6 -7 -12 1 -7 -7 -31 -19 -53 -11 -22 -24 -51 -28 -65 -9 -29 -41 -107 -56
-133 -5 -10 -7 -22 -4 -27 4 -6 2 -10 -3 -10 -5 0 -12 -14 -16 -31 -3 -17 -10
-28 -15 -25 -5 3 -8 0 -7 -7 2 -22 -56 -194 -75 -218 l-18 -24 -10 28 c-6 15
-13 27 -16 27 -4 0 -3 -6 1 -12 4 -7 -2 -5 -14 6 -12 10 -19 23 -15 29 3 5 2
7 -3 4 -5 -3 -21 4 -34 15 -14 11 -19 16 -11 12 9 -5 12 -3 7 4 -4 7 -15 12
-25 12 -10 0 -29 8 -42 18 -66 51 -219 86 -339 77 -82 -5 -172 -27 -198 -48
-7 -5 -15 -7 -19 -4 -3 4 -19 -3 -35 -14 -16 -12 -36 -18 -44 -15 -8 3 -12 1
-9 -4 3 -5 -6 -21 -21 -35 -21 -20 -30 -23 -48 -14 -19 9 -19 9 -4 -4 16 -12
13 -18 -31 -61 -26 -25 -50 -44 -53 -40 -4 3 -4 -3 -1 -14 3 -14 -2 -24 -16
-31 -12 -7 -21 -17 -21 -24 0 -7 4 -6 10 3 5 8 10 10 10 4 0 -6 -9 -21 -20
-34 -11 -13 -20 -29 -20 -37 0 -7 -4 -13 -10 -13 -5 0 -10 -5 -10 -11 0 -5 5
-7 11 -3 6 3 3 -8 -6 -26 -25 -49 -31 -218 -10 -305 9 -38 18 -80 19 -91 1
-12 10 -29 19 -39 9 -9 17 -22 17 -28 0 -7 15 -30 34 -52 19 -22 35 -43 35
-47 1 -11 32 -40 64 -61 16 -10 25 -23 21 -29 -4 -7 -3 -8 4 -4 6 3 16 -3 22
-14 6 -12 18 -19 25 -16 7 2 19 -1 25 -9 8 -10 7 -16 -7 -23 -15 -9 -13 -10 9
-9 14 1 23 6 20 12 -3 6 1 5 9 -1 8 -7 46 -22 86 -35 40 -12 70 -26 67 -30 -2
-4 10 -4 27 1 18 5 35 8 38 6 3 -2 38 -7 76 -10 45 -4 65 -2 55 4 -10 6 -5 9
20 8 19 -1 43 2 53 6 12 6 17 4 17 -8 0 -9 -7 -19 -15 -22 -8 -4 -12 -10 -9
-15 3 -5 -3 -33 -12 -62 -10 -28 -19 -54 -19 -57 -4 -24 -28 -86 -46 -122 -5
-10 -6 -25 -2 -34 5 -13 3 -15 -7 -9 -8 5 -11 4 -6 -3 3 -6 -3 -37 -15 -69
-12 -32 -22 -67 -23 -78 0 -11 -4 -24 -7 -30 -4 -5 -16 -44 -29 -85 -42 -140
-60 -193 -71 -206 -6 -7 -8 -22 -4 -33 3 -10 2 -22 -3 -25 -5 -3 -15 -26 -22
-51 -7 -25 -16 -48 -21 -51 -4 -2 -5 -12 -2 -21 4 -11 3 -14 -5 -9 -13 8 -15
-2 -12 -46 1 -14 -3 -29 -9 -32 -5 -4 -15 -31 -21 -61 -6 -31 -15 -53 -20 -50
-4 3 -8 -1 -7 -8 1 -38 -4 -58 -14 -51 -8 4 -9 0 -4 -15 4 -13 2 -21 -5 -21
-7 0 -10 -6 -7 -14 3 -8 -1 -20 -9 -26 -11 -10 -14 -10 -14 1 0 10 -3 10 -12
1 -8 -8 -17 -8 -30 -1 -11 6 -26 8 -33 5 -8 -3 -15 0 -17 6 -2 6 -30 13 -62
16 -39 3 -53 8 -44 14 8 5 3 6 -14 2 -29 -6 -128 23 -128 39 0 4 -5 5 -10 2
-14 -8 -52 4 -45 15 3 4 -4 6 -15 3 -12 -3 -55 12 -107 38 -49 24 -90 44 -93
45 -15 2 -60 28 -60 35 0 4 -10 11 -22 15 -13 4 -37 18 -55 31 -18 14 -37 22
-43 18 -6 -4 -9 -1 -8 5 2 7 -4 14 -12 15 -9 1 -33 15 -55 29 -49 33 -58 43
-25 26 14 -7 23 -10 20 -7 -11 12 -81 57 -89 57 -5 0 -15 8 -22 18 -13 16 -13
16 6 2 19 -14 19 -14 6 3 -8 10 -18 16 -23 15 -16 -6 -80 61 -72 73 4 7 3 9
-3 6 -6 -4 -30 12 -54 35 -24 23 -36 36 -26 29 11 -9 17 -10 17 -2 0 6 -5 11
-10 11 -19 0 -72 59 -64 71 4 7 3 9 -4 5 -6 -3 -26 14 -46 41 -20 27 -40 54
-46 61 -6 6 -7 12 -3 12 4 0 -3 7 -15 16 -12 8 -22 24 -22 34 0 10 -4 20 -9
22 -9 3 -37 47 -68 106 -9 17 -20 32 -24 32 -4 0 -5 10 -2 23 3 13 2 18 -4 10
-5 -8 -15 4 -27 35 -33 81 -56 136 -66 154 -6 10 -10 27 -10 37 0 11 -4 23
-10 26 -5 3 -10 11 -10 16 0 6 5 7 10 4 6 -3 10 -2 10 3 0 6 -7 12 -15 16 -9
3 -12 12 -8 22 3 9 2 19 -3 23 -13 8 -37 64 -25 57 5 -3 7 3 4 14 -3 11 -8 20
-12 20 -3 0 -7 15 -7 33 -2 52 -9 101 -16 112 -4 6 -8 38 -10 72 -2 34 -7 59
-11 56 -4 -2 -7 79 -7 181 1 103 5 184 8 182 4 -2 7 15 8 37 1 23 7 69 13 102
7 33 14 71 16 85 2 14 10 50 19 80 9 30 18 65 20 78 2 13 8 28 15 35 6 6 11
21 11 34 0 12 13 49 30 81 16 33 30 65 30 71 0 7 3 10 8 8 4 -3 8 7 9 21 0 15
6 28 12 30 6 2 9 8 5 13 -3 5 0 9 5 9 6 0 11 7 11 15 0 8 11 30 24 50 22 32
26 34 35 18 13 -23 14 -8 1 17 -7 13 -7 21 0 25 5 3 10 13 10 21 0 19 25 45
34 36 4 -3 4 1 1 9 -3 9 5 26 21 43 43 42 74 88 67 99 -3 6 -1 7 5 3 7 -4 20
7 33 28 12 20 25 36 30 36 5 0 9 5 9 11 0 6 47 59 105 117 58 57 105 102 105
98 0 -7 119 80 154 112 11 9 16 11 12 5 -5 -9 -2 -11 8 -7 9 3 14 11 13 16 -1
6 4 13 12 16 8 3 11 0 7 -7 -5 -7 -1 -9 9 -5 9 4 14 13 11 21 -3 8 -2 12 3 9
5 -3 14 0 20 8 6 7 26 16 43 20 17 3 28 9 25 13 -11 11 51 43 69 36 11 -4 15
-2 11 4 -4 7 5 14 23 18 17 4 28 11 24 16 -5 9 22 14 66 10 18 -1 21 1 11 8
-10 6 3 14 45 27 33 10 65 18 71 17 7 0 10 4 6 10 -4 6 2 8 15 5 12 -3 23 -1
24 4 3 7 13 6 28 -2 23 -12 24 -12 10 5 -14 16 -12 17 20 11 22 -5 30 -4 22 2
-13 9 14 15 105 25 12 2 25 6 29 10 4 4 39 7 78 7 45 0 66 4 57 9 -9 6 -5 8
15 7 16 -2 52 1 79 5 28 4 59 5 70 3 11 -2 53 -4 93 -4z"/>

<path d="M4248 4793 c7 -3 16 -2 19 1 4 3 -2 6 -13 5 -11 0 -14 -3 -6 -6z"/>
<path d="M4660 4763 c-843 -18 -1196 -183 -1507 -703 -165 -276 -358 -769
-573 -1460 -28 -91 -56 -178 -61 -195 -6 -16 -53 -167 -105 -335 -52 -168
-112 -359 -134 -425 -21 -66 -50 -158 -65 -205 -14 -47 -62 -196 -106 -331
-43 -136 -79 -250 -79 -254 0 -13 213 3 340 25 406 69 749 247 1046 544 169
170 279 322 372 518 l40 85 79 7 c309 28 652 166 868 350 259 221 432 496 525
836 24 90 24 84 3 75 -10 -3 -88 -17 -173 -31 -186 -29 -415 -40 -565 -26
-130 12 -295 41 -295 52 0 5 19 11 43 15 63 10 330 91 432 132 260 103 513
261 704 437 66 62 192 212 251 300 29 43 76 129 106 190 56 118 134 339 134
381 l0 25 -582 -2 c-321 -1 -635 -3 -698 -5z m92 -27 c6 4 295 5 976 4 l182 0
0 -22 c0 -13 -9 -43 -20 -67 -11 -23 -18 -46 -15 -51 6 -10 -17 -70 -28 -70
-4 0 -6 -4 -3 -9 3 -5 -5 -33 -19 -63 -14 -29 -25 -46 -26 -38 0 8 -5 2 -9
-14 -5 -16 -6 -34 -3 -39 3 -6 1 -7 -5 -3 -11 6 -15 -5 -11 -31 0 -3 -6 -10
-14 -15 -9 -4 -18 -21 -22 -37 -3 -16 -13 -32 -21 -35 -9 -3 -12 -11 -9 -17 4
-6 -2 -19 -14 -30 -12 -11 -21 -26 -21 -33 0 -8 -10 -13 -22 -12 -21 1 -24 -6
-15 -34 1 -3 -2 -5 -6 -5 -5 0 -16 -13 -24 -30 -25 -49 -45 -68 -55 -53 -7 10
-8 9 -6 -2 4 -24 -22 -62 -38 -56 -9 4 -12 2 -8 -5 9 -15 -85 -109 -102 -102
-9 3 -12 0 -9 -9 7 -18 -20 -42 -36 -32 -9 5 -10 2 -6 -10 5 -14 3 -17 -8 -12
-8 3 -14 0 -12 -6 1 -6 -21 -25 -50 -41 -29 -17 -50 -34 -47 -39 3 -5 2 -7 -3
-6 -10 3 -83 -44 -83 -54 0 -3 -8 -4 -19 -1 -10 3 -22 0 -25 -6 -5 -7 0 -9 11
-5 10 3 3 -3 -15 -15 -18 -12 -37 -21 -42 -21 -6 0 -10 -5 -10 -11 0 -5 -5 -7
-10 -4 -6 3 -24 -3 -40 -15 -17 -12 -30 -19 -30 -16 0 3 -9 -3 -20 -14 -11
-11 -27 -20 -35 -20 -8 0 -15 -4 -15 -9 0 -4 -21 -14 -47 -21 -27 -7 -56 -20
-65 -28 -9 -7 -21 -11 -27 -8 -6 4 -21 0 -33 -7 -13 -8 -39 -18 -60 -21 -20
-4 -39 -13 -42 -21 -3 -9 -9 -14 -13 -13 -4 2 -28 -3 -53 -10 -25 -8 -63 -18
-85 -24 -22 -6 -50 -15 -63 -21 -13 -6 -39 -10 -57 -10 -19 1 -33 -3 -30 -7 3
-5 -4 -6 -15 -3 -12 3 -20 0 -20 -6 0 -7 -3 -10 -7 -8 -12 7 -32 -18 -25 -30
4 -5 22 -15 39 -22 18 -7 31 -16 28 -20 -2 -4 9 -5 26 -3 16 2 50 -1 76 -7 71
-18 497 -36 471 -19 -9 5 51 9 174 11 15 0 25 3 22 8 -2 4 11 5 31 2 24 -4 35
-2 35 7 0 8 8 10 21 7 11 -3 36 1 54 9 38 15 69 19 61 6 -3 -5 -7 -21 -10 -37
-9 -51 -38 -135 -45 -130 -4 2 -7 -11 -8 -29 -1 -30 -52 -135 -79 -163 -7 -7
-10 -22 -7 -34 4 -14 2 -20 -5 -15 -6 3 -13 -6 -17 -23 -3 -16 -13 -32 -21
-35 -8 -3 -14 -15 -14 -26 0 -11 -7 -23 -15 -26 -8 -4 -15 -15 -15 -25 0 -10
-4 -19 -9 -19 -6 0 -21 -18 -34 -40 -18 -31 -26 -37 -36 -27 -10 9 -11 9 -6
-4 3 -9 -3 -23 -15 -34 -11 -10 -20 -22 -20 -28 0 -12 -99 -107 -112 -107 -5
0 -6 -5 -3 -10 3 -6 -4 -14 -17 -19 -13 -5 -30 -16 -37 -25 -7 -9 -21 -16 -30
-16 -14 0 -14 -2 -1 -10 13 -8 13 -10 -1 -10 -9 0 -24 -9 -34 -20 -10 -11 -20
-18 -23 -16 -4 4 -13 -2 -45 -30 -19 -17 -61 -29 -53 -15 4 6 2 11 -3 11 -14
0 -14 -12 -1 -28 6 -6 7 -10 4 -7 -4 2 -19 -4 -33 -14 -14 -10 -43 -24 -63
-32 -21 -7 -38 -16 -38 -20 0 -6 -97 -40 -130 -45 -8 -2 -16 -8 -18 -14 -2 -5
-8 -8 -13 -4 -8 5 -65 -10 -197 -52 -23 -8 -63 -14 -87 -14 -25 0 -45 -4 -45
-8 0 -5 -24 -7 -54 -4 -64 5 -84 -11 -123 -101 -14 -31 -30 -57 -35 -57 -5 0
-6 -5 -3 -10 3 -6 -1 -17 -9 -26 -9 -8 -16 -23 -16 -31 0 -9 -3 -13 -6 -10 -4
4 -16 -12 -27 -35 -24 -48 -52 -79 -63 -70 -4 4 -4 1 1 -7 4 -7 4 -16 -1 -20
-5 -3 -15 -19 -22 -34 -7 -15 -17 -25 -22 -22 -6 4 -7 -1 -3 -11 5 -14 3 -16
-11 -11 -10 4 -15 3 -11 -3 3 -5 -8 -24 -25 -41 -16 -18 -30 -36 -30 -40 0 -5
-8 -5 -17 -2 -16 6 -16 5 -4 -10 12 -15 10 -18 -10 -26 -13 -5 -20 -10 -15
-10 5 -1 -7 -14 -27 -30 -20 -15 -33 -32 -29 -37 4 -5 -1 -2 -10 5 -15 11 -17
10 -13 -8 2 -12 0 -19 -4 -17 -4 3 -33 -19 -63 -48 -64 -63 -90 -78 -115 -70
-16 6 -16 5 2 -10 11 -10 14 -15 7 -11 -6 3 -15 -1 -18 -9 -3 -9 -14 -16 -24
-16 -11 0 -22 -5 -26 -12 -5 -7 -3 -8 7 -3 12 8 12 6 0 -9 -8 -9 -20 -15 -28
-12 -7 3 -13 1 -13 -4 0 -5 -9 -12 -20 -15 -11 -4 -17 -11 -14 -17 4 -6 2 -8
-3 -5 -6 4 -22 -2 -36 -13 -14 -11 -42 -26 -63 -33 -22 -7 -38 -19 -36 -25 2
-10 -3 -10 -18 -2 -15 8 -20 8 -18 -1 2 -6 -28 -25 -67 -41 -38 -15 -85 -35
-103 -44 -18 -8 -42 -17 -53 -19 -11 -2 -46 -14 -77 -25 -54 -20 -109 -20 -97
0 4 6 -1 7 -11 3 -11 -4 -13 -8 -6 -11 24 -8 11 -22 -14 -16 -18 5 -25 3 -20
-4 4 -6 -2 -8 -16 -4 -13 3 -19 1 -15 -5 4 -6 1 -10 -6 -9 -6 0 -55 -5 -107
-11 -180 -23 -219 -23 -225 -2 -4 10 1 29 9 41 9 12 16 30 16 38 0 9 12 45 26
81 14 35 27 75 29 89 4 28 30 106 45 132 6 10 10 26 10 36 0 9 7 28 16 40 9
13 13 31 9 43 -5 15 -4 19 4 15 7 -4 11 0 11 12 0 10 6 38 14 63 7 24 19 64
26 89 7 25 20 68 30 95 17 45 28 87 30 107 0 5 8 23 19 40 10 18 21 51 25 73
13 69 48 175 56 170 4 -3 6 3 3 14 -3 10 0 22 6 25 5 4 8 13 5 21 -3 7 0 23 6
35 6 12 13 29 16 38 18 72 33 114 33 93 2 -43 12 -15 13 34 0 33 3 43 10 34 7
-10 8 -8 5 9 -3 12 -1 22 3 22 5 0 8 8 7 18 -2 27 44 182 54 182 5 0 9 9 9 19
0 11 5 32 12 48 6 15 13 38 14 50 2 12 12 43 23 68 11 25 17 53 14 62 -5 12
-3 14 7 8 8 -5 11 -4 6 3 -3 6 3 26 14 44 21 35 26 53 11 44 -5 -4 -4 7 2 23
6 17 15 27 21 24 5 -3 6 -1 2 5 -3 6 -2 21 3 34 9 21 19 47 28 73 2 6 6 25 9
42 4 19 11 30 17 26 6 -4 8 3 3 21 -3 14 -3 26 1 26 5 0 17 28 27 63 11 34 28
75 37 91 10 16 16 33 13 38 -3 4 1 18 8 30 7 13 11 29 9 37 -1 7 2 10 8 6 7
-3 8 0 5 9 -4 9 -1 16 6 16 7 0 10 7 6 15 -3 8 1 18 8 22 7 5 20 34 30 65 10
32 22 61 28 64 5 3 7 12 4 20 -3 8 -1 14 4 14 5 0 6 7 3 17 -4 9 -2 14 3 10 5
-3 14 6 21 19 6 13 8 22 4 19 -12 -7 58 127 76 148 9 9 13 17 9 17 -3 0 3 18
14 40 11 22 25 40 31 40 6 0 8 4 4 9 -3 5 1 15 8 23 7 7 20 28 28 46 7 17 17
32 20 32 4 0 9 9 12 21 3 12 10 18 16 14 6 -3 11 2 11 13 0 11 7 22 15 26 8 3
15 12 15 19 0 19 35 49 45 40 4 -5 5 -2 1 5 -11 18 4 37 16 21 8 -11 8 -10 4
4 -4 11 3 25 19 39 14 12 25 27 25 34 0 6 15 22 34 35 19 13 32 27 30 31 -3 4
2 5 10 2 10 -4 16 -1 16 9 0 9 16 25 35 37 19 12 35 25 35 30 0 4 7 11 16 14
13 5 14 3 6 -7 -8 -10 -6 -13 8 -13 10 0 17 4 14 8 -6 9 36 48 53 48 7 0 13 4
13 8 0 9 65 36 93 38 10 1 21 5 25 9 4 5 -2 5 -13 1 -13 -5 -17 -4 -10 3 12
12 123 48 173 57 20 3 56 13 79 21 23 9 49 13 56 10 8 -3 18 -2 23 3 5 4 38
11 74 15 36 3 73 8 82 11 21 6 209 17 315 18 44 1 80 4 78 7 -2 3 21 2 52 -2
31 -4 60 -6 65 -3z"/>
<path d="M5290 3785 c-11 -13 -10 -14 4 -9 9 3 16 10 16 15 0 13 -6 11 -20 -6z"/>
<path d="M4758 3483 c7 -3 16 -2 19 1 4 3 -2 6 -13 5 -11 0 -14 -3 -6 -6z"/>
<path d="M4508 3393 c7 -3 16 -2 19 1 4 3 -2 6 -13 5 -11 0 -14 -3 -6 -6z"/>
<path d="M2845 3279 c-4 -6 -5 -12 -2 -15 2 -3 7 2 10 11 7 17 1 20 -8 4z"/>
<path d="M4218 2143 c7 -3 16 -2 19 1 4 3 -2 6 -13 5 -11 0 -14 -3 -6 -6z"/>
<path d="M2286 1537 c3 -10 9 -15 12 -12 3 3 0 11 -7 18 -10 9 -11 8 -5 -6z"/>
<path d="M2117 1020 c-3 -11 -1 -23 4 -26 5 -3 9 6 9 20 0 31 -6 34 -13 6z"/>
<path d="M2518 943 c7 -3 16 -2 19 1 4 3 -2 6 -13 5 -11 0 -14 -3 -6 -6z"/>
<path d="M1755 4745 c-421 -58 -796 -245 -1100 -552 -257 -258 -427 -556 -518
-908 -40 -155 -57 -298 -57 -479 0 -404 109 -764 332 -1098 65 -97 115 -156
238 -278 161 -162 269 -245 450 -344 167 -93 475 -195 635 -212 l61 -6 41 128
c22 71 79 251 126 399 47 149 128 404 180 568 52 163 93 297 92 297 -1 0 -22
-7 -46 -15 -69 -25 -183 -29 -269 -11 -317 66 -523 380 -456 691 14 66 53 158
86 205 12 17 18 35 14 42 -4 7 -4 10 1 6 4 -4 37 20 74 54 67 63 168 118 252
137 69 16 238 13 300 -5 89 -26 182 -81 247 -146 34 -33 62 -64 62 -69 0 -5 4
-9 8 -9 5 0 24 44 42 98 86 253 229 594 329 787 75 146 178 314 223 365 l29
34 -68 44 c-90 58 -226 126 -336 168 -117 45 -340 101 -453 114 -118 13 -406
11 -519 -5z m333 -5 c40 0 71 -3 69 -7 -3 -5 14 -7 37 -5 47 4 189 -15 266
-35 14 -3 29 -5 33 -5 4 1 18 -3 30 -10 12 -7 27 -13 32 -14 37 -3 85 -18 85
-26 0 -5 5 -6 10 -3 6 4 27 -3 46 -14 19 -12 33 -17 30 -12 -4 5 3 7 15 4 13
-4 17 -8 9 -13 -6 -4 7 -10 29 -13 22 -3 57 -16 78 -28 21 -13 40 -24 43 -24
3 0 15 -10 27 -22 15 -15 29 -20 44 -16 15 4 20 3 15 -5 -4 -7 -1 -12 7 -12 8
0 26 -11 42 -26 15 -14 29 -23 32 -20 3 3 11 0 17 -7 10 -8 8 -16 -7 -34 -11
-12 -25 -20 -30 -16 -6 3 -7 1 -4 -4 4 -6 0 -24 -8 -39 -8 -16 -15 -24 -15
-19 0 6 -6 -1 -13 -15 -8 -14 -18 -24 -24 -23 -6 1 -9 -9 -7 -23 1 -13 -2 -22
-7 -18 -5 3 -9 -4 -9 -15 0 -11 -4 -23 -10 -26 -5 -3 -19 -25 -30 -48 -10 -23
-20 -37 -20 -32 0 6 -13 -19 -29 -54 -18 -39 -31 -58 -35 -50 -3 8 -4 4 -2 -9
2 -12 0 -20 -5 -16 -9 5 -11 0 -13 -28 -1 -7 -7 -19 -14 -26 -7 -8 -10 -18 -7
-23 4 -5 1 -9 -4 -9 -6 0 -11 -8 -11 -18 0 -10 -6 -26 -13 -37 -13 -16 -13
-15 -9 16 2 19 1 31 -3 27 -3 -3 -7 -27 -7 -52 0 -25 -4 -46 -9 -46 -6 0 -9
-6 -7 -12 1 -7 -7 -31 -19 -53 -11 -22 -24 -51 -28 -65 -9 -29 -41 -107 -56
-133 -5 -10 -7 -22 -4 -27 4 -6 2 -10 -3 -10 -5 0 -12 -14 -16 -31 -3 -17 -10
-28 -15 -25 -5 3 -8 0 -7 -7 2 -22 -56 -194 -75 -218 l-18 -24 -10 28 c-6 15
-13 27 -16 27 -4 0 -3 -6 1 -12 4 -7 -2 -5 -14 6 -12 10 -19 23 -15 29 3 5 2
7 -3 4 -5 -3 -21 4 -34 15 -14 11 -19 16 -11 12 9 -5 12 -3 7 4 -4 7 -15 12
-25 12 -10 0 -29 8 -42 18 -66 51 -219 86 -339 77 -82 -5 -172 -27 -198 -48
-7 -5 -15 -7 -19 -4 -3 4 -19 -3 -35 -14 -16 -12 -36 -18 -44 -15 -8 3 -12 1
-9 -4 3 -5 -6 -21 -21 -35 -21 -20 -30 -23 -48 -14 -19 9 -19 9 -4 -4 16 -12
13 -18 -31 -61 -26 -25 -50 -44 -53 -40 -4 3 -4 -3 -1 -14 3 -14 -2 -24 -16
-31 -12 -7 -21 -17 -21 -24 0 -7 4 -6 10 3 5 8 10 10 10 4 0 -6 -9 -21 -20
-34 -11 -13 -20 -29 -20 -37 0 -7 -4 -13 -10 -13 -5 0 -10 -5 -10 -11 0 -5 5
-7 11 -3 6 3 3 -8 -6 -26 -25 -49 -31 -218 -10 -305 9 -38 18 -80 19 -91 1
-12 10 -29 19 -39 9 -9 17 -22 17 -28 0 -7 15 -30 34 -52 19 -22 35 -43 35
-47 1 -11 32 -40 64 -61 16 -10 25 -23 21 -29 -4 -7 -3 -8 4 -4 6 3 16 -3 22
-14 6 -12 18 -19 25 -16 7 2 19 -1 25 -9 8 -10 7 -16 -7 -23 -15 -9 -13 -10 9
-9 14 1 23 6 20 12 -3 6 1 5 9 -1 8 -7 46 -22 86 -35 40 -12 70 -26 67 -30 -2
-4 10 -4 27 1 18 5 35 8 38 6 3 -2 38 -7 76 -10 45 -4 65 -2 55 4 -10 6 -5 9
20 8 19 -1 43 2 53 6 12 6 17 4 17 -8 0 -9 -7 -19 -15 -22 -8 -4 -12 -10 -9
-15 3 -5 -3 -33 -12 -62 -10 -28 -19 -54 -19 -57 -4 -24 -28 -86 -46 -122 -5
-10 -6 -25 -2 -34 5 -13 3 -15 -7 -9 -8 5 -11 4 -6 -3 3 -6 -3 -37 -15 -69
-12 -32 -22 -67 -23 -78 0 -11 -4 -24 -7 -30 -4 -5 -16 -44 -29 -85 -42 -140
-60 -193 -71 -206 -6 -7 -8 -22 -4 -33 3 -10 2 -22 -3 -25 -5 -3 -15 -26 -22
-51 -7 -25 -16 -48 -21 -51 -4 -2 -5 -12 -2 -21 4 -11 3 -14 -5 -9 -13 8 -15
-2 -12 -46 1 -14 -3 -29 -9 -32 -5 -4 -15 -31 -21 -61 -6 -31 -15 -53 -20 -50
-4 3 -8 -1 -7 -8 1 -38 -4 -58 -14 -51 -8 4 -9 0 -4 -15 4 -13 2 -21 -5 -21
-7 0 -10 -6 -7 -14 3 -8 -1 -20 -9 -26 -11 -10 -14 -10 -14 1 0 10 -3 10 -12
1 -8 -8 -17 -8 -30 -1 -11 6 -26 8 -33 5 -8 -3 -15 0 -17 6 -2 6 -30 13 -62
16 -39 3 -53 8 -44 14 8 5 3 6 -14 2 -29 -6 -128 23 -128 39 0 4 -5 5 -10 2
-14 -8 -52 4 -45 15 3 4 -4 6 -15 3 -12 -3 -55 12 -107 38 -49 24 -90 44 -93
45 -15 2 -60 28 -60 35 0 4 -10 11 -22 15 -13 4 -37 18 -55 31 -18 14 -37 22
-43 18 -6 -4 -9 -1 -8 5 2 7 -4 14 -12 15 -9 1 -33 15 -55 29 -49 33 -58 43
-25 26 14 -7 23 -10 20 -7 -11 12 -81 57 -89 57 -5 0 -15 8 -22 18 -13 16 -13
16 6 2 19 -14 19 -14 6 3 -8 10 -18 16 -23 15 -16 -6 -80 61 -72 73 4 7 3 9
-3 6 -6 -4 -30 12 -54 35 -24 23 -36 36 -26 29 11 -9 17 -10 17 -2 0 6 -5 11
-10 11 -19 0 -72 59 -64 71 4 7 3 9 -4 5 -6 -3 -26 14 -46 41 -20 27 -40 54
-46 61 -6 6 -7 12 -3 12 4 0 -3 7 -15 16 -12 8 -22 24 -22 34 0 10 -4 20 -9
22 -9 3 -37 47 -68 106 -9 17 -20 32 -24 32 -4 0 -5 10 -2 23 3 13 2 18 -4 10
-5 -8 -15 4 -27 35 -33 81 -56 136 -66 154 -6 10 -10 27 -10 37 0 11 -4 23
-10 26 -5 3 -10 11 -10 16 0 6 5 7 10 4 6 -3 10 -2 10 3 0 6 -7 12 -15 16 -9
3 -12 12 -8 22 3 9 2 19 -3 23 -13 8 -37 64 -25 57 5 -3 7 3 4 14 -3 11 -8 20
-12 20 -3 0 -7 15 -7 33 -2 52 -9 101 -16 112 -4 6 -8 38 -10 72 -2 34 -7 59
-11 56 -4 -2 -7 79 -7 181 1 103 5 184 8 182 4 -2 7 15 8 37 1 23 7 69 13 102
7 33 14 71 16 85 2 14 10 50 19 80 9 30 18 65 20 78 2 13 8 28 15 35 6 6 11
21 11 34 0 12 13 49 30 81 16 33 30 65 30 71 0 7 3 10 8 8 4 -3 8 7 9 21 0 15
6 28 12 30 6 2 9 8 5 13 -3 5 0 9 5 9 6 0 11 7 11 15 0 8 11 30 24 50 22 32
26 34 35 18 13 -23 14 -8 1 17 -7 13 -7 21 0 25 5 3 10 13 10 21 0 19 25 45
34 36 4 -3 4 1 1 9 -3 9 5 26 21 43 43 42 74 88 67 99 -3 6 -1 7 5 3 7 -4 20
7 33 28 12 20 25 36 30 36 5 0 9 5 9 11 0 6 47 59 105 117 58 57 105 102 105
98 0 -7 119 80 154 112 11 9 16 11 12 5 -5 -9 -2 -11 8 -7 9 3 14 11 13 16 -1
6 4 13 12 16 8 3 11 0 7 -7 -5 -7 -1 -9 9 -5 9 4 14 13 11 21 -3 8 -2 12 3 9
5 -3 14 0 20 8 6 7 26 16 43 20 17 3 28 9 25 13 -11 11 51 43 69 36 11 -4 15
-2 11 4 -4 7 5 14 23 18 17 4 28 11 24 16 -5 9 22 14 66 10 18 -1 21 1 11 8
-10 6 3 14 45 27 33 10 65 18 71 17 7 0 10 4 6 10 -4 6 2 8 15 5 12 -3 23 -1
24 4 3 7 13 6 28 -2 23 -12 24 -12 10 5 -14 16 -12 17 20 11 22 -5 30 -4 22 2
-13 9 14 15 105 25 12 2 25 6 29 10 4 4 39 7 78 7 45 0 66 4 57 9 -9 6 -5 8
15 7 16 -2 52 1 79 5 28 4 59 5 70 3 11 -2 53 -4 93 -4z m867 -230 c3 -6 -1
-7 -9 -4 -18 7 -21 14 -7 14 6 0 13 -4 16 -10z"/>
<path d="M1978 4733 c7 -3 16 -2 19 1 4 3 -2 6 -13 5 -11 0 -14 -3 -6 -6z"/>
<path d="M905 4360 c-3 -6 1 -7 9 -4 18 7 21 14 7 14 -6 0 -13 -4 -16 -10z"/>
<path d="M770 4273 c-14 -14 -19 -24 -11 -22 13 5 49 49 40 49 -2 0 -15 -12
-29 -27z"/>
<path d="M609 4103 c-13 -16 -12 -17 4 -4 9 7 17 15 17 17 0 8 -8 3 -21 -13z"/>
<path d="M437 3856 c-4 -10 -1 -13 8 -9 8 3 12 9 9 14 -7 12 -11 11 -17 -5z"/>
<path d="M2591 3464 c0 -11 3 -14 6 -6 3 7 2 16 -1 19 -3 4 -6 -2 -5 -13z"/>
<path d="M142 3020 c0 -14 2 -19 5 -12 2 6 2 18 0 25 -3 6 -5 1 -5 -13z"/>
<path d="M112 2880 c0 -19 2 -27 5 -17 2 9 2 25 0 35 -3 9 -5 1 -5 -18z"/>
<path d="M1540 2430 c0 -5 5 -10 11 -10 5 0 7 5 4 10 -3 6 -8 10 -11 10 -2 0
-4 -4 -4 -10z"/>
<path d="M1606 2352 c-3 -4 4 -9 15 -9 23 -2 25 3 4 10 -8 4 -16 3 -19 -1z"/>
<path d="M2340 3210 c0 -5 5 -10 11 -10 5 0 7 5 4 10 -3 6 -8 10 -11 10 -2 0
-4 -4 -4 -10z"/>
<path d="M2561 2784 c0 -11 3 -14 6 -6 3 7 2 16 -1 19 -3 4 -6 -2 -5 -13z"/>
</g>
</svg>
