<svg id="svg" version="1.1" xmlns="http://www.w3.org/2000/svg" xmlns:xlink="http://www.w3.org/1999/xlink" width="400" height="400.8350730688935" viewBox="0, 0, 400,400.8350730688935"><g id="svgg"><path id="path0" d="M188.600 36.047 C 132.113 40.807,84.688 82.646,72.808 138.200 C 60.055 197.840,88.703 257.470,142.948 284.192 C 158.068 291.640,163.839 292.447,166.346 287.465 L 167.292 285.586 166.996 272.962 L 166.700 260.338 165.650 260.602 C 152.962 263.788,138.725 261.296,130.497 254.449 C 126.842 251.407,125.636 249.584,121.459 240.779 C 117.893 233.264,114.558 229.248,108.717 225.435 C 101.991 221.044,102.483 217.425,109.800 217.481 C 117.270 217.539,124.482 222.482,130.542 231.698 C 138.033 243.091,148.074 247.213,160.566 244.025 C 167.157 242.343,167.393 242.174,168.198 238.535 C 169.197 234.019,170.620 230.735,173.034 227.370 C 174.199 225.746,175.028 224.347,174.876 224.261 C 174.724 224.175,173.430 223.982,172.000 223.832 C 135.964 220.049,116.815 198.226,116.688 160.800 C 116.643 147.582,119.898 137.302,127.154 127.746 L 129.869 124.168 129.314 122.584 C 126.269 113.892,126.938 99.638,130.801 90.905 L 131.555 89.200 134.078 89.207 C 141.202 89.227,153.110 93.834,163.375 100.543 C 167.389 103.167,166.540 103.094,173.800 101.440 C 189.959 97.760,208.994 97.772,225.600 101.474 C 228.130 102.038,230.661 102.583,231.224 102.684 C 231.989 102.822,233.204 102.245,236.024 100.408 C 246.480 93.593,258.951 88.899,265.603 89.276 L 267.799 89.400 268.737 91.767 C 272.301 100.769,272.839 113.884,269.986 122.228 L 269.293 124.256 271.097 126.428 C 278.891 135.808,282.573 146.827,282.519 160.600 C 282.371 197.817,264.574 218.605,228.600 223.583 C 223.032 224.353,223.302 224.138,225.197 226.292 C 231.105 233.003,231.721 236.433,231.982 264.071 C 232.195 286.600,232.219 287.169,233.028 288.271 C 235.885 292.163,240.912 291.384,254.334 284.970 C 336.873 245.526,355.048 136.374,289.733 72.379 C 262.951 46.138,226.072 32.889,188.600 36.047 M126.200 318.962 C 117.195 321.187,113.056 327.678,112.528 340.400 C 112.085 351.109,114.647 358.238,120.279 361.969 C 126.020 365.772,136.749 366.222,144.010 362.963 L 146.412 361.885 146.306 350.243 L 146.200 338.600 138.500 338.491 L 130.800 338.383 130.800 342.575 L 130.800 346.766 133.900 346.883 L 137.000 347.000 137.114 351.305 L 137.227 355.609 136.188 356.005 C 129.951 358.376,123.803 354.496,122.387 347.294 C 119.514 332.694,126.962 324.428,139.984 327.764 C 141.378 328.122,142.623 328.311,142.749 328.184 C 143.059 327.875,144.362 322.418,144.383 321.343 C 144.428 319.037,132.318 317.451,126.200 318.962 M189.600 342.200 L 189.600 364.426 194.100 364.313 L 198.600 364.200 198.707 354.700 L 198.814 345.200 205.400 345.200 L 211.986 345.200 212.093 354.700 L 212.200 364.200 216.700 364.313 L 221.200 364.426 221.200 342.213 L 221.200 320.000 216.608 320.000 L 212.016 320.000 211.908 328.300 L 211.800 336.600 205.400 336.600 L 199.000 336.600 198.800 328.400 L 198.600 320.200 194.100 320.087 L 189.600 319.974 189.600 342.200 M258.000 342.216 L 258.000 364.432 261.300 364.316 C 264.377 364.208,264.609 364.139,264.728 363.300 C 264.887 362.181,264.871 362.180,267.432 363.433 C 278.840 369.015,286.555 363.017,286.515 348.600 C 286.480 335.862,279.356 329.955,269.362 334.376 C 268.337 334.829,267.431 335.200,267.349 335.200 C 267.267 335.200,267.200 331.780,267.200 327.600 L 267.200 320.000 262.600 320.000 L 258.000 320.000 258.000 342.216 M152.592 322.528 C 150.854 324.266,150.461 326.250,151.459 328.257 C 154.033 333.436,161.207 331.862,161.197 326.120 C 161.190 321.723,155.691 319.429,152.592 322.528 M169.200 329.957 L 169.200 334.313 168.100 334.579 C 167.495 334.725,166.318 335.023,165.484 335.242 L 163.967 335.640 164.084 338.720 L 164.200 341.800 166.672 341.918 L 169.143 342.037 169.272 350.518 C 169.414 359.913,169.756 361.317,172.349 363.164 C 174.145 364.443,178.191 365.336,180.904 365.052 C 185.402 364.582,185.200 364.773,185.200 361.003 L 185.200 357.693 182.547 357.524 C 178.490 357.266,178.400 357.076,178.400 348.772 L 178.400 342.032 181.700 341.916 L 185.000 341.800 185.000 338.000 L 185.000 334.200 181.700 334.084 L 178.400 333.968 178.400 329.784 L 178.400 325.600 173.800 325.600 L 169.200 325.600 169.200 329.957 M151.479 334.254 C 150.889 334.845,151.158 363.467,151.758 363.965 C 152.124 364.269,153.748 364.389,156.458 364.314 L 160.600 364.200 160.600 349.200 L 160.600 334.200 156.179 334.088 C 153.747 334.026,151.632 334.101,151.479 334.254 M225.756 334.572 C 224.938 336.702,225.828 358.655,226.810 360.600 C 229.456 365.838,237.131 366.606,246.268 362.547 C 246.536 362.428,246.793 362.737,246.868 363.269 C 246.992 364.140,247.199 364.208,250.105 364.317 L 253.210 364.434 253.105 349.317 L 253.000 334.200 249.400 334.082 C 247.420 334.018,245.395 334.066,244.900 334.190 L 244.000 334.415 244.000 345.198 L 244.000 355.982 242.951 356.669 C 241.093 357.886,237.448 357.884,236.228 356.664 L 235.200 355.636 235.200 345.298 C 235.200 337.791,235.069 334.829,234.720 334.480 C 233.982 333.742,226.043 333.823,225.756 334.572 M275.426 342.024 C 278.012 344.453,277.915 354.741,275.286 356.825 C 274.066 357.792,270.428 357.770,268.300 356.782 L 267.200 356.272 267.200 349.148 L 267.200 342.024 269.100 341.419 C 271.630 340.613,274.184 340.857,275.426 342.024 " stroke="none" fill="#fafafa" fill-rule="evenodd"></path><path id="path1" d="M0.000 200.400 L 0.000 400.800 200.000 400.800 L 400.000 400.800 400.000 200.400 L 400.000 0.000 200.000 0.000 L 0.000 0.000 0.000 200.400 M210.200 35.621 C 292.929 42.727,347.912 124.086,324.127 204.200 C 313.772 239.078,289.301 268.195,257.000 284.070 C 242.862 291.019,237.437 292.448,234.132 290.094 C 231.532 288.242,231.572 288.634,231.588 265.512 C 231.608 237.418,230.845 233.202,224.420 225.884 C 222.788 224.026,222.982 223.772,226.289 223.441 C 263.782 219.688,282.886 197.312,281.900 158.305 C 281.564 144.993,278.565 136.436,270.878 126.858 L 268.916 124.414 269.848 121.196 C 272.813 110.961,270.662 90.536,266.539 89.762 C 260.794 88.684,248.725 92.991,237.000 100.301 L 232.200 103.294 227.327 102.232 C 208.376 98.105,190.067 98.177,170.800 102.455 L 167.000 103.299 162.200 100.304 C 151.862 93.853,143.367 90.467,135.739 89.758 C 131.930 89.404,131.433 89.733,130.366 93.306 C 127.294 103.592,127.072 115.068,129.796 122.790 L 130.378 124.438 128.615 126.603 C 117.939 139.710,114.690 156.192,118.604 177.385 C 123.622 204.551,142.162 220.405,172.459 223.436 C 176.345 223.825,176.444 223.989,174.256 226.423 C 171.792 229.162,169.826 233.330,168.682 238.235 L 167.757 242.200 163.978 243.476 C 149.455 248.380,138.450 244.484,129.824 231.383 C 124.098 222.688,117.093 217.955,109.800 217.858 C 103.263 217.770,102.383 220.274,107.633 224.020 C 115.932 229.941,119.654 234.608,123.211 243.554 C 128.704 257.369,143.726 263.823,162.969 260.634 C 166.169 260.104,167.003 260.076,167.272 260.488 C 168.099 261.758,167.454 287.070,166.563 288.271 C 163.928 291.825,160.646 292.062,153.400 289.221 C 94.706 266.210,60.715 206.147,71.216 144.000 C 82.449 77.518,143.523 29.893,210.200 35.621 M141.852 318.953 C 144.920 319.924,145.049 320.210,144.211 324.204 C 143.206 328.990,143.141 329.053,139.943 328.251 C 128.574 325.399,122.942 329.457,122.504 340.816 C 122.106 351.130,124.766 355.473,131.742 355.901 C 136.532 356.194,136.743 355.997,136.665 351.323 L 136.600 347.400 133.817 347.280 C 130.105 347.120,130.000 346.997,130.000 342.827 C 130.000 337.707,129.527 337.961,138.801 338.091 L 146.600 338.200 146.706 350.118 L 146.812 362.036 144.271 363.226 C 137.533 366.379,128.192 366.365,121.731 363.193 C 108.607 356.748,108.584 326.796,121.698 320.150 C 126.145 317.897,136.559 317.278,141.852 318.953 M199.108 328.100 L 199.216 336.400 205.400 336.400 L 211.584 336.400 211.692 328.100 L 211.800 319.800 216.600 319.800 L 221.400 319.800 221.400 342.200 L 221.400 364.600 216.600 364.600 L 211.800 364.600 211.693 355.100 L 211.586 345.600 205.400 345.600 L 199.214 345.600 199.107 355.100 L 199.000 364.600 194.200 364.600 L 189.400 364.600 189.296 342.600 C 189.239 330.500,189.280 320.369,189.388 320.087 C 189.536 319.701,190.749 319.602,194.292 319.687 L 199.000 319.800 199.108 328.100 M267.509 327.258 L 267.617 334.717 269.509 333.999 C 280.973 329.648,288.067 337.068,286.764 352.048 C 285.715 364.108,277.426 369.110,267.359 363.758 C 266.336 363.214,265.476 362.821,265.449 362.884 C 264.761 364.506,264.526 364.600,261.156 364.600 L 257.800 364.600 257.696 342.600 C 257.639 330.500,257.680 320.369,257.788 320.087 C 257.936 319.701,259.149 319.602,262.692 319.687 L 267.400 319.800 267.509 327.258 M159.119 321.461 C 161.230 322.799,162.258 326.375,161.150 328.526 C 159.273 332.170,155.039 332.930,152.236 330.127 C 147.668 325.559,153.667 318.006,159.119 321.461 M178.713 329.684 L 178.827 333.968 182.113 334.084 L 185.400 334.200 185.516 337.967 C 185.653 342.423,185.685 342.385,181.700 342.394 L 178.800 342.400 178.806 348.900 C 178.814 356.899,178.988 357.200,183.626 357.200 L 185.600 357.200 185.600 360.810 C 185.600 364.985,185.536 365.049,181.011 365.472 C 171.715 366.340,168.810 362.730,168.804 350.300 L 168.800 342.400 166.700 342.394 C 163.659 342.385,163.545 342.240,163.682 338.566 L 163.800 335.402 166.200 334.768 L 168.600 334.134 168.713 329.655 L 168.826 325.176 173.713 325.288 L 178.600 325.400 178.713 329.684 M161.105 348.953 C 161.229 366.356,161.733 364.800,155.965 364.800 C 150.339 364.800,150.800 366.186,150.800 349.259 C 150.800 332.163,150.170 333.950,156.147 334.088 L 161.000 334.200 161.105 348.953 M235.600 345.133 C 235.789 355.473,235.843 356.098,236.600 356.667 C 237.517 357.357,240.691 357.200,242.494 356.377 L 243.587 355.877 243.694 345.039 L 243.800 334.200 248.671 334.088 C 253.474 333.977,253.543 333.988,253.671 334.888 C 253.742 335.390,253.710 342.280,253.600 350.200 L 253.400 364.600 250.299 364.717 C 247.331 364.829,247.179 364.791,246.744 363.837 L 246.290 362.840 244.833 363.583 C 236.756 367.704,227.734 365.493,225.752 358.907 C 225.163 356.951,224.917 334.816,225.478 334.255 C 225.631 334.102,227.926 334.027,230.578 334.088 L 235.400 334.200 235.600 345.133 M269.400 341.722 L 267.800 342.225 267.691 349.119 L 267.581 356.013 268.691 356.456 C 274.353 358.718,276.854 356.638,276.923 349.610 C 276.995 342.393,274.752 340.041,269.400 341.722 " stroke="none" fill="#040404" fill-rule="evenodd"></path><path id="path2" d="M190.305 35.883 C 190.802 35.979,191.522 35.975,191.905 35.875 C 192.287 35.775,191.880 35.696,191.000 35.701 C 190.120 35.705,189.807 35.787,190.305 35.883 M207.300 35.876 C 207.685 35.976,208.315 35.976,208.700 35.876 C 209.085 35.775,208.770 35.693,208.000 35.693 C 207.230 35.693,206.915 35.775,207.300 35.876 M110.187 71.300 L 107.800 73.800 110.300 71.413 C 112.622 69.195,112.983 68.800,112.687 68.800 C 112.626 68.800,111.501 69.925,110.187 71.300 M290.800 73.400 C 292.660 75.270,294.272 76.800,294.382 76.800 C 294.492 76.800,293.060 75.270,291.200 73.400 C 289.340 71.530,287.728 70.000,287.618 70.000 C 287.508 70.000,288.940 71.530,290.800 73.400 M131.445 89.528 C 131.333 89.708,131.773 89.777,132.421 89.682 C 133.070 89.587,133.600 89.440,133.600 89.355 C 133.600 89.050,131.643 89.207,131.445 89.528 M135.300 89.476 C 135.685 89.576,136.315 89.576,136.700 89.476 C 137.085 89.375,136.770 89.293,136.000 89.293 C 135.230 89.293,134.915 89.375,135.300 89.476 M262.500 89.476 C 262.885 89.576,263.515 89.576,263.900 89.476 C 264.285 89.375,263.970 89.293,263.200 89.293 C 262.430 89.293,262.115 89.375,262.500 89.476 M198.900 98.676 C 199.285 98.776,199.915 98.776,200.300 98.676 C 200.685 98.575,200.370 98.493,199.600 98.493 C 198.830 98.493,198.515 98.575,198.900 98.676 M190.705 99.083 C 191.202 99.179,191.922 99.175,192.305 99.075 C 192.687 98.975,192.280 98.896,191.400 98.901 C 190.520 98.905,190.207 98.987,190.705 99.083 M207.105 99.083 C 207.602 99.179,208.322 99.175,208.705 99.075 C 209.087 98.975,208.680 98.896,207.800 98.901 C 206.920 98.905,206.607 98.987,207.105 99.083 M271.744 109.200 C 271.744 111.290,271.812 112.145,271.894 111.100 C 271.976 110.055,271.976 108.345,271.894 107.300 C 271.812 106.255,271.744 107.110,271.744 109.200 M127.342 109.400 C 127.341 111.380,127.408 112.240,127.492 111.312 C 127.576 110.384,127.577 108.764,127.495 107.712 C 127.412 106.660,127.343 107.420,127.342 109.400 M70.093 154.000 C 70.093 154.770,70.175 155.085,70.276 154.700 C 70.376 154.315,70.376 153.685,70.276 153.300 C 70.175 152.915,70.093 153.230,70.093 154.000 M328.901 156.600 C 328.905 157.480,328.987 157.793,329.083 157.295 C 329.179 156.798,329.175 156.078,329.075 155.695 C 328.975 155.313,328.896 155.720,328.901 156.600 M282.537 159.800 C 282.539 161.560,282.609 162.230,282.693 161.289 C 282.778 160.349,282.777 158.909,282.691 158.089 C 282.605 157.270,282.536 158.040,282.537 159.800 M116.531 160.200 C 116.533 161.740,116.605 162.321,116.692 161.491 C 116.779 160.661,116.777 159.401,116.689 158.691 C 116.600 157.981,116.529 158.660,116.531 160.200 M69.720 160.000 C 69.720 161.210,69.795 161.705,69.887 161.100 C 69.978 160.495,69.978 159.505,69.887 158.900 C 69.795 158.295,69.720 158.790,69.720 160.000 M329.351 166.400 C 329.351 168.930,329.416 169.965,329.496 168.700 C 329.575 167.435,329.575 165.365,329.496 164.100 C 329.416 162.835,329.351 163.870,329.351 166.400 M282.093 168.400 C 282.093 169.170,282.175 169.485,282.276 169.100 C 282.376 168.715,282.376 168.085,282.276 167.700 C 282.175 167.315,282.093 167.630,282.093 168.400 M69.714 173.000 C 69.717 174.100,69.795 174.503,69.887 173.895 C 69.979 173.286,69.977 172.386,69.882 171.895 C 69.787 171.403,69.711 171.900,69.714 173.000 M328.909 176.000 C 328.909 176.990,328.987 177.395,329.082 176.900 C 329.178 176.405,329.178 175.595,329.082 175.100 C 328.987 174.605,328.909 175.010,328.909 176.000 M328.493 180.400 C 328.493 181.170,328.575 181.485,328.676 181.100 C 328.776 180.715,328.776 180.085,328.676 179.700 C 328.575 179.315,328.493 179.630,328.493 180.400 M132.400 207.000 C 133.146 207.770,133.847 208.400,133.957 208.400 C 134.067 208.400,133.546 207.770,132.800 207.000 C 132.054 206.230,131.353 205.600,131.243 205.600 C 131.133 205.600,131.654 206.230,132.400 207.000 M108.900 217.476 C 109.285 217.576,109.915 217.576,110.300 217.476 C 110.685 217.375,110.370 217.293,109.600 217.293 C 108.830 217.293,108.515 217.375,108.900 217.476 M105.600 223.000 C 106.346 223.770,107.047 224.400,107.157 224.400 C 107.267 224.400,106.746 223.770,106.000 223.000 C 105.254 222.230,104.553 221.600,104.443 221.600 C 104.333 221.600,104.854 222.230,105.600 223.000 M124.000 223.725 C 124.000 223.794,124.585 224.379,125.300 225.025 L 126.600 226.200 125.425 224.900 C 124.330 223.688,124.000 223.416,124.000 223.725 M174.934 224.268 C 175.081 224.415,174.886 224.910,174.501 225.368 C 173.801 226.199,173.801 226.199,174.700 225.438 C 175.683 224.606,175.865 224.000,175.133 224.000 C 174.877 224.000,174.787 224.120,174.934 224.268 M231.701 244.600 C 231.705 245.480,231.787 245.793,231.883 245.295 C 231.979 244.798,231.975 244.078,231.875 243.695 C 231.775 243.313,231.696 243.720,231.701 244.600 M128.600 252.800 C 129.459 253.680,130.252 254.400,130.362 254.400 C 130.472 254.400,129.859 253.680,129.000 252.800 C 128.141 251.920,127.348 251.200,127.238 251.200 C 127.128 251.200,127.741 251.920,128.600 252.800 M291.186 259.100 L 289.000 261.400 291.300 259.214 C 293.437 257.182,293.783 256.800,293.486 256.800 C 293.424 256.800,292.389 257.835,291.186 259.100 M110.600 262.000 C 111.906 263.320,113.065 264.400,113.175 264.400 C 113.285 264.400,112.306 263.320,111.000 262.000 C 109.694 260.680,108.535 259.600,108.425 259.600 C 108.315 259.600,109.294 260.680,110.600 262.000 M166.963 266.800 C 166.963 270.430,167.023 271.915,167.098 270.100 C 167.172 268.285,167.172 265.315,167.098 263.500 C 167.023 261.685,166.963 263.170,166.963 266.800 M151.513 261.895 C 152.676 261.976,154.476 261.976,155.513 261.893 C 156.551 261.811,155.600 261.745,153.400 261.746 C 151.200 261.747,150.351 261.814,151.513 261.895 M231.773 276.200 C 231.773 281.700,231.830 284.005,231.899 281.323 C 231.968 278.641,231.968 274.141,231.899 271.323 C 231.830 268.505,231.774 270.700,231.773 276.200 M130.900 318.291 C 131.725 318.378,133.075 318.378,133.900 318.291 C 134.725 318.205,134.050 318.134,132.400 318.134 C 130.750 318.134,130.075 318.205,130.900 318.291 M189.387 342.200 C 189.387 354.300,189.437 359.308,189.500 353.328 C 189.562 347.349,189.562 337.449,189.500 331.328 C 189.438 325.208,189.387 330.100,189.387 342.200 M211.691 328.319 L 211.600 336.438 205.237 336.319 C 201.738 336.254,198.959 336.335,199.061 336.500 C 199.408 337.059,211.603 336.857,211.821 336.288 C 211.930 336.007,211.965 332.272,211.900 327.988 L 211.782 320.200 211.691 328.319 M221.387 342.200 C 221.387 354.300,221.437 359.308,221.500 353.328 C 221.562 347.349,221.562 337.449,221.500 331.328 C 221.438 325.208,221.387 330.100,221.387 342.200 M257.787 342.200 C 257.787 354.300,257.837 359.308,257.900 353.328 C 257.962 347.349,257.962 337.449,257.900 331.328 C 257.838 325.208,257.787 330.100,257.787 342.200 M155.505 321.083 C 156.002 321.179,156.722 321.175,157.105 321.075 C 157.487 320.975,157.080 320.896,156.200 320.901 C 155.320 320.905,155.007 320.987,155.505 321.083 M267.364 327.400 C 267.363 331.140,267.423 332.724,267.497 330.920 C 267.571 329.115,267.572 326.055,267.498 324.120 C 267.425 322.184,267.364 323.660,267.364 327.400 M168.973 325.727 C 168.861 326.017,168.829 328.132,168.901 330.427 L 169.031 334.600 169.116 330.113 L 169.200 325.626 173.700 325.499 L 178.200 325.371 173.687 325.286 C 170.261 325.221,169.126 325.327,168.973 325.727 M253.200 349.120 L 253.399 364.200 253.505 349.425 C 253.563 341.299,253.473 334.513,253.305 334.345 C 253.137 334.177,253.090 340.826,253.200 349.120 M130.546 342.600 C 130.547 344.800,130.614 345.649,130.695 344.487 C 130.776 343.324,130.776 341.524,130.693 340.487 C 130.611 339.449,130.545 340.400,130.546 342.600 M271.505 341.083 C 272.002 341.179,272.722 341.175,273.105 341.075 C 273.487 340.975,273.080 340.896,272.200 340.901 C 271.320 340.905,271.007 340.987,271.505 341.083 M168.966 349.200 C 168.966 353.270,169.025 354.935,169.098 352.900 C 169.171 350.865,169.171 347.535,169.098 345.500 C 169.025 343.465,168.966 345.130,168.966 349.200 M211.682 354.476 C 211.637 359.688,211.735 364.037,211.900 364.139 C 212.065 364.241,212.154 361.507,212.097 358.063 C 211.901 346.208,211.764 345.022,211.682 354.476 M136.798 351.482 C 136.689 353.947,136.742 355.821,136.915 355.647 C 137.088 355.473,137.177 353.456,137.112 351.165 L 136.996 347.000 136.798 351.482 M130.100 356.276 C 130.485 356.376,131.115 356.376,131.500 356.276 C 131.885 356.175,131.570 356.093,130.800 356.093 C 130.030 356.093,129.715 356.175,130.100 356.276 M133.700 356.276 C 134.085 356.376,134.715 356.376,135.100 356.276 C 135.485 356.175,135.170 356.093,134.400 356.093 C 133.630 356.093,133.315 356.175,133.700 356.276 " stroke="none" fill="#848484" fill-rule="evenodd"></path><path id="path3" d="M193.913 35.495 C 195.076 35.576,196.876 35.576,197.913 35.493 C 198.951 35.411,198.000 35.345,195.800 35.346 C 193.600 35.347,192.751 35.414,193.913 35.495 M203.907 35.490 C 204.626 35.579,205.706 35.577,206.307 35.486 C 206.908 35.395,206.320 35.322,205.000 35.324 C 203.680 35.326,203.188 35.401,203.907 35.490 M187.300 35.876 C 187.685 35.976,188.315 35.976,188.700 35.876 C 189.085 35.775,188.770 35.693,188.000 35.693 C 187.230 35.693,186.915 35.775,187.300 35.876 M210.500 35.876 C 210.885 35.976,211.515 35.976,211.900 35.876 C 212.285 35.775,211.970 35.693,211.200 35.693 C 210.430 35.693,210.115 35.775,210.500 35.876 M108.191 72.900 L 105.000 76.200 108.300 73.009 C 111.365 70.046,111.782 69.600,111.491 69.600 C 111.430 69.600,109.945 71.085,108.191 72.900 M290.600 72.800 C 291.683 73.900,292.660 74.800,292.770 74.800 C 292.880 74.800,292.083 73.900,291.000 72.800 C 289.917 71.700,288.940 70.800,288.830 70.800 C 288.720 70.800,289.517 71.700,290.600 72.800 M295.600 78.125 C 295.600 78.194,296.185 78.779,296.900 79.425 L 298.200 80.600 297.025 79.300 C 295.930 78.088,295.600 77.816,295.600 78.125 M196.700 99.097 C 198.295 99.173,200.905 99.173,202.500 99.097 C 204.095 99.021,202.790 98.959,199.600 98.959 C 196.410 98.959,195.105 99.021,196.700 99.097 M189.105 99.483 C 189.602 99.579,190.322 99.575,190.705 99.475 C 191.087 99.375,190.680 99.296,189.800 99.301 C 188.920 99.305,188.607 99.387,189.105 99.483 M208.900 99.476 C 209.285 99.576,209.915 99.576,210.300 99.476 C 210.685 99.375,210.370 99.293,209.600 99.293 C 208.830 99.293,208.515 99.375,208.900 99.476 M127.714 106.200 C 127.717 107.300,127.795 107.703,127.887 107.095 C 127.979 106.486,127.977 105.586,127.882 105.095 C 127.787 104.603,127.711 105.100,127.714 106.200 M271.301 105.800 C 271.305 106.680,271.387 106.993,271.483 106.495 C 271.579 105.998,271.575 105.278,271.475 104.895 C 271.375 104.513,271.296 104.920,271.301 105.800 M81.665 110.217 C 80.995 111.688,81.123 112.002,81.847 110.665 C 82.186 110.040,82.388 109.454,82.296 109.363 C 82.205 109.271,81.921 109.656,81.665 110.217 M127.720 112.400 C 127.720 113.610,127.795 114.105,127.887 113.500 C 127.978 112.895,127.978 111.905,127.887 111.300 C 127.795 110.695,127.720 111.190,127.720 112.400 M271.301 113.000 C 271.305 113.880,271.387 114.193,271.483 113.695 C 271.579 113.198,271.575 112.478,271.475 112.095 C 271.375 111.713,271.296 112.120,271.301 113.000 M328.893 153.200 C 328.893 153.970,328.975 154.285,329.076 153.900 C 329.176 153.515,329.176 152.885,329.076 152.500 C 328.975 152.115,328.893 152.430,328.893 153.200 M116.920 156.400 C 116.920 157.610,116.995 158.105,117.087 157.500 C 117.178 156.895,117.178 155.905,117.087 155.300 C 116.995 154.695,116.920 155.190,116.920 156.400 M282.161 160.400 C 282.161 163.810,282.222 165.205,282.297 163.500 C 282.372 161.795,282.372 159.005,282.297 157.300 C 282.222 155.595,282.161 156.990,282.161 160.400 M329.314 158.600 C 329.317 159.700,329.395 160.103,329.487 159.495 C 329.579 158.886,329.577 157.986,329.482 157.495 C 329.387 157.003,329.311 157.500,329.314 158.600 M116.934 163.600 C 116.934 165.250,117.005 165.925,117.091 165.100 C 117.178 164.275,117.178 162.925,117.091 162.100 C 117.005 161.275,116.934 161.950,116.934 163.600 M69.354 166.400 C 69.354 169.150,69.418 170.275,69.496 168.900 C 69.574 167.525,69.574 165.275,69.496 163.900 C 69.418 162.525,69.354 163.650,69.354 166.400 M117.293 170.000 C 117.293 170.770,117.375 171.085,117.476 170.700 C 117.576 170.315,117.576 169.685,117.476 169.300 C 117.375 168.915,117.293 169.230,117.293 170.000 M281.693 170.000 C 281.693 170.770,281.775 171.085,281.876 170.700 C 281.976 170.315,281.976 169.685,281.876 169.300 C 281.775 168.915,281.693 169.230,281.693 170.000 M329.309 174.000 C 329.309 174.990,329.387 175.395,329.482 174.900 C 329.578 174.405,329.578 173.595,329.482 173.100 C 329.387 172.605,329.309 173.010,329.309 174.000 M69.693 176.800 C 69.693 177.570,69.775 177.885,69.876 177.500 C 69.976 177.115,69.976 176.485,69.876 176.100 C 69.775 175.715,69.693 176.030,69.693 176.800 M328.893 179.200 C 328.893 179.970,328.975 180.285,329.076 179.900 C 329.176 179.515,329.176 178.885,329.076 178.500 C 328.975 178.115,328.893 178.430,328.893 179.200 M132.800 207.000 C 133.995 208.210,135.063 209.200,135.173 209.200 C 135.283 209.200,134.395 208.210,133.200 207.000 C 132.005 205.790,130.937 204.800,130.827 204.800 C 130.717 204.800,131.605 205.790,132.800 207.000 M266.181 206.900 L 264.600 208.600 266.300 207.019 C 267.881 205.548,268.184 205.200,267.881 205.200 C 267.816 205.200,267.051 205.965,266.181 206.900 M124.783 224.900 C 126.441 226.666,126.800 226.984,126.800 226.683 C 126.800 226.619,125.945 225.764,124.900 224.783 L 123.000 223.000 124.783 224.900 M174.629 225.562 L 173.458 227.000 174.809 225.713 C 175.551 225.005,176.078 224.358,175.979 224.275 C 175.881 224.192,175.273 224.771,174.629 225.562 M114.000 229.400 C 115.195 230.610,116.263 231.600,116.373 231.600 C 116.483 231.600,115.595 230.610,114.400 229.400 C 113.205 228.190,112.137 227.200,112.027 227.200 C 111.917 227.200,112.805 228.190,114.000 229.400 M151.500 245.489 C 152.215 245.578,153.385 245.578,154.100 245.489 C 154.815 245.401,154.230 245.328,152.800 245.328 C 151.370 245.328,150.785 245.401,151.500 245.489 M128.800 252.600 C 129.995 253.810,131.063 254.800,131.173 254.800 C 131.283 254.800,130.395 253.810,129.200 252.600 C 128.005 251.390,126.937 250.400,126.827 250.400 C 126.717 250.400,127.605 251.390,128.800 252.600 M295.775 254.500 L 294.600 255.800 295.900 254.625 C 296.615 253.979,297.200 253.394,297.200 253.325 C 297.200 253.016,296.870 253.288,295.775 254.500 M108.200 260.000 C 110.171 261.980,111.873 263.600,111.983 263.600 C 112.093 263.600,110.571 261.980,108.600 260.000 C 106.629 258.020,104.927 256.400,104.817 256.400 C 104.707 256.400,106.229 258.020,108.200 260.000 M167.375 271.200 C 167.375 277.030,167.431 279.415,167.499 276.500 C 167.567 273.585,167.567 268.815,167.499 265.900 C 167.431 262.985,167.375 265.370,167.375 271.200 M149.105 261.483 C 149.602 261.579,150.322 261.575,150.705 261.475 C 151.087 261.375,150.680 261.296,149.800 261.301 C 148.920 261.305,148.607 261.387,149.105 261.483 M156.305 261.483 C 156.802 261.579,157.522 261.575,157.905 261.475 C 158.287 261.375,157.880 261.296,157.000 261.301 C 156.120 261.305,155.807 261.387,156.305 261.483 M286.175 264.100 L 285.000 265.400 286.300 264.225 C 287.015 263.579,287.600 262.994,287.600 262.925 C 287.600 262.616,287.270 262.888,286.175 264.100 M178.398 329.718 L 178.596 334.200 178.712 330.035 C 178.777 327.744,178.688 325.727,178.515 325.553 C 178.342 325.379,178.289 327.253,178.398 329.718 M132.900 327.487 C 133.505 327.578,134.495 327.578,135.100 327.487 C 135.705 327.395,135.210 327.320,134.000 327.320 C 132.790 327.320,132.295 327.395,132.900 327.487 M274.505 333.087 C 275.114 333.179,276.014 333.177,276.505 333.082 C 276.997 332.987,276.500 332.911,275.400 332.914 C 274.300 332.917,273.897 332.995,274.505 333.087 M235.199 344.519 L 235.399 355.000 235.507 344.827 C 235.566 339.232,235.476 334.516,235.307 334.346 C 235.138 334.177,235.090 338.755,235.199 344.519 M160.981 349.200 C 160.981 357.450,161.034 360.825,161.099 356.700 C 161.164 352.575,161.164 345.825,161.099 341.700 C 161.034 337.575,160.981 340.950,160.981 349.200 M185.346 338.200 C 185.347 340.400,185.414 341.249,185.495 340.087 C 185.576 338.924,185.576 337.124,185.493 336.087 C 185.411 335.049,185.345 336.000,185.346 338.200 M225.377 346.000 C 225.377 352.490,225.432 355.145,225.499 351.900 C 225.566 348.655,225.566 343.345,225.499 340.100 C 225.432 336.855,225.377 339.510,225.377 346.000 M243.775 345.200 C 243.775 351.250,243.831 353.725,243.899 350.700 C 243.967 347.675,243.967 342.725,243.899 339.700 C 243.831 336.675,243.775 339.150,243.775 345.200 M150.981 349.200 C 150.981 357.230,151.034 360.515,151.099 356.500 C 151.165 352.485,151.165 345.915,151.099 341.900 C 151.034 337.885,150.981 341.170,150.981 349.200 M112.101 339.000 C 112.105 339.880,112.187 340.193,112.283 339.695 C 112.379 339.198,112.375 338.478,112.275 338.095 C 112.175 337.713,112.096 338.120,112.101 339.000 M130.666 338.292 C 130.561 338.461,133.998 338.547,138.304 338.483 C 144.354 338.393,146.215 338.484,146.496 338.883 C 146.777 339.280,146.823 339.261,146.697 338.800 C 146.519 338.144,131.062 337.654,130.666 338.292 M130.144 342.800 C 130.144 344.890,130.212 345.745,130.294 344.700 C 130.376 343.655,130.376 341.945,130.294 340.900 C 130.212 339.855,130.144 340.710,130.144 342.800 M122.128 342.000 C 122.128 343.430,122.201 344.015,122.289 343.300 C 122.378 342.585,122.378 341.415,122.289 340.700 C 122.201 339.985,122.128 340.570,122.128 342.000 M165.300 342.287 C 165.905 342.378,166.895 342.378,167.500 342.287 C 168.105 342.195,167.610 342.120,166.400 342.120 C 165.190 342.120,164.695 342.195,165.300 342.287 M178.577 342.517 C 178.468 342.801,178.433 345.816,178.500 349.217 L 178.622 355.400 178.711 348.917 L 178.800 342.434 181.900 342.297 L 185.000 342.161 181.887 342.080 C 179.652 342.023,178.719 342.146,178.577 342.517 M267.467 342.267 C 267.097 342.636,267.129 355.909,267.500 356.138 C 267.665 356.240,267.800 353.101,267.800 349.162 C 267.800 345.223,267.785 342.000,267.767 342.000 C 267.748 342.000,267.613 342.120,267.467 342.267 M112.109 345.200 C 112.109 346.190,112.187 346.595,112.282 346.100 C 112.378 345.605,112.378 344.795,112.282 344.300 C 112.187 343.805,112.109 344.210,112.109 345.200 M202.319 345.498 C 204.144 345.572,207.024 345.572,208.719 345.497 C 210.414 345.422,208.920 345.361,205.400 345.362 C 201.880 345.362,200.494 345.424,202.319 345.498 M131.600 347.046 C 133.988 347.346,136.710 347.376,136.539 347.100 C 136.436 346.935,135.058 346.827,133.476 346.860 C 131.894 346.893,131.050 346.976,131.600 347.046 M151.553 364.514 C 151.726 364.687,153.833 364.776,156.234 364.712 L 160.600 364.596 155.918 364.398 C 153.344 364.289,151.379 364.341,151.553 364.514 M189.462 364.500 C 189.564 364.665,191.696 364.800,194.200 364.800 C 196.704 364.800,198.836 364.665,198.938 364.500 C 199.040 364.335,196.908 364.200,194.200 364.200 C 191.492 364.200,189.360 364.335,189.462 364.500 M211.862 364.500 C 211.964 364.665,214.096 364.800,216.600 364.800 C 219.104 364.800,221.236 364.665,221.338 364.500 C 221.440 364.335,219.308 364.200,216.600 364.200 C 213.892 364.200,211.760 364.335,211.862 364.500 M257.956 364.518 C 258.132 364.693,259.699 364.781,261.438 364.715 L 264.600 364.593 261.118 364.397 C 259.203 364.288,257.780 364.343,257.956 364.518 M248.711 364.693 C 249.651 364.778,251.091 364.777,251.911 364.691 C 252.730 364.605,251.960 364.536,250.200 364.537 C 248.440 364.539,247.770 364.609,248.711 364.693 M129.905 365.483 C 130.402 365.579,131.122 365.575,131.505 365.475 C 131.887 365.375,131.480 365.296,130.600 365.301 C 129.720 365.305,129.407 365.387,129.905 365.483 M134.300 365.482 C 134.795 365.578,135.605 365.578,136.100 365.482 C 136.595 365.387,136.190 365.309,135.200 365.309 C 134.210 365.309,133.805 365.387,134.300 365.482 M178.300 365.489 C 179.015 365.578,180.185 365.578,180.900 365.489 C 181.615 365.401,181.030 365.328,179.600 365.328 C 178.170 365.328,177.585 365.401,178.300 365.489 M234.100 365.476 C 234.485 365.576,235.115 365.576,235.500 365.476 C 235.885 365.375,235.570 365.293,234.800 365.293 C 234.030 365.293,233.715 365.375,234.100 365.476 M237.700 365.476 C 238.085 365.576,238.715 365.576,239.100 365.476 C 239.485 365.375,239.170 365.293,238.400 365.293 C 237.630 365.293,237.315 365.375,237.700 365.476 M273.491 365.489 C 274.201 365.577,275.461 365.579,276.291 365.492 C 277.121 365.405,276.540 365.333,275.000 365.331 C 273.460 365.329,272.781 365.400,273.491 365.489 " stroke="none" fill="#595959" fill-rule="evenodd"></path><path id="path4" d="M200.300 35.482 C 200.795 35.578,201.605 35.578,202.100 35.482 C 202.595 35.387,202.190 35.309,201.200 35.309 C 200.210 35.309,199.805 35.387,200.300 35.482 M231.693 247.200 C 231.693 247.970,231.775 248.285,231.876 247.900 C 231.976 247.515,231.976 246.885,231.876 246.500 C 231.775 246.115,231.693 246.430,231.693 247.200 M231.770 258.000 C 231.770 262.730,231.828 264.665,231.898 262.300 C 231.969 259.935,231.969 256.065,231.898 253.700 C 231.828 251.335,231.770 253.270,231.770 258.000 M167.314 283.400 C 167.317 284.500,167.395 284.903,167.487 284.295 C 167.579 283.686,167.577 282.786,167.482 282.295 C 167.387 281.803,167.311 282.300,167.314 283.400 M192.713 319.895 C 193.876 319.976,195.676 319.976,196.713 319.893 C 197.751 319.811,196.800 319.745,194.600 319.746 C 192.400 319.747,191.551 319.814,192.713 319.895 M214.313 319.895 C 215.476 319.976,217.276 319.976,218.313 319.893 C 219.351 319.811,218.400 319.745,216.200 319.746 C 214.000 319.747,213.151 319.814,214.313 319.895 M260.515 319.896 C 261.788 319.976,263.768 319.975,264.915 319.894 C 266.062 319.814,265.020 319.749,262.600 319.750 C 260.180 319.751,259.242 319.816,260.515 319.896 M198.967 328.400 C 198.967 332.690,199.026 334.445,199.098 332.300 C 199.170 330.155,199.170 326.645,199.098 324.500 C 199.026 322.355,198.967 324.110,198.967 328.400 M163.731 338.600 C 163.733 340.140,163.805 340.721,163.892 339.891 C 163.979 339.061,163.977 337.801,163.889 337.091 C 163.800 336.381,163.729 337.060,163.731 338.600 M146.576 350.200 C 146.576 356.360,146.632 358.824,146.699 355.676 C 146.767 352.527,146.767 347.487,146.699 344.476 C 146.631 341.464,146.576 344.040,146.576 350.200 M112.109 342.000 C 112.109 342.990,112.187 343.395,112.282 342.900 C 112.378 342.405,112.378 341.595,112.282 341.100 C 112.187 340.605,112.109 341.010,112.109 342.000 M198.972 354.800 C 198.972 359.970,199.029 362.085,199.099 359.500 C 199.168 356.915,199.168 352.685,199.099 350.100 C 199.029 347.515,198.972 349.630,198.972 354.800 M185.337 361.000 C 185.339 362.760,185.409 363.430,185.493 362.489 C 185.578 361.549,185.577 360.109,185.491 359.289 C 185.405 358.470,185.336 359.240,185.337 361.000 " stroke="none" fill="#7c7c7c" fill-rule="evenodd"></path></g></svg>