<svg id="svg" version="1.1" xmlns="http://www.w3.org/2000/svg" xmlns:xlink="http://www.w3.org/1999/xlink" width="400" height="400" viewBox="0, 0, 400,400"><g id="svgg"><path id="path0" d="M125.200 126.395 L 125.200 142.790 126.792 143.795 C 127.668 144.348,128.517 144.800,128.680 144.800 C 128.844 144.800,131.682 146.131,134.988 147.758 C 141.458 150.942,150.492 155.330,162.600 161.172 C 166.780 163.189,170.740 165.132,171.400 165.490 C 172.060 165.848,172.870 166.269,173.200 166.426 C 173.530 166.582,176.050 167.796,178.800 169.123 C 191.843 175.419,199.666 179.207,207.200 182.879 C 224.290 191.206,227.589 192.810,234.304 196.059 C 239.114 198.387,241.175 199.582,241.101 200.000 C 240.996 200.591,236.495 202.892,211.400 215.180 C 197.659 221.908,198.269 221.606,196.600 222.505 C 195.940 222.860,189.010 226.294,181.200 230.135 C 173.390 233.976,160.160 240.485,151.800 244.599 C 143.440 248.713,134.035 253.341,130.900 254.883 L 125.200 257.688 125.200 273.844 C 125.200 282.730,125.299 290.000,125.420 290.000 C 125.623 290.000,172.310 266.796,240.600 232.755 C 256.000 225.079,268.739 218.798,268.908 218.799 C 269.077 218.799,269.929 218.350,270.800 217.800 C 271.671 217.250,272.630 216.800,272.930 216.800 C 273.230 216.800,273.774 216.471,274.138 216.069 C 275.060 215.050,275.157 185.594,274.240 184.833 C 273.709 184.393,248.671 171.778,171.800 133.221 C 153.100 123.842,137.440 115.976,137.000 115.741 C 135.427 114.902,133.388 113.853,132.700 113.529 C 132.315 113.348,131.685 113.052,131.300 112.871 C 130.510 112.499,128.810 111.637,126.938 110.659 C 126.244 110.297,125.569 110.000,125.438 110.000 C 125.307 110.000,125.200 117.378,125.200 126.395 " stroke="none" fill="#f3f3f2" fill-rule="evenodd"></path><path id="path1" d="M0.000 200.000 L 0.000 400.000 200.000 400.000 L 400.000 400.000 400.000 200.000 L 400.000 0.000 200.000 0.000 L 0.000 0.000 0.000 200.000 M172.045 132.327 C 221.573 157.143,220.046 156.376,221.600 157.215 C 222.150 157.511,234.389 163.655,248.799 170.868 C 263.208 178.081,275.223 184.291,275.499 184.668 C 276.343 185.821,276.209 214.909,275.354 216.214 C 274.999 216.756,274.455 217.200,274.146 217.200 C 273.837 217.200,272.871 217.650,272.000 218.200 C 271.129 218.750,270.291 219.200,270.139 219.200 C 269.986 219.200,256.697 225.770,240.608 233.800 C 224.519 241.830,211.155 248.400,210.911 248.400 C 210.666 248.400,210.407 248.535,210.333 248.700 C 210.145 249.123,207.643 250.400,207.001 250.400 C 206.707 250.400,206.407 250.535,206.333 250.700 C 206.140 251.135,203.635 252.400,202.968 252.400 C 202.655 252.400,202.400 252.580,202.400 252.800 C 202.400 253.020,202.183 253.200,201.918 253.200 C 201.533 253.200,158.622 274.346,156.400 275.631 C 156.070 275.822,155.170 276.268,154.400 276.622 C 153.630 276.977,152.730 277.427,152.400 277.622 C 152.070 277.818,151.170 278.268,150.400 278.622 C 149.630 278.977,148.730 279.427,148.400 279.622 C 148.070 279.818,147.170 280.268,146.400 280.622 C 145.630 280.977,144.730 281.427,144.400 281.622 C 144.070 281.818,143.170 282.268,142.400 282.622 C 141.630 282.977,140.730 283.427,140.400 283.622 C 140.070 283.818,139.170 284.272,138.400 284.632 C 137.630 284.992,136.370 285.582,135.600 285.943 C 134.830 286.304,134.140 286.735,134.067 286.900 C 133.993 287.065,133.693 287.200,133.399 287.200 C 132.757 287.200,130.255 288.477,130.067 288.900 C 129.993 289.065,129.705 289.200,129.426 289.200 C 129.147 289.200,128.062 289.656,127.015 290.212 C 123.870 291.885,124.000 292.579,124.000 274.151 C 124.000 255.136,123.068 257.710,131.429 253.621 C 134.713 252.015,142.446 248.203,148.614 245.150 C 154.782 242.098,160.047 239.600,160.314 239.600 C 160.581 239.600,160.800 239.420,160.800 239.200 C 160.800 238.980,161.138 238.800,161.551 238.800 C 161.964 238.800,162.526 238.530,162.800 238.200 C 163.074 237.870,163.636 237.600,164.049 237.600 C 164.462 237.600,164.800 237.420,164.800 237.200 C 164.800 236.980,165.055 236.800,165.368 236.800 C 166.035 236.800,168.540 235.535,168.733 235.100 C 168.807 234.935,169.070 234.800,169.317 234.800 C 169.690 234.800,188.834 225.504,190.800 224.369 C 191.130 224.178,192.030 223.732,192.800 223.377 C 194.578 222.559,195.122 222.290,196.600 221.499 C 200.446 219.442,224.765 207.600,225.145 207.600 C 225.395 207.600,225.600 207.420,225.600 207.200 C 225.600 206.980,225.813 206.800,226.074 206.800 C 227.083 206.800,239.600 200.277,239.600 199.751 C 239.600 199.448,239.353 199.200,239.050 199.200 C 238.748 199.200,236.727 198.300,234.560 197.200 C 232.393 196.100,230.391 195.200,230.110 195.200 C 229.830 195.200,229.600 195.020,229.600 194.800 C 229.600 194.580,229.385 194.400,229.122 194.400 C 228.859 194.400,225.394 192.804,221.422 190.852 C 217.450 188.901,213.570 187.006,212.800 186.641 C 212.030 186.276,211.130 185.822,210.800 185.632 C 209.098 184.652,201.716 181.200,201.322 181.200 C 201.072 181.200,200.807 181.065,200.733 180.900 C 200.660 180.735,199.970 180.305,199.200 179.944 C 196.942 178.887,185.638 173.419,177.000 169.207 C 172.600 167.061,168.370 165.007,167.600 164.642 C 166.830 164.277,165.930 163.822,165.600 163.632 C 163.825 162.610,156.507 159.200,156.089 159.200 C 155.820 159.200,155.600 159.020,155.600 158.800 C 155.600 158.580,155.385 158.400,155.122 158.400 C 154.859 158.400,151.394 156.804,147.422 154.852 C 143.450 152.901,139.570 151.006,138.800 150.641 C 138.030 150.276,137.130 149.822,136.800 149.632 C 135.025 148.610,127.707 145.200,127.289 145.200 C 127.020 145.200,126.800 145.020,126.800 144.800 C 126.800 144.580,126.537 144.400,126.216 144.400 C 125.894 144.400,125.264 144.006,124.816 143.525 C 123.404 142.010,123.604 108.800,125.025 108.800 C 125.060 108.800,146.219 119.387,172.045 132.327 " stroke="none" fill="#64a434" fill-rule="evenodd"></path><path id="path2" d="M124.480 109.280 C 123.509 110.251,123.824 142.461,124.816 143.525 C 125.264 144.006,125.879 144.400,126.182 144.400 C 126.485 144.400,126.802 144.607,126.887 144.860 C 126.971 145.113,127.271 145.243,127.554 145.149 C 127.837 145.054,127.378 144.613,126.534 144.169 L 125.000 143.361 124.896 126.481 C 124.783 108.220,124.681 109.021,126.960 110.210 C 127.597 110.542,128.200 110.734,128.298 110.635 C 128.427 110.506,125.366 108.800,125.005 108.800 C 124.980 108.800,124.744 109.016,124.480 109.280 M128.833 110.957 C 129.362 111.455,132.125 112.808,132.286 112.648 C 132.391 112.542,131.706 112.083,130.764 111.628 C 129.139 110.843,128.463 110.608,128.833 110.957 M132.833 112.957 C 133.362 113.455,136.125 114.808,136.286 114.648 C 136.391 114.542,135.706 114.083,134.764 113.628 C 133.139 112.843,132.463 112.608,132.833 112.957 M136.833 114.957 C 137.362 115.455,140.125 116.808,140.286 116.648 C 140.391 116.542,139.706 116.083,138.764 115.628 C 137.139 114.843,136.463 114.608,136.833 114.957 M140.800 116.991 C 140.800 117.277,144.113 118.821,144.308 118.625 C 144.401 118.532,143.706 118.083,142.764 117.628 C 140.924 116.739,140.800 116.699,140.800 116.991 M144.800 118.991 C 144.800 119.277,148.113 120.821,148.308 120.625 C 148.401 120.532,147.706 120.083,146.764 119.628 C 144.924 118.739,144.800 118.699,144.800 118.991 M148.800 120.991 C 148.800 121.277,152.113 122.821,152.308 122.625 C 152.401 122.532,151.706 122.083,150.764 121.628 C 148.924 120.739,148.800 120.699,148.800 120.991 M152.800 122.991 C 152.800 123.277,156.113 124.821,156.308 124.625 C 156.401 124.532,155.706 124.083,154.764 123.628 C 152.924 122.739,152.800 122.699,152.800 122.991 M156.800 124.991 C 156.800 125.277,160.113 126.821,160.308 126.625 C 160.401 126.532,159.706 126.083,158.764 125.628 C 156.924 124.739,156.800 124.699,156.800 124.991 M160.800 126.991 C 160.800 127.277,164.113 128.821,164.308 128.625 C 164.401 128.532,163.706 128.083,162.764 127.628 C 160.924 126.739,160.800 126.699,160.800 126.991 M164.800 128.991 C 164.800 129.277,168.113 130.821,168.308 130.625 C 168.401 130.532,167.706 130.083,166.764 129.628 C 164.924 128.739,164.800 128.699,164.800 128.991 M168.800 130.983 C 168.800 131.083,171.275 132.404,174.300 133.918 C 177.325 135.431,188.710 141.154,199.600 146.635 C 220.879 157.344,220.401 157.112,219.800 156.480 C 219.071 155.713,168.800 130.581,168.800 130.983 M128.400 145.391 C 128.400 145.637,131.699 147.235,131.865 147.069 C 131.985 146.948,128.896 145.200,128.562 145.200 C 128.473 145.200,128.400 145.286,128.400 145.391 M132.400 147.391 C 132.400 147.660,135.661 149.204,136.175 149.179 C 136.409 149.167,135.711 148.717,134.625 148.179 C 132.525 147.138,132.400 147.093,132.400 147.391 M136.988 149.580 C 137.298 150.082,139.967 151.366,140.206 151.128 C 140.303 151.030,139.563 150.553,138.562 150.066 C 137.561 149.580,136.852 149.361,136.988 149.580 M140.800 151.391 C 140.800 151.637,144.099 153.235,144.265 153.069 C 144.385 152.948,141.296 151.200,140.962 151.200 C 140.873 151.200,140.800 151.286,140.800 151.391 M144.800 153.370 C 144.800 153.617,154.599 158.400,155.106 158.400 C 155.341 158.400,155.602 158.607,155.687 158.860 C 155.771 159.113,156.085 159.238,156.385 159.138 C 156.684 159.039,155.865 158.446,154.565 157.822 C 153.264 157.198,150.601 155.903,148.646 154.944 C 145.014 153.162,144.800 153.074,144.800 153.370 M220.433 156.957 C 220.924 157.419,223.719 158.814,223.864 158.669 C 224.083 158.451,221.297 156.800,220.710 156.800 C 220.466 156.800,220.342 156.871,220.433 156.957 M224.433 158.957 C 224.962 159.455,227.725 160.808,227.886 160.648 C 227.991 160.542,227.306 160.083,226.364 159.628 C 224.739 158.843,224.063 158.608,224.433 158.957 M157.200 159.391 C 157.200 159.637,160.499 161.235,160.665 161.069 C 160.785 160.948,157.696 159.200,157.362 159.200 C 157.273 159.200,157.200 159.286,157.200 159.391 M228.433 160.957 C 228.962 161.455,231.725 162.808,231.886 162.648 C 231.991 162.542,231.306 162.083,230.364 161.628 C 228.739 160.843,228.063 160.608,228.433 160.957 M161.200 161.391 C 161.200 161.660,164.461 163.204,164.975 163.179 C 165.209 163.167,164.511 162.717,163.425 162.179 C 161.325 161.138,161.200 161.093,161.200 161.391 M232.433 162.957 C 232.962 163.455,235.725 164.808,235.886 164.648 C 235.991 164.542,235.306 164.083,234.364 163.628 C 232.739 162.843,232.063 162.608,232.433 162.957 M165.788 163.580 C 166.098 164.082,168.767 165.366,169.006 165.128 C 169.103 165.030,168.363 164.553,167.362 164.066 C 166.361 163.580,165.652 163.361,165.788 163.580 M236.433 164.957 C 236.962 165.455,239.725 166.808,239.886 166.648 C 239.991 166.542,239.306 166.083,238.364 165.628 C 236.739 164.843,236.063 164.608,236.433 164.957 M169.600 165.391 C 169.600 165.637,172.899 167.235,173.065 167.069 C 173.185 166.948,170.096 165.200,169.762 165.200 C 169.673 165.200,169.600 165.286,169.600 165.391 M240.433 166.957 C 240.962 167.455,243.725 168.808,243.886 168.648 C 243.991 168.542,243.306 168.083,242.364 167.628 C 240.739 166.843,240.063 166.608,240.433 166.957 M173.600 167.342 C 173.600 167.646,185.206 173.327,185.410 173.124 C 185.504 173.029,183.037 171.702,179.926 170.176 C 173.453 166.999,173.600 167.065,173.600 167.342 M244.433 168.957 C 244.962 169.455,247.725 170.808,247.886 170.648 C 247.991 170.542,247.306 170.083,246.364 169.628 C 244.739 168.843,244.063 168.608,244.433 168.957 M248.433 170.957 C 248.962 171.455,251.725 172.808,251.886 172.648 C 251.991 172.542,251.306 172.083,250.364 171.628 C 248.739 170.843,248.063 170.608,248.433 170.957 M252.433 172.957 C 252.962 173.455,255.725 174.808,255.886 174.648 C 255.991 174.542,255.306 174.083,254.364 173.628 C 252.739 172.843,252.063 172.608,252.433 172.957 M186.000 173.391 C 186.000 173.637,189.299 175.235,189.465 175.069 C 189.585 174.948,186.496 173.200,186.162 173.200 C 186.073 173.200,186.000 173.286,186.000 173.391 M256.400 174.991 C 256.400 175.277,259.713 176.821,259.908 176.625 C 260.001 176.532,259.306 176.083,258.364 175.628 C 256.524 174.739,256.400 174.699,256.400 174.991 M190.000 175.341 C 190.000 175.651,197.612 179.321,197.821 179.112 C 197.920 179.014,196.346 178.138,194.324 177.166 C 189.896 175.038,190.000 175.082,190.000 175.341 M260.400 176.976 C 260.400 177.073,263.505 178.709,267.300 180.613 C 271.095 182.517,274.425 184.260,274.700 184.486 C 275.084 184.803,275.200 188.490,275.200 200.426 L 275.200 215.955 274.311 216.577 C 273.640 217.047,273.580 217.200,274.065 217.200 C 274.419 217.200,274.999 216.756,275.354 216.214 C 276.208 214.911,276.343 185.821,275.500 184.670 C 274.890 183.836,260.400 176.453,260.400 176.976 M198.976 179.813 C 199.404 180.136,199.974 180.400,200.243 180.400 C 200.513 180.400,200.802 180.607,200.887 180.860 C 200.971 181.113,201.269 181.244,201.550 181.150 C 201.830 181.057,201.309 180.580,200.392 180.090 C 198.492 179.076,197.831 178.947,198.976 179.813 M202.400 181.391 C 202.400 181.677,205.713 183.221,205.908 183.025 C 206.001 182.932,205.306 182.483,204.364 182.028 C 202.524 181.139,202.400 181.099,202.400 181.391 M206.400 183.391 C 206.400 183.660,209.661 185.204,210.175 185.179 C 210.409 185.167,209.711 184.717,208.625 184.179 C 206.525 183.138,206.400 183.093,206.400 183.391 M210.988 185.580 C 211.298 186.082,213.967 187.366,214.206 187.128 C 214.303 187.030,213.563 186.553,212.562 186.066 C 211.561 185.580,210.852 185.361,210.988 185.580 M214.800 187.391 C 214.800 187.637,218.099 189.235,218.265 189.069 C 218.385 188.948,215.296 187.200,214.962 187.200 C 214.873 187.200,214.800 187.286,214.800 187.391 M218.800 189.370 C 218.800 189.617,228.599 194.400,229.106 194.400 C 229.341 194.400,229.602 194.607,229.687 194.860 C 229.771 195.113,230.085 195.238,230.385 195.138 C 230.684 195.039,229.865 194.446,228.565 193.822 C 227.264 193.198,224.601 191.903,222.646 190.944 C 219.014 189.162,218.800 189.074,218.800 189.370 M231.200 195.391 C 231.200 195.677,234.513 197.221,234.708 197.025 C 234.801 196.932,234.106 196.483,233.164 196.028 C 231.324 195.139,231.200 195.099,231.200 195.391 M235.200 197.391 C 235.200 197.660,238.461 199.204,238.975 199.179 C 239.209 199.167,238.511 198.717,237.425 198.179 C 235.325 197.138,235.200 197.093,235.200 197.391 M239.483 200.004 C 239.369 200.442,239.419 200.800,239.595 200.800 C 240.065 200.800,240.422 199.661,240.028 199.417 C 239.843 199.303,239.597 199.567,239.483 200.004 M236.657 201.667 C 235.808 202.096,235.192 202.525,235.287 202.621 C 235.486 202.819,238.800 201.281,238.800 200.991 C 238.800 200.681,238.291 200.841,236.657 201.667 M232.657 203.667 C 231.808 204.096,231.202 204.535,231.310 204.643 C 231.474 204.807,234.230 203.463,234.767 202.957 C 235.164 202.583,234.080 202.948,232.657 203.667 M228.657 205.667 C 227.808 206.096,227.202 206.535,227.310 206.643 C 227.474 206.807,230.230 205.463,230.767 204.957 C 231.164 204.583,230.080 204.948,228.657 205.667 M225.600 207.200 C 225.600 207.420,225.406 207.600,225.170 207.600 C 224.563 207.600,206.707 216.440,206.907 216.641 C 206.998 216.732,210.476 215.123,214.636 213.066 C 218.796 211.009,223.235 208.826,224.500 208.216 C 226.895 207.060,227.207 206.800,226.200 206.800 C 225.870 206.800,225.600 206.980,225.600 207.200 M204.257 217.667 C 203.408 218.096,202.792 218.525,202.887 218.621 C 203.086 218.819,206.400 217.281,206.400 216.991 C 206.400 216.681,205.891 216.841,204.257 217.667 M271.066 218.124 C 270.222 218.593,269.704 219.035,269.915 219.105 C 270.287 219.229,273.200 217.683,273.200 217.360 C 273.200 217.057,272.596 217.273,271.066 218.124 M200.257 219.667 C 199.408 220.096,198.802 220.535,198.910 220.643 C 199.074 220.807,201.830 219.463,202.367 218.957 C 202.764 218.583,201.680 218.948,200.257 219.667 M267.102 220.104 C 266.279 220.563,265.663 220.996,265.733 221.066 C 265.901 221.234,269.200 219.639,269.200 219.391 C 269.200 219.058,268.642 219.248,267.102 220.104 M196.081 221.681 C 194.145 222.877,194.787 222.990,196.843 221.814 C 197.809 221.262,198.330 220.822,198.000 220.838 C 197.670 220.854,196.807 221.233,196.081 221.681 M263.102 222.104 C 262.279 222.563,261.663 222.996,261.733 223.066 C 261.901 223.234,265.200 221.639,265.200 221.391 C 265.200 221.058,264.642 221.248,263.102 222.104 M192.466 223.393 C 190.671 224.382,190.616 224.880,192.400 223.995 C 193.390 223.504,194.275 223.034,194.367 222.951 C 194.768 222.588,193.313 222.926,192.466 223.393 M259.102 224.104 C 258.279 224.563,257.663 224.996,257.733 225.066 C 257.901 225.234,261.200 223.639,261.200 223.391 C 261.200 223.058,260.642 223.248,259.102 224.104 M183.874 227.682 C 180.835 229.222,178.421 230.555,178.510 230.644 C 178.599 230.732,181.356 229.465,184.636 227.826 C 187.916 226.188,190.330 224.855,190.000 224.865 C 189.670 224.875,186.913 226.143,183.874 227.682 M255.057 226.067 C 254.208 226.496,253.592 226.925,253.687 227.021 C 253.886 227.219,257.200 225.681,257.200 225.391 C 257.200 225.081,256.691 225.241,255.057 226.067 M251.057 228.067 C 250.208 228.496,249.592 228.925,249.687 229.021 C 249.886 229.219,253.200 227.681,253.200 227.391 C 253.200 227.081,252.691 227.241,251.057 228.067 M247.057 230.067 C 246.208 230.496,245.592 230.925,245.687 231.021 C 245.886 231.219,249.200 229.681,249.200 229.391 C 249.200 229.081,248.691 229.241,247.057 230.067 M175.857 231.667 C 175.008 232.096,174.392 232.525,174.487 232.621 C 174.686 232.819,178.000 231.281,178.000 230.991 C 178.000 230.681,177.491 230.841,175.857 231.667 M235.738 235.732 C 230.864 238.189,221.070 243.071,213.975 246.579 C 206.879 250.087,201.318 253.039,201.617 253.139 C 201.916 253.239,202.229 253.113,202.313 252.860 C 202.398 252.607,202.707 252.400,203.001 252.400 C 203.643 252.400,206.145 251.123,206.333 250.700 C 206.407 250.535,206.707 250.400,207.001 250.400 C 207.643 250.400,210.145 249.123,210.333 248.700 C 210.407 248.535,210.661 248.400,210.898 248.400 C 211.395 248.400,245.200 231.610,245.200 231.363 C 245.200 231.001,244.252 231.439,235.738 235.732 M171.857 233.667 C 171.008 234.096,170.402 234.535,170.510 234.643 C 170.674 234.807,173.430 233.463,173.967 232.957 C 174.364 232.583,173.280 232.948,171.857 233.667 M168.800 235.112 C 168.800 235.284,168.227 235.641,167.526 235.905 C 166.826 236.170,166.355 236.488,166.479 236.613 C 166.604 236.737,167.402 236.451,168.253 235.977 C 170.189 234.897,170.289 234.800,169.467 234.800 C 169.100 234.800,168.800 234.941,168.800 235.112 M164.800 237.200 C 164.800 237.420,164.462 237.600,164.049 237.600 C 163.636 237.600,163.066 237.880,162.782 238.222 C 162.321 238.778,162.390 238.790,163.433 238.340 C 165.388 237.496,166.318 236.800,165.489 236.800 C 165.110 236.800,164.800 236.980,164.800 237.200 M154.674 242.095 C 152.075 243.407,150.021 244.554,150.109 244.643 C 150.198 244.731,152.595 243.643,155.435 242.224 C 158.276 240.805,160.330 239.659,160.000 239.676 C 159.670 239.694,157.273 240.783,154.674 242.095 M147.457 245.667 C 146.608 246.096,145.992 246.525,146.087 246.621 C 146.286 246.819,149.600 245.281,149.600 244.991 C 149.600 244.681,149.091 244.841,147.457 245.667 M143.457 247.667 C 142.608 248.096,142.002 248.535,142.110 248.643 C 142.274 248.807,145.030 247.463,145.567 246.957 C 145.964 246.583,144.880 246.948,143.457 247.667 M139.457 249.667 C 138.608 250.096,138.002 250.535,138.110 250.643 C 138.274 250.807,141.030 249.463,141.567 248.957 C 141.964 248.583,140.880 248.948,139.457 249.667 M130.800 253.847 C 123.215 257.709,124.000 255.355,124.000 274.227 C 124.000 292.325,123.903 291.754,126.735 290.386 C 128.751 289.412,128.947 289.012,127.013 289.820 C 126.250 290.139,125.440 290.400,125.213 290.400 C 124.936 290.400,124.800 284.973,124.800 273.891 L 124.800 257.382 126.100 256.712 C 126.815 256.344,129.650 254.938,132.400 253.587 C 137.686 250.992,138.068 250.772,137.167 250.847 C 136.855 250.873,133.990 252.223,130.800 253.847 M198.702 254.104 C 197.879 254.563,197.263 254.996,197.333 255.066 C 197.501 255.234,200.800 253.639,200.800 253.391 C 200.800 253.058,200.242 253.248,198.702 254.104 M194.702 256.104 C 193.879 256.563,193.263 256.996,193.333 257.066 C 193.501 257.234,196.800 255.639,196.800 255.391 C 196.800 255.058,196.242 255.248,194.702 256.104 M190.702 258.104 C 189.879 258.563,189.263 258.996,189.333 259.066 C 189.501 259.234,192.800 257.639,192.800 257.391 C 192.800 257.058,192.242 257.248,190.702 258.104 M186.702 260.104 C 185.879 260.563,185.263 260.996,185.333 261.066 C 185.501 261.234,188.800 259.639,188.800 259.391 C 188.800 259.058,188.242 259.248,186.702 260.104 M182.702 262.104 C 181.879 262.563,181.263 262.996,181.333 263.066 C 181.501 263.234,184.800 261.639,184.800 261.391 C 184.800 261.058,184.242 261.248,182.702 262.104 M178.657 264.067 C 177.808 264.496,177.192 264.925,177.287 265.021 C 177.486 265.219,180.800 263.681,180.800 263.391 C 180.800 263.081,180.291 263.241,178.657 264.067 M174.657 266.067 C 173.808 266.496,173.192 266.925,173.287 267.021 C 173.486 267.219,176.800 265.681,176.800 265.391 C 176.800 265.081,176.291 265.241,174.657 266.067 M170.657 268.067 C 169.808 268.496,169.192 268.925,169.287 269.021 C 169.486 269.219,172.800 267.681,172.800 267.391 C 172.800 267.081,172.291 267.241,170.657 268.067 M162.400 272.218 C 159.210 273.840,156.780 275.176,157.000 275.186 C 157.470 275.208,168.800 269.626,168.800 269.372 C 168.800 269.013,168.040 269.350,162.400 272.218 M154.400 276.200 C 153.410 276.730,152.797 277.172,153.039 277.182 C 153.628 277.206,155.926 276.044,156.216 275.575 C 156.526 275.072,156.471 275.091,154.400 276.200 M150.400 278.200 C 149.410 278.730,148.797 279.172,149.039 279.182 C 149.628 279.206,151.926 278.044,152.216 277.575 C 152.526 277.072,152.471 277.091,150.400 278.200 M146.400 280.200 C 145.410 280.730,144.797 281.172,145.039 281.182 C 145.628 281.206,147.926 280.044,148.216 279.575 C 148.526 279.072,148.471 279.091,146.400 280.200 M142.400 282.200 C 141.410 282.730,140.797 283.172,141.039 283.182 C 141.628 283.206,143.926 282.044,144.216 281.575 C 144.526 281.072,144.471 281.091,142.400 282.200 M138.400 284.200 C 137.410 284.730,136.797 285.172,137.039 285.182 C 137.628 285.206,139.926 284.044,140.216 283.575 C 140.526 283.072,140.471 283.091,138.400 284.200 M134.431 286.097 C 133.414 286.589,132.895 287.032,133.211 287.137 C 133.513 287.238,133.829 287.113,133.913 286.860 C 133.998 286.607,134.287 286.400,134.557 286.400 C 134.826 286.400,135.396 286.136,135.824 285.813 C 136.884 285.011,136.519 285.085,134.431 286.097 M130.431 288.097 C 129.414 288.589,128.895 289.032,129.211 289.137 C 129.513 289.238,129.829 289.113,129.913 288.860 C 129.998 288.607,130.287 288.400,130.557 288.400 C 130.826 288.400,131.396 288.136,131.824 287.813 C 132.884 287.011,132.519 287.085,130.431 288.097 " stroke="none" fill="#94c076" fill-rule="evenodd"></path><path id="path3" d="M125.067 109.867 C 124.701 110.232,124.739 142.490,125.106 143.044 C 125.415 143.510,128.000 144.945,128.000 144.650 C 128.000 144.556,127.366 144.105,126.591 143.648 L 125.183 142.817 125.291 126.208 C 125.351 117.074,125.385 109.600,125.367 109.600 C 125.348 109.600,125.213 109.720,125.067 109.867 M126.624 110.587 C 127.051 110.910,127.670 111.174,128.000 111.173 C 128.348 111.172,128.180 110.932,127.600 110.600 C 126.285 109.848,125.636 109.840,126.624 110.587 M130.624 112.587 C 131.051 112.910,131.670 113.174,132.000 113.173 C 132.348 113.172,132.180 112.932,131.600 112.600 C 130.285 111.848,129.636 111.840,130.624 112.587 M134.624 114.587 C 135.051 114.910,135.670 115.174,136.000 115.173 C 136.348 115.172,136.180 114.932,135.600 114.600 C 134.285 113.848,133.636 113.840,134.624 114.587 M138.033 116.157 C 138.562 116.655,141.325 118.008,141.486 117.848 C 141.591 117.742,140.906 117.283,139.964 116.828 C 138.339 116.043,137.663 115.808,138.033 116.157 M142.060 118.172 C 142.485 118.632,155.714 125.219,155.880 125.054 C 155.963 124.970,153.027 123.394,149.356 121.551 C 142.421 118.070,141.625 117.701,142.060 118.172 M156.400 125.391 C 156.400 125.637,159.699 127.235,159.865 127.069 C 159.985 126.948,156.896 125.200,156.562 125.200 C 156.473 125.200,156.400 125.286,156.400 125.391 M160.400 127.391 C 160.400 127.637,163.699 129.235,163.865 129.069 C 163.985 128.948,160.896 127.200,160.562 127.200 C 160.473 127.200,160.400 127.286,160.400 127.391 M164.400 129.391 C 164.400 129.637,167.699 131.235,167.865 131.069 C 167.985 130.948,164.896 129.200,164.562 129.200 C 164.473 129.200,164.400 129.286,164.400 129.391 M168.400 131.391 C 168.400 131.637,171.699 133.235,171.865 133.069 C 171.985 132.948,168.896 131.200,168.562 131.200 C 168.473 131.200,168.400 131.286,168.400 131.391 M172.400 133.391 C 172.400 133.637,175.699 135.235,175.865 135.069 C 175.985 134.948,172.896 133.200,172.562 133.200 C 172.473 133.200,172.400 133.286,172.400 133.391 M176.400 135.391 C 176.400 135.637,179.699 137.235,179.865 137.069 C 179.985 136.948,176.896 135.200,176.562 135.200 C 176.473 135.200,176.400 135.286,176.400 135.391 M180.400 137.391 C 180.400 137.637,183.699 139.235,183.865 139.069 C 183.985 138.948,180.896 137.200,180.562 137.200 C 180.473 137.200,180.400 137.286,180.400 137.391 M184.400 139.391 C 184.400 139.637,187.699 141.235,187.865 141.069 C 187.985 140.948,184.896 139.200,184.562 139.200 C 184.473 139.200,184.400 139.286,184.400 139.391 M188.400 141.399 C 188.400 141.589,191.589 143.200,191.964 143.200 C 192.316 143.200,190.682 142.199,189.500 141.690 C 188.895 141.430,188.400 141.299,188.400 141.399 M192.400 143.399 C 192.400 143.589,195.589 145.200,195.964 145.200 C 196.316 145.200,194.682 144.199,193.500 143.690 C 192.895 143.430,192.400 143.299,192.400 143.399 M129.200 145.400 C 130.515 146.152,131.164 146.160,130.176 145.413 C 129.749 145.090,129.130 144.826,128.800 144.827 C 128.452 144.828,128.620 145.068,129.200 145.400 M196.400 145.399 C 196.400 145.589,199.589 147.200,199.964 147.200 C 200.316 147.200,198.682 146.199,197.500 145.690 C 196.895 145.430,196.400 145.299,196.400 145.399 M131.200 146.150 C 131.200 146.459,136.116 148.817,136.325 148.608 C 136.463 148.470,134.438 147.405,131.500 146.070 C 131.335 145.995,131.200 146.031,131.200 146.150 M200.400 147.399 C 200.400 147.589,203.589 149.200,203.964 149.200 C 204.316 149.200,202.682 148.199,201.500 147.690 C 200.895 147.430,200.400 147.299,200.400 147.399 M137.411 149.318 C 138.438 149.993,140.400 150.835,140.400 150.601 C 140.400 150.411,137.211 148.800,136.836 148.800 C 136.718 148.800,136.977 149.033,137.411 149.318 M204.600 149.536 C 205.295 150.255,225.200 160.156,225.200 159.782 C 225.200 159.684,220.475 157.245,214.700 154.362 C 208.925 151.480,204.380 149.308,204.600 149.536 M141.600 151.400 C 142.915 152.152,143.564 152.160,142.576 151.413 C 142.149 151.090,141.530 150.826,141.200 150.827 C 140.852 150.828,141.020 151.068,141.600 151.400 M143.600 152.160 C 143.600 152.463,148.520 154.813,148.725 154.608 C 148.821 154.513,147.842 153.955,146.549 153.369 C 145.257 152.783,144.065 152.224,143.900 152.128 C 143.735 152.032,143.600 152.046,143.600 152.160 M149.811 155.318 C 150.838 155.993,152.800 156.835,152.800 156.601 C 152.800 156.411,149.611 154.800,149.236 154.800 C 149.118 154.800,149.377 155.033,149.811 155.318 M156.141 158.446 C 157.869 159.329,159.358 159.976,159.450 159.884 C 159.628 159.705,153.749 156.786,153.279 156.820 C 153.125 156.831,154.414 157.562,156.141 158.446 M160.000 160.150 C 160.000 160.459,164.916 162.817,165.125 162.608 C 165.263 162.470,163.238 161.405,160.300 160.070 C 160.135 159.995,160.000 160.031,160.000 160.150 M226.211 160.518 C 227.240 161.194,229.200 162.034,229.200 161.800 C 229.200 161.577,226.156 160.000,225.727 160.000 C 225.559 160.000,225.777 160.233,226.211 160.518 M230.211 162.518 C 231.240 163.194,233.200 164.034,233.200 163.800 C 233.200 163.577,230.156 162.000,229.727 162.000 C 229.559 162.000,229.777 162.233,230.211 162.518 M166.211 163.318 C 167.240 163.994,169.200 164.834,169.200 164.600 C 169.200 164.377,166.156 162.800,165.727 162.800 C 165.559 162.800,165.777 163.033,166.211 163.318 M234.211 164.518 C 235.240 165.194,237.200 166.034,237.200 165.800 C 237.200 165.577,234.156 164.000,233.727 164.000 C 233.559 164.000,233.777 164.233,234.211 164.518 M170.400 165.400 C 171.715 166.152,172.364 166.160,171.376 165.413 C 170.949 165.090,170.330 164.826,170.000 164.827 C 169.652 164.828,169.820 165.068,170.400 165.400 M237.633 166.157 C 238.163 166.656,240.925 168.008,241.086 167.848 C 241.191 167.742,240.547 167.283,239.655 166.828 C 238.185 166.078,237.204 165.753,237.633 166.157 M175.367 167.801 C 176.449 168.350,177.411 168.722,177.506 168.628 C 177.710 168.423,174.437 166.799,173.825 166.802 C 173.591 166.803,174.285 167.252,175.367 167.801 M241.633 168.157 C 242.162 168.655,244.925 170.008,245.086 169.848 C 245.191 169.742,244.506 169.283,243.564 168.828 C 241.939 168.043,241.263 167.808,241.633 168.157 M178.611 169.318 C 179.638 169.993,181.600 170.835,181.600 170.601 C 181.600 170.411,178.411 168.800,178.036 168.800 C 177.918 168.800,178.177 169.033,178.611 169.318 M245.633 170.157 C 246.162 170.655,248.925 172.008,249.086 171.848 C 249.191 171.742,248.506 171.283,247.564 170.828 C 245.939 170.043,245.263 169.808,245.633 170.157 M185.740 172.846 C 187.027 173.510,188.158 173.975,188.253 173.880 C 188.438 173.696,184.179 171.587,183.689 171.619 C 183.530 171.630,184.453 172.182,185.740 172.846 M249.633 172.157 C 250.162 172.655,252.925 174.008,253.086 173.848 C 253.191 173.742,252.506 173.283,251.564 172.828 C 249.939 172.043,249.263 171.808,249.633 172.157 M188.800 174.150 C 188.800 174.459,193.716 176.817,193.925 176.608 C 194.063 176.470,192.038 175.405,189.100 174.070 C 188.935 173.995,188.800 174.031,188.800 174.150 M253.656 174.189 C 254.072 174.606,259.318 177.216,259.457 177.076 C 259.540 176.994,258.327 176.268,256.762 175.463 C 254.124 174.106,253.189 173.723,253.656 174.189 M195.011 177.318 C 196.040 177.994,198.000 178.834,198.000 178.600 C 198.000 178.377,194.956 176.800,194.527 176.800 C 194.359 176.800,194.577 177.033,195.011 177.318 M260.000 177.391 C 260.000 177.637,263.299 179.235,263.465 179.069 C 263.585 178.948,260.496 177.200,260.162 177.200 C 260.073 177.200,260.000 177.286,260.000 177.391 M202.163 180.830 C 204.342 181.918,206.200 182.733,206.292 182.641 C 206.482 182.451,199.026 178.787,198.527 178.825 C 198.347 178.839,199.983 179.741,202.163 180.830 M264.000 179.391 C 264.000 179.637,267.299 181.235,267.465 181.069 C 267.585 180.948,264.496 179.200,264.162 179.200 C 264.073 179.200,264.000 179.286,264.000 179.391 M268.000 181.391 C 268.000 181.637,271.299 183.235,271.465 183.069 C 271.585 182.948,268.496 181.200,268.162 181.200 C 268.073 181.200,268.000 181.286,268.000 181.391 M207.411 183.318 C 208.438 183.993,210.400 184.835,210.400 184.601 C 210.400 184.411,207.211 182.800,206.836 182.800 C 206.718 182.800,206.977 183.033,207.411 183.318 M272.000 183.360 C 272.000 183.449,272.630 183.893,273.400 184.347 L 274.800 185.173 274.800 200.255 C 274.800 214.035,274.740 215.409,274.100 216.169 C 273.401 216.999,273.401 216.999,274.300 216.238 L 275.200 215.476 275.194 200.438 C 275.191 192.167,275.038 185.163,274.854 184.874 C 274.407 184.169,272.000 182.893,272.000 183.360 M211.411 185.318 C 212.440 185.994,214.400 186.834,214.400 186.600 C 214.400 186.377,211.356 184.800,210.927 184.800 C 210.759 184.800,210.977 185.033,211.411 185.318 M215.600 187.400 C 216.915 188.152,217.564 188.160,216.576 187.413 C 216.149 187.090,215.530 186.826,215.200 186.827 C 214.852 186.828,215.020 187.068,215.600 187.400 M217.600 188.150 C 217.600 188.459,222.516 190.817,222.725 190.608 C 222.863 190.470,220.838 189.405,217.900 188.070 C 217.735 187.995,217.600 188.031,217.600 188.150 M223.811 191.318 C 224.838 191.993,226.800 192.835,226.800 192.601 C 226.800 192.411,223.611 190.800,223.236 190.800 C 223.118 190.800,223.377 191.033,223.811 191.318 M230.963 194.830 C 233.142 195.918,235.000 196.733,235.092 196.641 C 235.282 196.451,227.826 192.787,227.327 192.825 C 227.147 192.839,228.783 193.741,230.963 194.830 M235.633 196.957 C 236.162 197.455,238.925 198.808,239.086 198.648 C 239.191 198.542,238.506 198.083,237.564 197.628 C 235.939 196.843,235.263 196.608,235.633 196.957 M239.900 199.065 C 240.502 199.308,240.566 200.651,239.990 200.937 C 239.764 201.049,239.797 201.098,240.061 201.046 C 241.535 200.759,241.297 198.742,239.800 198.838 C 239.580 198.852,239.625 198.954,239.900 199.065 M236.263 202.476 C 234.977 203.127,233.998 203.732,234.087 203.821 C 234.274 204.007,239.200 201.659,239.200 201.383 C 239.200 201.063,238.658 201.265,236.263 202.476 M231.500 204.827 C 230.675 205.263,230.000 205.701,230.000 205.801 C 230.000 206.035,231.962 205.192,232.989 204.518 C 234.194 203.727,233.190 203.935,231.500 204.827 M224.100 208.494 C 221.406 209.836,219.271 211.004,219.357 211.091 C 219.504 211.238,229.120 206.614,229.539 206.194 C 230.111 205.622,228.499 206.304,224.100 208.494 M216.885 212.071 C 215.942 212.529,215.235 212.969,215.315 213.049 C 215.495 213.228,218.800 211.656,218.800 211.391 C 218.800 211.137,218.846 211.121,216.885 212.071 M212.702 214.104 C 211.879 214.563,211.263 214.996,211.333 215.066 C 211.501 215.234,214.800 213.639,214.800 213.391 C 214.800 213.058,214.242 213.248,212.702 214.104 M206.113 217.365 C 203.864 218.507,201.884 219.596,201.713 219.785 C 201.541 219.974,201.580 220.037,201.800 219.925 C 202.020 219.813,204.135 218.788,206.500 217.647 C 208.865 216.506,210.800 215.489,210.800 215.386 C 210.800 215.035,210.193 215.291,206.113 217.365 M271.097 217.566 C 269.252 218.749,269.299 218.949,271.200 218.000 C 273.320 216.942,273.523 216.790,272.767 216.829 C 272.455 216.845,271.704 217.177,271.097 217.566 M256.680 224.689 C 250.344 227.882,245.227 230.560,245.308 230.641 C 245.389 230.723,250.843 228.099,257.428 224.812 C 264.013 221.524,269.130 218.846,268.800 218.860 C 268.470 218.874,263.016 221.497,256.680 224.689 M199.600 220.600 C 199.020 220.932,198.852 221.172,199.200 221.173 C 199.530 221.174,200.149 220.910,200.576 220.587 C 201.564 219.840,200.915 219.848,199.600 220.600 M196.400 222.200 C 195.410 222.730,194.815 223.172,195.077 223.182 C 195.568 223.201,198.400 221.648,198.400 221.360 C 198.400 221.131,198.383 221.138,196.400 222.200 M192.485 224.071 C 191.542 224.529,190.849 224.982,190.946 225.079 C 191.145 225.279,194.400 223.689,194.400 223.392 C 194.400 223.137,194.447 223.120,192.485 224.071 M188.485 226.071 C 187.542 226.529,186.835 226.969,186.915 227.049 C 187.095 227.228,190.400 225.656,190.400 225.391 C 190.400 225.137,190.446 225.121,188.485 226.071 M184.485 228.071 C 183.542 228.529,182.835 228.969,182.915 229.049 C 183.095 229.228,186.400 227.656,186.400 227.391 C 186.400 227.137,186.446 227.121,184.485 228.071 M177.471 231.482 C 175.090 232.688,173.211 233.744,173.296 233.830 C 173.474 234.007,182.400 229.639,182.400 229.374 C 182.400 229.036,181.757 229.311,177.471 231.482 M242.657 231.667 C 241.808 232.096,241.202 232.535,241.310 232.643 C 241.474 232.807,244.230 231.463,244.767 230.957 C 245.164 230.583,244.080 230.948,242.657 231.667 M238.657 233.667 C 237.808 234.096,237.202 234.535,237.310 234.643 C 237.474 234.807,240.230 233.463,240.767 232.957 C 241.164 232.583,240.080 232.948,238.657 233.667 M169.200 235.600 C 167.550 236.458,166.380 237.168,166.600 237.178 C 166.963 237.194,172.372 234.550,172.767 234.163 C 173.299 233.641,171.820 234.237,169.200 235.600 M234.657 235.667 C 233.808 236.096,233.202 236.535,233.310 236.643 C 233.474 236.807,236.230 235.463,236.767 234.957 C 237.164 234.583,236.080 234.948,234.657 235.667 M230.657 237.667 C 229.808 238.096,229.202 238.535,229.310 238.643 C 229.474 238.807,232.230 237.463,232.767 236.957 C 233.164 236.583,232.080 236.948,230.657 237.667 M164.000 238.200 C 163.010 238.730,162.342 239.172,162.516 239.182 C 162.941 239.206,166.000 237.634,166.000 237.392 C 166.000 237.127,166.017 237.120,164.000 238.200 M226.657 239.667 C 225.808 240.096,225.202 240.535,225.310 240.643 C 225.474 240.807,228.230 239.463,228.767 238.957 C 229.164 238.583,228.080 238.948,226.657 239.667 M160.085 240.071 C 159.142 240.529,158.449 240.982,158.546 241.079 C 158.745 241.279,162.000 239.689,162.000 239.392 C 162.000 239.137,162.047 239.120,160.085 240.071 M222.700 241.647 C 221.875 242.064,221.200 242.491,221.200 242.595 C 221.200 242.833,223.149 242.001,224.189 241.318 C 225.333 240.567,224.446 240.762,222.700 241.647 M156.085 242.071 C 155.142 242.529,154.435 242.969,154.515 243.049 C 154.695 243.228,158.000 241.656,158.000 241.391 C 158.000 241.137,158.046 241.121,156.085 242.071 M218.700 243.627 C 217.875 244.063,217.200 244.501,217.200 244.601 C 217.200 244.835,219.162 243.992,220.189 243.318 C 221.394 242.527,220.390 242.735,218.700 243.627 M151.902 244.104 C 151.079 244.563,150.463 244.996,150.533 245.066 C 150.701 245.234,154.000 243.639,154.000 243.391 C 154.000 243.058,153.442 243.248,151.902 244.104 M214.700 245.627 C 213.875 246.063,213.200 246.501,213.200 246.601 C 213.200 246.835,215.162 245.992,216.189 245.318 C 217.394 244.527,216.390 244.735,214.700 245.627 M146.300 246.847 C 145.475 247.264,144.800 247.691,144.800 247.795 C 144.800 248.033,146.749 247.201,147.789 246.518 C 148.933 245.767,148.046 245.962,146.300 246.847 M205.105 250.329 C 201.422 252.206,198.478 253.811,198.562 253.895 C 198.645 253.979,201.928 252.426,205.857 250.445 C 209.786 248.464,212.730 246.859,212.400 246.879 C 212.070 246.899,208.787 248.451,205.105 250.329 M142.300 248.827 C 141.475 249.263,140.800 249.701,140.800 249.801 C 140.800 250.035,142.762 249.192,143.789 248.518 C 144.994 247.727,143.990 247.935,142.300 248.827 M137.600 251.200 C 136.390 251.839,135.530 252.371,135.689 252.381 C 136.063 252.406,140.400 250.355,140.400 250.153 C 140.400 249.826,139.718 250.081,137.600 251.200 M131.685 254.071 C 130.742 254.529,130.035 254.969,130.115 255.049 C 130.295 255.228,133.600 253.656,133.600 253.391 C 133.600 253.137,133.646 253.121,131.685 254.071 M196.085 254.871 C 195.142 255.329,194.449 255.782,194.546 255.879 C 194.745 256.079,198.000 254.489,198.000 254.192 C 198.000 253.937,198.047 253.920,196.085 254.871 M127.685 256.071 C 126.742 256.529,126.035 256.969,126.115 257.049 C 126.295 257.228,129.600 255.656,129.600 255.391 C 129.600 255.137,129.646 255.121,127.685 256.071 M192.085 256.871 C 191.142 257.329,190.449 257.782,190.546 257.879 C 190.745 258.079,194.000 256.489,194.000 256.192 C 194.000 255.937,194.047 255.920,192.085 256.871 M125.067 257.467 C 124.697 257.837,124.729 289.909,125.100 290.138 C 125.265 290.240,125.400 282.871,125.400 273.762 C 125.400 264.653,125.385 257.200,125.367 257.200 C 125.348 257.200,125.213 257.320,125.067 257.467 M187.902 258.904 C 187.079 259.363,186.476 259.810,186.564 259.897 C 186.751 260.084,190.000 258.472,190.000 258.192 C 190.000 257.857,189.443 258.047,187.902 258.904 M183.902 260.904 C 183.079 261.363,182.476 261.810,182.564 261.897 C 182.751 262.084,186.000 260.472,186.000 260.192 C 186.000 259.857,185.443 260.047,183.902 260.904 M179.063 263.276 C 177.777 263.927,176.798 264.532,176.887 264.621 C 177.074 264.807,182.000 262.459,182.000 262.183 C 182.000 261.863,181.458 262.065,179.063 263.276 M174.257 265.667 C 173.408 266.096,172.802 266.535,172.910 266.643 C 173.074 266.807,175.830 265.463,176.367 264.957 C 176.764 264.583,175.680 264.948,174.257 265.667 M170.257 267.667 C 169.408 268.096,168.802 268.535,168.910 268.643 C 169.074 268.807,171.830 267.463,172.367 266.957 C 172.764 266.583,171.680 266.948,170.257 267.667 M166.257 269.667 C 165.408 270.096,164.802 270.535,164.910 270.643 C 165.074 270.807,167.830 269.463,168.367 268.957 C 168.764 268.583,167.680 268.948,166.257 269.667 M162.257 271.667 C 161.408 272.096,160.802 272.535,160.910 272.643 C 161.074 272.807,163.830 271.463,164.367 270.957 C 164.764 270.583,163.680 270.948,162.257 271.667 M158.300 273.647 C 157.475 274.064,156.800 274.491,156.800 274.595 C 156.800 274.833,158.749 274.001,159.789 273.318 C 160.933 272.567,160.046 272.762,158.300 273.647 M154.300 275.647 C 153.475 276.064,152.800 276.491,152.800 276.595 C 152.800 276.833,154.749 276.001,155.789 275.318 C 156.933 274.567,156.046 274.762,154.300 275.647 M150.300 277.647 C 149.475 278.064,148.800 278.491,148.800 278.595 C 148.800 278.833,150.749 278.001,151.789 277.318 C 152.933 276.567,152.046 276.762,150.300 277.647 M146.300 279.627 C 145.475 280.063,144.800 280.501,144.800 280.601 C 144.800 280.835,146.762 279.992,147.789 279.318 C 148.994 278.527,147.990 278.735,146.300 279.627 M142.300 281.627 C 141.475 282.063,140.800 282.508,140.800 282.618 C 140.800 282.796,143.959 281.319,144.367 280.951 C 144.827 280.534,143.625 280.928,142.300 281.627 M138.300 283.627 C 137.475 284.063,136.800 284.508,136.800 284.618 C 136.800 284.796,139.959 283.319,140.367 282.951 C 140.827 282.534,139.625 282.928,138.300 283.627 M134.300 285.627 C 133.475 286.063,132.800 286.508,132.800 286.618 C 132.800 286.796,135.959 285.319,136.367 284.951 C 136.827 284.534,135.625 284.928,134.300 285.627 M130.300 287.627 C 129.475 288.063,128.800 288.508,128.800 288.618 C 128.800 288.796,131.959 287.319,132.367 286.951 C 132.827 286.534,131.625 286.928,130.300 287.627 M126.800 289.400 C 126.250 289.714,125.980 289.972,126.200 289.972 C 126.420 289.972,127.050 289.714,127.600 289.400 C 128.150 289.086,128.420 288.828,128.200 288.828 C 127.980 288.828,127.350 289.086,126.800 289.400 " stroke="none" fill="#b4d0a0" fill-rule="evenodd"></path><path id="path4" d="" stroke="none" fill="#accc94" fill-rule="evenodd"></path></g></svg>