<?xml version="1.0" encoding="utf-8"?>
<!-- Generator: Adobe Illustrator 23.0.1, SVG Export Plug-In . SVG Version: 6.00 Build 0)  -->
<svg version="1.1" id="Layer_1" xmlns="http://www.w3.org/2000/svg" xmlns:xlink="http://www.w3.org/1999/xlink" x="0px" y="0px"
	 viewBox="0 0 1000 1000" style="enable-background:new 0 0 1000 1000;" xml:space="preserve">
<style type="text/css">
	.st0{fill:#4B7BBE;}
	.st1{fill:url(#SVGID_1_);}
	.st2{fill:url(#SVGID_2_);}
</style>
<g transform="matrix(6.249587 0 0 6.249587 -228.82126 -169.26286)">
	<path class="st0" d="M192,102.6l-75.4-75.4l-75.4,75.4c-2.5,2.5-2.5,6.5,0,8.9l75.4,75.4l75.4-75.4
		C194.5,109.1,194.5,105.1,192,102.6L192,102.6z M116.6,130.7L93,107.1l23.6-23.6l23.6,23.6L116.6,130.7z"/>
	
		<linearGradient id="SVGID_1_" gradientUnits="userSpaceOnUse" x1="54.7321" y1="177.7483" x2="21.7576" y2="144.7738" gradientTransform="matrix(6.2496 0 0 -6.2496 -229.6613 1170.4229)">
		<stop  offset="0.18" style="stop-color:#325BA9"/>
		<stop  offset="1" style="stop-color:#4B7BBE"/>
	</linearGradient>
	<path class="st1" d="M116.6,83.6c-15.5-15.5-15.5-40.5-0.2-56.1L64.6,79.1l28.1,28.1L116.6,83.6z"/>
	
		<linearGradient id="SVGID_2_" gradientUnits="userSpaceOnUse" x1="56.1298" y1="162.5884" x2="89.042" y2="195.5005" gradientTransform="matrix(6.2496 0 0 -6.2496 -229.6613 1170.4229)">
		<stop  offset="0.18" style="stop-color:#325BA9"/>
		<stop  offset="1" style="stop-color:#4B7BBE"/>
	</linearGradient>
	<path class="st2" d="M140.3,107l-23.7,23.7c15.5,15.5,15.5,40.7,0,56.2c0,0,0,0,0,0l51.8-51.8L140.3,107z"/>
</g>
</svg>
