<svg id="svg" version="1.1" width="400" height="400" viewBox="0 0 400 400" xmlns="http://www.w3.org/2000/svg" xmlns:xlink="http://www.w3.org/1999/xlink"><g id="svgg"><path id="path0" d="M210.671 58.388 C 210.285 59.041,209.346 60.237,208.585 61.044 C 207.823 61.851,207.200 62.584,207.200 62.673 C 207.200 62.761,206.840 63.220,206.400 63.692 C 205.448 64.714,205.382 65.200,206.196 65.200 C 206.697 65.200,206.684 65.327,206.114 65.992 C 205.608 66.582,205.353 66.658,205.107 66.292 C 204.741 65.746,203.507 67.006,200.691 70.800 C 199.793 72.010,198.640 73.396,198.129 73.881 C 197.618 74.365,197.200 74.869,197.200 74.999 C 197.200 75.130,196.750 75.686,196.200 76.236 C 195.206 77.231,194.909 78.000,195.520 78.000 C 195.696 78.000,196.056 77.784,196.320 77.520 C 197.011 76.829,196.916 77.697,196.200 78.624 C 195.616 79.378,195.587 79.379,195.154 78.653 C 194.742 77.964,194.661 78.002,194.104 79.153 C 193.772 79.839,193.253 80.400,192.950 80.400 C 192.648 80.400,192.400 80.627,192.400 80.904 C 192.400 81.181,192.046 81.629,191.613 81.899 C 189.625 83.141,189.180 86.407,191.017 86.270 C 192.341 86.171,192.383 86.901,191.089 87.522 C 190.077 88.007,190.000 88.219,190.000 90.522 C 190.000 92.957,188.496 95.200,186.864 95.200 C 186.656 95.200,186.399 95.425,186.294 95.700 C 186.059 96.313,188.571 96.402,189.130 95.800 C 190.346 94.491,191.564 91.521,191.342 90.409 C 191.164 89.522,191.270 89.148,191.751 88.963 C 192.108 88.826,192.400 88.456,192.400 88.140 C 192.400 87.814,192.704 87.616,193.100 87.682 C 193.606 87.767,193.836 87.489,193.929 86.679 C 194.015 85.928,194.378 85.437,195.029 85.189 C 196.105 84.780,196.312 84.129,195.429 83.929 C 194.973 83.826,195.016 83.608,195.639 82.843 C 196.069 82.317,196.539 82.005,196.683 82.150 C 196.828 82.295,196.734 82.626,196.473 82.887 C 195.830 83.530,195.878 84.000,196.586 84.000 C 197.344 84.000,198.079 82.616,197.922 81.484 C 197.818 80.730,197.977 80.609,199.000 80.662 C 199.660 80.697,199.975 80.637,199.700 80.529 C 199.009 80.259,199.072 79.335,199.800 79.055 C 200.576 78.758,200.560 78.218,199.752 77.410 C 199.396 77.053,199.219 76.647,199.359 76.508 C 199.499 76.368,199.826 76.466,200.087 76.727 C 200.347 76.987,200.873 77.200,201.256 77.200 C 201.639 77.200,202.081 77.408,202.238 77.662 C 202.395 77.916,202.352 78.018,202.143 77.888 C 201.933 77.759,201.500 77.825,201.181 78.035 C 200.775 78.302,200.962 78.345,201.800 78.179 C 202.460 78.048,203.211 77.924,203.468 77.904 C 203.726 77.883,204.152 77.402,204.415 76.833 C 204.678 76.265,205.058 75.478,205.260 75.084 C 205.462 74.690,205.520 74.195,205.390 73.984 C 205.260 73.773,205.343 73.600,205.576 73.600 C 205.809 73.600,206.000 73.054,206.000 72.387 C 206.000 71.679,206.249 71.079,206.600 70.945 C 206.930 70.818,207.200 70.464,207.200 70.157 C 207.200 69.851,207.361 69.600,207.557 69.600 C 208.241 69.600,208.446 68.258,207.816 67.905 C 206.981 67.438,207.035 66.136,207.900 65.910 C 208.479 65.759,208.621 66.040,208.721 67.536 C 208.941 70.835,210.124 70.586,210.531 67.155 C 210.664 66.033,210.956 64.894,211.180 64.624 C 211.405 64.353,211.561 63.337,211.527 62.366 C 211.493 61.395,211.601 59.835,211.768 58.900 C 212.121 56.916,211.666 56.704,210.671 58.388 M209.712 64.017 C 209.391 65.241,208.431 65.320,208.652 64.104 C 208.756 63.527,208.945 62.889,209.071 62.685 C 209.419 62.123,209.929 63.184,209.712 64.017 M206.000 70.424 C 206.000 70.631,205.640 70.800,205.200 70.800 C 204.318 70.800,204.111 70.170,204.900 69.887 C 205.505 69.670,206.000 69.912,206.000 70.424 M207.200 71.753 C 207.200 72.058,207.560 72.401,208.000 72.516 C 208.593 72.671,208.800 72.528,208.800 71.963 C 208.800 71.467,208.520 71.200,208.000 71.200 C 207.560 71.200,207.200 71.449,207.200 71.753 M198.127 76.255 C 197.747 76.835,197.370 77.111,197.289 76.868 C 197.209 76.626,197.380 76.158,197.671 75.829 C 198.550 74.834,198.866 75.128,198.127 76.255 M199.200 78.400 C 199.200 78.840,199.031 79.200,198.824 79.200 C 198.287 79.200,197.908 78.472,198.200 78.000 C 198.618 77.324,199.200 77.556,199.200 78.400 M188.396 85.900 C 188.393 86.065,187.666 86.958,186.780 87.885 C 184.712 90.047,183.891 91.587,184.449 92.259 C 184.767 92.642,184.598 92.741,183.732 92.680 C 182.648 92.603,182.605 92.668,182.713 94.200 C 182.817 95.676,182.780 95.742,182.233 95.051 C 181.614 94.269,180.400 94.878,180.400 95.971 C 180.400 96.207,180.220 96.400,180.000 96.400 C 179.780 96.400,179.600 96.591,179.600 96.826 C 179.600 97.258,178.293 98.786,176.300 100.684 C 175.695 101.261,175.200 101.908,175.200 102.122 C 175.200 102.336,174.890 102.738,174.512 103.015 C 173.882 103.475,173.933 103.613,175.112 104.648 C 175.820 105.270,176.400 106.008,176.400 106.289 C 176.400 106.636,176.639 106.575,177.143 106.100 C 177.551 105.715,177.866 105.220,177.843 105.000 C 177.819 104.780,178.047 104.652,178.349 104.716 C 178.696 104.790,178.812 104.609,178.664 104.222 C 178.523 103.854,178.741 103.445,179.215 103.192 C 179.653 102.958,180.000 102.357,180.000 101.832 C 180.000 101.271,180.403 100.628,181.000 100.237 C 181.550 99.876,182.006 99.361,182.013 99.091 C 182.059 97.407,184.400 96.206,184.400 97.867 C 184.400 99.625,184.772 98.700,184.942 96.517 C 185.126 94.159,185.409 93.552,186.182 93.848 C 187.109 94.204,188.400 93.251,188.400 92.210 C 188.400 91.680,188.580 91.136,188.800 91.000 C 189.394 90.633,189.284 89.341,188.600 88.657 C 187.658 87.715,187.855 87.077,189.000 87.364 C 190.113 87.643,190.237 87.345,189.443 86.300 C 188.889 85.570,188.403 85.385,188.396 85.900 M187.395 91.064 C 186.392 92.594,185.693 91.643,186.641 90.038 C 187.240 89.025,187.432 88.915,187.717 89.423 C 187.943 89.828,187.831 90.398,187.395 91.064 M177.810 101.970 C 177.665 102.426,177.243 102.797,176.873 102.794 C 176.463 102.790,176.368 102.673,176.629 102.494 C 176.865 102.332,177.184 101.859,177.339 101.443 C 177.713 100.430,178.145 100.913,177.810 101.970 M176.400 103.600 C 176.400 103.820,176.130 104.000,175.800 104.000 C 175.470 104.000,175.200 103.820,175.200 103.600 C 175.200 103.380,175.470 103.200,175.800 103.200 C 176.130 103.200,176.400 103.380,176.400 103.600 M173.076 105.230 C 172.957 105.686,172.486 106.157,172.030 106.276 C 171.573 106.396,171.200 106.742,171.200 107.047 C 171.200 107.351,171.049 107.600,170.864 107.600 C 170.359 107.600,169.514 109.678,169.881 110.016 C 170.525 110.610,172.248 110.941,171.700 110.365 C 171.425 110.076,171.200 109.411,171.200 108.887 C 171.200 107.599,172.163 107.954,172.324 109.300 C 172.411 110.034,172.791 110.458,173.624 110.748 C 174.275 110.975,174.800 111.449,174.800 111.809 C 174.800 112.683,176.149 112.406,176.325 111.495 C 176.417 111.015,176.202 110.800,175.629 110.800 C 175.173 110.800,174.800 110.541,174.800 110.224 C 174.800 109.273,175.684 109.026,176.261 109.815 C 176.727 110.453,176.893 110.299,176.766 109.345 C 176.747 109.204,176.972 108.937,177.266 108.751 C 177.675 108.491,177.637 108.411,177.100 108.406 C 176.715 108.403,176.400 108.130,176.400 107.800 C 176.400 107.470,176.130 107.200,175.800 107.200 C 175.427 107.200,175.200 107.578,175.200 108.200 C 175.200 109.265,174.474 109.514,173.680 108.720 C 172.901 107.941,173.099 106.800,174.013 106.800 C 175.139 106.800,175.469 105.689,174.550 104.994 C 173.537 104.226,173.330 104.259,173.076 105.230 M167.900 111.157 C 167.114 111.954,167.429 112.640,168.263 111.948 C 168.658 111.620,168.800 111.620,168.800 111.948 C 168.800 112.193,168.440 112.618,168.000 112.893 C 167.560 113.168,167.200 113.679,167.200 114.030 C 167.200 115.112,166.665 115.269,166.165 114.335 C 165.704 113.473,165.648 113.509,164.468 115.427 C 163.797 116.518,162.607 117.977,161.824 118.671 C 161.041 119.364,160.397 120.082,160.394 120.266 C 160.390 120.450,159.673 121.410,158.800 122.400 C 156.917 124.535,156.834 124.895,158.300 124.574 C 160.378 124.119,160.627 123.987,160.065 123.640 C 159.733 123.435,159.949 123.312,160.676 123.290 C 162.350 123.242,164.000 122.503,164.000 121.801 C 164.000 121.461,164.450 120.978,165.000 120.727 C 166.118 120.218,166.312 119.405,165.400 119.055 C 164.513 118.715,164.666 117.600,165.600 117.600 C 166.044 117.600,166.400 117.867,166.400 118.200 C 166.400 118.530,166.670 118.800,167.000 118.800 C 167.836 118.800,167.748 118.305,166.763 117.461 C 165.689 116.542,166.574 115.354,168.618 114.970 C 169.416 114.820,170.001 114.438,170.119 113.989 C 170.285 113.355,170.175 113.305,169.326 113.628 C 168.495 113.944,168.362 113.893,168.474 113.301 C 168.549 112.909,169.046 112.538,169.604 112.460 C 171.003 112.263,171.337 111.505,170.283 110.919 C 169.118 110.271,168.736 110.310,167.900 111.157 M164.000 119.624 C 164.000 119.831,163.730 120.000,163.400 120.000 C 162.781 120.000,162.605 119.528,163.056 119.078 C 163.375 118.758,164.000 119.119,164.000 119.624 M168.705 120.683 C 169.202 120.779,169.922 120.775,170.305 120.675 C 170.687 120.575,170.280 120.496,169.400 120.501 C 168.520 120.505,168.207 120.587,168.705 120.683 M165.313 165.712 C 155.495 174.500,155.360 175.013,161.277 181.040 C 168.133 188.023,168.506 188.041,174.900 181.687 C 181.423 175.205,181.418 175.061,174.449 168.300 C 169.101 163.111,168.432 162.921,165.313 165.712 M101.830 276.351 C 101.611 276.705,102.538 279.971,104.738 286.600 C 105.395 288.580,107.409 294.790,109.212 300.400 C 113.882 314.926,115.195 318.877,115.695 319.900 C 116.118 320.765,116.338 320.800,121.377 320.800 L 126.619 320.800 127.693 317.900 C 128.284 316.305,129.511 312.660,130.421 309.800 C 131.330 306.940,132.428 303.610,132.860 302.400 C 133.292 301.190,134.462 297.680,135.460 294.600 C 136.457 291.520,137.806 287.470,138.457 285.600 C 140.747 279.018,141.277 277.178,141.052 276.592 C 140.750 275.804,132.315 275.721,131.708 276.500 C 131.376 276.927,128.770 284.425,127.641 288.200 C 125.805 294.347,121.824 306.000,121.561 306.000 C 121.074 306.000,120.538 304.854,119.574 301.755 C 119.103 300.240,118.560 298.640,118.368 298.200 C 118.177 297.760,117.103 294.340,115.983 290.600 C 114.863 286.860,113.694 283.170,113.387 282.400 C 113.079 281.630,112.520 280.010,112.145 278.800 C 111.769 277.590,111.268 276.468,111.031 276.306 C 110.417 275.888,102.091 275.929,101.830 276.351 M181.043 276.633 C 180.673 277.598,180.765 319.726,181.139 320.315 C 181.379 320.693,182.529 320.800,185.433 320.715 L 189.400 320.600 189.503 298.626 C 189.585 281.311,189.500 276.584,189.103 276.332 C 188.088 275.687,181.308 275.940,181.043 276.633 M155.361 287.794 C 137.594 291.660,138.200 318.653,156.110 321.186 C 163.832 322.278,170.866 319.167,173.719 313.400 C 180.735 299.214,170.228 284.560,155.361 287.794 M162.148 294.778 C 168.923 297.682,168.953 311.353,162.190 314.178 C 157.235 316.249,152.652 313.383,151.589 307.550 C 149.919 298.391,155.325 291.853,162.148 294.778 " stroke="none" fill="#9ebbee" fill-rule="evenodd"></path><path id="path1" d="M0.000 200.000 L 0.000 400.000 200.000 400.000 L 400.000 400.000 400.000 200.000 L 400.000 0.000 200.000 0.000 L 0.000 0.000 0.000 200.000 M213.921 55.042 C 213.987 55.721,213.743 57.970,213.379 60.038 C 213.015 62.107,212.582 65.060,212.417 66.600 C 212.252 68.140,211.931 70.120,211.705 71.000 C 211.478 71.880,211.101 74.130,210.865 76.000 C 209.759 84.796,209.494 86.738,209.148 88.600 C 208.944 89.700,208.670 92.175,208.539 94.100 L 208.302 97.600 225.501 97.600 C 247.064 97.600,247.328 97.650,243.500 100.991 C 242.565 101.807,240.000 104.140,237.800 106.174 C 235.600 108.209,233.080 110.479,232.200 111.219 C 231.320 111.959,229.430 113.656,228.000 114.990 C 226.570 116.324,223.975 118.672,222.233 120.208 C 220.491 121.743,218.781 123.270,218.432 123.600 C 216.297 125.619,208.842 132.382,208.040 133.027 C 207.512 133.452,206.229 134.610,205.188 135.600 C 202.407 138.245,201.242 139.200,200.797 139.200 C 200.579 139.200,200.400 139.355,200.400 139.545 C 200.400 139.735,198.291 141.760,195.713 144.045 C 190.749 148.446,182.000 157.063,182.000 157.550 C 182.000 157.710,182.216 158.056,182.480 158.320 C 182.853 158.693,182.764 158.800,182.080 158.800 C 180.314 158.800,182.616 162.354,184.404 162.388 C 185.625 162.412,188.296 168.027,188.047 170.047 C 187.854 171.620,189.882 171.723,225.936 171.966 L 260.471 172.200 261.236 173.144 C 262.288 174.444,262.210 176.227,261.050 177.386 L 260.101 178.335 227.150 178.533 C 191.071 178.749,188.759 178.879,188.609 180.700 C 188.577 181.085,188.331 181.805,188.061 182.300 C 187.792 182.795,187.713 183.203,187.886 183.206 C 188.059 183.209,188.020 183.344,187.800 183.506 C 187.015 184.083,184.000 187.951,184.000 188.382 C 184.000 188.623,183.547 188.992,182.993 189.203 C 182.439 189.413,181.822 190.016,181.622 190.542 C 181.195 191.665,179.356 192.866,176.705 193.753 C 175.662 194.102,174.492 194.566,174.105 194.784 C 170.585 196.763,162.576 196.868,161.269 194.952 C 161.121 194.736,160.317 194.241,159.483 193.852 C 158.649 193.464,157.068 192.349,155.970 191.373 C 154.872 190.398,153.704 189.600,153.374 189.600 C 153.045 189.600,152.659 189.285,152.517 188.900 C 152.375 188.515,151.866 187.660,151.387 187.000 C 150.907 186.340,150.282 184.630,149.999 183.200 C 149.260 179.479,149.064 179.334,144.296 178.993 C 135.906 178.392,135.348 171.607,143.687 171.598 C 146.912 171.594,148.796 170.957,148.752 169.883 C 148.661 167.675,149.926 164.623,151.465 163.337 C 152.309 162.631,153.685 161.367,154.522 160.527 C 155.359 159.687,156.551 158.730,157.170 158.400 C 157.790 158.070,158.785 157.454,159.382 157.032 C 161.848 155.287,169.719 154.416,173.969 155.417 C 176.866 156.100,177.183 155.933,177.194 153.720 C 177.197 153.016,177.440 152.296,177.732 152.120 C 178.448 151.690,179.600 149.284,179.600 148.219 C 179.600 147.746,179.781 147.179,180.001 146.959 C 180.420 146.540,181.309 143.355,181.777 140.600 C 181.926 139.720,182.204 138.460,182.394 137.800 C 183.053 135.508,184.846 129.394,185.153 128.392 C 185.776 126.355,186.095 126.400,171.067 126.395 C 163.330 126.392,156.595 126.281,156.100 126.148 C 154.538 125.729,155.204 123.225,157.417 121.200 C 158.018 120.650,159.513 118.850,160.739 117.200 C 161.965 115.550,163.312 113.840,163.733 113.400 C 164.154 112.960,165.029 111.880,165.677 111.000 C 166.326 110.120,167.438 108.770,168.147 108.000 C 168.856 107.230,170.396 105.340,171.569 103.800 C 172.743 102.260,174.132 100.550,174.658 100.000 C 175.183 99.450,176.373 98.010,177.301 96.800 C 178.230 95.590,179.208 94.371,179.476 94.090 C 179.744 93.810,180.646 92.732,181.481 91.696 C 182.317 90.660,183.498 89.253,184.107 88.570 C 184.715 87.886,185.885 86.430,186.707 85.333 C 187.528 84.237,188.864 82.543,189.676 81.570 C 192.118 78.641,196.128 73.661,197.314 72.082 C 197.927 71.267,198.647 70.330,198.915 70.000 C 201.226 67.153,203.038 64.966,203.223 64.800 C 203.346 64.690,203.726 64.191,204.067 63.691 C 204.408 63.192,205.300 62.112,206.048 61.291 C 206.796 60.471,208.023 58.990,208.774 58.000 C 212.196 53.489,213.685 52.633,213.921 55.042 M111.375 275.482 C 112.099 275.887,113.182 278.381,113.194 279.668 C 113.197 280.035,113.456 280.845,113.768 281.468 C 114.080 282.090,115.000 284.760,115.812 287.400 C 116.623 290.040,117.433 292.650,117.612 293.200 C 117.790 293.750,118.241 295.280,118.614 296.600 C 118.987 297.920,119.542 299.567,119.846 300.260 C 120.151 300.954,120.400 301.798,120.400 302.137 C 120.400 302.476,120.580 302.864,120.800 303.000 C 121.020 303.136,121.209 303.642,121.221 304.124 C 121.233 304.625,121.587 304.058,122.049 302.800 C 122.493 301.590,122.998 300.240,123.172 299.800 C 123.465 299.057,124.455 295.815,125.248 293.000 C 125.607 291.724,127.470 286.052,128.729 282.400 C 129.146 281.190,129.789 279.175,130.157 277.923 C 130.965 275.174,131.113 275.110,136.762 275.047 C 143.172 274.975,143.322 275.405,139.806 283.800 C 139.530 284.460,139.079 285.810,138.805 286.800 C 137.921 289.989,137.111 292.584,136.803 293.213 C 136.637 293.550,136.375 294.403,136.220 295.109 C 136.065 295.814,135.772 296.494,135.569 296.619 C 135.366 296.745,135.200 297.199,135.200 297.629 C 135.200 298.059,135.029 298.723,134.821 299.105 C 134.613 299.487,133.699 302.230,132.792 305.200 C 131.884 308.170,130.997 310.876,130.821 311.213 C 130.646 311.550,130.375 312.403,130.220 313.109 C 130.065 313.814,129.772 314.494,129.569 314.619 C 129.366 314.745,129.200 315.276,129.200 315.800 C 129.200 316.324,129.044 316.849,128.853 316.968 C 128.661 317.086,128.393 317.883,128.256 318.739 C 127.871 321.145,127.593 321.235,120.946 321.111 L 115.000 321.000 114.168 318.200 C 113.710 316.660,113.224 315.130,113.087 314.800 C 112.691 313.843,109.756 304.777,109.202 302.800 C 108.925 301.810,108.282 299.830,107.774 298.400 C 106.691 295.355,105.204 290.786,104.193 287.400 C 103.520 285.147,102.789 282.950,101.357 278.875 C 100.505 276.450,100.731 275.459,102.200 275.167 C 104.047 274.799,110.555 275.023,111.375 275.482 M189.846 275.638 C 190.317 276.029,190.390 279.701,190.303 298.552 L 190.200 321.000 185.200 321.000 L 180.200 321.000 180.097 298.635 C 180.009 279.661,180.080 276.174,180.567 275.635 C 181.268 274.861,188.912 274.863,189.846 275.638 M225.600 275.600 C 226.785 276.785,226.775 282.425,225.586 283.614 C 224.286 284.914,217.458 284.654,216.363 283.263 C 215.274 281.877,215.262 276.738,216.346 275.654 C 217.500 274.500,224.460 274.460,225.600 275.600 M276.290 276.000 C 276.660 276.722,276.791 279.223,276.764 285.000 C 276.702 297.685,276.447 297.407,282.664 291.420 L 286.600 287.630 291.526 287.615 C 299.503 287.591,299.505 287.608,292.234 294.798 C 287.146 299.829,286.483 300.907,287.800 302.000 C 288.130 302.274,288.402 302.701,288.404 302.949 C 288.406 303.197,289.306 304.557,290.404 305.972 C 291.502 307.387,292.400 308.673,292.400 308.829 C 292.400 308.986,293.777 311.159,295.459 313.657 C 300.768 321.539,300.752 321.600,293.400 321.600 C 287.341 321.600,287.755 321.884,283.400 314.734 C 283.180 314.373,282.236 312.938,281.302 311.546 C 280.369 310.153,279.543 308.831,279.468 308.607 C 279.382 308.353,278.931 308.413,278.272 308.764 C 276.990 309.447,276.817 310.276,276.693 316.309 L 276.600 320.818 275.000 321.252 C 272.825 321.841,267.260 321.431,266.451 320.622 C 265.912 320.083,265.839 318.139,265.892 305.701 C 265.925 297.836,265.963 287.941,265.976 283.713 L 266.000 276.026 267.100 275.421 C 269.096 274.325,275.644 274.738,276.290 276.000 M207.224 278.229 C 207.591 278.672,207.722 280.059,207.664 282.900 C 207.569 287.601,207.557 287.585,211.086 287.594 C 214.072 287.601,214.400 287.992,214.400 291.551 C 214.400 294.418,213.647 295.200,210.885 295.200 C 207.542 295.200,207.599 295.059,207.606 303.314 C 207.613 312.244,207.707 312.518,210.848 312.800 C 214.119 313.094,214.400 313.462,214.400 317.469 L 214.400 320.841 213.082 321.392 C 210.446 322.493,204.281 322.089,200.994 320.598 C 197.794 319.148,196.821 316.377,197.041 309.339 C 197.122 306.733,197.077 302.650,196.941 300.267 C 196.671 295.561,196.704 295.618,193.928 295.027 C 192.125 294.643,191.600 293.780,191.600 291.200 C 191.600 288.246,192.171 287.600,194.786 287.600 C 197.158 287.600,197.200 287.509,197.200 282.447 C 197.200 279.957,197.373 278.387,197.680 278.080 C 198.456 277.304,206.561 277.430,207.224 278.229 M253.200 287.466 C 258.474 289.180,262.116 293.316,262.452 297.974 C 262.620 300.298,262.306 300.443,257.384 300.314 L 253.037 300.200 252.289 298.800 C 249.847 294.229,244.576 293.916,241.877 298.182 C 237.678 304.818,241.395 314.746,247.700 313.738 C 249.735 313.412,252.669 310.689,252.869 308.941 L 253.000 307.800 257.342 307.686 C 263.241 307.531,263.590 307.906,261.984 312.662 C 259.345 320.477,248.321 324.902,240.400 321.326 C 239.410 320.879,238.150 320.332,237.600 320.110 C 231.225 317.541,227.642 306.423,230.550 298.233 C 231.891 294.455,234.543 290.467,236.165 289.789 C 236.844 289.505,237.850 288.927,238.400 288.504 C 240.932 286.558,248.725 286.011,253.200 287.466 M164.925 287.468 C 169.096 288.811,173.159 292.211,174.642 295.600 C 175.922 298.521,176.173 299.788,176.306 303.976 C 176.456 308.694,176.272 309.640,174.390 313.836 C 171.722 319.784,162.588 323.655,155.200 321.970 C 151.023 321.017,144.800 316.853,144.800 315.011 C 144.800 314.675,144.623 314.400,144.408 314.400 C 144.192 314.400,143.902 313.950,143.764 313.400 C 143.626 312.850,143.353 312.400,143.157 312.400 C 142.960 312.400,142.800 311.986,142.800 311.480 C 142.800 310.974,142.582 310.342,142.317 310.077 C 141.499 309.259,141.657 301.047,142.543 298.283 C 145.393 289.388,155.588 284.462,164.925 287.468 M225.771 288.229 C 226.486 288.943,226.494 289.189,226.407 308.000 C 226.360 318.163,226.252 320.300,225.761 320.800 C 225.032 321.541,216.714 321.675,215.997 320.957 C 215.411 320.371,215.435 289.455,216.023 288.358 C 216.579 287.318,224.753 287.210,225.771 288.229 M157.296 295.144 C 152.863 296.014,150.510 304.697,153.222 310.176 C 156.489 316.777,164.785 314.888,166.046 307.256 C 167.376 299.200,163.559 293.916,157.296 295.144 M144.792 336.259 C 147.363 337.777,147.958 341.698,145.983 344.094 C 142.944 347.781,137.600 345.824,137.600 341.023 C 137.600 336.633,141.289 334.190,144.792 336.259 M190.901 337.249 C 193.954 340.898,191.959 345.600,187.357 345.600 C 184.169 345.600,182.800 344.154,182.800 340.786 C 182.800 335.889,187.898 333.663,190.901 337.249 M214.911 336.733 C 216.022 337.844,216.297 344.613,215.254 345.171 C 214.485 345.582,213.600 345.060,213.600 344.195 C 213.600 343.652,212.105 342.000,211.613 342.000 C 210.912 342.000,210.000 343.276,210.000 344.256 C 210.000 345.789,208.292 345.409,207.950 343.800 C 207.323 340.854,207.567 337.233,208.452 336.348 C 209.524 335.276,213.702 335.525,214.911 336.733 M240.833 336.000 C 244.203 336.000,244.498 337.800,241.200 338.238 C 238.551 338.589,238.412 339.600,241.013 339.600 C 242.261 339.600,242.897 339.788,243.057 340.205 C 243.420 341.150,242.433 342.000,240.975 342.000 C 238.991 342.000,238.941 342.700,240.888 343.220 C 244.706 344.241,244.200 345.600,240.000 345.600 C 236.521 345.600,236.290 345.315,236.072 340.751 C 235.892 336.993,236.533 335.259,237.907 335.786 C 238.214 335.904,239.531 336.000,240.833 336.000 M264.553 336.423 C 265.268 337.078,264.423 337.892,262.802 338.109 C 260.243 338.452,260.044 339.600,262.544 339.600 C 263.787 339.600,264.800 340.183,264.800 340.900 C 264.800 341.086,264.035 341.586,263.100 342.011 C 262.016 342.503,261.690 342.789,262.200 342.800 C 263.323 342.825,265.107 344.258,264.600 344.728 C 263.814 345.458,258.931 345.673,258.265 345.008 C 257.109 343.852,257.498 336.175,258.726 335.895 C 259.758 335.659,264.154 336.058,264.553 336.423 M285.238 336.634 C 285.880 337.216,285.992 337.663,285.792 338.850 C 285.617 339.883,285.733 340.632,286.173 341.302 C 288.147 344.315,282.150 347.445,279.616 344.725 C 278.562 343.593,278.541 341.993,279.578 341.722 C 280.348 341.520,280.348 341.510,279.578 340.684 C 276.672 337.565,282.030 333.731,285.238 336.634 M116.571 336.629 C 116.917 336.974,117.200 337.431,117.200 337.643 C 117.200 337.855,117.872 337.572,118.693 337.014 C 121.378 335.190,123.492 336.526,121.200 338.600 C 120.426 339.301,120.062 341.600,120.726 341.600 C 121.198 341.600,122.456 344.386,122.183 344.827 C 121.678 345.644,120.117 345.137,118.788 343.724 L 117.400 342.248 117.273 343.324 C 117.111 344.708,115.745 345.517,114.937 344.709 C 114.196 343.967,114.047 338.165,114.737 336.900 C 115.317 335.837,115.720 335.777,116.571 336.629 M129.474 337.587 C 130.941 339.655,131.600 339.913,131.600 338.420 C 131.600 336.248,132.973 335.062,133.849 336.479 C 134.418 337.400,134.012 344.560,133.361 345.058 C 132.451 345.754,131.231 345.238,130.268 343.750 C 129.261 342.196,128.400 341.997,128.400 343.320 C 128.400 346.130,126.135 345.819,125.778 342.960 C 124.994 336.687,126.885 333.938,129.474 337.587 M152.713 337.427 L 153.445 338.854 154.213 337.427 C 155.315 335.382,156.833 335.427,157.876 337.535 L 158.635 339.070 159.382 337.535 C 160.967 334.277,162.508 335.915,161.234 339.504 C 160.775 340.796,160.400 342.336,160.400 342.927 C 160.400 345.476,157.692 346.145,156.806 343.815 C 156.233 342.309,155.734 342.308,154.847 343.810 C 152.891 347.126,151.772 346.055,150.374 339.534 C 149.589 335.872,151.180 334.439,152.713 337.427 M174.422 337.231 L 175.298 338.462 176.607 337.193 C 179.310 334.574,179.995 336.069,177.969 340.164 C 177.326 341.464,176.800 342.915,176.800 343.387 C 176.800 346.516,174.302 345.806,173.855 342.551 C 173.718 341.551,173.249 340.231,172.813 339.618 C 171.827 338.233,171.173 336.561,171.492 336.241 C 172.138 335.595,173.612 336.093,174.422 337.231 M198.200 339.200 C 198.974 345.008,201.145 345.070,201.627 339.298 C 201.979 335.091,203.494 334.689,204.100 338.643 C 204.905 343.903,202.833 346.296,198.223 345.431 C 196.344 345.078,195.598 343.623,195.605 340.320 C 195.617 334.796,197.504 333.981,198.200 339.200 M228.430 336.500 C 228.447 336.775,228.504 337.990,228.559 339.200 C 228.676 341.816,229.327 343.200,230.440 343.200 C 231.555 343.200,232.800 343.917,232.800 344.559 C 232.800 345.269,227.903 345.790,226.795 345.198 C 225.891 344.714,225.601 338.294,226.414 336.774 C 226.873 335.917,228.383 335.712,228.430 336.500 M248.815 337.100 C 250.128 339.723,250.436 339.800,251.674 337.812 C 253.147 335.445,254.406 335.300,254.387 337.500 C 254.380 338.325,254.110 339.349,253.787 339.776 C 253.464 340.204,253.200 340.886,253.200 341.292 C 253.200 343.037,251.638 345.200,250.378 345.200 C 249.200 345.200,247.600 342.788,247.600 341.013 C 247.600 340.726,247.331 339.976,247.002 339.346 C 246.373 338.139,246.218 336.715,246.667 336.267 C 247.267 335.667,248.298 336.067,248.815 337.100 M270.676 336.500 C 270.854 336.775,271.090 338.260,271.200 339.800 L 271.400 342.600 273.400 343.262 C 277.087 344.482,275.832 345.884,271.382 345.515 C 268.608 345.285,268.725 345.461,268.605 341.320 C 268.472 336.733,269.412 334.546,270.676 336.500 M140.900 338.665 C 140.605 338.784,140.400 339.596,140.400 340.642 C 140.400 342.990,141.773 343.823,143.512 342.529 C 146.115 340.593,143.974 337.425,140.900 338.665 M185.680 338.880 C 183.734 340.826,186.877 344.162,188.999 342.401 C 190.553 341.111,189.470 338.400,187.400 338.400 C 186.718 338.400,185.944 338.616,185.680 338.880 M210.655 339.000 C 210.782 339.330,211.226 339.600,211.643 339.600 C 212.059 339.600,212.400 339.330,212.400 339.000 C 212.400 338.629,212.024 338.400,211.413 338.400 C 210.699 338.400,210.489 338.567,210.655 339.000 " stroke="none" fill="#0b0c13" fill-rule="evenodd"></path><path id="path2" d="M211.386 56.623 C 210.036 58.016,201.810 67.894,199.400 71.018 C 198.520 72.158,195.280 76.201,192.200 80.003 C 189.120 83.805,186.160 87.475,185.623 88.158 C 185.085 88.841,184.095 90.036,183.423 90.814 C 182.750 91.592,181.637 92.942,180.949 93.814 C 178.120 97.401,175.844 100.212,175.617 100.400 C 175.484 100.510,174.292 101.950,172.969 103.600 C 171.645 105.250,169.401 108.002,167.981 109.715 C 166.561 111.429,164.983 113.409,164.474 114.115 C 163.617 115.304,162.755 116.345,158.703 121.089 C 154.998 125.426,154.721 125.319,169.474 125.245 C 186.794 125.158,186.849 125.170,185.961 128.600 C 185.733 129.480,185.398 130.830,185.216 131.600 C 184.448 134.858,181.895 144.442,181.009 147.400 C 177.294 159.794,177.269 159.746,184.059 153.264 C 186.556 150.879,191.408 146.424,194.841 143.364 C 198.273 140.304,204.112 135.100,207.817 131.800 C 211.521 128.500,217.173 123.386,220.376 120.436 C 223.579 117.486,227.640 113.807,229.400 112.260 C 240.988 102.076,243.665 99.437,242.947 98.912 C 242.404 98.515,238.362 98.400,224.911 98.400 C 209.707 98.400,207.546 98.325,207.340 97.787 C 207.073 97.092,207.537 93.018,209.228 81.200 C 210.332 73.486,210.583 71.878,211.543 66.400 C 213.171 57.116,213.134 54.820,211.386 56.623 M211.768 58.900 C 211.601 59.835,211.493 61.395,211.527 62.366 C 211.561 63.337,211.405 64.353,211.180 64.624 C 210.956 64.894,210.664 66.033,210.531 67.155 C 210.124 70.586,208.941 70.835,208.721 67.536 C 208.621 66.040,208.479 65.759,207.900 65.910 C 207.035 66.136,206.981 67.438,207.816 67.905 C 208.446 68.258,208.241 69.600,207.557 69.600 C 207.361 69.600,207.200 69.851,207.200 70.157 C 207.200 70.464,206.930 70.818,206.600 70.945 C 206.249 71.079,206.000 71.679,206.000 72.387 C 206.000 73.054,205.809 73.600,205.576 73.600 C 205.343 73.600,205.260 73.773,205.390 73.984 C 205.520 74.195,205.462 74.690,205.260 75.084 C 205.058 75.478,204.678 76.265,204.415 76.833 C 204.152 77.402,203.726 77.883,203.468 77.904 C 203.211 77.924,202.460 78.048,201.800 78.179 C 200.962 78.345,200.775 78.302,201.181 78.035 C 201.500 77.825,201.933 77.759,202.143 77.888 C 202.352 78.018,202.395 77.916,202.238 77.662 C 202.081 77.408,201.639 77.200,201.256 77.200 C 200.873 77.200,200.347 76.987,200.087 76.727 C 199.826 76.466,199.499 76.368,199.359 76.508 C 199.219 76.647,199.396 77.053,199.752 77.410 C 200.560 78.218,200.576 78.758,199.800 79.055 C 199.072 79.335,199.009 80.259,199.700 80.529 C 199.975 80.637,199.660 80.697,199.000 80.662 C 197.977 80.609,197.818 80.730,197.922 81.484 C 198.079 82.616,197.344 84.000,196.586 84.000 C 195.878 84.000,195.830 83.530,196.473 82.887 C 196.734 82.626,196.828 82.295,196.683 82.150 C 196.539 82.005,196.069 82.317,195.639 82.843 C 195.016 83.608,194.973 83.826,195.429 83.929 C 196.312 84.129,196.105 84.780,195.029 85.189 C 194.378 85.437,194.015 85.928,193.929 86.679 C 193.836 87.489,193.606 87.767,193.100 87.682 C 192.704 87.616,192.400 87.814,192.400 88.140 C 192.400 88.456,192.108 88.826,191.751 88.963 C 191.270 89.148,191.164 89.522,191.342 90.409 C 191.564 91.521,190.346 94.491,189.130 95.800 C 188.571 96.402,186.059 96.313,186.294 95.700 C 186.399 95.425,186.656 95.200,186.864 95.200 C 188.496 95.200,190.000 92.957,190.000 90.522 C 190.000 88.219,190.077 88.007,191.089 87.522 C 192.383 86.901,192.341 86.171,191.017 86.270 C 189.180 86.407,189.625 83.141,191.613 81.899 C 192.046 81.629,192.400 81.181,192.400 80.904 C 192.400 80.627,192.648 80.400,192.950 80.400 C 193.253 80.400,193.772 79.839,194.104 79.153 C 194.661 78.002,194.742 77.964,195.154 78.653 C 195.587 79.379,195.616 79.378,196.200 78.624 C 196.916 77.697,197.011 76.829,196.320 77.520 C 196.056 77.784,195.696 78.000,195.520 78.000 C 194.909 78.000,195.206 77.231,196.200 76.236 C 196.750 75.686,197.200 75.130,197.200 74.999 C 197.200 74.869,197.618 74.365,198.129 73.881 C 198.640 73.396,199.793 72.010,200.691 70.800 C 203.507 67.006,204.741 65.746,205.107 66.292 C 205.353 66.658,205.608 66.582,206.114 65.992 C 206.684 65.327,206.697 65.200,206.196 65.200 C 205.382 65.200,205.448 64.714,206.400 63.692 C 206.840 63.220,207.200 62.761,207.200 62.673 C 207.200 62.584,207.823 61.851,208.585 61.044 C 209.346 60.237,210.285 59.041,210.671 58.388 C 211.666 56.704,212.121 56.916,211.768 58.900 M209.071 62.685 C 208.945 62.889,208.756 63.527,208.652 64.104 C 208.431 65.320,209.391 65.241,209.712 64.017 C 209.929 63.184,209.419 62.123,209.071 62.685 M204.900 69.887 C 204.111 70.170,204.318 70.800,205.200 70.800 C 205.640 70.800,206.000 70.631,206.000 70.424 C 206.000 69.912,205.505 69.670,204.900 69.887 M208.800 71.963 C 208.800 72.528,208.593 72.671,208.000 72.516 C 207.560 72.401,207.200 72.058,207.200 71.753 C 207.200 71.449,207.560 71.200,208.000 71.200 C 208.520 71.200,208.800 71.467,208.800 71.963 M197.671 75.829 C 197.380 76.158,197.209 76.626,197.289 76.868 C 197.370 77.111,197.747 76.835,198.127 76.255 C 198.866 75.128,198.550 74.834,197.671 75.829 M198.200 78.000 C 197.908 78.472,198.287 79.200,198.824 79.200 C 199.031 79.200,199.200 78.840,199.200 78.400 C 199.200 77.556,198.618 77.324,198.200 78.000 M189.443 86.300 C 190.237 87.345,190.113 87.643,189.000 87.364 C 187.855 87.077,187.658 87.715,188.600 88.657 C 189.284 89.341,189.394 90.633,188.800 91.000 C 188.580 91.136,188.400 91.680,188.400 92.210 C 188.400 93.251,187.109 94.204,186.182 93.848 C 185.409 93.552,185.126 94.159,184.942 96.517 C 184.772 98.700,184.400 99.625,184.400 97.867 C 184.400 96.206,182.059 97.407,182.013 99.091 C 182.006 99.361,181.550 99.876,181.000 100.237 C 180.403 100.628,180.000 101.271,180.000 101.832 C 180.000 102.357,179.653 102.958,179.215 103.192 C 178.741 103.445,178.523 103.854,178.664 104.222 C 178.812 104.609,178.696 104.790,178.349 104.716 C 178.047 104.652,177.819 104.780,177.843 105.000 C 177.866 105.220,177.551 105.715,177.143 106.100 C 176.639 106.575,176.400 106.636,176.400 106.289 C 176.400 106.008,175.820 105.270,175.112 104.648 C 173.933 103.613,173.882 103.475,174.512 103.015 C 174.890 102.738,175.200 102.336,175.200 102.122 C 175.200 101.908,175.695 101.261,176.300 100.684 C 178.293 98.786,179.600 97.258,179.600 96.826 C 179.600 96.591,179.780 96.400,180.000 96.400 C 180.220 96.400,180.400 96.207,180.400 95.971 C 180.400 94.878,181.614 94.269,182.233 95.051 C 182.780 95.742,182.817 95.676,182.713 94.200 C 182.605 92.668,182.648 92.603,183.732 92.680 C 184.598 92.741,184.767 92.642,184.449 92.259 C 183.891 91.587,184.712 90.047,186.780 87.885 C 187.666 86.958,188.393 86.065,188.396 85.900 C 188.403 85.385,188.889 85.570,189.443 86.300 M186.641 90.038 C 186.147 90.874,186.043 91.403,186.319 91.679 C 186.912 92.272,188.173 90.237,187.717 89.423 C 187.432 88.915,187.240 89.025,186.641 90.038 M177.339 101.443 C 177.184 101.859,176.865 102.332,176.629 102.494 C 176.368 102.673,176.463 102.790,176.873 102.794 C 177.243 102.797,177.665 102.426,177.810 101.970 C 178.145 100.913,177.713 100.430,177.339 101.443 M175.200 103.600 C 175.200 103.820,175.470 104.000,175.800 104.000 C 176.130 104.000,176.400 103.820,176.400 103.600 C 176.400 103.380,176.130 103.200,175.800 103.200 C 175.470 103.200,175.200 103.380,175.200 103.600 M174.550 104.994 C 175.469 105.689,175.139 106.800,174.013 106.800 C 173.099 106.800,172.901 107.941,173.680 108.720 C 174.474 109.514,175.200 109.265,175.200 108.200 C 175.200 107.578,175.427 107.200,175.800 107.200 C 176.130 107.200,176.400 107.470,176.400 107.800 C 176.400 108.130,176.715 108.403,177.100 108.406 C 177.637 108.411,177.675 108.491,177.266 108.751 C 176.972 108.937,176.747 109.204,176.766 109.345 C 176.893 110.299,176.727 110.453,176.261 109.815 C 175.684 109.026,174.800 109.273,174.800 110.224 C 174.800 110.541,175.173 110.800,175.629 110.800 C 176.202 110.800,176.417 111.015,176.325 111.495 C 176.149 112.406,174.800 112.683,174.800 111.809 C 174.800 111.449,174.275 110.975,173.624 110.748 C 172.791 110.458,172.411 110.034,172.324 109.300 C 172.163 107.954,171.200 107.599,171.200 108.887 C 171.200 109.411,171.425 110.076,171.700 110.365 C 172.248 110.941,170.525 110.610,169.881 110.016 C 169.514 109.678,170.359 107.600,170.864 107.600 C 171.049 107.600,171.200 107.351,171.200 107.047 C 171.200 106.742,171.573 106.396,172.030 106.276 C 172.486 106.157,172.957 105.686,173.076 105.230 C 173.330 104.259,173.537 104.226,174.550 104.994 M170.283 110.919 C 171.337 111.505,171.003 112.263,169.604 112.460 C 169.046 112.538,168.549 112.909,168.474 113.301 C 168.362 113.893,168.495 113.944,169.326 113.628 C 170.175 113.305,170.285 113.355,170.119 113.989 C 170.001 114.438,169.416 114.820,168.618 114.970 C 166.574 115.354,165.689 116.542,166.763 117.461 C 167.748 118.305,167.836 118.800,167.000 118.800 C 166.670 118.800,166.400 118.530,166.400 118.200 C 166.400 117.867,166.044 117.600,165.600 117.600 C 164.666 117.600,164.513 118.715,165.400 119.055 C 166.312 119.405,166.118 120.218,165.000 120.727 C 164.450 120.978,164.000 121.461,164.000 121.801 C 164.000 122.503,162.350 123.242,160.676 123.290 C 159.949 123.312,159.733 123.435,160.065 123.640 C 160.627 123.987,160.378 124.119,158.300 124.574 C 156.834 124.895,156.917 124.535,158.800 122.400 C 159.673 121.410,160.390 120.450,160.394 120.266 C 160.397 120.082,161.041 119.364,161.824 118.671 C 162.607 117.977,163.797 116.518,164.468 115.427 C 165.648 113.509,165.704 113.473,166.165 114.335 C 166.665 115.269,167.200 115.112,167.200 114.030 C 167.200 113.679,167.560 113.168,168.000 112.893 C 168.440 112.618,168.800 112.193,168.800 111.948 C 168.800 111.620,168.658 111.620,168.263 111.948 C 167.429 112.640,167.114 111.954,167.900 111.157 C 168.736 110.310,169.118 110.271,170.283 110.919 M163.056 119.078 C 162.605 119.528,162.781 120.000,163.400 120.000 C 163.730 120.000,164.000 119.831,164.000 119.624 C 164.000 119.119,163.375 118.758,163.056 119.078 M170.305 120.675 C 169.922 120.775,169.202 120.779,168.705 120.683 C 168.207 120.587,168.520 120.505,169.400 120.501 C 170.280 120.496,170.687 120.575,170.305 120.675 M164.162 166.317 C 162.489 167.832,158.976 171.605,159.249 171.594 C 159.332 171.591,160.906 170.061,162.747 168.194 C 166.323 164.567,166.813 163.917,164.162 166.317 M156.893 175.200 C 156.893 175.970,156.975 176.285,157.076 175.900 C 157.176 175.515,157.176 174.885,157.076 174.500 C 156.975 174.115,156.893 174.430,156.893 175.200 M172.786 183.900 L 170.600 186.200 172.900 184.014 C 175.037 181.982,175.383 181.600,175.086 181.600 C 175.024 181.600,173.989 182.635,172.786 183.900 M217.300 276.265 C 216.732 276.494,216.598 281.462,217.137 282.311 C 217.503 282.889,223.865 283.187,224.700 282.665 C 225.463 282.188,225.361 277.419,224.571 276.629 C 223.957 276.014,218.587 275.746,217.300 276.265 M268.319 276.272 C 267.944 276.371,267.536 276.770,267.413 277.160 C 266.927 278.689,267.026 318.572,267.517 319.468 C 268.148 320.616,272.500 321.178,274.258 320.338 L 275.400 319.792 275.600 314.796 C 275.814 309.444,276.214 308.263,278.165 307.219 C 279.500 306.504,279.517 306.523,283.623 313.108 C 288.615 321.115,288.271 320.800,292.020 320.800 C 299.466 320.800,299.729 321.975,288.532 305.200 C 285.097 300.054,285.028 300.358,291.000 294.400 C 297.173 288.242,297.156 288.400,291.649 288.400 L 287.299 288.400 282.568 293.199 C 275.393 300.478,275.714 300.752,275.627 287.269 C 275.584 280.662,275.409 276.851,275.131 276.517 C 274.716 276.017,269.941 275.845,268.319 276.272 M198.700 278.804 C 198.106 279.174,198.000 279.871,198.000 283.406 C 198.000 288.117,197.823 288.400,194.869 288.400 C 193.059 288.400,192.800 288.777,192.800 291.419 C 192.800 293.379,193.460 294.000,195.545 294.000 C 197.929 294.000,198.000 294.305,198.000 304.556 C 198.000 319.206,199.024 320.800,208.435 320.800 C 212.891 320.800,213.283 320.486,213.118 317.054 L 213.000 314.601 211.200 314.270 C 210.210 314.088,209.026 313.867,208.569 313.779 C 207.046 313.486,206.800 312.023,206.800 303.261 C 206.800 293.893,206.766 294.000,209.706 294.000 C 212.558 294.000,213.200 293.525,213.200 291.419 C 213.200 288.679,212.976 288.400,210.783 288.400 C 206.937 288.400,206.800 288.230,206.800 283.434 C 206.800 280.837,206.634 279.145,206.363 278.977 C 205.568 278.486,199.433 278.347,198.700 278.804 M242.600 287.975 C 230.864 289.851,226.219 308.053,235.236 316.835 C 243.997 325.369,261.600 320.614,261.600 309.714 L 261.600 308.370 257.900 308.485 L 254.200 308.600 253.336 310.400 C 248.552 320.373,236.931 313.025,239.420 301.600 C 241.181 293.518,249.377 291.004,252.822 297.489 L 253.837 299.400 257.718 299.514 L 261.600 299.629 261.600 298.456 C 261.600 291.513,252.359 286.415,242.600 287.975 M219.408 288.324 C 216.679 288.498,216.813 287.664,216.806 304.477 L 216.800 319.555 217.689 320.177 C 218.256 320.574,219.455 320.800,221.000 320.800 C 222.545 320.800,223.744 320.574,224.311 320.177 L 225.200 319.555 225.194 304.477 C 225.191 296.185,225.056 289.202,224.894 288.960 C 224.540 288.430,222.128 288.150,219.408 288.324 M127.200 338.114 C 127.200 339.219,127.733 339.556,128.224 338.762 C 128.373 338.521,128.203 338.032,127.847 337.676 C 127.251 337.079,127.200 337.114,127.200 338.114 M116.802 339.957 C 116.253 340.110,115.745 340.543,115.673 340.919 C 115.561 341.497,115.699 341.543,116.567 341.213 C 117.131 340.998,117.865 340.927,118.197 341.054 C 118.617 341.215,118.800 341.030,118.800 340.443 C 118.800 339.567,118.482 339.490,116.802 339.957 M237.254 341.451 C 237.285 342.555,237.389 342.966,237.493 342.400 C 237.594 341.850,237.842 341.199,238.043 340.953 C 238.277 340.669,238.190 340.324,237.805 340.004 C 237.278 339.567,237.207 339.754,237.254 341.451 M138.493 341.200 C 138.493 341.970,138.575 342.285,138.676 341.900 C 138.776 341.515,138.776 340.885,138.676 340.500 C 138.575 340.115,138.493 340.430,138.493 341.200 M209.091 340.773 C 208.972 341.227,209.039 341.701,209.240 341.825 C 209.765 342.149,210.184 340.824,209.707 340.347 C 209.441 340.081,209.235 340.223,209.091 340.773 M159.103 341.000 C 158.949 341.440,158.597 342.110,158.321 342.489 C 157.932 343.022,157.926 343.286,158.294 343.654 C 158.863 344.223,159.717 342.378,159.510 341.026 C 159.385 340.211,159.380 340.211,159.103 341.000 M174.700 340.665 C 174.975 340.776,175.213 341.437,175.228 342.133 C 175.252 343.204,175.310 343.276,175.600 342.600 C 176.231 341.131,176.063 340.398,175.100 340.432 C 174.605 340.449,174.425 340.554,174.700 340.665 M132.018 342.111 C 131.597 342.951,131.574 343.334,131.924 343.684 C 132.593 344.353,132.877 343.870,132.715 342.338 L 132.574 341.000 132.018 342.111 M152.800 342.976 C 152.800 343.293,152.980 343.664,153.200 343.800 C 153.420 343.936,153.600 343.677,153.600 343.224 C 153.600 342.771,153.420 342.400,153.200 342.400 C 152.980 342.400,152.800 342.659,152.800 342.976 " stroke="none" fill="#3a6bde" fill-rule="evenodd"></path><path id="path3" d="M211.786 55.307 C 211.338 55.798,210.358 57.010,209.608 58.000 C 208.857 58.990,207.058 61.240,205.609 63.000 C 203.033 66.128,201.469 68.248,202.938 66.619 C 203.345 66.168,205.145 64.011,206.938 61.824 C 208.732 59.637,210.740 57.297,211.399 56.624 L 212.598 55.400 212.808 57.000 L 213.018 58.600 213.318 56.876 C 213.764 54.307,213.212 53.742,211.786 55.307 M212.255 61.055 C 212.113 62.086,212.074 63.008,212.169 63.102 C 212.263 63.196,212.465 62.439,212.618 61.418 C 212.771 60.398,212.810 59.476,212.704 59.371 C 212.598 59.265,212.396 60.023,212.255 61.055 M197.583 72.900 C 196.840 73.835,196.548 74.346,196.935 74.036 C 197.663 73.451,199.377 71.200,199.094 71.200 C 199.006 71.200,198.326 71.965,197.583 72.900 M210.218 73.818 C 210.065 74.839,210.022 75.755,210.122 75.855 C 210.222 75.955,210.429 75.202,210.582 74.182 C 210.735 73.161,210.778 72.245,210.678 72.145 C 210.578 72.045,210.371 72.798,210.218 73.818 M194.520 76.644 C 193.684 77.659,192.010 79.687,190.800 81.151 C 187.228 85.473,185.768 87.390,186.295 87.064 C 186.847 86.724,196.492 74.800,196.215 74.800 C 196.119 74.800,195.356 75.630,194.520 76.644 M183.324 90.420 C 182.046 91.971,180.928 93.456,180.840 93.720 C 180.752 93.984,181.472 93.226,182.440 92.036 C 183.408 90.846,184.618 89.361,185.129 88.736 C 185.640 88.111,185.966 87.600,185.853 87.600 C 185.740 87.600,184.602 88.869,183.324 90.420 M178.600 96.119 C 176.322 99.005,175.797 99.773,176.321 99.449 C 176.921 99.078,180.527 94.390,180.342 94.221 C 180.264 94.150,179.480 95.003,178.600 96.119 M242.936 98.852 C 243.628 99.255,243.604 99.357,242.536 100.540 L 241.400 101.800 242.700 100.625 C 244.217 99.254,244.372 98.395,243.100 98.412 C 242.268 98.423,242.255 98.457,242.936 98.852 M172.959 103.100 C 171.617 104.805,169.210 107.799,167.611 109.754 C 166.011 111.708,164.895 113.188,165.131 113.042 C 165.538 112.791,167.173 110.822,172.888 103.700 C 174.256 101.995,175.561 100.468,175.788 100.306 C 176.052 100.117,176.057 100.010,175.799 100.006 C 175.579 100.003,174.301 101.395,172.959 103.100 M238.981 103.700 L 237.400 105.400 239.100 103.819 C 240.681 102.348,240.984 102.000,240.681 102.000 C 240.616 102.000,239.851 102.765,238.981 103.700 M227.200 114.200 C 226.228 115.190,225.523 116.000,225.633 116.000 C 225.743 116.000,226.628 115.190,227.600 114.200 C 228.572 113.210,229.277 112.400,229.167 112.400 C 229.057 112.400,228.172 113.210,227.200 114.200 M162.621 115.800 C 161.810 116.790,161.293 117.600,161.473 117.600 C 161.777 117.600,163.466 115.642,164.149 114.500 C 164.782 113.440,164.033 114.078,162.621 115.800 M223.200 117.800 C 222.228 118.790,221.523 119.600,221.633 119.600 C 221.743 119.600,222.628 118.790,223.600 117.800 C 224.572 116.810,225.277 116.000,225.167 116.000 C 225.057 116.000,224.172 116.810,223.200 117.800 M158.575 120.900 L 157.400 122.200 158.700 121.025 C 159.912 119.930,160.184 119.600,159.875 119.600 C 159.806 119.600,159.221 120.185,158.575 120.900 M156.451 123.426 C 155.257 124.944,155.730 125.612,157.943 125.536 C 159.560 125.480,159.619 125.451,158.400 125.307 C 156.490 125.083,156.150 124.641,156.950 123.421 C 157.815 122.099,157.492 122.103,156.451 123.426 M163.516 125.497 C 164.899 125.575,167.059 125.574,168.316 125.495 C 169.572 125.416,168.440 125.352,165.800 125.353 C 163.160 125.353,162.132 125.418,163.516 125.497 M174.500 125.497 C 176.205 125.572,178.995 125.572,180.700 125.497 C 182.405 125.422,181.010 125.361,177.600 125.361 C 174.190 125.361,172.795 125.422,174.500 125.497 M184.846 131.667 C 184.821 132.034,184.696 132.664,184.570 133.067 C 184.352 133.762,184.363 133.763,184.797 133.087 C 185.048 132.696,185.173 132.066,185.073 131.687 C 184.911 131.068,184.888 131.066,184.846 131.667 M198.800 139.800 C 197.828 140.790,197.123 141.600,197.233 141.600 C 197.343 141.600,198.228 140.790,199.200 139.800 C 200.172 138.810,200.877 138.000,200.767 138.000 C 200.657 138.000,199.772 138.810,198.800 139.800 M195.375 142.900 L 194.200 144.200 195.500 143.025 C 196.712 141.930,196.984 141.600,196.675 141.600 C 196.606 141.600,196.021 142.185,195.375 142.900 M191.677 146.259 L 189.800 148.118 191.800 146.391 C 192.900 145.441,193.875 144.604,193.967 144.532 C 194.058 144.459,194.003 144.400,193.843 144.400 C 193.684 144.400,192.709 145.237,191.677 146.259 M186.985 150.500 L 185.000 152.600 187.100 150.615 C 188.255 149.523,189.200 148.578,189.200 148.515 C 189.200 148.217,188.829 148.549,186.985 150.500 M178.054 156.876 C 177.997 158.010,178.569 158.697,178.996 158.007 C 179.134 157.783,179.069 157.600,178.851 157.600 C 178.634 157.600,178.378 157.195,178.282 156.700 C 178.130 155.912,178.102 155.934,178.054 156.876 M166.423 163.642 C 165.666 164.104,163.645 165.858,161.933 167.541 C 156.649 172.733,156.527 172.791,151.766 172.424 C 150.646 172.338,149.747 173.414,150.342 174.130 C 150.662 174.515,150.658 174.782,150.327 175.113 C 149.989 175.451,150.001 175.719,150.371 176.166 C 150.645 176.495,150.756 176.948,150.618 177.171 C 150.313 177.664,152.152 178.181,153.023 177.847 C 153.831 177.536,157.134 178.277,157.769 178.910 C 158.038 179.180,158.829 179.850,159.526 180.400 C 160.223 180.950,160.794 181.533,160.796 181.695 C 160.800 181.988,162.511 183.651,165.200 185.977 C 166.507 187.107,167.517 187.407,169.354 187.212 C 170.279 187.113,170.591 186.873,174.152 183.515 C 179.624 178.356,180.549 177.625,181.064 178.053 C 181.391 178.325,181.819 178.311,182.380 178.011 C 182.913 177.726,183.449 177.700,183.875 177.938 C 184.846 178.481,186.767 177.694,186.993 176.660 C 187.312 175.196,187.033 173.423,186.402 172.913 C 185.700 172.345,181.354 172.227,181.021 172.766 C 180.896 172.968,180.290 172.653,179.673 172.066 C 179.056 171.480,177.739 170.280,176.747 169.400 C 175.755 168.520,174.776 167.524,174.571 167.186 C 173.975 166.199,170.576 163.600,169.882 163.600 C 169.533 163.600,169.136 163.420,169.000 163.200 C 168.628 162.597,167.945 162.715,166.423 163.642 M169.892 163.995 C 170.163 163.998,172.284 165.914,174.607 168.254 C 181.721 175.419,181.700 175.015,175.300 181.550 C 168.641 188.349,168.473 188.349,161.612 181.506 C 155.476 175.386,155.462 175.187,160.742 169.742 C 165.025 165.327,167.467 163.470,168.591 163.772 C 169.036 163.891,169.621 163.992,169.892 163.995 M140.190 174.030 C 139.850 175.104,140.343 175.603,140.850 174.697 C 141.064 174.314,141.490 174.000,141.796 174.000 C 142.102 174.000,142.464 173.820,142.600 173.600 C 142.744 173.367,142.346 173.200,141.651 173.200 C 140.791 173.200,140.380 173.434,140.190 174.030 M146.400 173.600 C 146.400 173.820,146.659 174.000,146.976 174.000 C 147.293 174.000,147.664 173.820,147.800 173.600 C 147.936 173.380,147.677 173.200,147.224 173.200 C 146.771 173.200,146.400 173.380,146.400 173.600 M155.600 174.224 C 155.600 174.787,155.437 175.146,155.238 175.023 C 155.038 174.900,154.969 174.439,155.084 174.000 C 155.372 172.899,155.600 172.998,155.600 174.224 M190.043 173.815 C 190.390 174.161,190.950 174.317,191.327 174.173 C 192.275 173.809,191.752 173.200,190.491 173.200 C 189.535 173.200,189.490 173.262,190.043 173.815 M258.000 174.538 C 258.000 176.578,259.245 177.548,260.346 176.365 C 260.801 175.878,261.064 175.303,260.931 175.088 C 260.795 174.868,260.530 174.982,260.325 175.349 C 259.720 176.430,259.200 176.084,259.200 174.600 C 259.200 173.622,259.019 173.200,258.600 173.200 C 258.186 173.200,258.000 173.615,258.000 174.538 M146.267 175.067 C 145.790 175.544,145.983 175.902,146.839 176.126 C 148.105 176.457,148.930 176.039,148.361 175.353 C 147.879 174.772,146.720 174.613,146.267 175.067 M139.785 176.024 C 139.627 176.280,139.746 176.647,140.049 176.839 C 140.894 177.374,141.272 177.267,141.129 176.533 C 140.968 175.703,140.170 175.401,139.785 176.024 M190.000 176.633 C 190.000 176.982,190.214 177.195,190.475 177.108 C 191.217 176.861,191.340 176.000,190.633 176.000 C 190.285 176.000,190.000 176.285,190.000 176.633 M101.410 275.743 C 100.695 276.266,100.722 276.446,102.100 280.443 C 102.888 282.729,104.106 286.490,104.806 288.800 C 105.507 291.110,106.621 294.530,107.282 296.400 C 107.943 298.270,108.628 300.340,108.804 301.000 C 109.434 303.353,111.796 310.733,112.389 312.200 C 112.567 312.640,113.223 314.620,113.847 316.600 C 115.411 321.562,114.813 321.200,121.458 321.200 C 127.995 321.200,127.289 321.596,128.583 317.200 C 128.939 315.990,129.389 314.640,129.582 314.200 C 130.083 313.061,131.724 308.100,133.222 303.200 C 133.928 300.890,134.662 298.829,134.853 298.620 C 135.044 298.411,135.200 297.914,135.200 297.515 C 135.200 297.116,135.368 296.477,135.574 296.095 C 136.009 295.288,137.615 290.471,138.607 287.000 C 138.984 285.680,139.524 284.060,139.806 283.400 C 143.014 275.904,142.838 275.437,136.750 275.288 C 131.206 275.152,131.216 275.146,129.822 279.600 C 129.237 281.470,128.341 284.170,127.831 285.600 C 127.321 287.030,126.610 289.190,126.252 290.400 C 125.684 292.315,122.337 302.731,121.752 304.400 C 121.522 305.059,120.441 303.493,120.414 302.460 C 120.406 302.164,120.149 301.354,119.842 300.660 C 119.536 299.967,118.799 297.780,118.206 295.800 C 116.413 289.816,113.883 281.838,113.576 281.200 C 113.417 280.870,112.989 279.567,112.624 278.304 C 112.237 276.963,111.647 275.839,111.207 275.604 C 110.040 274.979,102.304 275.090,101.410 275.743 M180.749 275.862 C 180.119 276.621,179.834 318.640,180.448 320.300 C 180.811 321.282,189.225 321.731,189.800 320.799 C 190.413 319.808,190.219 275.983,189.600 275.592 C 188.493 274.892,181.374 275.109,180.749 275.862 M111.031 276.306 C 111.268 276.468,111.769 277.590,112.145 278.800 C 112.520 280.010,113.079 281.630,113.387 282.400 C 113.694 283.170,114.863 286.860,115.983 290.600 C 117.103 294.340,118.177 297.760,118.368 298.200 C 118.560 298.640,119.103 300.240,119.574 301.755 C 120.538 304.854,121.074 306.000,121.561 306.000 C 121.824 306.000,125.805 294.347,127.641 288.200 C 128.770 284.425,131.376 276.927,131.708 276.500 C 132.315 275.721,140.750 275.804,141.052 276.592 C 141.277 277.178,140.747 279.018,138.457 285.600 C 137.806 287.470,136.457 291.520,135.460 294.600 C 134.462 297.680,133.292 301.190,132.860 302.400 C 132.428 303.610,131.330 306.940,130.421 309.800 C 129.511 312.660,128.284 316.305,127.693 317.900 L 126.619 320.800 121.377 320.800 C 116.338 320.800,116.118 320.765,115.695 319.900 C 115.195 318.877,113.882 314.926,109.212 300.400 C 107.409 294.790,105.395 288.580,104.738 286.600 C 102.538 279.971,101.611 276.705,101.830 276.351 C 102.091 275.929,110.417 275.888,111.031 276.306 M189.103 276.332 C 189.500 276.584,189.585 281.311,189.503 298.626 L 189.400 320.600 185.433 320.715 C 182.529 320.800,181.379 320.693,181.139 320.315 C 180.765 319.726,180.673 277.598,181.043 276.633 C 181.308 275.940,188.088 275.687,189.103 276.332 M153.800 287.539 C 137.659 292.872,137.683 316.495,153.834 321.395 C 169.253 326.072,181.133 311.233,174.483 295.600 C 171.628 288.888,161.576 284.970,153.800 287.539 M161.884 287.654 C 180.523 290.371,180.787 318.353,162.200 321.219 C 140.565 324.555,133.994 292.443,155.361 287.794 C 158.479 287.116,158.228 287.121,161.884 287.654 M156.200 294.694 C 149.787 297.951,149.450 310.926,155.701 313.952 C 162.799 317.388,169.021 310.060,166.815 300.864 C 165.554 295.605,160.356 292.584,156.200 294.694 M162.323 295.498 C 168.744 298.480,167.637 312.496,160.866 313.949 C 155.077 315.190,151.673 311.116,152.077 303.428 C 152.446 296.385,156.866 292.965,162.323 295.498 M267.267 319.800 C 267.377 320.431,267.743 320.612,269.003 320.655 C 270.128 320.694,270.246 320.657,269.400 320.530 C 268.740 320.431,267.959 320.046,267.664 319.675 C 267.172 319.055,267.140 319.066,267.267 319.800 M297.606 319.672 C 297.603 320.048,297.204 320.421,296.700 320.518 C 296.049 320.643,296.160 320.706,297.100 320.746 C 298.467 320.803,298.637 320.586,298.000 319.600 C 297.665 319.082,297.611 319.092,297.606 319.672 M216.800 320.009 C 216.800 320.238,217.078 320.532,217.417 320.662 C 218.355 321.022,218.466 320.633,217.582 320.081 C 217.087 319.772,216.800 319.746,216.800 320.009 M224.223 320.233 C 223.574 320.707,223.554 320.800,224.100 320.800 C 224.459 320.800,224.871 320.608,225.016 320.373 C 225.440 319.687,225.061 319.620,224.223 320.233 M274.400 320.261 C 273.441 320.767,273.436 320.788,274.276 320.794 C 274.758 320.797,275.271 320.608,275.416 320.373 C 275.821 319.718,275.498 319.683,274.400 320.261 M227.206 340.500 L 227.200 344.800 229.824 344.800 C 231.602 344.800,232.361 344.661,232.180 344.368 C 232.033 344.130,231.495 344.040,230.984 344.168 C 228.686 344.745,228.001 343.906,227.994 340.510 C 227.991 338.799,227.813 337.130,227.600 336.800 C 227.336 336.392,227.210 337.576,227.206 340.500 M237.427 338.033 C 237.470 338.931,237.703 339.863,237.944 340.104 C 238.197 340.357,238.235 340.722,238.036 340.970 C 237.846 341.207,237.564 342.165,237.410 343.100 L 237.130 344.800 239.845 344.800 C 242.867 344.800,242.985 344.133,240.000 343.925 C 236.292 343.667,237.381 340.831,241.200 340.799 C 242.252 340.791,242.451 340.691,242.000 340.400 C 241.670 340.187,240.621 340.009,239.669 340.006 C 237.970 340.000,237.940 339.976,238.010 338.700 C 238.111 336.853,238.045 336.400,237.674 336.400 C 237.494 336.400,237.383 337.135,237.427 338.033 M247.213 336.925 C 247.206 337.323,247.648 338.597,248.196 339.755 C 248.744 340.913,249.307 342.436,249.448 343.139 C 249.895 345.373,251.600 344.901,251.600 342.543 C 251.600 342.046,251.893 341.476,252.252 341.275 C 252.785 340.977,252.827 340.700,252.483 339.755 L 252.063 338.600 252.023 339.800 C 251.979 341.106,250.640 343.173,250.153 342.687 C 249.744 342.277,248.813 339.555,248.806 338.744 C 248.797 337.751,247.231 335.962,247.213 336.925 M252.938 337.405 C 252.669 337.983,252.628 338.494,252.841 338.625 C 253.281 338.897,253.720 337.888,253.534 337.029 C 253.438 336.587,253.268 336.695,252.938 337.405 M259.300 337.400 C 259.300 337.942,259.457 338.288,259.650 338.169 C 259.843 338.050,260.000 337.704,260.000 337.400 C 260.000 337.096,259.843 336.750,259.650 336.631 C 259.457 336.512,259.300 336.858,259.300 337.400 M126.828 337.671 C 126.852 338.476,126.895 338.501,127.147 337.861 C 127.413 337.185,127.483 337.177,127.976 337.771 C 128.272 338.128,128.409 338.524,128.281 338.652 C 128.062 338.871,128.297 339.244,129.500 340.585 C 129.775 340.892,130.000 341.325,130.000 341.548 C 130.000 341.771,130.181 342.064,130.401 342.201 C 131.039 342.595,130.647 341.034,129.789 339.758 C 129.360 339.121,128.823 338.242,128.595 337.804 C 127.973 336.610,126.793 336.521,126.828 337.671 M155.200 337.624 C 155.200 338.077,155.368 338.344,155.572 338.217 C 155.777 338.091,156.049 338.156,156.177 338.363 C 156.305 338.570,156.093 338.822,155.705 338.923 C 155.075 339.088,155.072 339.112,155.676 339.154 C 156.613 339.218,156.919 338.569,156.404 337.608 C 155.845 336.563,155.200 336.571,155.200 337.624 M160.229 337.400 C 160.067 337.840,159.774 338.603,159.578 339.095 C 159.382 339.587,159.357 340.355,159.522 340.801 C 159.773 341.478,159.908 341.319,160.346 339.836 C 160.908 337.934,160.807 335.831,160.229 337.400 M209.017 337.172 C 208.744 337.614,209.375 338.092,209.744 337.722 C 210.125 337.342,210.054 336.800,209.624 336.800 C 209.417 336.800,209.144 336.968,209.017 337.172 M115.254 340.524 C 115.220 342.784,115.343 343.959,115.600 343.800 C 115.820 343.664,116.000 343.128,116.000 342.610 C 116.000 342.091,116.135 341.591,116.300 341.499 C 116.465 341.407,116.375 341.386,116.100 341.453 C 115.495 341.600,115.429 340.553,116.019 340.188 C 116.288 340.022,116.302 339.762,116.058 339.464 C 115.848 339.209,115.594 338.550,115.493 338.000 C 115.392 337.450,115.284 338.586,115.254 340.524 M139.227 338.362 C 138.319 339.638,138.215 340.000,138.760 340.000 C 138.959 340.000,139.493 339.370,139.947 338.600 C 140.944 336.911,140.391 336.728,139.227 338.362 M144.330 338.126 C 145.330 339.190,145.601 342.990,144.700 343.312 C 144.425 343.410,144.314 343.614,144.452 343.764 C 144.591 343.915,144.996 343.747,145.352 343.390 C 146.295 342.448,146.239 338.740,145.269 337.862 C 144.112 336.815,143.310 337.040,144.330 338.126 M151.206 338.500 C 151.210 339.384,151.323 339.626,151.557 339.256 C 151.872 338.759,151.717 337.200,151.353 337.200 C 151.269 337.200,151.203 337.785,151.206 338.500 M184.414 337.974 C 183.891 338.952,183.885 339.600,184.400 339.600 C 184.620 339.600,184.800 339.305,184.800 338.944 C 184.800 338.583,185.115 338.049,185.500 337.757 C 186.154 337.260,186.155 337.225,185.514 337.213 C 185.137 337.206,184.642 337.548,184.414 337.974 M189.334 337.753 C 190.237 338.473,190.616 341.017,190.041 342.507 C 189.167 344.775,185.622 344.874,184.759 342.655 C 184.287 341.440,184.266 341.431,184.099 342.370 C 183.720 344.497,187.914 345.679,189.916 344.010 C 191.753 342.478,191.370 337.587,189.390 337.288 C 188.630 337.173,188.628 337.190,189.334 337.753 M196.406 339.324 C 196.402 340.772,196.551 341.554,196.800 341.400 C 197.310 341.085,197.310 338.390,196.800 337.600 C 196.525 337.175,196.410 337.676,196.406 339.324 M202.475 339.600 C 202.428 341.030,202.277 342.650,202.140 343.200 C 201.952 343.957,202.006 344.094,202.364 343.762 C 202.674 343.474,202.789 342.243,202.698 340.162 L 202.561 337.000 202.475 339.600 M213.918 338.500 C 214.431 339.514,214.607 339.641,214.721 339.077 C 214.928 338.056,214.527 337.200,213.843 337.200 C 213.349 337.200,213.361 337.397,213.918 338.500 M269.467 337.467 C 269.052 337.882,269.153 339.200,269.600 339.200 C 269.820 339.200,270.000 338.750,270.000 338.200 C 270.000 337.153,269.908 337.026,269.467 337.467 M279.664 337.696 C 278.697 338.663,280.201 340.800,281.848 340.800 C 282.286 340.800,283.255 341.250,284.000 341.800 C 284.745 342.350,285.140 342.800,284.878 342.800 C 284.615 342.800,284.400 343.064,284.400 343.387 C 284.400 343.758,284.633 343.886,285.030 343.733 C 285.484 343.559,285.587 343.201,285.398 342.448 C 285.007 340.892,284.461 340.419,282.734 340.143 C 281.211 339.899,280.103 338.803,280.588 338.019 C 280.942 337.447,280.180 337.180,279.664 337.696 M117.599 339.449 L 116.600 340.033 117.600 339.767 C 118.714 339.470,119.014 339.281,118.766 339.033 C 118.674 338.941,118.149 339.128,117.599 339.449 M174.000 339.800 C 174.000 340.130,174.264 340.400,174.587 340.400 C 174.945 340.400,175.085 340.165,174.945 339.800 C 174.818 339.470,174.554 339.200,174.357 339.200 C 174.161 339.200,174.000 339.470,174.000 339.800 M176.108 339.670 C 175.821 340.016,175.780 340.445,176.001 340.802 C 176.301 341.288,176.397 341.272,176.616 340.702 C 177.008 339.682,176.669 338.994,176.108 339.670 M259.099 339.465 C 258.994 339.649,258.903 340.925,258.896 342.300 L 258.884 344.800 261.522 344.800 C 264.484 344.800,264.544 344.130,261.600 343.925 C 258.347 343.699,258.971 340.800,262.273 340.800 C 263.354 340.800,263.951 340.644,263.800 340.400 C 263.664 340.180,262.789 340.000,261.856 340.000 C 260.923 340.000,259.964 339.804,259.725 339.565 C 259.486 339.326,259.204 339.281,259.099 339.465 M209.607 340.260 C 209.902 340.733,210.359 341.037,210.625 340.935 C 210.890 340.833,211.758 341.022,212.553 341.355 C 213.349 341.687,214.000 341.803,214.000 341.612 C 214.000 341.422,214.113 340.971,214.251 340.612 C 214.470 340.040,214.247 339.993,212.453 340.231 C 210.971 340.427,210.221 340.350,209.738 339.951 C 209.130 339.449,209.119 339.476,209.607 340.260 M269.467 339.867 C 269.057 340.277,269.151 341.922,269.600 342.200 C 269.838 342.347,270.000 341.871,270.000 341.024 C 270.000 339.562,269.928 339.405,269.467 339.867 M118.300 341.477 C 118.795 341.818,119.200 342.254,119.200 342.446 C 119.200 342.899,120.854 344.800,121.248 344.800 C 121.578 344.800,120.961 343.498,120.000 342.167 C 119.670 341.710,118.950 341.228,118.400 341.096 L 117.400 340.857 118.300 341.477 M138.709 342.061 C 138.495 342.619,139.232 344.000,139.744 344.000 C 140.184 344.000,140.024 342.986,139.464 342.220 C 139.029 341.626,138.887 341.596,138.709 342.061 M152.454 342.651 C 152.401 343.871,153.210 345.056,153.737 344.530 C 153.882 344.385,154.000 343.883,154.000 343.413 C 154.000 342.944,154.216 342.344,154.480 342.080 C 154.853 341.707,154.851 341.600,154.470 341.600 C 154.201 341.600,153.870 342.151,153.735 342.825 C 153.466 344.168,152.969 343.966,152.688 342.400 C 152.532 341.530,152.502 341.563,152.454 342.651 M157.343 342.000 C 157.448 342.330,157.642 343.095,157.774 343.700 C 158.038 344.904,158.584 345.140,158.943 344.205 C 159.071 343.871,158.968 343.651,158.709 343.705 C 158.455 343.757,158.174 343.440,158.085 343.000 C 157.996 342.560,157.749 342.020,157.537 341.800 C 157.286 341.539,157.219 341.608,157.343 342.000 M175.503 342.800 C 175.061 344.315,175.115 345.045,175.631 344.529 C 175.868 344.292,176.002 343.581,175.929 342.949 L 175.795 341.800 175.503 342.800 M197.227 343.020 C 197.212 343.471,197.416 344.056,197.680 344.320 C 198.258 344.898,201.600 344.967,201.600 344.400 C 201.600 344.180,200.818 344.000,199.861 344.000 C 198.453 344.000,198.040 343.829,197.688 343.100 C 197.274 342.242,197.253 342.238,197.227 343.020 M214.280 342.936 C 214.167 343.231,214.235 343.726,214.431 344.036 C 214.691 344.447,214.789 344.301,214.794 343.500 C 214.801 342.306,214.604 342.090,214.280 342.936 M131.212 343.024 C 131.190 343.789,132.269 344.928,132.739 344.638 C 132.993 344.481,133.179 343.958,133.154 343.476 C 133.118 342.800,133.066 342.759,132.924 343.300 C 132.824 343.685,132.583 344.000,132.391 344.000 C 132.198 344.000,131.856 343.685,131.632 343.300 C 131.408 342.915,131.219 342.791,131.212 343.024 M269.482 343.052 C 268.642 343.891,270.119 344.800,272.314 344.794 C 273.938 344.790,274.426 344.675,274.000 344.400 C 273.670 344.187,272.874 344.009,272.231 344.006 C 271.589 344.003,270.764 343.730,270.399 343.399 C 270.034 343.069,269.621 342.912,269.482 343.052 M279.200 343.111 C 279.200 343.955,280.914 344.796,282.505 344.733 C 284.188 344.666,284.189 344.664,282.742 344.511 C 281.941 344.426,280.968 344.006,280.580 343.578 C 279.858 342.780,279.200 342.558,279.200 343.111 M140.800 344.428 C 140.800 344.633,141.430 344.800,142.200 344.800 C 144.022 344.800,144.020 344.222,142.198 344.128 C 141.429 344.089,140.800 344.224,140.800 344.428 " stroke="none" fill="#4e5867" fill-rule="evenodd"></path><path id="path4" d="M211.360 54.888 C 210.689 55.610,209.525 57.010,208.774 58.000 C 208.023 58.990,206.796 60.471,206.048 61.291 C 205.300 62.112,204.408 63.192,204.067 63.691 C 203.726 64.191,203.346 64.690,203.223 64.800 C 203.038 64.966,201.226 67.153,198.915 70.000 C 198.647 70.330,197.927 71.267,197.314 72.082 C 196.128 73.661,192.118 78.641,189.676 81.570 C 188.864 82.543,187.528 84.237,186.707 85.333 C 185.885 86.430,184.715 87.886,184.107 88.570 C 183.498 89.253,182.317 90.660,181.481 91.696 C 180.646 92.732,179.744 93.810,179.476 94.090 C 179.208 94.371,178.230 95.590,177.301 96.800 C 176.373 98.010,175.183 99.450,174.658 100.000 C 174.132 100.550,172.743 102.260,171.569 103.800 C 170.396 105.340,168.856 107.230,168.147 108.000 C 167.438 108.770,166.326 110.120,165.677 111.000 C 165.029 111.880,164.154 112.960,163.733 113.400 C 163.312 113.840,161.965 115.550,160.739 117.200 C 159.513 118.850,158.018 120.650,157.417 121.200 C 155.204 123.225,154.538 125.729,156.100 126.148 C 156.595 126.281,163.330 126.392,171.067 126.395 C 186.095 126.400,185.776 126.355,185.153 128.392 C 184.846 129.394,183.053 135.508,182.394 137.800 C 182.204 138.460,181.926 139.720,181.777 140.600 C 181.309 143.355,180.420 146.540,180.001 146.959 C 179.781 147.179,179.600 147.746,179.600 148.219 C 179.600 149.284,178.448 151.690,177.732 152.120 C 177.440 152.296,177.197 153.016,177.194 153.720 C 177.183 155.933,176.866 156.100,173.969 155.417 C 169.719 154.416,161.848 155.287,159.382 157.032 C 158.785 157.454,157.790 158.070,157.170 158.400 C 156.551 158.730,155.359 159.687,154.522 160.527 C 153.685 161.367,152.309 162.631,151.465 163.337 C 149.926 164.623,148.661 167.675,148.752 169.883 C 148.796 170.957,146.912 171.594,143.687 171.598 C 135.348 171.607,135.906 178.392,144.296 178.993 C 149.064 179.334,149.260 179.479,149.999 183.200 C 150.282 184.630,150.907 186.340,151.387 187.000 C 151.866 187.660,152.375 188.515,152.517 188.900 C 152.659 189.285,153.045 189.600,153.374 189.600 C 153.704 189.600,154.872 190.398,155.970 191.373 C 157.068 192.349,158.649 193.464,159.483 193.852 C 160.317 194.241,161.121 194.736,161.269 194.952 C 162.576 196.868,170.585 196.763,174.105 194.784 C 174.492 194.566,175.662 194.102,176.705 193.753 C 179.356 192.866,181.195 191.665,181.622 190.542 C 181.822 190.016,182.439 189.413,182.993 189.203 C 183.547 188.992,184.000 188.623,184.000 188.382 C 184.000 187.951,187.015 184.083,187.800 183.506 C 188.020 183.344,188.059 183.209,187.886 183.206 C 187.713 183.203,187.792 182.795,188.061 182.300 C 188.331 181.805,188.577 181.085,188.609 180.700 C 188.759 178.879,191.071 178.749,227.150 178.533 L 260.101 178.335 261.050 177.386 C 262.210 176.227,262.288 174.444,261.236 173.144 L 260.471 172.200 225.936 171.966 C 189.882 171.723,187.854 171.620,188.047 170.047 C 188.296 168.027,185.625 162.412,184.404 162.388 C 182.616 162.354,180.314 158.800,182.080 158.800 C 182.764 158.800,182.853 158.693,182.480 158.320 C 182.216 158.056,182.000 157.710,182.000 157.550 C 182.000 157.063,190.749 148.446,195.713 144.045 C 198.291 141.760,200.400 139.735,200.400 139.545 C 200.400 139.355,200.579 139.200,200.797 139.200 C 201.242 139.200,202.407 138.245,205.188 135.600 C 206.229 134.610,207.512 133.452,208.040 133.027 C 208.842 132.382,216.297 125.619,218.432 123.600 C 218.781 123.270,220.491 121.743,222.233 120.208 C 223.975 118.672,226.570 116.324,228.000 114.990 C 229.430 113.656,231.320 111.959,232.200 111.219 C 233.080 110.479,235.600 108.209,237.800 106.174 C 240.000 104.140,242.565 101.807,243.500 100.991 C 247.328 97.650,247.064 97.600,225.501 97.600 L 208.302 97.600 208.539 94.100 C 208.670 92.175,208.944 89.700,209.148 88.600 C 209.494 86.738,209.759 84.796,210.865 76.000 C 211.101 74.130,211.478 71.880,211.705 71.000 C 211.931 70.120,212.252 68.140,212.417 66.600 C 212.582 65.060,213.015 62.107,213.379 60.038 C 214.463 53.885,213.819 52.244,211.360 54.888 M213.364 55.639 C 213.344 56.168,213.096 58.040,212.814 59.800 C 211.084 70.571,210.465 74.578,208.983 84.600 C 208.170 90.100,207.481 95.410,207.452 96.400 L 207.400 98.200 225.700 98.304 C 240.671 98.389,244.000 98.506,244.000 98.944 C 244.000 99.238,241.891 101.352,239.312 103.640 C 236.734 105.928,231.559 110.571,227.812 113.957 C 224.066 117.344,218.210 122.633,214.800 125.712 C 211.390 128.790,207.070 132.693,205.200 134.384 C 200.707 138.446,197.682 141.162,193.597 144.800 C 191.745 146.450,187.633 150.196,184.460 153.125 C 178.210 158.895,177.373 159.248,178.366 155.698 C 179.145 152.914,180.408 148.487,181.075 146.200 C 182.675 140.720,185.706 128.799,185.882 127.300 L 186.081 125.600 171.083 125.600 C 153.812 125.600,154.491 125.775,157.543 122.104 C 158.597 120.837,160.692 118.270,162.200 116.400 C 163.708 114.530,166.045 111.650,167.394 110.000 C 168.743 108.350,170.991 105.560,172.390 103.800 C 173.790 102.040,175.129 100.420,175.367 100.200 C 175.605 99.980,176.553 98.810,177.474 97.600 C 178.395 96.390,179.475 95.034,179.874 94.586 C 180.998 93.326,185.104 88.290,193.400 77.996 C 194.060 77.177,196.048 74.728,197.818 72.554 C 199.587 70.379,201.325 68.240,201.679 67.800 C 202.033 67.360,203.307 65.818,204.509 64.373 C 205.712 62.929,207.666 60.499,208.852 58.973 C 212.692 54.033,213.445 53.477,213.364 55.639 M169.000 163.200 C 169.136 163.420,169.533 163.600,169.882 163.600 C 170.576 163.600,173.975 166.199,174.571 167.186 C 174.776 167.524,175.755 168.520,176.747 169.400 C 177.739 170.280,179.056 171.480,179.673 172.066 C 180.290 172.653,180.896 172.968,181.021 172.766 C 181.354 172.227,185.700 172.345,186.402 172.913 C 187.033 173.423,187.312 175.196,186.993 176.660 C 186.767 177.694,184.846 178.481,183.875 177.938 C 183.449 177.700,182.913 177.726,182.380 178.011 C 181.819 178.311,181.391 178.325,181.064 178.053 C 180.549 177.625,179.624 178.356,174.152 183.515 C 170.591 186.873,170.279 187.113,169.354 187.212 C 167.517 187.407,166.507 187.107,165.200 185.977 C 162.511 183.651,160.800 181.988,160.796 181.695 C 160.794 181.533,160.223 180.950,159.526 180.400 C 158.829 179.850,158.038 179.180,157.769 178.910 C 157.134 178.277,153.831 177.536,153.023 177.847 C 152.152 178.181,150.313 177.664,150.618 177.171 C 150.756 176.948,150.645 176.495,150.371 176.166 C 150.001 175.719,149.989 175.451,150.327 175.113 C 150.658 174.782,150.662 174.515,150.342 174.130 C 149.747 173.414,150.646 172.338,151.766 172.424 C 156.527 172.791,156.649 172.733,161.933 167.541 C 166.037 163.508,168.323 162.104,169.000 163.200 M142.600 173.600 C 142.464 173.820,142.102 174.000,141.796 174.000 C 141.490 174.000,141.064 174.314,140.850 174.697 C 140.343 175.603,139.850 175.104,140.190 174.030 C 140.380 173.434,140.791 173.200,141.651 173.200 C 142.346 173.200,142.744 173.367,142.600 173.600 M147.800 173.600 C 147.664 173.820,147.293 174.000,146.976 174.000 C 146.659 174.000,146.400 173.820,146.400 173.600 C 146.400 173.380,146.771 173.200,147.224 173.200 C 147.677 173.200,147.936 173.380,147.800 173.600 M155.084 174.000 C 154.969 174.439,155.038 174.900,155.238 175.023 C 155.437 175.146,155.600 174.787,155.600 174.224 C 155.600 172.998,155.372 172.899,155.084 174.000 M191.774 173.558 C 192.182 174.218,190.670 174.442,190.043 173.815 C 189.490 173.262,189.535 173.200,190.491 173.200 C 191.075 173.200,191.652 173.361,191.774 173.558 M259.200 174.600 C 259.200 176.084,259.720 176.430,260.325 175.349 C 260.530 174.982,260.795 174.868,260.931 175.088 C 261.498 176.006,259.583 177.308,258.760 176.564 C 257.818 175.712,257.699 173.200,258.600 173.200 C 259.019 173.200,259.200 173.622,259.200 174.600 M148.361 175.353 C 148.714 175.778,148.687 175.958,148.249 176.126 C 147.573 176.385,146.000 176.031,146.000 175.620 C 146.000 174.694,147.658 174.506,148.361 175.353 M141.129 176.533 C 141.272 177.267,140.894 177.374,140.049 176.839 C 139.419 176.439,139.835 175.478,140.537 175.712 C 140.791 175.797,141.058 176.166,141.129 176.533 M191.108 176.475 C 190.861 177.217,190.000 177.340,190.000 176.633 C 190.000 176.285,190.285 176.000,190.633 176.000 C 190.982 176.000,191.195 176.214,191.108 176.475 M103.905 275.083 C 104.402 275.179,105.122 275.175,105.505 275.075 C 105.887 274.975,105.480 274.896,104.600 274.901 C 103.720 274.905,103.407 274.987,103.905 275.083 M180.627 275.570 C 180.244 275.994,180.015 276.669,180.119 277.070 C 180.274 277.670,180.315 277.643,180.354 276.923 C 180.379 276.440,180.800 275.765,181.289 275.423 C 181.778 275.080,181.986 274.800,181.751 274.800 C 181.516 274.800,181.010 275.147,180.627 275.570 M216.346 275.654 C 215.262 276.738,215.274 281.877,216.363 283.263 C 217.458 284.654,224.286 284.914,225.586 283.614 C 226.775 282.425,226.785 276.785,225.600 275.600 C 224.460 274.460,217.500 274.500,216.346 275.654 M267.100 275.421 L 266.000 276.026 265.976 283.713 C 265.963 287.941,265.925 297.836,265.892 305.701 C 265.839 318.139,265.912 320.083,266.451 320.622 C 267.260 321.431,272.825 321.841,275.000 321.252 L 276.600 320.818 276.693 316.309 C 276.817 310.276,276.990 309.447,278.272 308.764 C 278.931 308.413,279.382 308.353,279.468 308.607 C 279.543 308.831,280.369 310.153,281.302 311.546 C 282.236 312.938,283.180 314.373,283.400 314.734 C 287.755 321.884,287.341 321.600,293.400 321.600 C 300.752 321.600,300.768 321.539,295.459 313.657 C 293.777 311.159,292.400 308.986,292.400 308.829 C 292.400 308.673,291.502 307.387,290.404 305.972 C 289.306 304.557,288.406 303.197,288.404 302.949 C 288.402 302.701,288.130 302.274,287.800 302.000 C 286.483 300.907,287.146 299.829,292.234 294.798 C 299.505 287.608,299.503 287.591,291.526 287.615 L 286.600 287.630 282.664 291.420 C 276.447 297.407,276.702 297.685,276.764 285.000 C 276.813 274.644,276.996 275.029,271.989 274.909 C 269.221 274.842,267.904 274.980,267.100 275.421 M224.720 276.480 C 225.000 276.760,225.200 278.101,225.200 279.693 C 225.200 283.171,225.517 283.017,218.700 282.847 L 216.800 282.800 216.800 279.633 C 216.800 277.474,216.959 276.402,217.300 276.265 C 218.362 275.836,224.247 276.007,224.720 276.480 M275.081 276.318 C 275.432 276.541,275.579 279.433,275.626 287.062 C 275.712 300.793,275.447 300.559,282.530 293.171 L 287.128 288.375 292.020 288.487 L 296.912 288.600 291.456 293.976 C 284.955 300.381,285.055 299.994,288.537 305.200 C 295.250 315.236,298.400 320.103,298.400 320.435 C 298.400 321.149,288.745 320.874,287.931 320.138 C 287.529 319.774,287.200 319.322,287.200 319.133 C 287.200 318.647,280.037 307.270,279.536 306.961 C 278.944 306.594,277.323 307.559,276.503 308.766 C 275.949 309.581,275.758 310.945,275.600 315.200 L 275.400 320.600 271.636 320.716 C 269.391 320.785,267.703 320.663,267.453 320.413 C 266.794 319.754,267.027 276.757,267.692 276.334 C 268.338 275.925,274.441 275.911,275.081 276.318 M197.680 278.080 C 197.373 278.387,197.200 279.957,197.200 282.447 C 197.200 287.509,197.158 287.600,194.786 287.600 C 190.701 287.600,189.942 294.178,193.928 295.027 C 196.704 295.618,196.671 295.561,196.941 300.267 C 197.077 302.650,197.122 306.733,197.041 309.339 C 196.821 316.377,197.794 319.148,200.994 320.598 C 204.281 322.089,210.446 322.493,213.082 321.392 L 214.400 320.841 214.400 317.469 C 214.400 313.462,214.119 313.094,210.848 312.800 C 207.707 312.518,207.613 312.244,207.606 303.314 C 207.599 295.059,207.542 295.200,210.885 295.200 C 213.647 295.200,214.400 294.418,214.400 291.551 C 214.400 287.992,214.072 287.601,211.086 287.594 C 207.557 287.585,207.569 287.601,207.664 282.900 C 207.773 277.539,207.833 277.600,202.431 277.600 C 199.642 277.600,197.993 277.767,197.680 278.080 M190.151 282.800 C 190.151 285.330,190.216 286.365,190.296 285.100 C 190.375 283.835,190.375 281.765,190.296 280.500 C 190.216 279.235,190.151 280.270,190.151 282.800 M206.714 282.994 C 206.849 288.151,206.793 288.067,210.287 288.367 L 213.000 288.600 213.000 291.200 L 213.000 293.800 210.415 293.921 C 206.632 294.099,206.800 293.664,206.800 303.275 C 206.800 313.380,206.987 313.981,210.126 313.994 C 212.727 314.004,213.200 314.494,213.200 317.181 C 213.200 320.904,213.339 320.800,208.390 320.800 C 198.941 320.800,198.003 319.362,197.994 304.850 C 197.987 294.169,198.023 294.305,195.123 294.013 L 193.000 293.800 192.882 291.100 L 192.763 288.400 194.608 288.400 C 197.849 288.400,198.000 288.178,198.000 283.406 C 198.000 278.348,197.985 278.363,203.000 278.501 L 206.600 278.600 206.714 282.994 M245.200 286.701 C 242.332 286.833,239.649 287.544,238.400 288.504 C 237.850 288.927,236.844 289.505,236.165 289.789 C 234.543 290.467,231.891 294.455,230.550 298.233 C 227.642 306.423,231.225 317.541,237.600 320.110 C 238.150 320.332,239.410 320.879,240.400 321.326 C 248.321 324.902,259.345 320.477,261.984 312.662 C 263.590 307.906,263.241 307.531,257.342 307.686 L 253.000 307.800 252.869 308.941 C 252.669 310.689,249.735 313.412,247.700 313.738 C 241.395 314.746,237.678 304.818,241.877 298.182 C 244.576 293.916,249.847 294.229,252.289 298.800 L 253.037 300.200 257.384 300.314 C 262.306 300.443,262.620 300.298,262.452 297.974 C 261.932 290.759,255.030 286.249,245.200 286.701 M216.023 288.358 C 215.435 289.455,215.411 320.371,215.997 320.957 C 216.714 321.675,225.032 321.541,225.761 320.800 C 226.320 320.232,226.583 309.043,226.432 292.329 C 226.389 287.649,226.331 287.600,220.786 287.600 C 216.918 287.600,216.383 287.685,216.023 288.358 M254.463 289.073 C 258.640 291.346,261.600 295.205,261.600 298.375 L 261.600 299.600 257.587 299.600 C 254.119 299.600,253.544 299.505,253.349 298.900 C 252.017 294.776,248.155 292.927,244.349 294.589 C 234.713 298.796,239.145 318.022,248.941 314.509 C 251.151 313.716,253.200 311.643,253.200 310.200 C 253.200 308.799,254.292 308.400,258.131 308.400 C 261.844 308.400,262.218 308.643,261.634 310.681 C 257.343 325.643,234.703 324.699,230.927 309.400 C 228.580 299.888,234.347 289.290,242.589 287.969 C 246.476 287.345,252.281 287.885,254.463 289.073 M223.837 288.400 L 225.209 288.400 225.105 304.500 L 225.000 320.600 221.000 320.600 L 217.000 320.600 216.895 304.520 L 216.791 288.440 219.095 288.299 C 220.363 288.221,221.640 288.212,221.933 288.279 C 222.226 288.345,223.083 288.400,223.837 288.400 M157.800 294.800 C 157.296 295.017,157.222 295.144,157.600 295.144 C 157.930 295.144,158.560 294.989,159.000 294.800 C 159.504 294.583,159.578 294.456,159.200 294.456 C 158.870 294.456,158.240 294.611,157.800 294.800 M180.109 298.000 C 180.109 298.990,180.187 299.395,180.282 298.900 C 180.378 298.405,180.378 297.595,180.282 297.100 C 180.187 296.605,180.109 297.010,180.109 298.000 M190.093 300.400 C 190.093 301.170,190.175 301.485,190.276 301.100 C 190.376 300.715,190.376 300.085,190.276 299.700 C 190.175 299.315,190.093 299.630,190.093 300.400 M141.709 305.600 C 141.709 306.590,141.787 306.995,141.882 306.500 C 141.978 306.005,141.978 305.195,141.882 304.700 C 141.787 304.205,141.709 304.610,141.709 305.600 M180.140 307.200 C 180.140 309.070,180.209 309.835,180.293 308.900 C 180.377 307.965,180.377 306.435,180.293 305.500 C 180.209 304.565,180.140 305.330,180.140 307.200 M189.999 312.681 C 189.890 317.345,189.939 321.022,190.109 320.852 C 190.278 320.682,190.368 316.866,190.308 312.371 L 190.199 304.200 189.999 312.681 M171.775 317.300 L 170.600 318.600 171.900 317.425 C 173.112 316.330,173.384 316.000,173.075 316.000 C 173.006 316.000,172.421 316.585,171.775 317.300 M157.491 322.289 C 158.201 322.377,159.461 322.379,160.291 322.292 C 161.121 322.205,160.540 322.133,159.000 322.131 C 157.460 322.129,156.781 322.200,157.491 322.289 M140.200 335.980 C 137.409 337.130,136.578 342.324,138.847 344.444 C 141.189 346.631,144.005 346.493,145.983 344.094 C 149.393 339.957,145.116 333.956,140.200 335.980 M184.196 336.977 C 182.258 339.032,182.150 342.419,183.960 344.358 C 186.506 347.083,191.532 345.501,192.235 341.752 C 193.145 336.904,187.453 333.523,184.196 336.977 M208.452 336.348 C 207.567 337.233,207.323 340.854,207.950 343.800 C 208.292 345.409,210.000 345.789,210.000 344.256 C 210.000 343.276,210.912 342.000,211.613 342.000 C 212.105 342.000,213.600 343.652,213.600 344.195 C 213.600 345.060,214.485 345.582,215.254 345.171 C 216.297 344.613,216.022 337.844,214.911 336.733 C 213.702 335.525,209.524 335.276,208.452 336.348 M236.625 336.372 C 236.008 337.054,235.926 337.704,236.072 340.751 C 236.290 345.315,236.521 345.600,240.000 345.600 C 244.200 345.600,244.706 344.241,240.888 343.220 C 238.941 342.700,238.991 342.000,240.975 342.000 C 242.433 342.000,243.420 341.150,243.057 340.205 C 242.897 339.788,242.261 339.600,241.013 339.600 C 238.412 339.600,238.551 338.589,241.200 338.238 C 244.498 337.800,244.203 336.000,240.833 336.000 C 239.531 336.000,238.214 335.904,237.907 335.786 C 237.601 335.668,237.024 335.932,236.625 336.372 M258.726 335.895 C 257.498 336.175,257.109 343.852,258.265 345.008 C 258.931 345.673,263.814 345.458,264.600 344.728 C 265.107 344.258,263.323 342.825,262.200 342.800 C 261.690 342.789,262.016 342.503,263.100 342.011 C 264.035 341.586,264.800 341.086,264.800 340.900 C 264.800 340.183,263.787 339.600,262.544 339.600 C 260.044 339.600,260.243 338.452,262.802 338.109 C 264.423 337.892,265.268 337.078,264.553 336.423 C 264.154 336.058,259.758 335.659,258.726 335.895 M279.900 336.390 C 278.560 337.448,278.411 339.431,279.578 340.684 C 280.348 341.510,280.348 341.520,279.578 341.722 C 278.541 341.993,278.562 343.593,279.616 344.725 C 282.150 347.445,288.147 344.315,286.173 341.302 C 285.733 340.632,285.617 339.883,285.792 338.850 C 286.253 336.117,282.325 334.477,279.900 336.390 M114.737 336.900 C 114.047 338.165,114.196 343.967,114.937 344.709 C 115.745 345.517,117.111 344.708,117.273 343.324 L 117.400 342.248 118.788 343.724 C 120.117 345.137,121.678 345.644,122.183 344.827 C 122.456 344.386,121.198 341.600,120.726 341.600 C 120.062 341.600,120.426 339.301,121.200 338.600 C 123.492 336.526,121.378 335.190,118.693 337.014 C 117.872 337.572,117.200 337.855,117.200 337.643 C 117.200 336.228,115.400 335.685,114.737 336.900 M126.206 336.390 C 125.173 338.062,125.612 345.200,126.749 345.200 C 127.708 345.200,128.400 344.412,128.400 343.320 C 128.400 341.997,129.261 342.196,130.268 343.750 C 131.231 345.238,132.451 345.754,133.361 345.058 C 134.012 344.560,134.418 337.400,133.849 336.479 C 132.973 335.062,131.600 336.248,131.600 338.420 C 131.600 339.913,130.941 339.655,129.474 337.587 C 128.368 336.028,126.788 335.449,126.206 336.390 M150.132 336.634 C 149.894 337.254,150.425 340.301,151.296 343.306 C 152.099 346.080,153.399 346.265,154.847 343.810 C 155.734 342.308,156.233 342.309,156.806 343.815 C 157.692 346.145,160.400 345.476,160.400 342.927 C 160.400 342.336,160.775 340.796,161.234 339.504 C 162.508 335.915,160.967 334.277,159.382 337.535 L 158.635 339.070 157.876 337.535 C 156.833 335.427,155.315 335.382,154.213 337.427 L 153.445 338.854 152.713 337.427 C 151.933 335.907,150.571 335.488,150.132 336.634 M171.492 336.241 C 171.173 336.561,171.827 338.233,172.813 339.618 C 173.249 340.231,173.718 341.551,173.855 342.551 C 174.302 345.806,176.800 346.516,176.800 343.387 C 176.800 342.915,177.326 341.464,177.969 340.164 C 179.995 336.069,179.310 334.574,176.607 337.193 L 175.298 338.462 174.422 337.231 C 173.612 336.093,172.138 335.595,171.492 336.241 M195.858 336.879 C 194.802 340.819,195.961 345.006,198.223 345.431 C 202.833 346.296,204.905 343.903,204.100 338.643 C 203.494 334.689,201.979 335.091,201.627 339.298 C 201.145 345.070,198.974 345.008,198.200 339.200 C 197.770 335.972,196.451 334.665,195.858 336.879 M226.414 336.774 C 225.601 338.294,225.891 344.714,226.795 345.198 C 227.903 345.790,232.800 345.269,232.800 344.559 C 232.800 343.917,231.555 343.200,230.440 343.200 C 229.327 343.200,228.676 341.816,228.559 339.200 C 228.504 337.990,228.447 336.775,228.430 336.500 C 228.383 335.712,226.873 335.917,226.414 336.774 M246.667 336.267 C 246.218 336.715,246.373 338.139,247.002 339.346 C 247.331 339.976,247.600 340.726,247.600 341.013 C 247.600 342.788,249.200 345.200,250.378 345.200 C 251.638 345.200,253.200 343.037,253.200 341.292 C 253.200 340.886,253.464 340.204,253.787 339.776 C 254.110 339.349,254.380 338.325,254.387 337.500 C 254.406 335.300,253.147 335.445,251.674 337.812 C 250.436 339.800,250.128 339.723,248.815 337.100 C 248.298 336.067,247.267 335.667,246.667 336.267 M268.839 336.900 C 268.467 337.897,268.563 344.696,268.954 345.087 C 269.340 345.474,273.446 345.725,274.608 345.434 C 276.226 345.028,275.659 344.009,273.400 343.262 L 271.400 342.600 271.200 339.800 C 270.933 336.068,269.709 334.564,268.839 336.900 M227.994 340.510 C 228.001 343.906,228.686 344.745,230.984 344.168 C 231.495 344.040,232.033 344.130,232.180 344.368 C 232.361 344.661,231.602 344.800,229.824 344.800 L 227.200 344.800 227.206 340.500 C 227.210 337.576,227.336 336.392,227.600 336.800 C 227.813 337.130,227.991 338.799,227.994 340.510 M238.041 336.900 C 238.063 337.175,238.049 337.985,238.010 338.700 C 237.940 339.976,237.970 340.000,239.669 340.006 C 240.621 340.009,241.670 340.187,242.000 340.400 C 242.451 340.691,242.252 340.791,241.200 340.799 C 237.381 340.831,236.292 343.667,240.000 343.925 C 242.966 344.132,242.874 344.800,239.880 344.800 L 237.200 344.800 237.200 340.600 C 237.200 338.067,237.359 336.400,237.600 336.400 C 237.820 336.400,238.018 336.625,238.041 336.900 M248.806 338.744 C 248.813 339.555,249.744 342.277,250.153 342.687 C 250.589 343.122,251.981 341.162,251.991 340.099 C 251.996 339.603,252.360 338.525,252.800 337.704 C 253.562 336.282,253.600 336.262,253.600 337.282 C 253.600 337.871,253.420 338.464,253.200 338.600 C 252.980 338.736,252.800 339.357,252.800 339.981 C 252.800 340.619,252.538 341.215,252.200 341.345 C 251.870 341.471,251.600 341.996,251.600 342.511 C 251.600 344.895,249.898 345.391,249.448 343.139 C 249.307 342.436,248.744 340.913,248.196 339.755 C 246.940 337.100,246.845 335.742,248.013 337.144 C 248.446 337.664,248.803 338.384,248.806 338.744 M260.000 337.400 C 260.000 337.704,259.820 338.064,259.600 338.200 C 259.372 338.341,259.200 337.996,259.200 337.400 C 259.200 336.804,259.372 336.459,259.600 336.600 C 259.820 336.736,260.000 337.096,260.000 337.400 M128.590 337.812 C 128.815 338.254,129.418 339.199,129.929 339.911 C 130.440 340.622,130.774 341.519,130.671 341.902 C 130.514 342.491,130.440 342.460,130.196 341.700 C 130.037 341.205,129.760 340.800,129.580 340.800 C 129.401 340.800,129.140 340.440,129.000 340.000 C 128.860 339.560,128.417 339.200,128.016 339.200 C 127.285 339.200,126.800 338.458,126.800 337.338 C 126.800 336.493,128.092 336.835,128.590 337.812 M156.404 337.608 C 156.895 338.525,156.628 339.200,155.776 339.200 C 155.403 339.200,155.200 338.778,155.200 338.000 C 155.200 336.619,155.775 336.432,156.404 337.608 M159.792 341.552 C 158.685 344.971,158.172 345.517,157.774 343.700 C 157.642 343.095,157.454 342.350,157.357 342.043 C 157.223 341.618,157.309 341.592,157.720 341.934 C 158.376 342.478,159.200 341.812,159.200 340.739 C 159.200 340.353,159.365 339.624,159.567 339.119 C 159.770 338.613,160.071 337.840,160.238 337.400 C 161.119 335.072,160.737 338.632,159.792 341.552 M210.000 337.133 C 210.000 337.654,209.524 338.001,209.138 337.761 C 208.724 337.506,209.081 336.800,209.624 336.800 C 209.831 336.800,210.000 336.950,210.000 337.133 M116.079 339.489 C 116.393 339.872,116.733 339.848,117.640 339.379 C 118.775 338.793,118.800 338.802,118.800 339.806 C 118.800 340.371,119.168 341.229,119.618 341.711 C 120.589 342.753,121.664 344.800,121.241 344.800 C 120.851 344.800,119.200 342.894,119.200 342.443 C 119.200 342.250,118.787 341.822,118.283 341.491 C 117.169 340.762,116.000 341.391,116.000 342.720 C 116.000 343.178,115.820 343.664,115.600 343.800 C 115.343 343.959,115.220 342.784,115.254 340.524 C 115.284 338.586,115.392 337.450,115.493 338.000 C 115.594 338.550,115.858 339.220,116.079 339.489 M139.805 338.792 C 138.611 340.684,138.602 340.789,139.492 342.342 C 140.281 343.716,139.894 344.541,139.009 343.371 C 138.148 342.233,138.258 339.723,139.227 338.362 C 140.475 336.609,140.957 336.968,139.805 338.792 M145.269 337.862 C 146.239 338.740,146.295 342.448,145.352 343.390 C 144.996 343.747,144.591 343.915,144.452 343.764 C 144.314 343.614,144.425 343.410,144.700 343.312 C 145.601 342.990,145.330 339.190,144.330 338.126 C 143.310 337.040,144.112 336.815,145.269 337.862 M151.704 337.956 C 151.813 338.371,151.747 338.956,151.557 339.256 C 151.323 339.626,151.210 339.384,151.206 338.500 C 151.199 337.045,151.407 336.818,151.704 337.956 M185.500 337.757 C 185.115 338.049,184.800 338.583,184.800 338.944 C 184.800 339.305,184.620 339.600,184.400 339.600 C 183.885 339.600,183.891 338.952,184.414 337.974 C 184.642 337.548,185.137 337.206,185.514 337.213 C 186.155 337.225,186.154 337.260,185.500 337.757 M190.708 338.404 C 191.502 339.901,191.056 343.059,189.916 344.010 C 187.914 345.679,183.720 344.497,184.099 342.370 C 184.266 341.431,184.287 341.440,184.759 342.655 C 185.622 344.874,189.167 344.775,190.041 342.507 C 190.616 341.017,190.237 338.473,189.334 337.753 C 188.628 337.190,188.630 337.173,189.390 337.288 C 189.824 337.353,190.418 337.855,190.708 338.404 M197.194 339.676 C 197.197 340.488,197.020 341.264,196.800 341.400 C 196.551 341.554,196.402 340.772,196.406 339.324 C 196.410 337.676,196.525 337.175,196.800 337.600 C 197.013 337.930,197.191 338.864,197.194 339.676 M202.364 343.762 C 202.006 344.094,201.952 343.957,202.140 343.200 C 202.277 342.650,202.428 341.030,202.475 339.600 L 202.561 337.000 202.698 340.162 C 202.789 342.243,202.674 343.474,202.364 343.762 M214.646 337.777 C 215.190 339.192,214.576 339.802,213.918 338.500 C 213.361 337.397,213.349 337.200,213.843 337.200 C 214.163 337.200,214.525 337.459,214.646 337.777 M270.000 338.200 C 270.000 338.750,269.820 339.200,269.600 339.200 C 269.153 339.200,269.052 337.882,269.467 337.467 C 269.908 337.026,270.000 337.153,270.000 338.200 M280.644 337.829 C 280.226 338.919,281.094 339.881,282.734 340.143 C 284.461 340.419,285.007 340.892,285.398 342.448 C 285.587 343.201,285.484 343.559,285.030 343.733 C 284.633 343.886,284.400 343.758,284.400 343.387 C 284.400 343.064,284.615 342.800,284.878 342.800 C 285.140 342.800,284.745 342.350,284.000 341.800 C 283.255 341.250,282.286 340.800,281.848 340.800 C 280.185 340.800,278.699 338.661,279.680 337.680 C 280.362 336.998,280.929 337.086,280.644 337.829 M144.170 339.167 C 145.697 340.854,143.489 343.825,141.412 342.878 C 140.282 342.364,139.883 339.075,140.900 338.665 C 142.017 338.214,143.516 338.444,144.170 339.167 M189.120 338.880 C 189.795 339.555,189.718 341.804,188.999 342.401 C 187.422 343.710,185.200 342.541,185.200 340.404 C 185.200 339.025,185.886 338.400,187.400 338.400 C 188.082 338.400,188.856 338.616,189.120 338.880 M212.400 339.000 C 212.400 339.330,212.059 339.600,211.643 339.600 C 211.226 339.600,210.782 339.330,210.655 339.000 C 210.489 338.567,210.699 338.400,211.413 338.400 C 212.024 338.400,212.400 338.629,212.400 339.000 M174.966 339.854 C 175.194 340.451,175.287 340.445,176.008 339.792 C 176.773 339.100,176.800 339.104,176.800 339.914 C 176.800 340.376,176.620 340.864,176.400 341.000 C 176.180 341.136,176.000 341.946,176.000 342.800 C 176.000 343.654,175.820 344.464,175.600 344.600 C 175.365 344.745,175.194 344.301,175.186 343.524 C 175.178 342.796,174.914 341.750,174.600 341.200 C 174.286 340.650,174.022 339.975,174.014 339.700 C 173.994 338.976,174.671 339.086,174.966 339.854 M261.856 340.000 C 262.789 340.000,263.664 340.180,263.800 340.400 C 263.951 340.644,263.354 340.800,262.273 340.800 C 258.971 340.800,258.347 343.699,261.600 343.925 C 264.544 344.130,264.484 344.800,261.522 344.800 L 258.884 344.800 258.896 342.300 C 258.909 339.510,259.086 338.926,259.725 339.565 C 259.964 339.804,260.923 340.000,261.856 340.000 M154.431 342.129 C 154.194 342.366,154.000 342.944,154.000 343.413 C 154.000 343.883,153.882 344.385,153.737 344.530 C 153.216 345.050,152.401 343.876,152.432 342.651 C 152.449 341.963,152.554 341.625,152.665 341.900 C 152.982 342.687,154.000 342.483,154.000 341.633 C 154.000 340.136,154.585 339.269,154.731 340.549 C 154.803 341.181,154.668 341.892,154.431 342.129 M212.453 340.231 C 214.247 339.993,214.470 340.040,214.251 340.612 C 214.113 340.971,214.000 341.416,214.000 341.601 C 214.000 341.785,213.257 341.644,212.349 341.287 C 210.746 340.657,210.678 340.664,209.990 341.514 C 209.185 342.508,208.687 341.918,209.076 340.430 C 209.251 339.761,209.414 339.680,209.852 340.043 C 210.213 340.342,211.118 340.408,212.453 340.231 M270.000 341.024 C 270.000 341.871,269.838 342.347,269.600 342.200 C 268.937 341.790,269.161 339.600,269.867 339.600 C 269.940 339.600,270.000 340.241,270.000 341.024 M133.037 344.249 C 132.734 345.038,132.097 344.929,131.602 344.004 C 131.274 343.392,131.337 342.963,131.873 342.144 L 132.570 341.081 132.909 342.389 C 133.096 343.109,133.153 343.946,133.037 344.249 M199.861 344.000 C 200.818 344.000,201.600 344.180,201.600 344.400 C 201.600 344.967,198.258 344.898,197.680 344.320 C 197.416 344.056,197.212 343.471,197.227 343.020 C 197.253 342.238,197.274 342.242,197.688 343.100 C 198.040 343.829,198.453 344.000,199.861 344.000 M214.794 343.500 C 214.789 344.301,214.691 344.447,214.431 344.036 C 214.235 343.726,214.167 343.231,214.280 342.936 C 214.604 342.090,214.801 342.306,214.794 343.500 M272.231 344.006 C 272.874 344.009,273.670 344.187,274.000 344.400 C 274.426 344.675,273.938 344.790,272.314 344.794 C 270.487 344.799,269.948 344.650,269.628 344.053 C 269.093 343.054,269.570 342.649,270.399 343.399 C 270.764 343.730,271.589 344.003,272.231 344.006 M280.580 343.578 C 280.968 344.006,281.941 344.426,282.742 344.511 C 284.189 344.664,284.188 344.666,282.505 344.733 C 280.914 344.796,279.200 343.955,279.200 343.111 C 279.200 342.558,279.858 342.780,280.580 343.578 M143.598 344.500 C 143.599 344.665,142.970 344.800,142.200 344.800 C 141.430 344.800,140.800 344.633,140.800 344.428 C 140.800 344.224,141.429 344.089,142.198 344.128 C 142.967 344.168,143.597 344.335,143.598 344.500 " stroke="none" fill="#253966" fill-rule="evenodd"></path></g></svg>