<svg id="svg" version="1.1" xmlns="http://www.w3.org/2000/svg" xmlns:xlink="http://www.w3.org/1999/xlink" width="400" height="400" viewBox="0, 0, 400,400"><g id="svgg"><path id="path0" d="M198.704 66.086 C 198.321 66.474,198.031 67.199,198.058 67.696 C 198.086 68.193,197.981 68.960,197.826 69.400 C 197.630 69.958,197.741 69.898,198.195 69.200 L 198.846 68.200 198.605 69.339 C 198.442 70.113,198.514 70.429,198.831 70.323 C 199.417 70.128,199.620 67.259,199.071 66.920 C 198.815 66.762,198.772 66.953,198.956 67.434 C 199.190 68.049,199.148 68.101,198.744 67.700 C 197.974 66.936,198.940 66.086,199.783 66.786 C 200.386 67.286,200.617 66.977,200.447 65.900 C 200.356 65.321,201.543 65.606,201.730 66.208 C 201.862 66.633,201.899 66.603,201.854 66.108 C 201.766 65.155,199.637 65.140,198.704 66.086 M197.632 71.300 C 197.614 71.691,197.885 72.000,198.247 72.000 C 198.722 72.000,198.829 72.238,198.652 72.900 C 198.519 73.395,198.408 74.095,198.405 74.456 C 198.402 74.816,198.026 75.536,197.570 76.056 C 197.113 76.575,196.853 76.775,196.993 76.500 C 197.133 76.225,197.069 76.000,196.851 76.000 C 196.634 76.000,196.398 76.405,196.327 76.900 C 196.227 77.591,195.965 77.778,195.199 77.705 C 194.341 77.624,194.299 77.669,194.900 78.025 C 195.285 78.253,195.600 78.711,195.600 79.043 C 195.600 79.398,195.409 79.529,195.138 79.362 C 194.846 79.181,194.785 79.252,194.973 79.556 C 195.651 80.653,193.439 81.489,192.080 80.649 C 191.816 80.486,191.600 80.543,191.600 80.776 C 191.600 81.009,191.285 81.214,190.900 81.232 C 190.436 81.253,190.378 81.334,190.729 81.475 C 191.123 81.632,191.029 81.931,190.360 82.643 C 189.714 83.330,189.621 83.607,190.030 83.625 C 190.344 83.639,190.183 83.818,189.674 84.022 C 189.165 84.226,188.858 84.569,188.991 84.785 C 189.124 85.000,188.775 85.291,188.216 85.432 C 187.657 85.572,187.200 85.927,187.200 86.220 C 187.200 86.513,186.992 86.881,186.738 87.038 C 186.437 87.224,186.373 87.128,186.553 86.762 C 186.705 86.453,186.598 86.548,186.315 86.974 C 186.032 87.400,185.395 88.141,184.900 88.620 C 184.405 89.099,184.000 89.707,184.000 89.969 C 184.000 90.232,183.820 90.336,183.599 90.200 C 183.379 90.063,183.034 90.384,182.834 90.911 C 182.633 91.439,181.923 92.330,181.257 92.891 C 180.590 93.452,180.140 94.006,180.256 94.123 C 180.508 94.375,179.164 95.148,178.625 95.061 C 178.419 95.027,178.095 95.601,177.905 96.335 C 177.641 97.354,177.401 97.609,176.892 97.414 C 176.525 97.273,176.352 97.286,176.509 97.442 C 176.665 97.598,176.593 97.968,176.348 98.263 C 176.103 98.558,176.006 98.800,176.133 98.800 C 176.260 98.800,175.912 99.252,175.360 99.803 C 174.808 100.355,174.462 100.977,174.591 101.186 C 174.724 101.401,174.345 101.504,173.713 101.424 C 172.660 101.291,172.602 101.366,172.631 102.823 C 172.648 103.669,172.539 104.286,172.389 104.193 C 172.240 104.101,171.910 104.480,171.657 105.035 C 171.404 105.591,171.017 105.934,170.798 105.799 C 170.579 105.664,170.400 105.743,170.400 105.976 C 170.400 106.209,170.130 106.400,169.800 106.400 C 169.470 106.400,169.200 106.591,169.200 106.824 C 169.200 107.057,169.368 107.144,169.572 107.017 C 169.777 106.891,170.075 106.998,170.234 107.255 C 170.404 107.531,170.351 107.617,170.104 107.465 C 169.874 107.322,169.583 107.609,169.459 108.103 C 169.334 108.596,168.730 109.330,168.116 109.733 C 167.374 110.220,167.268 110.387,167.800 110.232 L 168.600 109.998 167.800 110.620 C 167.307 111.004,167.000 111.717,167.000 112.478 C 167.000 113.428,166.804 113.745,166.155 113.846 C 163.980 114.186,161.829 116.000,163.600 116.000 C 163.820 116.000,164.000 116.270,164.000 116.600 C 164.000 116.930,163.798 117.200,163.551 117.200 C 163.231 117.200,163.239 117.364,163.577 117.772 C 163.956 118.228,163.894 118.429,163.272 118.761 C 162.645 119.097,162.503 119.052,162.546 118.532 C 162.576 118.177,162.330 117.808,162.000 117.713 C 161.585 117.592,161.546 117.643,161.875 117.878 C 162.589 118.387,162.210 120.836,161.228 122.052 C 160.913 122.443,160.594 123.164,160.518 123.657 C 160.338 124.836,160.128 125.004,159.490 124.475 C 159.068 124.125,158.962 124.316,158.966 125.417 C 158.969 126.177,158.843 126.799,158.686 126.800 C 158.529 126.800,158.209 126.800,157.976 126.800 C 157.743 126.800,157.664 126.620,157.800 126.400 C 157.936 126.180,157.857 126.000,157.624 126.000 C 156.961 126.000,157.126 126.701,157.924 127.277 C 158.323 127.565,158.808 128.070,159.001 128.400 C 159.305 128.917,159.260 128.925,158.677 128.451 C 158.305 128.149,158.000 128.036,158.000 128.200 C 158.000 128.364,157.752 128.292,157.449 128.041 C 157.016 127.681,156.852 127.756,156.686 128.392 C 156.570 128.837,156.620 129.111,156.797 129.002 C 156.975 128.892,157.184 129.612,157.263 130.601 C 157.374 132.005,157.273 132.400,156.799 132.400 C 156.465 132.400,155.968 132.760,155.693 133.200 C 155.418 133.640,155.341 134.000,155.522 134.000 C 156.249 134.000,155.774 136.492,154.914 137.188 C 154.161 137.798,154.083 138.095,154.392 139.173 C 154.671 140.144,154.625 140.492,154.197 140.656 C 153.446 140.945,152.800 140.500,152.800 139.696 C 152.800 139.174,152.699 139.141,152.303 139.537 C 151.924 139.916,151.918 140.102,152.281 140.326 C 152.889 140.702,152.614 144.260,151.912 145.106 C 151.630 145.445,151.385 146.370,151.366 147.161 C 151.319 149.193,150.877 150.322,150.024 150.592 C 149.437 150.779,149.326 151.123,149.473 152.313 C 149.676 153.962,149.678 154.039,149.559 155.936 C 149.483 157.163,149.383 157.259,148.338 157.106 C 147.575 156.994,147.200 157.114,147.200 157.469 C 147.200 157.761,147.020 158.000,146.800 158.000 C 146.580 158.000,146.400 158.291,146.400 158.647 C 146.400 159.066,146.647 159.229,147.100 159.110 C 147.615 158.976,147.800 159.167,147.800 159.835 C 147.800 160.676,147.748 160.696,147.098 160.107 C 146.711 159.758,146.266 159.600,146.109 159.758 C 145.952 159.915,146.088 160.211,146.412 160.416 C 146.846 160.690,146.863 160.789,146.476 160.794 C 146.188 160.797,146.066 160.983,146.204 161.207 C 146.342 161.430,146.602 161.522,146.782 161.411 C 147.472 160.985,148.188 162.651,148.046 164.349 C 148.009 164.791,147.883 164.801,147.400 164.400 C 147.070 164.126,146.800 164.036,146.800 164.200 C 146.800 164.364,146.543 164.284,146.228 164.023 C 145.771 163.644,145.570 163.709,145.228 164.348 C 144.577 165.564,144.745 165.938,145.431 164.800 C 145.940 163.954,145.998 163.931,145.805 164.653 C 145.659 165.195,145.787 165.586,146.156 165.728 C 146.706 165.939,146.729 166.620,146.253 168.600 C 146.148 169.040,146.047 169.514,146.031 169.653 C 146.014 169.793,145.616 170.007,145.148 170.130 C 144.358 170.336,144.343 170.400,144.951 171.008 C 145.312 171.369,145.488 171.858,145.342 172.094 C 145.188 172.343,145.264 172.408,145.521 172.249 C 145.765 172.098,145.871 171.728,145.755 171.428 C 145.640 171.127,145.697 170.787,145.882 170.673 C 146.067 170.559,146.189 171.216,146.155 172.133 C 146.056 174.731,146.036 174.800,145.400 174.800 C 145.070 174.800,144.800 174.991,144.800 175.224 C 144.800 175.457,144.620 175.536,144.400 175.400 C 144.180 175.264,144.000 175.418,144.000 175.743 C 144.000 176.068,144.200 176.400,144.444 176.481 C 144.687 176.562,144.898 177.477,144.912 178.515 C 144.926 179.552,145.042 180.400,145.169 180.400 C 145.296 180.400,145.378 181.120,145.350 182.000 C 145.259 184.898,145.256 184.908,144.363 184.674 C 143.625 184.481,143.590 184.535,144.063 185.128 C 144.984 186.281,145.665 187.668,145.428 187.906 C 145.302 188.031,145.200 187.923,145.200 187.667 C 145.200 187.410,144.936 187.200,144.613 187.200 C 144.248 187.200,144.115 187.434,144.262 187.816 C 144.410 188.202,144.300 188.389,143.968 188.316 C 143.397 188.191,143.288 198.254,143.854 198.757 C 144.005 198.890,144.006 198.787,143.858 198.528 C 143.709 198.268,143.763 197.946,143.978 197.813 C 144.404 197.550,145.176 199.912,144.909 200.661 C 144.819 200.914,144.397 201.212,143.972 201.323 C 143.484 201.451,143.202 201.869,143.206 202.463 C 143.211 203.188,143.295 203.269,143.580 202.819 C 143.782 202.500,143.882 202.133,143.803 202.005 C 143.724 201.876,143.967 201.771,144.344 201.771 C 145.047 201.771,145.123 201.999,145.221 204.400 C 145.319 206.800,145.271 206.907,144.200 206.702 C 143.016 206.476,142.841 207.013,144.000 207.316 C 144.440 207.431,144.800 207.712,144.800 207.940 C 144.800 208.168,144.440 208.285,144.000 208.200 C 143.364 208.077,143.200 208.261,143.200 209.099 C 143.200 210.104,143.226 210.117,143.764 209.382 C 144.300 208.648,144.365 208.644,145.095 209.305 C 145.518 209.687,146.068 210.000,146.319 210.000 C 146.570 210.000,146.672 210.269,146.546 210.598 C 146.419 210.926,146.110 211.072,145.858 210.921 C 145.586 210.758,145.608 210.903,145.913 211.280 C 146.405 211.887,146.450 215.198,145.967 215.199 C 145.411 215.201,145.242 214.631,145.652 214.137 C 146.002 213.716,145.912 213.600,145.235 213.600 C 144.496 213.600,144.433 213.715,144.800 214.400 C 145.035 214.840,145.110 215.200,144.965 215.200 C 144.820 215.200,144.900 215.438,145.142 215.730 C 145.452 216.104,145.456 216.384,145.156 216.684 C 144.855 216.985,144.887 217.201,145.265 217.419 C 145.559 217.589,145.667 217.581,145.503 217.401 C 145.340 217.221,145.411 216.828,145.660 216.528 C 146.033 216.079,146.222 216.138,146.731 216.866 C 147.181 217.508,147.220 217.793,146.873 217.909 C 146.610 217.997,146.526 218.278,146.686 218.534 C 147.304 219.523,147.162 219.983,146.387 219.499 C 145.983 219.247,145.722 218.926,145.808 218.787 C 145.894 218.647,145.727 218.533,145.437 218.533 C 145.123 218.533,144.987 218.829,145.102 219.267 C 145.207 219.670,145.477 220.000,145.703 220.000 C 145.928 220.000,146.370 220.315,146.686 220.700 C 147.001 221.085,147.157 221.194,147.032 220.942 C 146.907 220.690,147.066 220.384,147.385 220.261 C 147.982 220.032,147.522 221.644,146.724 222.580 C 146.206 223.188,146.349 223.705,146.971 223.467 C 147.285 223.346,147.757 223.507,148.020 223.824 C 148.407 224.290,148.355 224.405,147.749 224.425 C 147.116 224.447,147.140 224.507,147.900 224.812 C 148.395 225.011,148.786 225.405,148.768 225.687 C 148.744 226.092,148.694 226.094,148.534 225.698 C 148.307 225.134,147.600 225.416,147.600 226.070 C 147.600 226.307,148.046 226.408,148.614 226.299 C 149.171 226.193,149.533 226.200,149.417 226.316 C 149.302 226.432,149.394 226.752,149.623 227.028 C 149.882 227.340,149.895 227.618,149.657 227.765 C 149.028 228.154,149.602 229.472,150.597 229.926 C 151.438 230.309,151.493 230.496,151.173 231.875 C 150.715 233.849,150.718 234.098,151.195 233.803 C 151.422 233.663,151.489 233.823,151.354 234.176 C 151.214 234.540,151.381 234.894,151.758 235.039 C 152.111 235.175,152.400 235.616,152.400 236.019 C 152.400 236.423,152.583 236.866,152.807 237.004 C 153.030 237.142,153.109 237.423,152.983 237.628 C 152.775 237.965,153.413 238.148,154.668 238.113 C 154.926 238.105,155.042 238.346,154.926 238.647 C 154.811 238.949,154.572 239.106,154.395 238.997 C 154.107 238.819,154.207 239.731,154.625 241.104 C 154.709 241.382,154.738 241.669,154.689 241.743 C 154.640 241.817,154.834 242.159,155.120 242.504 C 155.406 242.849,155.729 243.641,155.837 244.265 C 155.946 244.889,156.311 245.611,156.650 245.868 C 156.989 246.126,157.223 246.756,157.171 247.268 C 157.046 248.506,157.589 250.400,158.070 250.400 C 158.282 250.400,158.332 249.997,158.182 249.500 C 157.975 248.816,158.024 248.708,158.383 249.048 C 158.827 249.468,159.099 250.323,159.169 251.518 C 159.186 251.802,159.514 251.982,159.897 251.918 C 160.463 251.822,160.569 252.049,160.464 253.125 C 160.376 254.029,160.570 254.664,161.077 255.125 C 162.274 256.214,162.951 258.050,162.320 258.494 C 161.919 258.777,161.937 258.821,162.400 258.685 C 163.363 258.404,165.200 259.535,165.200 260.410 C 165.200 260.845,165.391 261.200,165.624 261.200 C 165.857 261.200,165.936 261.380,165.800 261.600 C 165.664 261.820,165.821 262.000,166.149 262.000 C 166.478 262.000,166.874 262.405,167.030 262.900 C 167.187 263.395,167.645 264.088,168.050 264.441 C 168.454 264.793,168.665 265.201,168.519 265.348 C 168.125 265.742,168.086 267.994,168.478 267.752 C 168.662 267.638,168.686 267.332,168.530 267.072 C 168.332 266.742,168.431 266.749,168.860 267.097 C 169.197 267.370,169.621 267.460,169.801 267.297 C 169.981 267.133,170.006 267.213,169.858 267.472 C 169.709 267.732,169.773 268.060,170.000 268.200 C 170.227 268.340,170.286 268.668,170.130 268.928 C 169.974 269.187,170.161 269.145,170.546 268.832 C 170.930 268.520,171.214 268.430,171.175 268.632 C 171.137 268.835,171.149 269.135,171.203 269.300 C 171.256 269.465,171.322 269.825,171.350 270.100 C 171.378 270.375,171.816 270.659,172.323 270.731 C 173.119 270.844,173.174 270.951,172.723 271.508 C 172.336 271.986,172.330 272.075,172.700 271.853 C 173.300 271.493,173.362 272.048,172.797 272.717 C 172.575 272.979,172.513 273.106,172.660 273.000 C 172.806 272.894,173.203 273.030,173.540 273.303 C 174.029 273.700,174.093 273.699,173.853 273.300 C 173.688 273.025,173.726 272.800,173.937 272.800 C 174.149 272.800,174.515 273.354,174.751 274.030 C 174.991 274.720,175.364 275.146,175.600 275.000 C 175.831 274.857,175.980 274.889,175.931 275.070 C 175.739 275.780,176.486 277.200,177.051 277.200 C 177.483 277.200,177.598 277.516,177.468 278.342 C 177.300 279.411,177.346 279.456,178.210 279.048 C 178.717 278.809,179.046 278.475,178.942 278.307 C 178.838 278.138,178.849 278.000,178.966 278.000 C 179.403 278.000,180.383 280.363,180.036 280.578 C 179.838 280.700,179.771 281.168,179.888 281.616 C 180.086 282.371,180.155 282.384,180.811 281.790 C 181.288 281.358,181.608 281.290,181.788 281.580 C 181.935 281.818,182.221 281.911,182.423 281.786 C 182.625 281.661,182.690 281.822,182.566 282.143 C 182.427 282.506,182.656 282.827,183.171 282.991 C 183.884 283.217,184.191 283.861,184.061 284.859 C 184.043 285.001,184.412 285.017,184.881 284.895 C 185.553 284.719,185.681 284.812,185.482 285.331 C 185.326 285.737,185.415 285.954,185.714 285.895 C 185.981 285.843,186.155 286.025,186.100 286.300 C 186.045 286.575,186.298 286.800,186.662 286.800 C 187.247 286.800,187.236 286.901,186.562 287.669 C 186.143 288.147,186.035 288.400,186.323 288.231 C 187.096 287.778,188.800 287.657,188.800 288.055 C 188.800 288.245,188.639 288.400,188.443 288.400 C 188.246 288.400,187.973 288.694,187.835 289.054 C 187.623 289.606,187.803 289.672,188.992 289.479 C 190.318 289.264,190.610 289.469,190.447 290.500 C 190.421 290.665,190.850 290.800,191.400 290.800 C 191.987 290.800,192.359 291.007,192.300 291.300 C 192.245 291.575,192.419 291.757,192.686 291.705 C 192.958 291.651,193.075 291.860,192.952 292.181 C 192.794 292.592,193.000 292.724,193.683 292.651 C 195.253 292.484,195.701 292.006,195.453 290.767 C 195.172 289.359,195.883 288.794,196.224 290.155 C 196.539 291.408,196.142 292.663,194.922 294.264 C 194.224 295.181,194.092 295.610,194.442 295.826 C 194.747 296.015,194.819 295.955,194.638 295.662 C 194.454 295.363,194.681 295.200,195.280 295.200 C 196.447 295.200,197.752 291.777,198.383 287.059 C 198.614 285.332,198.911 283.745,199.042 283.532 C 199.173 283.320,199.521 280.280,199.814 276.777 C 200.390 269.901,200.465 269.600,201.605 269.600 C 202.172 269.600,202.426 269.980,202.609 271.100 C 203.068 273.919,203.173 273.800,203.013 270.641 C 202.892 268.251,202.603 267.002,201.827 265.505 L 200.800 263.527 201.065 250.526 C 201.276 240.232,201.442 237.482,201.865 237.320 C 202.670 237.011,202.656 188.311,201.851 187.643 C 201.393 187.262,201.274 178.485,201.130 134.429 C 200.991 91.980,200.855 81.549,200.438 81.046 C 199.751 80.218,199.682 73.865,200.352 73.058 C 200.755 72.573,200.601 72.397,199.444 72.015 C 198.678 71.762,197.964 71.340,197.857 71.078 C 197.751 70.815,197.649 70.915,197.632 71.300 M168.790 105.313 C 168.119 105.848,168.017 106.550,168.533 107.067 C 168.717 107.250,168.830 107.220,168.786 107.000 C 168.595 106.051,168.840 105.530,169.380 105.737 C 169.767 105.885,169.885 105.767,169.737 105.380 C 169.475 104.697,169.553 104.703,168.790 105.313 M155.703 129.512 C 155.738 129.970,155.909 130.256,156.083 130.149 C 156.257 130.041,156.400 130.173,156.400 130.443 C 156.400 130.713,156.508 130.825,156.641 130.693 C 156.773 130.560,156.602 130.053,156.261 129.566 C 155.653 128.698,155.642 128.697,155.703 129.512 M151.256 141.165 C 150.964 141.346,150.794 141.995,150.868 142.643 C 150.954 143.399,150.746 144.012,150.267 144.410 C 149.571 144.990,149.585 145.024,150.553 145.104 C 151.350 145.170,151.516 145.046,151.317 144.529 C 151.128 144.035,151.207 143.955,151.632 144.211 C 152.115 144.502,152.114 144.448,151.626 143.846 C 151.161 143.273,151.150 143.078,151.571 142.818 C 151.992 142.558,151.987 142.456,151.545 142.279 C 151.096 142.099,151.103 141.989,151.588 141.652 C 152.300 141.158,151.994 140.709,151.256 141.165 M148.184 150.027 C 148.039 150.261,148.022 150.555,148.146 150.679 C 148.270 150.803,148.192 151.242,147.972 151.653 C 147.715 152.132,147.712 152.400,147.962 152.400 C 148.478 152.400,148.950 151.613,149.104 150.500 C 149.231 149.572,148.650 149.272,148.184 150.027 M147.048 156.210 C 146.691 156.566,146.400 157.024,146.400 157.229 C 146.400 157.433,146.775 157.225,147.233 156.767 C 147.692 156.308,147.983 155.850,147.881 155.748 C 147.779 155.645,147.404 155.853,147.048 156.210 M143.681 199.982 C 144.233 200.866,144.622 200.755,144.262 199.817 C 144.132 199.478,143.838 199.200,143.609 199.200 C 143.346 199.200,143.372 199.487,143.681 199.982 M154.000 245.175 C 154.000 245.341,154.360 245.802,154.800 246.200 C 155.240 246.598,155.603 246.761,155.606 246.562 C 155.609 246.363,155.780 246.465,155.985 246.789 C 156.231 247.178,156.195 247.483,155.879 247.683 C 155.511 247.917,155.510 247.989,155.876 247.994 C 156.138 247.997,156.454 247.836,156.578 247.636 C 156.989 246.971,156.327 246.000,155.457 245.994 C 154.835 245.989,154.746 245.895,155.134 245.649 C 155.540 245.392,155.468 245.259,154.834 245.093 C 154.375 244.973,154.000 245.010,154.000 245.175 M156.418 249.634 C 156.664 250.093,156.944 250.389,157.042 250.292 C 157.322 250.012,156.754 248.800,156.343 248.800 C 156.139 248.800,156.173 249.175,156.418 249.634 M199.200 271.633 C 199.200 275.002,199.080 276.027,198.700 275.901 C 197.646 275.552,197.948 267.200,199.014 267.200 C 199.116 267.200,199.200 269.195,199.200 271.633 M172.749 274.305 C 172.997 274.767,173.543 275.255,173.963 275.388 C 174.384 275.522,174.969 275.928,175.264 276.290 C 175.736 276.871,175.704 276.914,175.000 276.651 C 174.358 276.412,174.299 276.452,174.700 276.856 C 175.047 277.206,175.328 277.232,175.617 276.943 C 175.907 276.653,175.464 276.058,174.167 274.994 C 172.866 273.928,172.436 273.719,172.749 274.305 M203.309 276.000 C 203.309 276.990,203.387 277.395,203.482 276.900 C 203.578 276.405,203.578 275.595,203.482 275.100 C 203.387 274.605,203.309 275.010,203.309 276.000 M197.717 282.300 C 197.505 288.618,197.503 288.634,196.768 288.180 C 195.797 287.580,196.783 276.400,197.807 276.400 C 197.867 276.400,197.826 279.055,197.717 282.300 M203.636 279.000 C 203.623 279.440,203.871 280.520,204.188 281.400 C 204.635 282.640,204.762 282.775,204.752 282.000 C 204.736 280.725,203.671 277.863,203.636 279.000 M205.200 284.956 C 205.200 285.042,205.556 285.897,205.991 286.856 C 206.898 288.856,207.095 288.281,206.220 286.187 C 205.733 285.019,205.200 284.377,205.200 284.956 M207.612 290.016 C 208.088 290.685,208.955 291.527,209.539 291.888 C 210.122 292.249,210.825 292.816,211.100 293.148 C 211.541 293.681,211.600 293.671,211.600 293.067 C 211.600 292.689,211.195 292.211,210.700 292.004 C 209.447 291.480,208.613 290.754,208.051 289.700 C 207.788 289.205,207.386 288.800,207.159 288.800 C 206.931 288.800,207.135 289.347,207.612 290.016 M191.632 293.090 C 191.614 293.359,192.185 293.876,192.900 294.238 C 194.199 294.897,194.199 294.897,193.400 294.100 C 192.960 293.661,192.480 293.370,192.334 293.454 C 192.188 293.537,191.977 293.379,191.866 293.102 C 191.712 292.720,191.656 292.717,191.632 293.090 " stroke="none" fill="#5cac54" fill-rule="evenodd"></path><path id="path1" d="M200.684 68.799 C 200.577 69.211,200.709 69.633,200.979 69.737 C 201.344 69.877,201.539 73.179,201.740 82.662 C 201.889 89.668,202.206 100.260,202.444 106.200 C 203.107 122.736,203.147 248.708,202.490 253.600 C 201.638 259.951,201.553 264.169,202.240 266.093 C 202.575 267.032,203.029 270.050,203.250 272.800 C 203.471 275.550,203.895 278.610,204.192 279.600 C 204.490 280.590,204.840 282.040,204.970 282.822 C 205.101 283.605,205.566 284.948,206.004 285.807 C 206.442 286.666,206.800 287.601,206.800 287.885 C 206.800 288.702,209.918 292.000,210.690 292.000 C 210.969 292.000,211.439 292.585,211.734 293.300 C 212.246 294.539,212.285 294.558,212.562 293.700 C 212.788 293.002,213.157 292.800,214.203 292.800 C 214.946 292.800,215.681 292.592,215.838 292.338 C 215.998 292.080,215.949 291.984,215.728 292.121 C 215.511 292.255,215.333 292.120,215.333 291.821 C 215.333 291.521,215.550 291.359,215.814 291.461 C 216.079 291.562,216.399 291.245,216.527 290.757 C 216.718 290.027,216.864 289.955,217.348 290.357 C 217.836 290.762,217.903 290.717,217.741 290.095 C 217.626 289.655,217.846 289.115,218.272 288.791 C 218.895 288.318,218.928 288.319,218.500 288.799 C 217.831 289.550,217.860 290.215,218.537 289.652 C 218.832 289.407,219.221 289.340,219.401 289.503 C 219.581 289.667,219.593 289.566,219.428 289.279 C 219.242 288.958,219.514 288.400,220.139 287.821 C 220.695 287.306,221.027 286.758,220.875 286.604 C 220.724 286.450,220.870 286.362,221.200 286.409 C 222.368 286.576,222.772 286.393,222.545 285.800 C 222.418 285.470,222.524 285.200,222.781 285.200 C 223.037 285.200,223.137 285.022,223.003 284.805 C 222.863 284.578,223.023 284.511,223.379 284.647 C 223.938 284.862,224.193 284.423,224.047 283.500 C 224.021 283.335,224.360 283.200,224.800 283.200 C 225.333 283.200,225.600 282.933,225.600 282.400 C 225.600 281.960,225.735 281.621,225.900 281.647 C 226.651 281.766,227.228 281.570,227.037 281.260 C 226.922 281.073,227.279 280.528,227.830 280.049 C 228.382 279.569,228.710 278.979,228.561 278.736 C 228.400 278.476,228.514 278.371,228.841 278.480 C 229.620 278.740,230.400 277.835,230.400 276.671 C 230.400 275.626,231.410 274.916,231.749 275.722 C 231.859 275.985,231.916 275.840,231.875 275.400 C 231.834 274.960,231.951 274.567,232.136 274.527 C 232.697 274.404,233.545 273.034,233.302 272.641 C 233.176 272.437,233.467 272.377,233.960 272.506 C 234.734 272.708,234.780 272.655,234.323 272.092 C 234.035 271.737,233.990 271.560,234.223 271.699 C 234.456 271.839,235.176 271.500,235.823 270.947 C 236.470 270.394,236.744 270.075,236.432 270.237 C 235.995 270.463,235.937 270.354,236.180 269.766 C 236.353 269.345,236.504 268.750,236.514 268.445 C 236.525 268.140,236.847 267.808,237.230 267.708 C 237.613 267.608,238.021 267.165,238.136 266.723 C 238.252 266.281,238.519 266.027,238.731 266.157 C 239.118 266.397,239.794 265.295,239.650 264.659 C 239.485 263.933,240.081 262.800,240.627 262.800 C 241.109 262.800,241.420 261.600,241.263 260.347 C 241.246 260.208,241.527 260.118,241.888 260.147 C 242.278 260.179,242.648 259.794,242.799 259.200 C 242.969 258.532,243.287 258.241,243.756 258.324 C 244.232 258.409,244.434 258.215,244.383 257.724 C 244.213 256.087,244.417 254.607,244.741 255.119 C 245.156 255.772,245.917 254.977,246.114 253.686 C 246.185 253.218,246.534 252.513,246.888 252.118 C 247.243 251.723,247.593 250.860,247.667 250.200 C 247.740 249.540,247.980 249.055,248.200 249.121 C 248.420 249.188,248.792 248.468,249.028 247.521 C 249.364 246.166,249.615 245.829,250.206 245.936 C 250.812 246.045,250.867 245.962,250.488 245.506 C 250.185 245.141,250.156 244.804,250.407 244.553 C 250.621 244.339,250.836 243.678,250.885 243.082 C 250.934 242.487,251.134 242.000,251.330 242.000 C 251.526 242.000,251.579 241.723,251.450 241.385 C 251.315 241.035,251.469 240.672,251.804 240.543 C 252.129 240.418,252.300 240.162,252.183 239.973 C 252.066 239.784,252.322 239.278,252.752 238.848 C 253.182 238.418,253.428 237.962,253.300 237.833 C 253.172 237.705,253.241 237.600,253.454 237.600 C 253.668 237.600,253.816 236.596,253.783 235.370 C 253.729 233.293,253.782 233.154,254.562 233.350 C 255.334 233.544,255.345 233.519,254.700 233.036 C 253.746 232.322,253.821 232.036,254.900 232.272 C 255.623 232.431,255.682 232.385,255.200 232.041 C 254.870 231.805,254.787 231.609,255.015 231.606 C 255.258 231.603,255.418 230.598,255.402 229.176 C 255.377 227.039,255.458 226.774,256.087 226.939 C 256.480 227.041,256.708 226.975,256.594 226.790 C 256.480 226.606,256.548 226.355,256.746 226.234 C 256.943 226.112,257.023 225.008,256.924 223.781 C 256.742 221.530,257.268 220.147,258.107 220.666 C 258.343 220.812,258.405 220.731,258.249 220.479 C 258.098 220.235,257.708 220.137,257.383 220.262 C 256.967 220.422,256.863 220.301,257.033 219.857 C 257.167 219.510,257.394 219.241,257.538 219.260 C 258.281 219.358,258.537 219.148,258.049 218.839 C 257.698 218.616,257.623 218.291,257.843 217.945 C 258.292 217.236,258.292 217.238,258.350 214.200 C 258.387 212.256,258.586 211.414,259.136 210.864 C 260.238 209.762,260.382 181.208,259.287 181.187 C 258.677 181.176,258.687 181.109,259.376 180.587 C 260.128 180.019,260.121 180.000,259.176 179.994 C 258.506 179.990,258.363 179.884,258.722 179.657 C 259.122 179.403,259.194 177.000,258.802 177.000 C 258.599 177.000,258.401 174.980,258.318 172.067 C 258.243 169.422,258.085 168.660,257.553 168.375 C 257.029 168.094,256.895 167.494,256.941 165.628 C 256.990 163.660,256.877 163.208,256.300 163.058 C 255.915 162.957,255.603 162.633,255.606 162.337 C 255.611 161.929,255.706 161.944,256.000 162.400 C 256.271 162.820,256.390 162.846,256.394 162.487 C 256.397 162.206,256.175 161.888,255.900 161.783 C 255.571 161.656,255.400 160.702,255.400 158.996 C 255.400 157.569,255.265 156.401,255.100 156.400 C 254.935 156.400,254.800 156.700,254.800 157.067 C 254.800 158.531,254.301 157.116,254.115 155.123 C 254.006 153.956,253.759 152.901,253.566 152.781 C 253.373 152.660,253.298 152.131,253.399 151.604 C 253.501 151.076,253.320 150.353,252.997 149.996 C 252.674 149.639,252.342 148.729,252.259 147.974 C 252.173 147.189,251.885 146.600,251.588 146.600 C 251.301 146.600,250.992 146.375,250.900 146.100 C 250.787 145.762,250.971 145.689,251.467 145.875 C 252.111 146.116,252.133 146.068,251.655 145.479 C 251.355 145.111,250.975 144.892,250.811 144.993 C 250.647 145.095,250.561 144.732,250.621 144.187 C 250.681 143.642,250.566 143.298,250.365 143.422 C 250.164 143.546,249.997 143.322,249.994 142.924 C 249.989 142.310,249.929 142.291,249.600 142.800 C 249.231 143.372,249.127 142.575,249.096 138.921 C 249.092 138.438,248.834 137.945,248.523 137.826 C 248.211 137.706,248.068 137.786,248.203 138.005 C 248.337 138.222,248.257 138.400,248.024 138.400 C 247.460 138.400,247.487 137.873,248.080 137.280 C 248.453 136.907,248.453 136.800,248.080 136.800 C 247.813 136.800,247.600 136.267,247.600 135.600 C 247.600 134.780,247.403 134.400,246.976 134.400 C 246.633 134.400,246.455 134.235,246.579 134.034 C 246.703 133.833,246.630 133.608,246.415 133.534 C 246.201 133.460,245.982 132.820,245.928 132.110 C 245.875 131.401,245.590 130.728,245.295 130.615 C 244.955 130.485,244.861 130.591,245.038 130.905 C 245.231 131.247,245.182 131.276,244.878 130.999 C 244.636 130.779,244.393 129.924,244.337 129.099 C 244.246 127.740,243.985 127.413,243.100 127.553 C 242.811 127.598,242.687 126.975,242.693 125.500 C 242.695 125.115,242.463 124.800,242.179 124.800 C 241.895 124.800,241.448 124.125,241.187 123.300 C 240.926 122.475,240.444 121.587,240.116 121.327 C 239.788 121.066,239.639 120.660,239.785 120.424 C 240.099 119.916,239.174 118.875,238.584 119.072 C 238.359 119.147,238.135 118.711,238.087 118.104 C 238.038 117.497,237.729 116.800,237.399 116.556 C 237.070 116.312,236.800 115.898,236.800 115.638 C 236.800 115.377,236.395 114.745,235.900 114.233 C 234.927 113.228,234.681 112.667,234.632 111.351 C 234.613 110.844,234.399 110.579,234.100 110.694 C 233.825 110.799,233.600 110.676,233.600 110.419 C 233.600 110.163,233.422 110.063,233.205 110.197 C 232.978 110.337,232.911 110.177,233.046 109.823 C 233.201 109.421,232.979 109.093,232.412 108.883 C 231.933 108.705,231.554 108.434,231.570 108.280 C 231.661 107.423,231.558 107.179,231.197 107.402 C 230.976 107.539,230.706 107.369,230.597 107.025 C 229.962 105.010,229.963 105.012,229.635 105.543 C 229.315 106.062,228.615 103.977,228.757 102.929 C 228.793 102.670,228.412 102.396,227.911 102.320 C 227.410 102.243,227.045 101.960,227.100 101.691 C 227.191 101.246,227.036 101.172,226.100 101.213 C 225.935 101.221,225.710 100.585,225.600 99.800 C 225.490 99.015,225.268 98.424,225.108 98.487 C 224.733 98.632,223.370 96.713,223.519 96.251 C 223.582 96.059,223.346 96.012,222.996 96.146 C 222.612 96.294,222.460 96.227,222.614 95.978 C 222.996 95.359,222.034 94.412,221.306 94.691 C 220.812 94.881,220.722 94.742,220.898 94.067 C 221.118 93.227,220.996 93.131,219.600 93.039 C 219.270 93.017,219.000 92.729,219.000 92.399 C 219.000 92.070,218.673 91.667,218.274 91.503 C 217.875 91.340,217.653 91.038,217.780 90.832 C 217.907 90.626,217.668 90.349,217.249 90.216 C 216.830 90.082,216.394 89.619,216.281 89.187 C 216.160 88.725,215.734 88.400,215.250 88.400 C 214.705 88.400,214.498 88.209,214.641 87.836 C 214.769 87.503,214.537 87.170,214.072 87.023 C 213.640 86.886,213.188 86.396,213.067 85.935 C 212.921 85.377,212.639 85.176,212.224 85.335 C 211.734 85.524,211.600 85.282,211.600 84.211 C 211.600 82.624,211.029 82.074,210.437 83.092 C 210.068 83.724,209.748 82.210,209.939 80.741 C 209.957 80.599,209.644 80.568,209.243 80.673 C 208.467 80.876,207.724 78.770,208.264 77.897 C 208.407 77.666,208.336 77.592,208.107 77.734 C 207.651 78.015,206.667 77.067,207.034 76.700 C 207.158 76.575,206.870 76.349,206.394 76.198 C 205.789 76.006,205.587 75.693,205.726 75.161 C 205.836 74.743,205.741 74.400,205.516 74.400 C 205.291 74.400,205.201 74.040,205.316 73.600 C 205.449 73.092,205.328 72.800,204.986 72.800 C 204.239 72.800,203.888 72.117,204.455 71.766 C 204.767 71.573,204.816 71.651,204.600 72.000 C 204.373 72.368,204.432 72.428,204.799 72.201 C 205.189 71.960,205.044 71.677,204.228 71.082 C 203.467 70.528,203.283 70.196,203.621 69.987 C 203.989 69.760,203.948 69.461,203.453 68.755 C 203.094 68.242,202.800 68.038,202.800 68.301 C 202.800 68.642,202.522 68.675,201.840 68.415 C 201.059 68.118,200.844 68.190,200.684 68.799 M188.887 81.459 C 188.793 82.589,189.414 82.695,189.976 81.644 C 190.296 81.048,190.232 80.849,189.673 80.703 C 189.156 80.568,188.944 80.773,188.887 81.459 M187.304 82.335 C 186.971 82.541,187.052 82.765,187.578 83.093 C 188.176 83.467,188.307 83.447,188.240 82.991 C 188.122 82.189,187.850 81.998,187.304 82.335 M185.334 85.493 C 184.638 86.212,184.199 86.800,184.359 86.800 C 184.731 86.800,186.999 84.446,186.771 84.297 C 186.677 84.236,186.030 84.774,185.334 85.493 M181.841 88.867 C 181.955 89.050,181.632 89.203,181.124 89.206 C 180.381 89.211,180.317 89.288,180.800 89.600 C 181.655 90.153,181.920 90.096,182.364 89.267 C 182.658 88.718,182.616 88.533,182.196 88.533 C 181.888 88.533,181.728 88.683,181.841 88.867 M179.643 91.066 C 180.141 91.677,180.115 91.718,179.400 91.451 C 178.790 91.223,178.710 91.264,179.065 91.621 C 179.535 92.095,180.400 91.835,180.400 91.219 C 180.400 91.036,180.105 90.772,179.743 90.634 C 179.170 90.413,179.157 90.468,179.643 91.066 M175.646 96.300 C 175.621 96.575,175.285 96.805,174.900 96.812 C 174.251 96.823,174.254 96.855,174.930 97.249 C 175.811 97.761,176.136 97.516,175.882 96.531 C 175.778 96.129,175.672 96.025,175.646 96.300 M171.778 100.035 C 171.631 100.274,171.718 100.678,171.972 100.932 C 172.473 101.433,173.335 100.542,172.950 99.919 C 172.670 99.467,172.094 99.524,171.778 100.035 M170.098 103.066 C 169.467 103.320,169.850 104.000,170.624 104.000 C 170.941 104.000,171.200 103.730,171.200 103.400 C 171.200 102.783,170.971 102.714,170.098 103.066 M165.600 110.224 C 165.600 110.593,165.412 110.731,165.138 110.562 C 164.852 110.385,164.785 110.452,164.962 110.738 C 165.372 111.403,165.738 111.311,166.307 110.400 C 166.724 109.733,166.707 109.600,166.203 109.600 C 165.872 109.600,165.600 109.881,165.600 110.224 M160.716 117.873 C 160.819 118.414,161.048 118.708,161.223 118.528 C 161.829 117.906,161.798 117.106,161.164 116.998 C 160.687 116.917,160.575 117.135,160.716 117.873 M159.750 120.157 C 159.956 120.739,159.901 120.816,159.509 120.491 C 159.122 120.170,158.986 120.305,158.941 121.056 C 158.898 121.772,159.062 122.008,159.536 121.917 C 160.359 121.758,160.637 120.465,159.979 119.858 C 159.593 119.502,159.542 119.569,159.750 120.157 M155.969 126.300 C 155.953 126.465,155.878 126.915,155.805 127.300 C 155.657 128.070,155.814 128.109,157.000 127.600 C 157.738 127.283,157.722 127.252,156.800 127.197 C 156.250 127.164,156.025 127.046,156.300 126.935 C 156.575 126.824,156.800 126.568,156.800 126.367 C 156.800 125.930,156.014 125.867,155.969 126.300 M152.962 134.338 C 153.121 134.596,153.016 134.805,152.724 134.812 C 152.404 134.820,152.477 134.985,152.908 135.237 C 153.308 135.469,153.492 135.856,153.332 136.125 C 153.175 136.386,153.379 136.330,153.786 136.000 C 154.453 135.458,154.460 135.387,153.857 135.270 C 153.490 135.198,153.285 134.986,153.402 134.797 C 153.518 134.609,153.402 134.325,153.145 134.166 C 152.852 133.985,152.784 134.050,152.962 134.338 M149.846 144.186 C 149.096 145.331,149.049 145.600,149.600 145.600 C 149.820 145.600,149.955 145.375,149.900 145.100 C 149.845 144.825,149.986 144.632,150.214 144.671 C 150.442 144.711,150.629 144.396,150.629 143.971 C 150.629 142.999,150.623 143.001,149.846 144.186 M146.767 154.100 C 146.337 155.408,146.455 156.354,147.021 156.137 C 147.528 155.942,147.555 155.819,147.145 155.566 C 146.739 155.315,146.776 155.184,147.309 154.980 C 147.686 154.835,147.896 154.555,147.774 154.358 C 147.575 154.036,146.849 153.850,146.767 154.100 M144.201 171.596 C 144.062 172.034,144.061 172.574,144.198 172.796 C 144.335 173.018,144.272 173.200,144.057 173.200 C 143.842 173.200,143.591 173.065,143.499 172.900 C 143.407 172.735,143.384 172.819,143.448 173.087 C 143.512 173.355,143.393 173.681,143.183 173.811 C 142.418 174.283,142.781 175.400,143.700 175.400 C 144.525 175.400,144.603 175.209,144.632 173.100 C 144.667 170.620,144.593 170.361,144.201 171.596 M259.070 176.900 C 259.245 177.175,259.391 177.520,259.394 177.667 C 259.397 177.813,259.521 178.055,259.670 178.203 C 259.818 178.352,259.877 178.142,259.801 177.737 C 259.724 177.331,259.647 176.865,259.631 176.700 C 259.614 176.535,259.409 176.400,259.176 176.400 C 258.935 176.400,258.889 176.615,259.070 176.900 M142.832 210.543 C 142.810 211.045,142.995 211.211,143.400 211.055 C 143.730 210.929,144.000 211.010,144.000 211.236 C 144.000 211.462,144.183 211.534,144.407 211.396 C 144.978 211.043,144.434 210.302,143.785 210.550 C 143.492 210.663,143.164 210.540,143.057 210.278 C 142.951 210.015,142.849 210.134,142.832 210.543 M143.288 212.065 C 143.465 212.595,144.800 212.898,144.800 212.407 C 144.800 212.230,144.515 211.976,144.167 211.843 C 143.268 211.498,143.112 211.537,143.288 212.065 M145.273 220.887 C 144.603 221.557,144.682 221.909,145.617 222.409 C 146.349 222.801,146.420 222.742,146.299 221.838 C 146.125 220.543,145.862 220.298,145.273 220.887 M146.748 225.737 C 146.993 226.032,147.106 226.394,147.000 226.540 C 146.894 226.687,147.005 226.641,147.248 226.438 C 147.739 226.029,147.391 225.200,146.727 225.200 C 146.437 225.200,146.443 225.370,146.748 225.737 M147.850 229.919 C 147.600 230.324,148.055 230.972,148.675 231.092 C 148.935 231.142,149.122 230.827,149.089 230.392 C 149.030 229.608,148.231 229.303,147.850 229.919 M152.040 237.900 C 152.018 238.175,151.782 238.355,151.516 238.300 C 151.250 238.245,151.005 238.600,150.971 239.090 C 150.938 239.579,151.068 239.881,151.262 239.762 C 151.455 239.642,151.491 239.332,151.342 239.072 C 151.194 238.813,151.225 238.740,151.413 238.910 C 151.962 239.410,152.076 240.894,151.539 240.563 C 151.252 240.385,151.185 240.452,151.362 240.738 C 152.137 241.992,152.882 240.248,152.362 238.400 C 152.207 237.850,152.062 237.625,152.040 237.900 M158.959 256.067 C 158.761 256.387,159.071 256.547,159.700 256.447 C 159.865 256.421,160.023 256.580,160.050 256.800 C 160.078 257.020,160.123 257.365,160.150 257.567 C 160.178 257.768,160.329 258.063,160.487 258.221 C 160.646 258.379,160.676 258.079,160.555 257.554 C 160.435 257.029,160.320 256.405,160.301 256.167 C 160.261 255.658,159.258 255.583,158.959 256.067 M162.300 259.876 C 161.915 259.976,161.600 260.245,161.600 260.472 C 161.600 260.700,161.861 260.786,162.180 260.663 C 162.567 260.515,162.685 260.633,162.537 261.020 C 162.379 261.432,162.606 261.600,163.320 261.600 C 164.248 261.600,164.289 261.524,163.862 260.603 C 163.608 260.055,163.310 259.626,163.200 259.650 C 163.090 259.673,162.685 259.775,162.300 259.876 M165.039 264.829 C 165.086 265.505,165.248 266.180,165.400 266.329 C 165.552 266.478,165.614 266.297,165.538 265.926 C 165.462 265.556,165.580 265.259,165.800 265.266 C 166.020 265.274,166.151 265.455,166.090 265.670 C 166.030 265.884,166.178 265.937,166.420 265.788 C 166.755 265.581,165.475 263.600,165.007 263.600 C 164.978 263.600,164.992 264.153,165.039 264.829 M177.881 280.813 C 177.756 281.289,177.769 281.564,177.909 281.424 C 178.049 281.284,178.498 281.761,178.906 282.485 C 179.315 283.208,179.525 283.440,179.373 283.000 C 179.221 282.560,179.063 281.882,179.022 281.494 C 178.895 280.288,178.136 279.836,177.881 280.813 M179.606 282.071 C 179.603 282.441,179.873 283.016,180.207 283.350 C 180.541 283.684,180.766 284.102,180.707 284.279 C 180.648 284.455,180.690 284.615,180.800 284.632 C 181.703 284.779,182.839 285.729,182.421 285.987 C 182.063 286.208,182.107 286.356,182.587 286.540 C 182.970 286.686,183.140 286.627,182.997 286.395 C 182.863 286.178,182.927 286.000,183.141 286.000 C 183.597 286.000,183.509 284.962,183.014 284.512 C 182.826 284.340,182.801 284.425,182.959 284.700 C 183.484 285.612,182.449 285.217,181.428 284.116 C 180.789 283.428,180.580 282.936,180.854 282.766 C 181.160 282.577,181.157 282.421,180.843 282.226 C 180.599 282.076,180.397 282.098,180.394 282.276 C 180.391 282.454,180.213 282.330,180.000 282.000 C 179.665 281.482,179.611 281.492,179.606 282.071 " stroke="none" fill="#4b9c4b" fill-rule="evenodd"></path><path id="path2" d="M201.020 276.368 C 200.895 276.570,200.604 278.685,200.374 281.068 C 200.145 283.451,199.795 285.940,199.598 286.600 C 199.400 287.260,199.038 288.970,198.793 290.400 C 198.258 293.522,196.792 296.000,195.479 296.000 C 194.539 296.000,194.061 297.343,194.832 297.820 C 195.042 297.949,195.092 298.251,194.945 298.489 C 194.791 298.738,194.861 298.809,195.109 298.656 C 195.703 298.289,196.104 299.728,196.211 302.600 C 196.328 305.762,196.317 305.718,196.943 305.477 C 197.580 305.233,197.724 307.710,197.669 318.000 C 197.627 325.895,198.075 327.142,201.000 327.258 C 203.435 327.355,203.590 327.383,203.630 327.738 C 203.650 327.919,203.533 328.187,203.369 328.333 C 203.206 328.480,203.218 328.347,203.398 328.038 C 203.619 327.657,203.573 327.570,203.255 327.766 C 202.309 328.351,203.307 328.800,205.524 328.787 C 208.351 328.771,209.639 327.995,208.873 326.769 C 208.336 325.908,208.201 301.096,208.738 301.838 C 209.354 302.689,209.956 302.349,209.814 301.230 C 209.610 299.616,210.235 297.110,210.978 296.567 C 211.816 295.954,211.768 294.437,210.900 294.115 C 207.709 292.928,202.800 284.130,202.800 279.599 C 202.800 276.831,201.826 275.064,201.020 276.368 M198.287 323.895 C 198.195 324.503,198.117 324.100,198.114 323.000 C 198.111 321.900,198.187 321.403,198.282 321.895 C 198.377 322.386,198.379 323.286,198.287 323.895 " stroke="none" fill="#a4a484" fill-rule="evenodd"></path><path id="path3" d="M201.600 65.147 C 201.600 65.364,201.285 65.605,200.900 65.682 C 200.321 65.799,200.304 65.865,200.802 66.062 C 201.511 66.342,202.600 65.371,201.996 64.998 C 201.778 64.863,201.600 64.930,201.600 65.147 M202.000 66.357 C 202.000 66.554,201.721 66.822,201.379 66.953 C 201.023 67.089,200.863 67.022,201.003 66.795 C 201.137 66.578,201.057 66.400,200.824 66.400 C 200.591 66.400,200.400 66.586,200.400 66.814 C 200.400 67.080,200.078 67.057,199.500 66.749 C 198.741 66.344,198.667 66.358,199.026 66.835 C 199.587 67.581,199.456 70.115,198.845 70.318 C 198.517 70.428,198.444 70.164,198.615 69.483 C 198.880 68.426,198.253 67.667,197.766 68.455 C 197.572 68.769,197.651 68.816,198.006 68.596 C 198.405 68.350,198.463 68.458,198.238 69.034 C 197.897 69.912,197.889 69.966,197.953 70.869 C 197.980 71.260,198.590 71.733,199.418 72.006 C 200.598 72.395,200.755 72.572,200.352 73.058 C 199.682 73.865,199.751 80.218,200.438 81.046 C 200.855 81.549,200.991 91.980,201.130 134.429 C 201.274 178.485,201.393 187.262,201.851 187.643 C 202.671 188.323,202.667 236.697,201.847 237.356 C 201.058 237.990,200.539 263.492,201.295 264.521 C 201.717 265.095,201.806 264.665,201.838 261.904 C 201.859 260.087,202.129 256.440,202.438 253.800 C 203.141 247.791,203.145 123.774,202.442 106.200 C 202.205 100.260,201.889 89.668,201.740 82.662 C 201.539 73.179,201.344 69.877,200.979 69.737 C 200.709 69.633,200.577 69.211,200.684 68.799 C 200.844 68.190,201.059 68.118,201.840 68.415 C 202.447 68.646,202.800 68.637,202.800 68.390 C 202.800 68.176,202.617 68.000,202.392 68.000 C 202.157 68.000,202.091 67.577,202.236 67.000 C 202.374 66.450,202.377 66.000,202.243 66.000 C 202.110 66.000,202.000 66.161,202.000 66.357 M204.239 71.938 C 204.100 72.161,204.182 72.465,204.420 72.612 C 205.035 72.993,205.432 72.472,204.918 71.958 C 204.631 71.671,204.407 71.664,204.239 71.938 M197.094 72.239 C 196.963 72.371,196.966 72.776,197.102 73.139 C 197.305 73.680,197.243 73.713,196.758 73.320 C 196.276 72.929,196.156 72.986,196.108 73.629 C 196.075 74.063,196.179 74.337,196.338 74.238 C 196.498 74.139,196.629 74.401,196.629 74.819 C 196.629 75.238,196.388 75.673,196.094 75.786 C 195.799 75.898,195.668 75.813,195.803 75.595 C 195.937 75.378,195.846 75.200,195.600 75.200 C 195.354 75.200,195.281 74.992,195.438 74.738 C 195.621 74.443,195.547 74.385,195.235 74.578 C 194.967 74.744,194.842 74.976,194.959 75.093 C 195.076 75.210,194.994 75.637,194.777 76.044 C 194.452 76.651,194.502 76.736,195.056 76.523 C 195.512 76.348,195.637 76.416,195.442 76.732 C 195.283 76.989,194.848 77.211,194.476 77.225 C 194.004 77.243,194.083 77.364,194.737 77.626 C 195.873 78.081,196.400 77.812,196.400 76.776 C 196.400 76.349,196.591 76.000,196.824 76.000 C 197.057 76.000,197.133 76.225,196.993 76.500 C 196.853 76.775,197.113 76.575,197.570 76.056 C 198.026 75.536,198.402 74.816,198.405 74.456 C 198.408 74.095,198.519 73.395,198.652 72.900 C 198.886 72.028,197.776 71.557,197.094 72.239 M205.733 75.382 C 205.733 75.703,205.883 75.872,206.067 75.759 C 206.250 75.645,206.400 75.773,206.400 76.043 C 206.400 76.313,206.494 76.439,206.609 76.324 C 206.882 76.051,206.401 74.800,206.024 74.800 C 205.864 74.800,205.733 75.062,205.733 75.382 M193.071 78.640 C 193.253 79.116,193.187 79.239,192.859 79.036 C 191.957 78.479,189.957 79.671,190.736 80.303 C 191.331 80.785,191.307 80.816,190.508 80.596 C 190.018 80.462,189.298 80.545,188.908 80.781 C 188.336 81.129,188.419 81.161,189.343 80.951 C 190.412 80.708,190.457 80.747,190.029 81.546 C 189.516 82.505,188.967 82.648,188.665 81.900 C 188.477 81.434,188.233 82.585,188.363 83.330 C 188.394 83.511,188.232 83.544,188.003 83.402 C 187.774 83.261,187.683 82.990,187.800 82.800 C 187.917 82.610,187.802 82.325,187.545 82.166 C 187.252 81.985,187.184 82.050,187.362 82.338 C 187.519 82.592,187.462 82.800,187.236 82.800 C 187.010 82.800,186.919 83.045,187.034 83.344 C 187.280 83.985,185.485 86.239,184.257 86.832 C 183.487 87.203,183.498 87.160,184.357 86.413 C 184.883 85.955,185.200 85.466,185.061 85.327 C 184.922 85.188,184.365 85.553,183.823 86.137 C 183.281 86.722,182.639 87.200,182.395 87.200 C 182.152 87.200,182.064 87.380,182.200 87.600 C 182.336 87.820,182.627 88.000,182.847 88.000 C 183.067 88.000,183.119 87.792,182.962 87.538 C 182.786 87.253,182.852 87.185,183.134 87.359 C 183.754 87.742,182.020 90.093,181.317 89.823 C 181.033 89.714,180.800 89.812,180.800 90.040 C 180.800 90.267,180.470 90.349,180.067 90.221 C 179.627 90.081,179.318 90.191,179.296 90.494 C 179.275 90.772,179.127 91.433,178.966 91.963 C 178.799 92.514,178.829 92.829,179.037 92.701 C 179.237 92.577,179.400 92.913,179.400 93.446 C 179.400 94.163,179.296 94.283,179.000 93.907 C 178.536 93.319,177.092 93.101,177.445 93.673 C 177.735 94.142,175.219 96.459,174.742 96.164 C 174.554 96.048,174.400 96.143,174.400 96.376 C 174.400 96.970,175.490 96.907,175.735 96.300 C 175.846 96.025,175.951 96.224,175.968 96.743 C 175.991 97.423,175.833 97.621,175.400 97.455 C 175.043 97.318,174.780 97.463,174.750 97.813 C 174.649 98.999,174.591 99.169,174.130 99.630 C 173.769 99.991,173.687 99.853,173.776 99.041 C 173.840 98.458,173.736 97.884,173.546 97.767 C 173.356 97.649,173.177 97.788,173.149 98.076 C 173.122 98.364,173.059 98.960,173.010 99.400 C 172.961 99.840,172.894 100.526,172.860 100.924 C 172.827 101.322,172.640 101.549,172.445 101.428 C 172.250 101.307,171.906 101.432,171.679 101.704 C 171.247 102.225,171.200 102.397,171.200 103.447 C 171.200 103.907,170.958 104.030,170.359 103.873 C 169.625 103.682,169.538 103.799,169.683 104.785 C 169.803 105.600,169.702 105.861,169.325 105.716 C 168.858 105.537,168.616 106.037,168.753 106.900 C 168.779 107.065,168.665 107.179,168.500 107.153 C 167.543 107.001,166.400 107.260,166.400 107.627 C 166.400 107.871,166.786 107.956,167.300 107.825 L 168.200 107.596 167.300 108.059 C 166.805 108.314,166.400 108.694,166.400 108.904 C 166.400 109.114,166.121 109.178,165.779 109.047 C 165.438 108.916,165.261 108.975,165.386 109.177 C 165.511 109.379,165.427 109.660,165.200 109.800 C 164.973 109.940,164.884 110.212,165.002 110.403 C 165.120 110.595,164.718 111.244,164.109 111.847 C 163.499 112.449,163.319 112.704,163.710 112.414 C 164.100 112.124,164.523 111.989,164.649 112.115 C 164.775 112.241,164.518 112.569,164.079 112.844 C 163.639 113.118,163.370 113.576,163.479 113.862 C 163.591 114.153,163.228 114.587,162.652 114.849 C 162.087 115.106,161.721 115.472,161.838 115.662 C 161.955 115.851,162.306 115.751,162.618 115.439 C 162.931 115.127,163.529 114.961,163.948 115.070 C 164.367 115.180,164.820 115.091,164.955 114.872 C 165.100 114.637,164.832 114.546,164.301 114.649 C 163.461 114.811,163.466 114.794,164.371 114.398 C 164.905 114.164,165.715 113.915,166.171 113.844 C 166.808 113.744,167.000 113.420,167.000 112.446 C 167.000 111.749,167.270 111.010,167.600 110.804 C 167.930 110.598,168.200 110.275,168.200 110.086 C 168.200 109.897,168.515 109.428,168.900 109.043 C 169.285 108.658,169.600 108.075,169.600 107.748 C 169.600 107.400,169.792 107.271,170.062 107.438 C 170.350 107.616,170.415 107.548,170.234 107.255 C 170.075 106.998,169.777 106.891,169.572 107.017 C 169.368 107.144,169.200 107.057,169.200 106.824 C 169.200 106.591,169.470 106.400,169.800 106.400 C 170.130 106.400,170.400 106.209,170.400 105.976 C 170.400 105.743,170.579 105.664,170.798 105.799 C 171.017 105.934,171.404 105.591,171.657 105.035 C 171.910 104.480,172.226 104.092,172.358 104.174 C 172.491 104.256,172.626 103.890,172.658 103.360 C 172.761 101.636,173.128 101.123,174.048 101.415 C 174.618 101.596,174.810 101.540,174.629 101.246 C 174.479 101.004,174.808 100.355,175.360 99.803 C 175.912 99.252,176.260 98.800,176.133 98.800 C 176.006 98.800,176.103 98.558,176.348 98.263 C 176.593 97.968,176.665 97.598,176.509 97.442 C 176.352 97.286,176.525 97.273,176.892 97.414 C 177.395 97.607,177.638 97.367,177.880 96.433 C 178.056 95.753,178.380 95.179,178.600 95.159 C 179.283 95.095,180.480 94.346,180.256 94.123 C 180.140 94.006,180.590 93.452,181.257 92.891 C 181.923 92.330,182.633 91.439,182.834 90.911 C 183.034 90.384,183.379 90.063,183.599 90.200 C 183.820 90.336,184.000 90.232,184.000 89.969 C 184.000 89.707,184.405 89.099,184.900 88.620 C 185.395 88.141,186.032 87.400,186.315 86.974 C 186.598 86.548,186.705 86.453,186.553 86.762 C 186.373 87.128,186.437 87.224,186.738 87.038 C 186.992 86.881,187.200 86.513,187.200 86.220 C 187.200 85.927,187.657 85.572,188.216 85.432 C 188.775 85.291,189.124 85.000,188.991 84.785 C 188.858 84.569,189.165 84.226,189.674 84.022 C 190.183 83.818,190.344 83.639,190.030 83.625 C 189.621 83.607,189.714 83.330,190.360 82.643 C 191.029 81.931,191.123 81.632,190.729 81.475 C 190.389 81.338,190.459 81.252,190.927 81.232 C 191.467 81.208,191.589 80.995,191.400 80.400 C 191.249 79.923,191.328 79.600,191.597 79.600 C 191.844 79.600,191.944 79.768,191.817 79.972 C 191.264 80.867,194.139 81.396,194.857 80.532 C 195.083 80.259,195.136 79.819,194.973 79.556 C 194.777 79.239,194.846 79.181,195.177 79.386 C 195.522 79.599,195.633 79.463,195.535 78.947 C 195.438 78.435,194.986 78.161,194.100 78.075 C 193.014 77.970,192.848 78.061,193.071 78.640 M185.900 84.032 C 185.515 84.256,185.200 84.611,185.200 84.820 C 185.200 85.463,185.781 85.242,186.307 84.400 C 186.876 83.490,186.858 83.474,185.900 84.032 M169.826 102.758 C 169.704 102.955,169.883 103.223,170.223 103.354 C 170.563 103.484,170.741 103.428,170.618 103.230 C 170.495 103.031,170.621 102.777,170.898 102.666 C 171.210 102.540,171.144 102.451,170.724 102.432 C 170.352 102.414,169.948 102.561,169.826 102.758 M168.267 104.267 C 167.781 104.753,167.990 105.200,168.700 105.194 C 169.248 105.189,169.281 105.113,168.855 104.842 C 168.394 104.551,168.394 104.463,168.855 104.280 C 169.155 104.161,169.205 104.049,168.967 104.032 C 168.728 104.014,168.413 104.120,168.267 104.267 M229.121 105.097 C 229.237 105.703,229.408 105.974,229.500 105.698 C 229.593 105.421,229.803 105.278,229.967 105.380 C 230.132 105.482,230.267 105.303,230.267 104.982 C 230.267 104.662,230.178 104.488,230.070 104.597 C 229.962 104.705,229.657 104.613,229.392 104.393 C 229.029 104.092,228.962 104.266,229.121 105.097 M166.563 110.200 C 165.783 111.391,165.193 111.512,165.478 110.421 C 165.590 109.993,165.979 109.564,166.341 109.468 C 166.703 109.372,167.049 109.272,167.109 109.246 C 167.169 109.221,166.924 109.650,166.563 110.200 M233.811 110.706 C 234.037 110.868,234.430 111.450,234.684 112.000 C 234.938 112.550,235.158 112.763,235.173 112.474 C 235.215 111.663,234.428 110.399,233.886 110.406 C 233.572 110.410,233.546 110.516,233.811 110.706 M162.800 116.013 C 162.800 116.226,162.530 116.400,162.200 116.400 C 161.870 116.400,161.600 116.591,161.600 116.824 C 161.600 117.057,161.432 117.144,161.228 117.017 C 161.023 116.891,160.748 116.960,160.617 117.173 C 160.485 117.386,160.730 117.490,161.164 117.407 C 162.074 117.232,163.000 118.153,162.586 118.822 C 162.379 119.158,162.536 119.155,163.178 118.812 C 163.879 118.437,163.958 118.231,163.577 117.772 C 163.239 117.364,163.231 117.200,163.551 117.200 C 164.217 117.200,164.096 116.122,163.400 115.855 C 163.070 115.729,162.800 115.799,162.800 116.013 M160.226 118.357 C 160.076 118.601,160.094 119.025,160.266 119.300 C 160.951 120.392,159.206 123.400,157.888 123.400 C 157.656 123.400,157.393 123.670,157.303 124.000 C 157.172 124.478,157.216 124.491,157.514 124.066 C 158.052 123.301,158.217 123.311,159.160 124.164 C 160.109 125.023,160.322 124.943,160.518 123.657 C 160.594 123.164,160.913 122.443,161.228 122.052 C 161.851 121.280,162.024 120.775,162.242 119.100 C 162.385 117.995,161.884 117.616,161.374 118.443 C 161.178 118.759,161.014 118.747,160.800 118.400 C 160.586 118.053,160.422 118.041,160.226 118.357 M158.042 124.766 C 157.735 124.960,157.592 125.403,157.725 125.749 C 157.867 126.120,157.686 126.543,157.283 126.777 C 156.894 127.004,156.815 127.181,157.100 127.188 C 157.375 127.195,157.555 127.417,157.500 127.682 C 157.445 127.947,157.580 128.175,157.800 128.188 C 158.020 128.201,158.425 128.355,158.700 128.530 C 159.503 129.039,159.277 128.504,158.300 127.581 C 157.450 126.779,157.445 126.739,158.200 126.866 C 158.829 126.971,158.973 126.808,158.875 126.103 C 158.775 125.382,158.893 125.260,159.475 125.481 C 160.154 125.738,160.157 125.712,159.529 125.078 C 158.754 124.296,158.777 124.300,158.042 124.766 M156.428 127.924 C 156.413 128.212,156.220 128.336,156.000 128.200 C 155.780 128.064,155.600 128.143,155.600 128.376 C 155.600 128.609,155.904 128.800,156.276 128.800 C 156.868 128.800,156.855 128.876,156.176 129.406 C 155.740 129.746,155.641 129.965,155.950 129.906 C 156.253 129.848,156.554 130.030,156.620 130.310 C 156.686 130.590,156.649 130.637,156.538 130.413 C 156.406 130.148,156.086 130.140,155.620 130.389 C 155.227 130.600,154.782 130.649,154.631 130.498 C 154.481 130.348,154.488 130.563,154.647 130.978 C 154.840 131.482,154.790 131.641,154.493 131.457 C 154.200 131.276,154.111 131.518,154.229 132.172 C 154.351 132.845,154.120 133.430,153.504 134.005 C 152.735 134.724,152.714 134.806,153.366 134.557 C 153.900 134.352,154.044 134.405,153.842 134.732 C 153.683 134.989,153.765 135.200,154.025 135.200 C 154.378 135.200,154.371 135.353,154.000 135.800 C 153.726 136.130,153.279 136.400,153.006 136.400 C 152.714 136.400,152.555 136.812,152.620 137.400 C 152.680 137.950,152.579 138.400,152.394 138.400 C 152.210 138.400,151.976 138.715,151.876 139.100 C 151.707 139.747,151.689 139.745,151.646 139.076 C 151.621 138.678,151.411 138.469,151.181 138.612 C 150.894 138.789,150.911 139.052,151.234 139.441 C 151.592 139.872,151.839 139.900,152.253 139.556 C 152.678 139.203,152.800 139.249,152.800 139.764 C 152.800 140.489,153.735 141.011,154.351 140.630 C 154.594 140.480,154.607 139.922,154.385 139.147 C 154.084 138.099,154.167 137.793,154.914 137.188 C 155.774 136.492,156.249 134.000,155.522 134.000 C 155.341 134.000,155.418 133.640,155.693 133.200 C 155.968 132.760,156.465 132.400,156.799 132.400 C 157.273 132.400,157.374 132.005,157.262 130.597 C 157.141 129.075,157.219 128.832,157.759 129.040 C 158.112 129.175,158.400 129.102,158.400 128.878 C 158.400 128.654,158.085 128.519,157.700 128.578 C 157.315 128.637,156.878 128.396,156.728 128.043 C 156.555 127.634,156.446 127.590,156.428 127.924 M247.784 137.627 C 247.639 137.861,247.616 138.149,247.733 138.267 C 248.020 138.553,248.800 138.048,248.800 137.576 C 248.800 137.065,248.109 137.099,247.784 137.627 M150.800 140.643 C 150.800 140.951,151.052 141.078,151.400 140.945 C 152.121 140.668,152.214 141.433,151.500 141.767 C 151.103 141.952,151.102 142.048,151.496 142.232 C 152.033 142.483,151.163 143.669,150.521 143.560 C 149.721 143.424,149.333 143.650,149.333 144.253 C 149.333 144.848,149.376 144.847,149.822 144.237 C 150.272 143.622,150.363 143.620,150.956 144.213 C 151.793 145.050,151.772 145.338,150.888 145.107 C 149.929 144.856,149.379 145.550,149.391 146.998 C 149.397 147.796,149.200 148.200,148.800 148.207 C 148.442 148.214,148.251 148.513,148.327 148.949 C 148.396 149.351,148.291 149.580,148.093 149.458 C 147.895 149.335,147.733 149.489,147.733 149.800 C 147.733 150.111,147.883 150.272,148.067 150.159 C 148.250 150.045,148.400 150.133,148.400 150.353 C 148.400 150.573,148.220 150.864,148.000 151.000 C 147.780 151.136,147.603 151.462,147.606 151.724 C 147.610 152.042,147.726 152.020,147.956 151.657 C 148.178 151.307,148.391 151.262,148.557 151.530 C 148.698 151.758,148.627 152.060,148.400 152.200 C 148.173 152.340,148.091 152.623,148.217 152.828 C 148.344 153.032,148.267 153.200,148.047 153.200 C 147.826 153.200,147.715 153.560,147.800 154.000 C 147.944 154.746,147.558 155.007,146.600 154.814 C 146.380 154.770,146.350 154.883,146.533 155.067 C 146.717 155.250,147.062 155.400,147.300 155.400 C 147.538 155.400,147.808 155.625,147.900 155.900 C 147.992 156.175,147.861 156.400,147.610 156.400 C 147.358 156.400,147.264 156.580,147.400 156.800 C 148.030 157.819,149.477 157.216,149.561 155.900 C 149.678 154.048,149.676 153.959,149.473 152.313 C 149.326 151.123,149.437 150.779,150.024 150.592 C 150.877 150.322,151.319 149.193,151.366 147.161 C 151.385 146.370,151.629 145.446,151.910 145.109 C 152.980 143.819,152.896 140.512,151.787 140.300 C 151.138 140.176,150.800 140.293,150.800 140.643 M249.206 142.535 C 249.211 143.240,249.284 143.289,249.600 142.800 C 249.934 142.283,249.989 142.293,249.994 142.876 C 249.997 143.248,250.143 143.641,250.318 143.749 C 250.493 143.858,250.628 143.480,250.618 142.911 C 250.606 142.240,250.354 141.840,249.900 141.773 C 249.416 141.702,249.202 141.938,249.206 142.535 M149.110 150.581 C 149.017 151.701,148.679 151.577,148.592 150.392 C 148.560 149.956,148.682 149.600,148.862 149.600 C 149.043 149.600,149.155 150.041,149.110 150.581 M253.310 152.000 C 253.277 152.440,253.380 152.800,253.540 152.800 C 253.699 152.800,253.857 152.440,253.890 152.000 C 253.923 151.560,253.820 151.200,253.660 151.200 C 253.501 151.200,253.343 151.560,253.310 152.000 M146.894 159.900 C 147.359 160.395,147.753 160.800,147.770 160.800 C 147.786 160.800,147.800 160.395,147.800 159.900 C 147.800 159.241,147.566 159.000,146.924 159.000 L 146.048 159.000 146.894 159.900 M145.304 160.900 C 144.727 161.631,144.835 162.872,145.454 162.635 C 145.740 162.525,146.069 162.588,146.184 162.775 C 146.300 162.962,145.946 163.227,145.397 163.365 C 144.350 163.628,144.046 164.590,144.900 164.936 C 145.263 165.084,145.277 165.229,144.950 165.470 C 144.086 166.104,144.345 170.339,145.233 170.107 C 145.655 169.997,146.014 169.793,146.031 169.653 C 146.047 169.514,146.150 169.040,146.258 168.600 C 146.718 166.725,146.630 166.149,145.747 165.252 C 144.850 164.341,144.805 163.600,145.647 163.600 C 145.867 163.600,145.946 163.764,145.822 163.965 C 145.698 164.166,145.912 164.279,146.298 164.216 C 146.684 164.154,147.225 164.282,147.500 164.500 C 148.032 164.923,148.168 164.518,148.007 163.000 C 147.879 161.798,147.275 161.262,146.182 161.382 C 144.957 161.517,144.924 161.285,146.100 160.812 C 146.709 160.568,146.790 160.443,146.349 160.425 C 145.991 160.411,145.520 160.625,145.304 160.900 M255.400 161.506 C 255.620 161.668,255.800 162.055,255.800 162.367 C 255.800 162.678,256.025 163.008,256.300 163.100 C 257.043 163.348,256.913 161.729,256.167 161.443 C 255.310 161.114,254.911 161.147,255.400 161.506 M257.219 167.377 C 256.846 167.826,256.903 168.027,257.491 168.342 C 258.090 168.662,258.245 168.592,258.292 167.978 C 258.367 166.976,257.811 166.664,257.219 167.377 M145.800 170.800 C 145.664 171.020,145.656 171.368,145.783 171.572 C 145.909 171.777,145.826 172.061,145.597 172.202 C 145.368 172.344,145.206 172.311,145.237 172.130 C 145.406 171.162,145.121 170.656,144.827 171.400 C 144.417 172.436,144.714 173.193,145.543 173.225 C 145.995 173.243,145.920 173.363,145.300 173.612 C 144.157 174.072,144.070 175.211,145.200 174.916 C 146.055 174.692,146.058 174.684,146.155 172.100 C 146.223 170.293,146.189 170.170,145.800 170.800 M143.567 171.500 C 143.548 171.665,143.488 172.213,143.432 172.717 C 143.377 173.221,143.509 173.744,143.727 173.879 C 143.968 174.027,143.995 173.915,143.796 173.594 C 143.552 173.198,143.657 173.136,144.212 173.349 C 144.896 173.612,144.905 173.577,144.330 172.917 C 143.986 172.523,143.786 171.975,143.886 171.700 C 143.985 171.425,143.962 171.200,143.833 171.200 C 143.705 171.200,143.585 171.335,143.567 171.500 M143.600 175.557 C 143.600 175.827,143.420 175.936,143.200 175.800 C 142.962 175.653,142.800 176.121,142.800 176.953 C 142.800 177.723,142.950 178.446,143.134 178.559 C 143.508 178.791,143.495 179.998,143.113 180.618 C 142.777 181.161,142.793 187.358,143.132 187.827 C 143.609 188.490,144.517 188.481,144.262 187.816 C 144.115 187.434,144.248 187.200,144.613 187.200 C 144.936 187.200,145.200 187.410,145.200 187.667 C 145.200 187.923,145.302 188.031,145.428 187.906 C 145.665 187.668,144.984 186.281,144.063 185.128 C 143.590 184.535,143.625 184.481,144.363 184.674 C 145.256 184.908,145.259 184.898,145.350 182.000 C 145.378 181.120,145.288 180.400,145.152 180.400 C 145.015 180.400,144.898 179.815,144.891 179.100 C 144.867 176.655,144.799 176.400,144.176 176.400 C 143.833 176.400,143.664 176.580,143.800 176.800 C 143.936 177.020,143.857 177.200,143.624 177.200 C 143.062 177.200,143.086 176.674,143.673 176.087 C 143.934 175.826,144.024 175.490,143.873 175.340 C 143.723 175.190,143.600 175.287,143.600 175.557 M258.634 176.800 C 259.223 177.822,259.269 179.309,258.722 179.657 C 258.356 179.889,258.468 179.990,259.097 179.994 C 260.214 180.002,260.155 177.958,259.006 176.877 C 258.485 176.387,258.383 176.365,258.634 176.800 M143.283 194.220 C 143.227 196.678,143.361 198.003,143.700 198.349 C 144.101 198.756,144.081 198.832,143.600 198.729 C 143.139 198.630,142.976 199.065,142.897 200.600 C 142.818 202.149,142.890 202.442,143.217 201.900 C 143.450 201.515,143.882 201.200,144.177 201.200 C 144.473 201.200,144.795 200.975,144.894 200.700 C 145.165 199.945,144.423 197.538,144.000 197.800 C 143.787 197.931,143.574 196.452,143.498 194.314 L 143.366 190.600 143.283 194.220 M144.262 199.817 C 144.622 200.755,144.233 200.866,143.681 199.982 C 143.372 199.487,143.346 199.200,143.609 199.200 C 143.838 199.200,144.132 199.478,144.262 199.817 M143.676 201.986 C 143.745 202.777,143.541 203.211,143.200 203.000 C 142.668 202.671,142.679 205.027,143.214 206.026 C 143.673 206.883,145.178 207.087,145.239 206.300 C 145.284 205.721,145.195 203.284,145.096 202.386 C 145.036 201.843,143.629 201.446,143.676 201.986 M143.080 207.453 C 142.348 208.185,142.965 210.865,143.793 210.547 C 144.555 210.255,144.890 211.028,144.236 211.570 C 143.765 211.961,143.763 212.343,144.222 214.083 C 144.520 215.212,144.671 216.285,144.558 216.468 C 144.315 216.861,144.949 216.917,145.330 216.537 C 145.475 216.392,145.393 216.032,145.148 215.737 C 144.903 215.442,144.820 215.200,144.965 215.200 C 145.110 215.200,145.035 214.840,144.800 214.400 C 144.433 213.715,144.496 213.600,145.235 213.600 C 145.912 213.600,146.002 213.716,145.652 214.137 C 145.242 214.631,145.411 215.201,145.967 215.199 C 146.450 215.198,146.405 211.887,145.913 211.280 C 145.608 210.903,145.586 210.758,145.858 210.921 C 146.110 211.072,146.419 210.926,146.546 210.598 C 146.672 210.269,146.570 210.000,146.319 210.000 C 146.068 210.000,145.518 209.687,145.095 209.305 C 144.365 208.644,144.300 208.648,143.764 209.382 C 143.226 210.117,143.200 210.104,143.200 209.099 C 143.200 208.250,143.360 208.077,144.027 208.205 C 144.546 208.305,144.795 208.185,144.694 207.882 C 144.507 207.318,143.486 207.047,143.080 207.453 M145.738 216.723 C 145.589 217.288,145.283 217.564,144.947 217.435 C 144.646 217.320,144.400 217.387,144.400 217.586 C 144.400 217.784,144.763 218.061,145.206 218.202 C 145.649 218.343,145.931 218.589,145.832 218.749 C 145.733 218.909,145.983 219.247,146.387 219.499 C 147.162 219.983,147.304 219.523,146.686 218.534 C 146.526 218.278,146.610 217.997,146.873 217.909 C 147.212 217.796,147.152 217.468,146.665 216.775 L 145.980 215.800 145.738 216.723 M257.030 219.867 C 256.917 220.160,256.999 220.400,257.213 220.400 C 257.687 220.400,257.546 221.295,257.012 221.678 C 256.798 221.831,256.732 222.065,256.864 222.197 C 257.386 222.720,258.448 221.139,257.965 220.558 C 257.629 220.154,257.626 220.000,257.951 220.000 C 258.198 220.000,258.400 219.850,258.400 219.667 C 258.400 219.121,257.252 219.289,257.030 219.867 M144.933 220.594 C 144.933 221.043,145.063 221.080,145.467 220.745 C 145.956 220.339,146.167 220.541,146.047 221.300 C 146.021 221.465,146.191 221.600,146.424 221.600 C 146.657 221.600,146.720 221.806,146.564 222.058 C 146.130 222.760,145.965 224.869,146.364 224.623 C 146.557 224.503,146.827 224.692,146.961 225.044 C 147.096 225.395,147.464 225.584,147.778 225.464 C 148.091 225.344,148.436 225.460,148.543 225.722 C 148.684 226.069,148.745 226.060,148.768 225.687 C 148.786 225.405,148.395 225.011,147.900 224.812 C 147.140 224.507,147.116 224.447,147.749 224.425 C 148.355 224.405,148.407 224.290,148.020 223.824 C 147.757 223.507,147.285 223.346,146.971 223.467 C 146.349 223.705,146.206 223.188,146.724 222.580 C 147.522 221.644,147.982 220.032,147.385 220.261 C 147.066 220.384,146.907 220.690,147.032 220.942 C 147.157 221.194,147.001 221.085,146.686 220.700 C 145.985 219.845,144.933 219.782,144.933 220.594 M146.600 226.297 C 147.040 226.737,147.535 227.020,147.700 226.925 C 147.865 226.830,148.021 226.988,148.046 227.276 C 148.072 227.564,148.117 228.070,148.146 228.400 C 148.176 228.730,148.020 229.132,147.800 229.294 C 147.580 229.456,147.767 229.591,148.215 229.594 C 148.741 229.598,149.051 229.884,149.090 230.400 C 149.133 230.966,148.904 231.200,148.308 231.200 C 146.909 231.200,148.029 231.809,149.724 231.969 C 149.902 231.986,149.956 232.148,149.844 232.328 C 149.292 233.222,149.249 234.858,149.789 234.409 C 150.233 234.040,150.293 234.129,150.104 234.877 C 149.975 235.385,149.704 235.910,149.502 236.044 C 149.299 236.179,149.412 236.396,149.754 236.527 C 150.095 236.658,150.498 236.565,150.649 236.321 C 150.827 236.033,150.739 235.990,150.400 236.200 C 150.051 236.416,149.973 236.367,150.166 236.055 C 150.653 235.267,151.105 235.915,150.957 237.189 C 150.818 238.379,151.428 238.706,152.094 237.800 C 152.409 237.371,152.439 237.598,152.596 241.600 C 152.656 243.128,152.876 244.200,153.129 244.200 C 153.366 244.200,153.785 244.425,154.060 244.700 C 154.335 244.975,154.728 245.200,154.933 245.200 C 156.070 245.200,157.161 247.487,156.200 247.855 C 155.445 248.145,155.415 248.800,156.157 248.800 C 156.464 248.800,156.828 249.096,156.967 249.457 C 157.338 250.425,156.995 250.537,156.170 249.719 C 155.472 249.027,155.455 249.027,155.722 249.733 C 155.875 250.136,156.000 250.551,156.000 250.656 C 156.000 250.761,156.168 250.744,156.373 250.617 C 156.578 250.490,157.013 250.769,157.341 251.237 C 157.668 251.704,158.130 251.967,158.368 251.820 C 158.610 251.670,158.800 251.839,158.800 252.203 C 158.800 252.652,158.573 252.782,158.067 252.621 C 157.582 252.467,157.333 252.588,157.333 252.977 C 157.333 253.300,157.471 253.480,157.639 253.376 C 157.807 253.272,158.065 253.382,158.213 253.621 C 158.360 253.859,158.742 253.954,159.061 253.832 C 159.384 253.708,159.534 253.784,159.398 254.003 C 158.620 255.263,159.009 256.575,160.167 256.594 C 160.368 256.597,160.617 256.850,160.719 257.156 C 160.847 257.540,160.734 257.609,160.352 257.379 C 159.884 257.097,159.883 257.149,160.349 257.723 C 160.828 258.313,162.800 258.712,162.800 258.219 C 162.800 257.656,161.712 255.703,161.077 255.125 C 160.570 254.664,160.376 254.029,160.464 253.125 C 160.569 252.049,160.463 251.822,159.897 251.918 C 159.514 251.982,159.186 251.802,159.169 251.518 C 159.099 250.323,158.827 249.468,158.383 249.048 C 158.024 248.708,157.975 248.816,158.182 249.500 C 158.332 249.997,158.282 250.400,158.070 250.400 C 157.589 250.400,157.046 248.506,157.171 247.268 C 157.223 246.756,156.989 246.126,156.650 245.868 C 156.311 245.611,155.949 244.908,155.845 244.307 C 155.741 243.705,155.511 242.985,155.334 242.707 C 155.157 242.428,154.994 242.110,154.972 242.000 C 154.949 241.890,154.827 241.530,154.701 241.200 C 154.249 240.021,154.080 238.802,154.395 238.997 C 154.572 239.106,154.811 238.949,154.926 238.647 C 155.042 238.346,154.926 238.105,154.668 238.113 C 153.413 238.148,152.775 237.965,152.983 237.628 C 153.109 237.423,153.030 237.142,152.807 237.004 C 152.583 236.866,152.400 236.423,152.400 236.019 C 152.400 235.616,152.111 235.175,151.758 235.039 C 151.381 234.894,151.214 234.540,151.354 234.176 C 151.489 233.823,151.422 233.663,151.195 233.803 C 150.718 234.098,150.715 233.849,151.173 231.875 C 151.493 230.496,151.438 230.309,150.597 229.926 C 149.602 229.472,149.028 228.154,149.657 227.765 C 149.895 227.618,149.882 227.340,149.623 227.028 C 149.394 226.752,149.302 226.432,149.417 226.316 C 149.533 226.200,149.192 226.189,148.659 226.291 C 148.126 226.393,147.264 226.256,146.745 225.986 L 145.800 225.496 146.600 226.297 M248.846 248.324 C 248.815 248.942,248.635 249.152,248.300 248.959 C 248.025 248.801,247.933 248.819,248.097 248.999 C 248.260 249.179,248.180 249.613,247.920 249.963 C 247.660 250.313,247.859 250.217,248.362 249.750 C 248.916 249.236,249.202 248.604,249.085 248.150 C 248.928 247.538,248.884 247.570,248.846 248.324 M162.576 258.729 C 161.801 259.287,161.957 260.068,162.790 259.803 C 163.348 259.626,163.600 259.726,163.600 260.124 C 163.600 260.442,163.868 260.924,164.196 261.196 C 164.835 261.727,164.655 262.404,163.876 262.394 C 163.590 262.390,163.639 262.233,164.000 262.000 C 164.517 261.666,164.507 261.611,163.925 261.606 C 163.516 261.602,163.271 261.888,163.305 262.329 C 163.344 262.858,163.605 263.012,164.251 262.888 C 165.034 262.738,165.122 262.857,164.967 263.859 C 164.840 264.678,165.078 265.332,165.808 266.177 C 167.165 267.746,168.368 267.949,168.218 266.582 C 168.157 266.031,168.273 265.479,168.474 265.354 C 168.675 265.230,168.497 264.829,168.077 264.464 C 167.658 264.099,167.187 263.395,167.030 262.900 C 166.874 262.405,166.478 262.000,166.149 262.000 C 165.821 262.000,165.664 261.820,165.800 261.600 C 165.936 261.380,165.857 261.200,165.624 261.200 C 165.391 261.200,165.200 260.845,165.200 260.410 C 165.200 259.553,163.206 258.276,162.576 258.729 M241.306 260.846 C 241.276 261.253,241.510 261.484,241.895 261.427 C 242.757 261.301,242.880 260.171,242.031 260.171 C 241.660 260.171,241.334 260.475,241.306 260.846 M167.154 266.722 C 167.112 267.335,167.090 267.333,166.924 266.700 C 166.824 266.315,166.575 266.000,166.371 266.000 C 166.167 266.000,166.045 265.775,166.100 265.500 C 166.155 265.225,165.975 265.045,165.700 265.100 C 165.425 265.155,165.206 264.885,165.213 264.500 C 165.223 263.943,165.427 264.029,166.213 264.922 C 166.756 265.540,167.179 266.350,167.154 266.722 M168.497 266.976 C 168.660 267.169,168.588 267.574,168.337 267.876 C 167.985 268.300,168.054 268.559,168.641 269.013 C 169.380 269.586,169.379 269.595,168.600 269.347 C 167.802 269.093,167.802 269.094,168.596 269.711 C 169.033 270.051,169.502 270.261,169.637 270.177 C 169.773 270.093,170.315 270.498,170.842 271.076 C 171.573 271.879,171.634 272.069,171.100 271.877 C 170.715 271.738,170.400 271.799,170.400 272.013 C 170.400 272.226,170.760 272.400,171.200 272.400 C 171.640 272.400,172.000 272.591,172.000 272.824 C 172.000 273.057,171.820 273.136,171.600 273.000 C 171.380 272.864,171.200 272.963,171.200 273.219 C 171.200 273.476,171.457 273.587,171.771 273.467 C 172.085 273.346,172.557 273.507,172.820 273.824 C 173.083 274.141,173.546 274.400,173.849 274.400 C 174.152 274.400,174.421 274.625,174.446 274.900 C 174.472 275.175,174.517 275.655,174.546 275.966 C 174.576 276.277,174.870 276.621,175.200 276.731 C 175.733 276.908,175.733 276.845,175.200 276.165 C 174.653 275.468,174.659 275.446,175.259 275.915 C 175.650 276.220,175.832 276.756,175.708 277.232 C 175.592 277.673,175.656 277.998,175.849 277.954 C 176.520 277.800,177.594 278.486,177.336 278.904 C 177.193 279.136,177.266 279.206,177.501 279.061 C 178.068 278.711,177.646 277.200,176.980 277.200 C 176.470 277.200,175.750 275.739,175.931 275.070 C 175.980 274.889,175.831 274.857,175.600 275.000 C 175.364 275.146,174.991 274.720,174.751 274.030 C 174.515 273.354,174.149 272.800,173.937 272.800 C 173.726 272.800,173.688 273.025,173.853 273.300 C 174.093 273.699,174.029 273.700,173.540 273.303 C 173.203 273.030,172.763 272.937,172.563 273.097 C 172.363 273.256,172.425 273.129,172.700 272.813 C 172.975 272.498,173.200 272.085,173.200 271.896 C 173.200 271.707,172.975 271.688,172.700 271.853 C 172.330 272.075,172.336 271.986,172.723 271.508 C 173.174 270.951,173.119 270.844,172.323 270.731 C 171.816 270.659,171.378 270.375,171.350 270.100 C 171.322 269.825,171.256 269.465,171.203 269.300 C 171.149 269.135,171.137 268.835,171.175 268.632 C 171.214 268.430,170.930 268.520,170.546 268.832 C 170.161 269.145,169.974 269.187,170.130 268.928 C 170.286 268.668,170.227 268.340,170.000 268.200 C 169.773 268.060,169.709 267.732,169.858 267.472 C 170.006 267.213,169.981 267.133,169.801 267.297 C 169.621 267.460,169.187 267.376,168.837 267.110 C 168.487 266.844,168.333 266.784,168.497 266.976 M198.399 268.003 C 197.799 269.123,198.049 275.686,198.700 275.901 C 199.080 276.027,199.200 275.002,199.200 271.633 C 199.200 267.033,199.118 266.659,198.399 268.003 M235.400 270.476 L 234.600 271.304 235.478 270.850 C 236.402 270.372,237.074 269.583,236.524 269.624 C 236.346 269.637,235.840 270.020,235.400 270.476 M234.203 272.005 C 234.337 272.222,234.122 272.414,233.724 272.432 C 233.326 272.449,233.218 272.552,233.485 272.660 C 233.752 272.768,234.266 272.691,234.629 272.488 C 235.239 272.146,235.239 272.101,234.623 271.864 C 234.233 271.714,234.059 271.772,234.203 272.005 M231.199 275.300 C 230.610 276.104,230.513 276.384,230.945 276.033 C 231.601 275.500,232.593 274.000,232.289 274.000 C 232.213 274.000,231.722 274.585,231.199 275.300 M197.254 276.935 C 196.141 278.277,196.271 289.514,197.386 288.340 C 197.547 288.171,197.962 276.400,197.807 276.400 C 197.747 276.400,197.498 276.641,197.254 276.935 M178.927 278.261 C 179.071 278.404,178.699 278.775,178.102 279.085 C 177.387 279.456,176.968 279.503,176.875 279.224 C 176.797 278.991,176.523 278.806,176.267 278.813 C 176.010 278.821,176.169 279.136,176.619 279.513 C 177.070 279.891,177.564 280.526,177.717 280.925 C 177.869 281.324,178.155 281.552,178.351 281.430 C 178.547 281.309,178.932 281.754,179.207 282.418 C 179.483 283.082,179.788 283.545,179.886 283.447 C 179.984 283.349,179.864 282.893,179.618 282.434 C 179.298 281.836,179.295 281.600,179.610 281.600 C 179.850 281.600,179.944 281.432,179.817 281.228 C 179.691 281.023,179.769 280.743,179.992 280.605 C 180.404 280.350,179.439 278.000,178.923 278.000 C 178.782 278.000,178.784 278.117,178.927 278.261 M181.149 281.251 C 181.121 281.333,181.051 281.760,180.993 282.200 C 180.935 282.640,180.761 283.360,180.606 283.800 C 180.404 284.374,180.434 284.447,180.712 284.057 C 180.988 283.672,181.180 283.645,181.378 283.964 C 181.530 284.211,181.813 284.315,182.007 284.196 C 182.200 284.076,182.284 284.365,182.193 284.836 C 182.088 285.379,182.353 285.966,182.914 286.434 C 183.926 287.278,184.400 287.388,184.400 286.776 C 184.400 286.543,184.220 286.464,184.000 286.600 C 183.780 286.736,183.600 286.643,183.600 286.394 C 183.600 285.398,185.001 286.240,185.040 287.260 C 185.102 288.893,185.499 289.613,186.193 289.347 C 186.717 289.146,186.672 288.978,185.908 288.292 C 185.294 287.740,185.217 287.552,185.671 287.714 C 186.040 287.845,186.557 287.693,186.820 287.376 C 187.203 286.915,187.169 286.800,186.649 286.800 C 186.292 286.800,186.045 286.575,186.100 286.300 C 186.155 286.025,185.981 285.843,185.714 285.895 C 185.415 285.954,185.326 285.737,185.482 285.331 C 185.681 284.812,185.553 284.719,184.881 284.895 C 184.412 285.017,184.043 285.001,184.061 284.859 C 184.191 283.861,183.884 283.217,183.171 282.991 C 182.611 282.813,182.423 282.517,182.592 282.076 C 182.730 281.718,182.714 281.552,182.558 281.709 C 182.402 281.865,182.032 281.793,181.737 281.548 C 181.442 281.303,181.177 281.169,181.149 281.251 M183.600 285.424 C 183.600 286.084,182.968 286.195,182.600 285.600 C 182.464 285.380,182.554 285.200,182.800 285.200 C 183.046 285.200,183.119 284.992,182.962 284.738 C 182.785 284.452,182.852 284.385,183.138 284.562 C 183.392 284.719,183.600 285.107,183.600 285.424 M187.154 287.786 C 187.129 287.794,187.050 288.295,186.978 288.900 C 186.828 290.169,187.423 290.387,187.800 289.200 C 187.940 288.760,188.222 288.400,188.427 288.400 C 188.632 288.400,188.800 288.259,188.800 288.086 C 188.800 287.853,187.624 287.639,187.154 287.786 M188.912 289.540 C 188.240 289.737,188.117 289.946,188.406 290.400 C 188.616 290.730,188.791 290.837,188.794 290.638 C 188.797 290.439,189.230 290.776,189.756 291.388 C 190.362 292.093,190.898 292.387,191.218 292.189 C 191.547 291.986,191.624 292.038,191.438 292.338 C 191.281 292.592,191.356 292.800,191.603 292.800 C 191.883 292.800,191.952 293.141,191.786 293.700 C 191.520 294.590,191.524 294.591,192.191 293.800 C 192.779 293.103,192.836 293.092,192.637 293.721 C 192.498 294.160,192.571 294.342,192.822 294.186 C 193.049 294.046,193.496 294.148,193.815 294.413 C 194.951 295.355,196.810 291.920,196.201 290.003 C 195.819 288.800,195.189 289.444,195.453 290.767 C 195.701 292.006,195.253 292.484,193.683 292.651 C 193.000 292.724,192.794 292.592,192.952 292.181 C 193.075 291.860,192.958 291.651,192.686 291.705 C 192.419 291.757,192.245 291.575,192.300 291.300 C 192.359 291.007,191.987 290.800,191.400 290.800 C 190.850 290.800,190.421 290.665,190.447 290.500 C 190.647 289.236,190.424 289.097,188.912 289.540 " stroke="none" fill="#54ac54" fill-rule="evenodd"></path><path id="path4" d="M142.953 193.400 C 142.953 196.040,143.018 197.068,143.097 195.684 C 143.175 194.301,143.174 192.141,143.095 190.884 C 143.016 189.628,142.952 190.760,142.953 193.400 M200.597 270.004 C 200.460 270.227,200.107 273.275,199.814 276.777 C 199.521 280.280,199.173 283.320,199.042 283.532 C 198.911 283.745,198.614 285.332,198.383 287.059 C 197.819 291.275,196.431 295.200,195.504 295.200 C 195.117 295.200,194.800 295.380,194.800 295.600 C 194.800 295.820,195.157 296.000,195.594 296.000 C 197.755 296.000,199.332 290.556,200.613 278.675 C 200.774 277.184,201.074 276.270,201.449 276.126 C 202.291 275.803,202.368 275.975,202.759 279.036 C 203.616 285.749,207.437 292.826,210.900 294.115 C 211.859 294.471,211.781 293.753,210.768 292.900 C 206.257 289.103,204.135 284.250,203.204 275.600 C 202.569 269.713,201.799 268.060,200.597 270.004 M208.526 302.305 C 208.573 303.254,209.224 303.329,209.527 302.419 C 209.625 302.124,209.518 302.003,209.286 302.147 C 209.056 302.289,208.781 302.179,208.675 301.902 C 208.569 301.626,208.502 301.807,208.526 302.305 M198.114 323.000 C 198.117 324.100,198.195 324.503,198.287 323.895 C 198.379 323.286,198.377 322.386,198.282 321.895 C 198.187 321.403,198.111 321.900,198.114 323.000 " stroke="none" fill="#7ca46c" fill-rule="evenodd"></path></g></svg>