<svg id="svg" version="1.1" xmlns="http://www.w3.org/2000/svg" xmlns:xlink="http://www.w3.org/1999/xlink" width="400" height="400" viewBox="0, 0, 400,400"><g id="svgg"><path id="path0" d="M73.600 39.231 C 61.186 39.483,60.483 39.538,57.995 40.460 C 47.082 44.504,40.149 52.980,38.413 64.400 C 37.524 70.255,38.032 336.792,38.938 340.000 C 39.886 343.354,42.663 349.024,44.200 350.742 C 49.474 356.642,54.048 359.508,60.864 361.183 C 64.264 362.018,64.877 362.031,94.264 361.917 L 124.200 361.800 127.400 360.672 C 133.490 358.525,135.492 357.300,139.614 353.200 C 152.831 340.052,150.484 317.518,134.844 307.401 C 128.465 303.275,124.122 302.400,110.016 302.400 C 101.439 302.400,99.201 302.289,98.576 301.832 C 97.732 301.215,96.915 154.895,97.749 153.700 C 98.854 152.116,99.801 153.155,103.125 159.600 C 104.317 161.910,105.926 164.970,106.701 166.400 C 107.476 167.830,108.927 170.530,109.925 172.400 C 112.181 176.626,112.977 178.090,114.331 180.505 C 114.919 181.553,116.332 184.163,117.472 186.305 C 118.611 188.447,119.991 191.010,120.538 192.000 C 121.085 192.990,122.133 194.967,122.866 196.393 C 123.600 197.820,125.077 200.520,126.149 202.393 C 127.221 204.267,129.177 207.870,130.494 210.400 C 131.812 212.930,133.566 216.260,134.393 217.800 C 135.219 219.340,136.754 222.220,137.803 224.200 C 138.852 226.180,139.849 227.980,140.019 228.200 C 140.518 228.845,143.082 233.541,144.825 237.000 C 145.711 238.760,147.120 241.460,147.955 243.000 C 152.098 250.637,153.089 252.487,154.917 256.000 C 156.005 258.090,157.063 260.010,157.268 260.266 C 157.474 260.522,158.410 262.232,159.350 264.066 C 160.289 265.900,162.239 269.560,163.681 272.200 C 165.124 274.840,166.929 278.170,167.692 279.600 C 168.456 281.030,169.678 283.280,170.409 284.600 C 171.844 287.192,173.890 291.065,176.009 295.200 C 176.741 296.630,177.651 298.252,178.029 298.804 C 178.408 299.356,179.838 301.966,181.208 304.604 C 182.577 307.242,183.839 309.580,184.011 309.800 C 184.183 310.020,185.586 312.654,187.128 315.654 C 188.670 318.654,190.386 321.827,190.940 322.705 C 191.495 323.584,192.230 324.910,192.573 325.651 C 193.224 327.057,195.242 330.841,197.681 335.231 C 198.467 336.644,199.879 339.330,200.820 341.200 C 201.761 343.070,203.132 345.548,203.866 346.708 C 204.600 347.867,205.200 348.887,205.200 348.975 C 205.200 349.236,208.067 352.438,209.981 354.314 C 216.896 361.091,229.270 363.521,245.200 361.228 C 246.630 361.022,249.240 360.665,251.000 360.435 C 257.238 359.617,269.534 356.607,273.460 354.936 C 274.154 354.641,274.844 354.400,274.993 354.400 C 275.576 354.400,283.954 350.639,289.000 348.114 C 311.858 336.671,334.802 312.678,345.849 288.667 C 346.541 287.163,347.308 285.732,347.553 285.487 C 347.799 285.241,348.000 284.885,348.000 284.695 C 348.000 284.332,349.623 280.592,350.616 278.668 C 350.937 278.045,351.200 277.322,351.200 277.062 C 351.200 276.801,351.560 275.916,352.000 275.096 C 352.440 274.275,352.800 273.337,352.800 273.012 C 352.800 272.687,353.148 271.652,353.572 270.711 C 354.667 268.286,356.500 262.532,357.376 258.772 C 357.662 257.546,358.078 256.196,358.301 255.772 C 358.524 255.347,358.833 254.190,358.986 253.200 C 359.139 252.210,359.516 250.500,359.824 249.400 C 360.734 246.149,361.599 241.683,362.186 237.200 C 362.489 234.890,362.933 232.488,363.172 231.863 C 363.412 231.238,363.792 227.998,364.016 224.663 C 364.241 221.328,364.586 216.980,364.784 215.000 C 365.259 210.237,365.255 198.501,364.776 193.000 C 364.565 190.580,364.222 186.044,364.013 182.920 C 363.804 179.795,363.366 176.285,363.039 175.120 C 362.712 173.954,362.331 171.740,362.191 170.200 C 362.052 168.660,361.774 166.860,361.574 166.200 C 361.374 165.540,360.942 163.560,360.613 161.800 C 360.284 160.040,359.738 157.520,359.400 156.200 C 359.061 154.880,358.510 152.720,358.174 151.400 C 357.839 150.080,357.212 147.920,356.782 146.600 C 356.352 145.280,355.994 143.840,355.986 143.400 C 355.979 142.960,355.625 141.880,355.200 141.000 C 354.775 140.120,354.421 139.078,354.414 138.684 C 354.406 138.290,354.040 137.262,353.600 136.400 C 353.160 135.538,352.800 134.537,352.800 134.178 C 352.800 133.818,352.542 133.046,352.227 132.462 C 351.277 130.701,349.600 126.875,349.600 126.469 C 349.600 125.889,345.571 117.664,342.121 111.200 C 340.114 107.439,337.976 103.934,336.509 102.000 C 336.092 101.450,335.323 100.280,334.800 99.400 C 328.552 88.890,312.344 72.009,301.194 64.400 C 300.066 63.630,298.751 62.686,298.271 62.302 C 294.592 59.356,280.096 51.342,276.399 50.211 C 275.850 50.043,275.130 49.677,274.800 49.397 C 274.470 49.118,273.573 48.755,272.806 48.592 C 272.039 48.429,271.049 48.066,270.606 47.787 C 270.163 47.507,269.170 47.150,268.400 46.993 C 267.630 46.836,266.820 46.565,266.600 46.391 C 266.224 46.093,264.177 45.463,260.000 44.360 C 259.010 44.099,257.164 43.551,255.898 43.142 C 254.633 42.734,252.990 42.400,252.249 42.400 C 251.507 42.400,250.169 42.142,249.276 41.827 C 248.382 41.511,246.334 41.134,244.725 40.988 C 243.116 40.843,240.810 40.467,239.600 40.154 C 236.759 39.418,217.177 38.937,214.000 39.525 C 210.747 40.127,208.020 41.210,203.053 43.874 C 197.839 46.670,191.640 56.514,190.559 63.718 C 189.013 74.008,189.958 125.641,191.754 129.000 C 192.106 129.660,192.396 130.408,192.398 130.663 C 192.412 133.396,201.919 144.800,204.183 144.800 C 204.344 144.800,204.954 145.129,205.538 145.532 C 213.793 151.220,230.841 149.755,238.450 142.704 C 239.005 142.190,239.895 141.416,240.429 140.985 C 243.251 138.703,247.652 131.662,248.250 128.473 C 248.401 127.663,248.767 126.421,249.063 125.713 C 249.456 124.771,249.602 122.088,249.606 115.713 C 249.615 102.755,249.594 102.771,259.600 108.522 C 261.910 109.849,264.520 111.497,265.400 112.182 C 266.280 112.868,267.540 113.762,268.200 114.169 C 271.617 116.278,285.161 131.347,286.295 134.303 C 286.442 134.686,287.056 135.732,287.660 136.627 C 289.447 139.275,293.419 147.073,295.388 151.800 C 296.396 154.220,297.482 156.740,297.801 157.400 C 298.120 158.060,298.550 159.320,298.755 160.200 C 298.961 161.080,299.317 162.340,299.547 163.000 C 300.243 164.999,301.482 169.655,301.994 172.200 C 303.914 181.739,304.483 185.546,304.830 191.200 C 305.552 202.975,305.110 220.548,303.995 224.407 C 303.773 225.173,303.424 227.264,303.219 229.054 C 303.014 230.844,302.586 233.184,302.268 234.254 C 301.950 235.324,301.503 237.100,301.275 238.200 C 300.425 242.307,298.783 247.638,297.567 250.244 C 297.145 251.148,296.800 252.147,296.800 252.464 C 296.800 252.781,296.652 253.211,296.472 253.420 C 296.291 253.629,295.624 255.060,294.989 256.600 C 293.999 259.003,291.642 263.614,290.390 265.600 C 290.182 265.930,289.740 266.740,289.407 267.400 C 289.074 268.060,288.486 269.073,288.101 269.651 C 286.272 272.393,284.157 275.458,283.719 276.000 C 283.452 276.330,282.672 277.320,281.985 278.200 C 274.460 287.846,263.001 295.664,250.304 299.813 C 247.364 300.773,246.154 300.113,244.787 296.800 C 244.560 296.250,243.582 294.360,242.613 292.600 C 241.644 290.840,240.285 288.320,239.592 287.000 C 238.900 285.680,237.534 283.160,236.557 281.400 C 235.580 279.640,234.509 277.660,234.177 277.000 C 233.845 276.340,233.073 274.900,232.461 273.800 C 231.850 272.700,230.304 269.820,229.025 267.400 C 227.746 264.980,226.292 262.280,225.793 261.400 C 224.816 259.677,221.623 253.727,220.104 250.800 C 219.590 249.810,218.846 248.460,218.449 247.800 C 217.412 246.072,209.858 231.940,209.255 230.597 C 209.056 230.155,208.310 228.805,207.597 227.597 C 206.194 225.217,203.640 220.444,199.895 213.200 C 198.587 210.670,197.098 207.880,196.586 207.000 C 195.595 205.296,195.014 204.238,192.633 199.800 C 191.806 198.260,190.993 196.820,190.824 196.600 C 190.656 196.380,189.384 194.040,187.998 191.400 C 184.640 185.006,182.287 180.590,181.069 178.400 C 180.518 177.410,179.467 175.430,178.734 174.000 C 178.000 172.570,176.917 170.557,176.326 169.527 C 175.736 168.497,174.046 165.347,172.570 162.527 C 171.095 159.707,168.956 155.780,167.818 153.800 C 166.680 151.820,164.832 148.400,163.711 146.200 C 162.591 144.000,161.063 141.120,160.315 139.800 C 159.568 138.480,158.460 136.410,157.853 135.200 C 157.246 133.990,156.593 132.730,156.403 132.400 C 156.212 132.070,155.422 130.711,154.647 129.380 C 153.873 128.048,152.312 125.168,151.179 122.980 C 150.047 120.791,148.713 118.280,148.217 117.400 C 147.720 116.520,146.267 113.820,144.988 111.400 C 143.709 108.980,142.341 106.460,141.947 105.800 C 141.552 105.140,140.809 103.790,140.293 102.800 C 138.052 98.493,134.626 92.042,133.601 90.200 C 132.989 89.100,131.719 86.760,130.777 85.000 C 129.836 83.240,128.562 80.900,127.946 79.800 C 126.600 77.395,126.019 76.310,123.018 70.600 C 121.746 68.180,120.276 65.447,119.752 64.527 C 119.227 63.607,117.907 61.136,116.818 59.036 C 111.423 48.627,106.321 43.626,98.000 40.589 C 93.879 39.085,90.385 38.891,73.600 39.231 " stroke="none" fill="#faf9fa" fill-rule="evenodd"></path><path id="path1" d="M0.000 200.000 L 0.000 400.000 200.000 400.000 L 400.000 400.000 400.000 200.000 L 400.000 0.000 200.000 0.000 L 0.000 0.000 0.000 200.000 M96.938 38.342 C 103.695 40.339,111.100 46.093,114.600 52.066 C 117.083 56.304,117.852 57.644,118.904 59.562 C 120.352 62.205,120.947 63.249,122.228 65.400 C 122.752 66.280,123.365 67.450,123.590 68.000 C 123.815 68.550,124.180 69.270,124.401 69.600 C 124.621 69.930,124.981 70.650,125.201 71.200 C 125.420 71.750,125.780 72.470,126.001 72.800 C 126.221 73.130,126.581 73.850,126.801 74.400 C 127.020 74.950,127.374 75.670,127.586 76.000 C 127.799 76.330,128.537 77.680,129.227 79.000 C 129.916 80.320,130.640 81.596,130.836 81.836 C 131.032 82.076,131.766 83.336,132.468 84.636 C 133.169 85.936,134.144 87.720,134.634 88.600 C 135.124 89.480,137.117 93.337,139.062 97.171 C 141.008 101.006,142.805 104.348,143.055 104.598 C 143.306 104.848,143.867 105.761,144.303 106.627 C 144.739 107.492,145.400 108.740,145.773 109.400 C 147.927 113.218,151.121 119.211,153.235 123.400 C 154.567 126.040,156.093 128.920,156.626 129.800 C 157.158 130.680,157.868 131.940,158.203 132.600 C 158.538 133.260,158.979 134.070,159.184 134.400 C 160.573 136.639,163.428 141.927,166.201 147.400 C 167.984 150.920,169.972 154.610,170.617 155.600 C 171.966 157.667,173.706 160.820,176.025 165.400 C 176.917 167.160,177.801 168.870,177.990 169.200 C 178.316 169.768,179.580 172.246,181.356 175.800 C 181.796 176.680,182.255 177.490,182.378 177.600 C 182.500 177.710,182.919 178.430,183.308 179.200 C 183.698 179.970,184.450 181.320,184.979 182.200 C 185.508 183.080,186.514 184.926,187.214 186.303 C 187.914 187.680,188.633 188.897,188.813 189.008 C 188.992 189.119,189.254 189.735,189.395 190.377 C 189.536 191.019,189.898 191.750,190.200 192.000 C 190.502 192.250,190.864 192.983,191.006 193.628 C 191.148 194.272,191.402 194.800,191.571 194.800 C 191.740 194.800,192.176 195.475,192.538 196.300 C 192.901 197.125,193.914 199.060,194.789 200.600 C 195.665 202.140,196.600 203.850,196.868 204.400 C 197.136 204.950,197.573 205.670,197.839 206.000 C 198.106 206.330,198.887 207.680,199.575 209.000 C 200.264 210.320,200.992 211.670,201.195 212.000 C 201.397 212.330,202.484 214.490,203.611 216.800 C 204.737 219.110,205.818 221.270,206.012 221.600 C 207.653 224.385,213.174 234.274,214.639 237.053 C 215.644 238.958,216.619 240.805,216.806 241.158 C 216.992 241.511,217.703 242.970,218.384 244.400 C 219.066 245.830,220.069 247.720,220.614 248.600 C 221.159 249.480,221.878 250.740,222.212 251.400 C 222.546 252.060,223.423 253.680,224.160 255.000 C 224.898 256.320,226.055 258.390,226.732 259.600 C 227.408 260.810,228.814 263.510,229.855 265.600 C 230.897 267.690,233.155 271.868,234.874 274.884 C 236.593 277.900,238.000 280.457,238.000 280.566 C 238.000 280.675,238.566 281.718,239.257 282.882 C 241.242 286.226,244.400 292.479,244.400 293.066 C 244.400 293.360,244.562 293.600,244.761 293.600 C 244.959 293.600,245.313 294.148,245.546 294.818 C 246.845 298.544,249.211 299.282,253.130 297.181 C 253.932 296.752,254.805 296.400,255.070 296.400 C 255.644 296.400,261.649 293.252,264.927 291.233 C 269.456 288.443,273.627 285.078,276.496 281.900 C 278.093 280.130,279.684 278.394,280.031 278.041 C 282.506 275.525,286.004 270.523,287.890 266.800 C 289.251 264.115,289.706 263.307,290.821 261.600 C 291.180 261.050,291.696 259.925,291.968 259.100 C 292.240 258.275,292.628 257.600,292.831 257.600 C 293.034 257.600,293.206 257.285,293.213 256.900 C 293.219 256.515,293.668 255.300,294.209 254.200 C 294.750 253.100,295.194 251.896,295.196 251.524 C 295.198 251.152,295.365 250.745,295.567 250.620 C 296.185 250.239,299.382 239.404,299.798 236.285 C 299.939 235.231,300.312 233.752,300.627 232.998 C 300.942 232.243,301.200 230.790,301.200 229.768 C 301.200 228.746,301.592 226.355,302.070 224.455 C 303.276 219.669,303.420 188.382,302.257 184.005 C 301.878 182.578,301.472 180.328,301.356 179.005 C 301.239 177.682,300.890 175.880,300.581 175.000 C 300.271 174.120,299.835 172.230,299.612 170.800 C 299.388 169.370,298.830 166.850,298.372 165.200 C 297.913 163.550,297.301 161.268,297.012 160.129 C 296.722 158.989,296.196 157.644,295.843 157.140 C 295.489 156.635,295.200 155.981,295.200 155.686 C 295.200 155.392,294.730 154.127,294.155 152.875 C 293.581 151.624,292.758 149.790,292.327 148.800 C 291.896 147.810,291.384 146.730,291.190 146.400 C 290.996 146.070,290.282 144.720,289.604 143.400 C 285.734 135.865,282.476 130.853,278.945 127.000 C 278.139 126.120,275.945 123.727,274.070 121.682 C 272.195 119.637,269.568 117.165,268.231 116.189 C 266.894 115.214,265.440 114.136,265.000 113.794 C 263.883 112.927,260.039 110.524,258.600 109.793 C 257.940 109.458,256.259 108.557,254.864 107.791 C 251.485 105.934,251.600 105.667,251.600 115.337 C 251.600 122.802,251.503 124.103,250.800 126.104 C 250.360 127.356,250.000 128.587,250.000 128.840 C 250.000 129.371,246.895 135.675,246.478 135.990 C 246.325 136.105,245.584 137.100,244.832 138.200 C 236.676 150.122,219.251 154.507,206.400 147.871 C 200.957 145.060,195.330 139.995,193.200 135.987 C 191.925 133.588,190.400 130.438,190.400 130.203 C 190.400 130.067,189.995 129.111,189.500 128.078 L 188.600 126.200 188.600 94.000 C 188.600 63.466,188.638 61.717,189.343 60.200 C 192.152 54.149,194.204 50.384,195.434 49.023 C 196.218 48.155,197.251 46.984,197.730 46.420 C 199.035 44.882,203.193 41.600,203.837 41.600 C 204.147 41.600,204.400 41.460,204.400 41.289 C 204.400 40.749,209.266 38.851,212.800 38.012 C 216.993 37.017,225.882 36.926,234.000 37.794 C 236.970 38.112,241.200 38.562,243.400 38.796 C 245.600 39.029,247.850 39.388,248.400 39.594 C 248.950 39.800,250.570 40.157,252.000 40.388 C 253.430 40.619,255.500 41.063,256.600 41.376 C 260.601 42.514,265.828 44.160,267.000 44.652 C 267.660 44.930,269.460 45.640,271.000 46.231 C 272.540 46.822,274.790 47.753,276.000 48.301 C 277.210 48.849,279.190 49.731,280.400 50.261 C 287.783 53.499,288.764 54.059,298.150 60.400 C 298.638 60.730,299.704 61.423,300.519 61.940 C 301.334 62.456,302.000 63.041,302.000 63.240 C 302.000 63.438,302.241 63.600,302.536 63.600 C 303.136 63.600,309.075 68.138,310.754 69.879 C 311.349 70.495,312.992 71.990,314.404 73.200 C 315.816 74.410,317.248 75.673,317.586 76.007 C 319.062 77.468,323.871 82.775,324.600 83.749 C 325.040 84.336,326.041 85.488,326.824 86.308 C 329.630 89.248,336.000 97.542,336.000 98.254 C 336.000 98.399,336.675 99.500,337.500 100.700 C 338.325 101.901,339.184 103.180,339.408 103.542 C 339.633 103.904,340.351 105.010,341.003 106.000 C 341.656 106.990,342.417 108.250,342.693 108.800 C 342.969 109.350,343.919 111.060,344.802 112.600 C 346.655 115.827,348.799 120.305,348.803 120.955 C 348.804 121.200,349.163 121.940,349.600 122.600 C 350.037 123.260,350.396 124.165,350.397 124.611 C 350.399 125.057,350.644 125.777,350.942 126.211 C 351.239 126.645,351.981 128.170,352.589 129.600 C 353.197 131.030,353.929 132.740,354.217 133.400 C 355.427 136.179,356.401 138.783,356.414 139.274 C 356.421 139.563,356.775 140.520,357.200 141.400 C 357.625 142.280,357.979 143.311,357.986 143.692 C 357.994 144.072,358.284 145.094,358.631 145.962 C 359.252 147.514,359.866 149.927,361.014 155.330 C 361.333 156.831,361.848 159.081,362.159 160.330 C 362.469 161.578,362.841 163.500,362.984 164.600 C 363.128 165.700,363.755 169.480,364.379 173.000 C 365.002 176.520,365.722 182.460,365.979 186.200 C 366.235 189.940,366.611 194.397,366.814 196.103 C 367.017 197.810,367.101 199.970,367.000 200.903 C 366.899 201.837,366.727 206.200,366.618 210.600 C 366.510 215.000,366.327 218.960,366.212 219.400 C 366.097 219.840,365.830 222.450,365.618 225.200 C 365.201 230.628,363.082 243.455,361.391 250.800 C 360.808 253.330,360.085 256.476,359.785 257.791 C 359.484 259.106,359.070 260.546,358.866 260.991 C 358.661 261.436,358.012 263.330,357.424 265.200 C 356.440 268.325,355.559 270.669,354.193 273.800 C 353.905 274.460,352.918 276.800,351.998 279.000 C 351.079 281.200,349.726 284.260,348.992 285.800 C 348.258 287.340,347.140 289.770,346.508 291.200 C 345.098 294.385,336.733 307.798,333.908 311.400 C 329.812 316.625,327.884 319.003,326.767 320.212 C 323.262 324.002,314.841 332.356,313.455 333.417 C 312.605 334.068,311.615 334.883,311.255 335.229 C 310.895 335.575,308.827 337.195,306.660 338.829 C 303.208 341.433,301.508 342.645,299.131 344.200 C 298.795 344.420,297.728 345.129,296.760 345.776 C 294.582 347.231,286.172 351.441,284.710 351.808 C 284.117 351.957,283.427 352.326,283.176 352.629 C 282.925 352.931,282.114 353.292,281.374 353.431 C 280.634 353.570,279.830 353.923,279.587 354.216 C 279.344 354.509,278.587 354.871,277.906 355.021 C 277.224 355.170,276.112 355.631,275.433 356.045 C 274.755 356.459,273.799 356.798,273.310 356.799 C 272.820 356.799,271.830 357.159,271.110 357.599 C 270.389 358.038,269.296 358.398,268.680 358.399 C 268.064 358.399,267.049 358.664,266.424 358.988 C 265.799 359.311,264.323 359.741,263.144 359.944 C 261.965 360.148,259.830 360.591,258.400 360.929 C 251.474 362.568,240.223 363.779,231.800 363.793 C 217.222 363.818,208.028 357.967,200.381 343.800 C 199.787 342.700,198.467 340.270,197.448 338.400 C 196.428 336.530,194.560 332.953,193.297 330.450 C 190.318 324.549,189.934 323.840,189.589 323.600 C 189.431 323.490,188.493 321.870,187.506 320.000 C 186.519 318.130,185.117 315.520,184.391 314.200 C 183.664 312.880,181.728 309.190,180.088 306.000 C 178.448 302.810,176.681 299.480,176.161 298.600 C 175.641 297.720,175.095 296.730,174.947 296.400 C 174.799 296.070,174.453 295.530,174.178 295.200 C 173.903 294.870,172.052 291.450,170.066 287.600 C 168.080 283.750,166.007 279.790,165.460 278.800 C 164.913 277.810,163.802 275.740,162.992 274.200 C 162.182 272.660,161.086 270.680,160.556 269.800 C 160.026 268.920,159.375 267.705,159.109 267.100 C 158.843 266.495,158.498 266.000,158.343 266.000 C 158.189 266.000,157.842 265.334,157.574 264.520 C 157.305 263.707,156.605 262.222,156.019 261.220 C 155.432 260.219,154.343 258.140,153.598 256.600 C 152.853 255.060,152.009 253.562,151.722 253.271 C 151.435 252.981,151.200 252.551,151.200 252.316 C 151.200 252.081,150.630 250.969,149.934 249.844 C 149.238 248.720,148.031 246.630,147.252 245.200 C 146.473 243.770,145.426 241.880,144.925 241.000 C 144.423 240.120,143.820 238.950,143.583 238.400 C 143.144 237.381,141.418 233.887,140.817 232.800 C 140.635 232.470,140.278 231.750,140.023 231.200 C 139.769 230.650,139.132 229.480,138.607 228.600 C 138.081 227.720,137.403 226.550,137.099 226.000 C 136.393 224.722,136.095 224.195,133.467 219.600 C 132.272 217.510,130.343 213.820,129.181 211.400 C 128.018 208.980,126.942 206.910,126.788 206.800 C 126.634 206.690,126.372 206.150,126.207 205.600 C 126.041 205.050,125.682 204.330,125.409 204.000 C 124.035 202.341,115.211 185.969,115.203 185.063 C 115.201 184.878,114.840 184.269,114.400 183.709 C 113.960 183.150,113.600 182.445,113.600 182.142 C 113.600 181.839,113.011 180.739,112.291 179.696 C 111.571 178.653,110.759 177.350,110.486 176.800 C 110.213 176.250,109.574 175.080,109.066 174.200 C 106.741 170.171,102.797 162.704,102.767 162.275 C 102.703 161.331,100.167 157.000,99.679 157.000 C 98.826 157.000,98.990 299.105,99.844 300.049 C 100.416 300.680,101.674 300.761,112.739 300.882 C 126.146 301.028,126.501 301.083,132.194 303.931 C 139.277 307.473,147.428 316.975,148.776 323.260 C 149.012 324.361,149.402 325.631,149.644 326.082 C 150.352 327.405,150.150 336.828,149.361 339.311 C 147.504 345.157,145.333 349.393,142.890 351.939 C 142.511 352.334,141.730 353.185,141.155 353.829 C 136.446 359.106,131.481 361.797,123.800 363.237 C 113.805 365.111,61.342 364.170,57.310 362.045 C 56.920 361.839,55.765 361.378,54.744 361.019 C 48.836 358.944,38.400 347.785,38.400 343.541 C 38.400 343.222,38.205 342.765,37.967 342.527 C 35.912 340.472,34.648 78.117,36.627 64.512 C 37.306 59.849,39.518 53.569,41.231 51.444 C 42.974 49.282,44.823 47.227,45.937 46.215 C 46.672 45.547,48.022 44.323,48.937 43.495 C 49.852 42.667,51.005 41.883,51.500 41.752 C 51.995 41.620,52.400 41.385,52.400 41.228 C 52.400 40.596,57.574 38.640,62.000 37.600 C 65.557 36.763,93.611 37.359,96.938 38.342 " stroke="none" fill="#63049b" fill-rule="evenodd"></path><path id="path2" d="M62.000 37.600 C 57.574 38.640,52.400 40.596,52.400 41.228 C 52.400 41.385,51.995 41.620,51.500 41.752 C 51.005 41.883,49.852 42.667,48.937 43.495 C 48.022 44.323,46.672 45.547,45.937 46.215 C 44.823 47.227,42.974 49.282,41.231 51.444 C 39.518 53.569,37.306 59.849,36.627 64.512 C 34.648 78.117,35.912 340.472,37.967 342.527 C 38.205 342.765,38.400 343.222,38.400 343.541 C 38.400 347.785,48.836 358.944,54.744 361.019 C 55.765 361.378,56.920 361.839,57.310 362.045 C 61.342 364.170,113.805 365.111,123.800 363.237 C 131.481 361.797,136.446 359.106,141.155 353.829 C 141.730 353.185,142.511 352.334,142.890 351.939 C 145.333 349.393,147.504 345.157,149.361 339.311 C 150.150 336.828,150.352 327.405,149.644 326.082 C 149.402 325.631,149.012 324.361,148.776 323.260 C 147.428 316.975,139.277 307.473,132.194 303.931 C 126.501 301.083,126.146 301.028,112.739 300.882 C 101.674 300.761,100.416 300.680,99.844 300.049 C 98.990 299.105,98.826 157.000,99.679 157.000 C 100.167 157.000,102.703 161.331,102.767 162.275 C 102.797 162.704,106.741 170.171,109.066 174.200 C 109.574 175.080,110.213 176.250,110.486 176.800 C 110.759 177.350,111.571 178.653,112.291 179.696 C 113.011 180.739,113.600 181.839,113.600 182.142 C 113.600 182.445,113.960 183.150,114.400 183.709 C 114.840 184.269,115.201 184.878,115.203 185.063 C 115.211 185.969,124.035 202.341,125.409 204.000 C 125.682 204.330,126.041 205.050,126.207 205.600 C 126.372 206.150,126.634 206.690,126.788 206.800 C 126.942 206.910,128.018 208.980,129.181 211.400 C 130.343 213.820,132.272 217.510,133.467 219.600 C 136.095 224.195,136.393 224.722,137.099 226.000 C 137.403 226.550,138.081 227.720,138.607 228.600 C 139.132 229.480,139.769 230.650,140.023 231.200 C 140.278 231.750,140.635 232.470,140.817 232.800 C 141.418 233.887,143.144 237.381,143.583 238.400 C 143.820 238.950,144.423 240.120,144.925 241.000 C 145.426 241.880,146.473 243.770,147.252 245.200 C 148.031 246.630,149.238 248.720,149.934 249.844 C 150.630 250.969,151.200 252.081,151.200 252.316 C 151.200 252.551,151.435 252.981,151.722 253.271 C 152.009 253.562,152.853 255.060,153.598 256.600 C 154.343 258.140,155.432 260.219,156.019 261.220 C 156.605 262.222,157.305 263.707,157.574 264.520 C 157.842 265.334,158.189 266.000,158.343 266.000 C 158.498 266.000,158.843 266.495,159.109 267.100 C 159.375 267.705,160.026 268.920,160.556 269.800 C 161.086 270.680,162.182 272.660,162.992 274.200 C 163.802 275.740,164.913 277.810,165.460 278.800 C 166.007 279.790,168.080 283.750,170.066 287.600 C 172.052 291.450,173.903 294.870,174.178 295.200 C 174.453 295.530,174.799 296.070,174.947 296.400 C 175.095 296.730,175.641 297.720,176.161 298.600 C 176.681 299.480,178.448 302.810,180.088 306.000 C 181.728 309.190,183.664 312.880,184.391 314.200 C 185.117 315.520,186.519 318.130,187.506 320.000 C 188.493 321.870,189.431 323.490,189.589 323.600 C 189.934 323.840,190.318 324.549,193.297 330.450 C 194.560 332.953,196.428 336.530,197.448 338.400 C 198.467 340.270,199.787 342.700,200.381 343.800 C 208.028 357.967,217.222 363.818,231.800 363.793 C 240.223 363.779,251.474 362.568,258.400 360.929 C 259.830 360.591,261.965 360.148,263.144 359.944 C 264.323 359.741,265.799 359.311,266.424 358.988 C 267.049 358.664,268.064 358.399,268.680 358.399 C 269.296 358.398,270.389 358.038,271.110 357.599 C 271.830 357.159,272.820 356.799,273.310 356.799 C 273.799 356.798,274.755 356.459,275.433 356.045 C 276.112 355.631,277.224 355.170,277.906 355.021 C 278.587 354.871,279.344 354.509,279.587 354.216 C 279.830 353.923,280.634 353.570,281.374 353.431 C 282.114 353.292,282.925 352.931,283.176 352.629 C 283.427 352.326,284.117 351.957,284.710 351.808 C 286.172 351.441,294.582 347.231,296.760 345.776 C 297.728 345.129,298.795 344.420,299.131 344.200 C 301.508 342.645,303.208 341.433,306.660 338.829 C 308.827 337.195,310.895 335.575,311.255 335.229 C 311.615 334.883,312.605 334.068,313.455 333.417 C 314.841 332.356,323.262 324.002,326.767 320.212 C 327.884 319.003,329.812 316.625,333.908 311.400 C 336.733 307.798,345.098 294.385,346.508 291.200 C 347.140 289.770,348.258 287.340,348.992 285.800 C 349.726 284.260,351.079 281.200,351.998 279.000 C 352.918 276.800,353.905 274.460,354.193 273.800 C 355.559 270.669,356.440 268.325,357.424 265.200 C 358.012 263.330,358.661 261.436,358.866 260.991 C 359.070 260.546,359.484 259.106,359.785 257.791 C 360.085 256.476,360.808 253.330,361.391 250.800 C 363.082 243.455,365.201 230.628,365.618 225.200 C 365.830 222.450,366.097 219.840,366.212 219.400 C 366.327 218.960,366.510 215.000,366.618 210.600 C 366.727 206.200,366.899 201.837,367.000 200.903 C 367.101 199.970,367.017 197.810,366.814 196.103 C 366.611 194.397,366.235 189.940,365.979 186.200 C 365.722 182.460,365.002 176.520,364.379 173.000 C 363.755 169.480,363.128 165.700,362.984 164.600 C 362.841 163.500,362.469 161.578,362.159 160.330 C 361.848 159.081,361.333 156.831,361.014 155.330 C 359.866 149.927,359.252 147.514,358.631 145.962 C 358.284 145.094,357.994 144.072,357.986 143.692 C 357.979 143.311,357.625 142.280,357.200 141.400 C 356.775 140.520,356.421 139.563,356.414 139.274 C 356.401 138.783,355.427 136.179,354.217 133.400 C 353.929 132.740,353.197 131.030,352.589 129.600 C 351.981 128.170,351.239 126.645,350.942 126.211 C 350.644 125.777,350.399 125.057,350.397 124.611 C 350.396 124.165,350.037 123.260,349.600 122.600 C 349.163 121.940,348.804 121.200,348.803 120.955 C 348.799 120.305,346.655 115.827,344.802 112.600 C 343.919 111.060,342.969 109.350,342.693 108.800 C 342.417 108.250,341.656 106.990,341.003 106.000 C 340.351 105.010,339.633 103.904,339.408 103.542 C 339.184 103.180,338.325 101.901,337.500 100.700 C 336.675 99.500,336.000 98.399,336.000 98.254 C 336.000 97.542,329.630 89.248,326.824 86.308 C 326.041 85.488,325.040 84.336,324.600 83.749 C 323.871 82.775,319.062 77.468,317.586 76.007 C 317.248 75.673,315.816 74.410,314.404 73.200 C 312.992 71.990,311.349 70.495,310.754 69.879 C 309.075 68.138,303.136 63.600,302.536 63.600 C 302.241 63.600,302.000 63.438,302.000 63.240 C 302.000 63.041,301.334 62.456,300.519 61.940 C 299.704 61.423,298.638 60.730,298.150 60.400 C 288.764 54.059,287.783 53.499,280.400 50.261 C 279.190 49.731,277.210 48.849,276.000 48.301 C 274.790 47.753,272.540 46.822,271.000 46.231 C 269.460 45.640,267.660 44.930,267.000 44.652 C 265.828 44.160,260.601 42.514,256.600 41.376 C 255.500 41.063,253.430 40.619,252.000 40.388 C 250.570 40.157,248.950 39.800,248.400 39.594 C 247.850 39.388,245.600 39.029,243.400 38.796 C 241.200 38.562,236.970 38.112,234.000 37.794 C 225.882 36.926,216.993 37.017,212.800 38.012 C 209.266 38.851,204.400 40.749,204.400 41.289 C 204.400 41.460,204.147 41.600,203.837 41.600 C 203.193 41.600,199.035 44.882,197.730 46.420 C 197.251 46.984,196.218 48.155,195.434 49.023 C 194.204 50.384,192.152 54.149,189.343 60.200 C 188.638 61.717,188.600 63.466,188.600 94.000 L 188.600 126.200 189.500 128.078 C 189.995 129.111,190.400 130.067,190.400 130.203 C 190.400 130.438,191.925 133.588,193.200 135.987 C 195.330 139.995,200.957 145.060,206.400 147.871 C 219.251 154.507,236.676 150.122,244.832 138.200 C 245.584 137.100,246.325 136.105,246.478 135.990 C 246.895 135.675,250.000 129.371,250.000 128.840 C 250.000 128.587,250.360 127.356,250.800 126.104 C 251.503 124.103,251.600 122.802,251.600 115.337 C 251.600 105.667,251.485 105.934,254.864 107.791 C 256.259 108.557,257.940 109.458,258.600 109.793 C 260.039 110.524,263.883 112.927,265.000 113.794 C 265.440 114.136,266.894 115.214,268.231 116.189 C 269.568 117.165,272.195 119.637,274.070 121.682 C 275.945 123.727,278.139 126.120,278.945 127.000 C 282.476 130.853,285.734 135.865,289.604 143.400 C 290.282 144.720,290.996 146.070,291.190 146.400 C 291.384 146.730,291.896 147.810,292.327 148.800 C 292.758 149.790,293.581 151.624,294.155 152.875 C 294.730 154.127,295.200 155.392,295.200 155.686 C 295.200 155.981,295.489 156.635,295.843 157.140 C 296.196 157.644,296.722 158.989,297.012 160.129 C 297.301 161.268,297.913 163.550,298.372 165.200 C 298.830 166.850,299.388 169.370,299.612 170.800 C 299.835 172.230,300.271 174.120,300.581 175.000 C 300.890 175.880,301.239 177.682,301.356 179.005 C 301.472 180.328,301.878 182.578,302.257 184.005 C 303.420 188.382,303.276 219.669,302.070 224.455 C 301.592 226.355,301.200 228.746,301.200 229.768 C 301.200 230.790,300.942 232.243,300.627 232.998 C 300.312 233.752,299.939 235.231,299.798 236.285 C 299.382 239.404,296.185 250.239,295.567 250.620 C 295.365 250.745,295.198 251.152,295.196 251.524 C 295.194 251.896,294.750 253.100,294.209 254.200 C 293.668 255.300,293.219 256.515,293.213 256.900 C 293.206 257.285,293.034 257.600,292.831 257.600 C 292.628 257.600,292.240 258.275,291.968 259.100 C 291.696 259.925,291.180 261.050,290.821 261.600 C 289.706 263.307,289.251 264.115,287.890 266.800 C 286.004 270.523,282.506 275.525,280.031 278.041 C 279.684 278.394,278.093 280.130,276.496 281.900 C 273.627 285.078,269.456 288.443,264.927 291.233 C 261.649 293.252,255.644 296.400,255.070 296.400 C 254.805 296.400,253.932 296.752,253.130 297.181 C 249.211 299.282,246.845 298.544,245.546 294.818 C 245.313 294.148,244.959 293.600,244.761 293.600 C 244.562 293.600,244.400 293.360,244.400 293.066 C 244.400 292.479,241.242 286.226,239.257 282.882 C 238.566 281.718,238.000 280.675,238.000 280.566 C 238.000 280.457,236.593 277.900,234.874 274.884 C 233.155 271.868,230.897 267.690,229.855 265.600 C 228.814 263.510,227.408 260.810,226.732 259.600 C 226.055 258.390,224.898 256.320,224.160 255.000 C 223.423 253.680,222.546 252.060,222.212 251.400 C 221.878 250.740,221.159 249.480,220.614 248.600 C 220.069 247.720,219.066 245.830,218.384 244.400 C 217.703 242.970,216.992 241.511,216.806 241.158 C 216.619 240.805,215.644 238.958,214.639 237.053 C 213.174 234.274,207.653 224.385,206.012 221.600 C 205.818 221.270,204.737 219.110,203.611 216.800 C 202.484 214.490,201.397 212.330,201.195 212.000 C 200.992 211.670,200.264 210.320,199.575 209.000 C 198.887 207.680,198.106 206.330,197.839 206.000 C 197.573 205.670,197.136 204.950,196.868 204.400 C 196.600 203.850,195.665 202.140,194.789 200.600 C 193.914 199.060,192.901 197.125,192.538 196.300 C 192.176 195.475,191.740 194.800,191.571 194.800 C 191.402 194.800,191.148 194.272,191.006 193.628 C 190.864 192.983,190.502 192.250,190.200 192.000 C 189.898 191.750,189.536 191.019,189.395 190.377 C 189.254 189.735,188.992 189.119,188.813 189.008 C 188.633 188.897,187.914 187.680,187.214 186.303 C 186.514 184.926,185.508 183.080,184.979 182.200 C 184.450 181.320,183.698 179.970,183.308 179.200 C 182.919 178.430,182.500 177.710,182.378 177.600 C 182.255 177.490,181.796 176.680,181.356 175.800 C 179.580 172.246,178.316 169.768,177.990 169.200 C 177.801 168.870,176.917 167.160,176.025 165.400 C 173.706 160.820,171.966 157.667,170.617 155.600 C 169.972 154.610,167.984 150.920,166.201 147.400 C 163.428 141.927,160.573 136.639,159.184 134.400 C 158.979 134.070,158.538 133.260,158.203 132.600 C 157.868 131.940,157.158 130.680,156.626 129.800 C 156.093 128.920,154.567 126.040,153.235 123.400 C 151.121 119.211,147.927 113.218,145.773 109.400 C 145.400 108.740,144.739 107.492,144.303 106.627 C 143.867 105.761,143.306 104.848,143.055 104.598 C 142.805 104.348,141.008 101.006,139.062 97.171 C 137.117 93.337,135.124 89.480,134.634 88.600 C 134.144 87.720,133.169 85.936,132.468 84.636 C 131.766 83.336,131.032 82.076,130.836 81.836 C 130.640 81.596,129.916 80.320,129.227 79.000 C 128.537 77.680,127.799 76.330,127.586 76.000 C 127.374 75.670,127.020 74.950,126.801 74.400 C 126.581 73.850,126.221 73.130,126.001 72.800 C 125.780 72.470,125.420 71.750,125.201 71.200 C 124.981 70.650,124.621 69.930,124.401 69.600 C 124.180 69.270,123.815 68.550,123.590 68.000 C 123.365 67.450,122.752 66.280,122.228 65.400 C 120.947 63.249,120.352 62.205,118.904 59.562 C 117.852 57.644,117.083 56.304,114.600 52.066 C 111.100 46.093,103.695 40.339,96.938 38.342 C 93.611 37.359,65.557 36.763,62.000 37.600 M93.800 38.573 C 103.417 40.293,110.306 45.517,115.604 55.107 C 115.936 55.708,117.272 58.090,118.573 60.400 C 121.720 65.986,122.373 67.203,124.832 72.064 C 125.983 74.339,128.039 78.180,129.401 80.600 C 133.704 88.248,136.603 93.646,139.144 98.744 C 140.499 101.463,141.942 104.163,142.349 104.744 C 143.167 105.912,151.385 121.126,153.139 124.723 C 153.750 125.976,155.454 129.114,156.925 131.697 C 158.396 134.281,159.600 136.478,159.600 136.580 C 159.600 136.682,160.122 137.650,160.760 138.733 C 161.399 139.815,163.487 143.738,165.400 147.450 C 167.314 151.163,169.112 154.470,169.395 154.800 C 169.679 155.130,170.856 157.200,172.010 159.400 C 173.165 161.600,174.836 164.750,175.723 166.400 C 176.610 168.050,177.865 170.479,178.512 171.798 C 179.159 173.117,180.704 175.998,181.944 178.200 C 183.185 180.403,184.503 182.744,184.873 183.403 C 185.243 184.061,186.750 186.940,188.223 189.800 C 189.695 192.660,191.597 196.201,192.450 197.670 C 193.302 199.138,194.000 200.419,194.000 200.516 C 194.000 200.613,195.317 203.011,196.927 205.846 C 198.536 208.681,201.472 214.150,203.451 218.000 C 205.430 221.850,208.411 227.430,210.076 230.400 C 211.741 233.370,214.719 238.860,216.693 242.600 C 218.668 246.340,221.681 251.920,223.390 255.000 C 225.099 258.080,227.669 262.850,229.102 265.600 C 232.466 272.059,234.103 275.105,236.193 278.800 C 238.626 283.102,241.391 288.286,244.177 293.768 C 247.031 299.384,247.213 299.541,250.075 298.853 C 260.292 296.398,272.980 287.718,281.434 277.400 C 282.515 276.080,283.493 274.910,283.607 274.800 C 284.136 274.288,287.644 268.767,288.690 266.800 C 289.334 265.590,290.687 263.070,291.698 261.200 C 301.358 243.332,305.879 216.738,303.700 190.600 C 302.778 179.544,299.776 165.326,296.689 157.400 C 286.950 132.393,274.527 117.292,255.454 107.274 C 250.711 104.783,250.898 104.453,250.705 115.697 C 250.511 126.955,249.964 129.085,245.370 136.474 C 230.657 160.136,192.174 150.708,189.302 122.738 C 188.552 115.440,189.356 62.354,190.252 60.000 C 194.143 49.773,199.998 43.469,208.847 39.981 C 219.273 35.872,247.286 38.524,266.710 45.458 C 274.050 48.079,274.751 48.352,275.723 48.964 C 276.206 49.268,277.050 49.647,277.600 49.806 C 278.806 50.156,288.433 54.867,290.400 56.071 C 293.075 57.707,298.601 61.355,298.800 61.615 C 298.910 61.759,300.170 62.659,301.600 63.615 C 306.091 66.619,316.697 75.791,320.400 79.875 C 329.132 89.503,332.906 94.502,340.526 106.528 C 342.881 110.244,350.000 124.295,350.000 125.226 C 350.000 125.504,350.611 127.019,351.358 128.592 C 354.616 135.457,358.173 146.298,360.416 156.200 C 360.864 158.180,361.484 160.880,361.793 162.200 C 362.103 163.520,362.554 166.198,362.795 168.151 C 363.037 170.104,363.487 172.804,363.794 174.151 C 366.525 186.112,366.693 213.188,364.146 230.800 C 363.812 233.110,363.294 236.697,362.995 238.772 C 362.445 242.587,362.256 243.492,359.993 253.200 C 358.453 259.806,355.846 267.910,353.149 274.472 C 352.034 277.182,350.794 280.210,350.393 281.200 C 349.992 282.190,348.749 284.851,347.632 287.114 C 346.514 289.377,345.600 291.341,345.600 291.479 C 345.600 292.431,336.339 306.868,331.795 313.000 C 326.682 319.899,318.874 328.099,312.400 333.368 C 300.900 342.728,295.499 346.175,284.000 351.494 C 282.570 352.155,280.376 353.170,279.125 353.748 C 277.873 354.327,276.658 354.800,276.423 354.800 C 276.189 354.800,275.325 355.160,274.504 355.600 C 273.684 356.040,272.644 356.400,272.195 356.400 C 271.746 356.400,271.014 356.655,270.569 356.967 C 270.123 357.279,269.048 357.650,268.180 357.793 C 267.311 357.935,265.880 358.300,265.000 358.604 C 263.421 359.150,262.488 359.356,256.200 360.545 C 246.016 362.473,245.186 362.549,234.200 362.575 C 222.260 362.603,222.033 362.565,215.712 359.487 C 210.840 357.115,205.213 351.329,202.080 345.469 C 201.354 344.111,199.746 341.110,198.507 338.800 C 197.268 336.490,195.192 332.530,193.893 330.000 C 192.594 327.470,191.384 325.220,191.204 325.000 C 191.023 324.780,189.711 322.440,188.288 319.800 C 186.865 317.160,185.115 313.920,184.400 312.600 C 183.685 311.280,182.462 308.940,181.683 307.400 C 180.904 305.860,179.004 302.350,177.462 299.600 C 175.053 295.305,164.666 276.034,163.865 274.371 C 163.713 274.057,163.084 272.900,162.466 271.800 C 161.848 270.700,159.672 266.650,157.631 262.800 C 155.591 258.950,152.754 253.683,151.328 251.096 C 146.430 242.212,145.988 241.387,143.456 236.400 C 142.059 233.650,139.707 229.269,138.228 226.664 C 134.350 219.834,132.261 215.986,129.724 211.000 C 128.493 208.580,127.016 205.745,126.443 204.701 C 125.869 203.656,123.843 199.966,121.939 196.501 C 120.036 193.035,117.272 187.860,115.797 185.000 C 114.322 182.140,112.208 178.270,111.100 176.400 C 109.992 174.530,107.201 169.310,104.898 164.800 C 100.574 156.333,99.522 154.718,98.801 155.439 C 98.135 156.105,98.450 300.210,99.119 300.880 C 99.513 301.274,102.655 301.454,112.119 301.624 C 123.361 301.825,124.847 301.931,127.090 302.684 C 155.963 312.384,156.692 351.523,128.186 361.487 L 125.000 362.600 93.000 362.600 L 61.000 362.600 57.939 361.502 C 48.722 358.196,41.919 351.327,38.426 341.800 L 37.400 339.000 37.400 200.600 L 37.400 62.200 38.513 59.014 C 42.198 48.474,50.930 40.713,61.460 38.620 C 65.456 37.825,89.425 37.791,93.800 38.573 " stroke="none" fill="#9256b4" fill-rule="evenodd"></path><path id="path3" d="M61.630 38.821 C 50.705 41.052,42.016 48.951,38.550 59.800 L 37.400 63.400 37.400 200.400 L 37.400 337.400 38.519 341.065 C 41.505 350.840,48.253 357.859,57.673 360.989 L 62.166 362.481 92.383 362.444 C 127.635 362.401,124.952 362.577,131.400 359.878 C 149.762 352.190,154.838 327.302,141.133 312.154 C 133.387 303.593,127.684 301.600,110.921 301.600 C 100.533 301.600,99.961 301.561,99.200 300.800 C 98.291 299.891,97.894 155.960,98.799 155.400 C 99.682 154.855,100.941 156.546,103.740 162.039 C 105.355 165.208,108.166 170.500,109.987 173.800 C 111.808 177.100,114.737 182.590,116.497 186.000 C 118.257 189.410,120.702 194.000,121.930 196.200 C 123.159 198.400,124.499 200.830,124.910 201.600 C 125.320 202.370,126.083 203.720,126.605 204.600 C 127.127 205.480,128.838 208.718,130.407 211.796 C 131.975 214.874,133.875 218.407,134.629 219.648 C 135.383 220.889,136.000 222.026,136.000 222.173 C 136.000 222.321,137.055 224.278,138.344 226.521 C 139.633 228.764,141.996 233.120,143.595 236.200 C 145.194 239.280,148.076 244.680,150.000 248.200 C 151.924 251.720,155.433 258.290,157.799 262.800 C 160.165 267.310,162.234 271.180,162.397 271.400 C 162.857 272.021,164.665 275.303,167.799 281.200 C 169.377 284.170,171.303 287.770,172.079 289.200 C 172.854 290.630,174.354 293.420,175.411 295.400 C 176.468 297.380,177.745 299.659,178.249 300.464 C 178.753 301.270,179.953 303.520,180.916 305.464 C 181.878 307.409,183.444 310.440,184.396 312.200 C 188.602 319.984,190.538 323.469,191.171 324.400 C 191.545 324.950,193.170 328.010,194.783 331.200 C 196.397 334.390,198.114 337.630,198.600 338.400 C 199.085 339.170,199.990 340.880,200.609 342.200 C 205.855 353.382,214.306 360.434,224.616 362.236 C 228.498 362.914,244.446 362.418,250.000 361.447 C 256.432 360.321,257.809 360.052,261.200 359.260 C 289.074 352.744,313.561 336.454,332.243 312.000 C 334.007 309.690,335.882 307.080,336.409 306.200 C 336.936 305.320,338.692 302.568,340.312 300.084 C 345.479 292.164,353.491 274.673,356.385 265.000 C 356.779 263.680,357.559 261.070,358.117 259.200 C 359.607 254.208,361.199 247.558,361.200 246.326 C 361.200 245.735,361.399 244.745,361.642 244.126 C 361.885 243.507,362.314 241.380,362.595 239.400 C 362.876 237.420,363.392 234.000,363.743 231.800 C 365.886 218.337,366.507 199.774,365.188 188.600 C 364.980 186.840,364.632 183.288,364.415 180.707 C 364.198 178.126,363.764 174.886,363.451 173.507 C 363.137 172.128,362.764 170.010,362.621 168.800 C 362.115 164.513,359.671 153.463,357.756 146.800 C 356.288 141.694,351.930 129.712,350.799 127.671 C 350.594 127.302,349.536 124.930,348.448 122.400 C 338.895 100.182,320.386 77.034,301.546 63.743 C 293.634 58.161,280.289 50.400,278.604 50.400 C 278.453 50.400,276.860 49.746,275.065 48.946 C 265.700 44.775,253.017 41.171,243.600 40.006 C 241.730 39.774,239.030 39.410,237.600 39.197 C 233.029 38.514,217.320 38.225,214.221 38.766 C 202.694 40.779,193.679 49.262,190.136 61.432 C 189.244 64.495,188.810 112.565,189.593 121.600 C 192.455 154.656,237.355 160.497,248.684 129.287 C 250.334 124.740,250.511 123.297,250.441 114.942 C 250.352 104.392,250.466 104.240,256.085 107.400 C 257.846 108.390,259.358 109.200,259.447 109.200 C 259.535 109.200,261.120 110.186,262.969 111.391 C 286.538 126.753,301.555 156.988,304.199 194.400 C 304.770 202.482,304.749 204.528,303.977 216.000 C 301.958 246.005,289.336 273.733,271.321 287.739 C 264.236 293.248,257.164 297.074,250.476 299.019 C 247.293 299.944,246.970 299.665,243.586 293.054 C 240.792 287.595,238.227 282.852,234.509 276.267 C 233.536 274.544,231.738 271.214,230.513 268.867 C 229.289 266.520,226.090 260.550,223.406 255.600 C 220.722 250.650,217.443 244.530,216.119 242.000 C 214.796 239.470,211.590 233.530,208.996 228.800 C 206.401 224.070,202.842 217.410,201.086 214.000 C 199.331 210.590,197.588 207.350,197.212 206.800 C 196.836 206.250,195.622 204.090,194.513 202.000 C 187.892 189.522,185.829 185.672,185.187 184.600 C 184.021 182.650,179.737 174.657,176.291 168.000 C 174.525 164.590,172.142 160.180,170.993 158.200 C 168.951 154.678,168.160 153.210,162.590 142.600 C 161.088 139.740,158.692 135.330,157.266 132.800 C 155.839 130.270,153.561 126.040,152.204 123.400 C 148.325 115.855,145.550 110.721,144.535 109.207 C 144.021 108.441,143.600 107.672,143.600 107.499 C 143.600 107.326,143.179 106.513,142.665 105.692 C 142.151 104.871,140.234 101.320,138.405 97.800 C 136.576 94.280,133.008 87.620,130.477 83.000 C 127.945 78.380,124.848 72.620,123.594 70.200 C 111.845 47.521,108.355 43.466,97.200 39.535 C 94.372 38.538,65.820 37.965,61.630 38.821 M94.200 39.605 C 103.562 41.137,110.734 47.299,116.818 59.036 C 117.907 61.136,119.227 63.607,119.752 64.527 C 120.276 65.447,121.746 68.180,123.018 70.600 C 126.019 76.310,126.600 77.395,127.946 79.800 C 128.562 80.900,129.836 83.240,130.777 85.000 C 131.719 86.760,132.989 89.100,133.601 90.200 C 134.626 92.042,138.052 98.493,140.293 102.800 C 140.809 103.790,141.552 105.140,141.947 105.800 C 142.341 106.460,143.709 108.980,144.988 111.400 C 146.267 113.820,147.720 116.520,148.217 117.400 C 148.713 118.280,150.047 120.791,151.179 122.980 C 152.312 125.168,153.873 128.048,154.647 129.380 C 155.422 130.711,156.212 132.070,156.403 132.400 C 156.593 132.730,157.246 133.990,157.853 135.200 C 158.460 136.410,159.568 138.480,160.315 139.800 C 161.063 141.120,162.591 144.000,163.711 146.200 C 164.832 148.400,166.680 151.820,167.818 153.800 C 168.956 155.780,171.095 159.707,172.570 162.527 C 174.046 165.347,175.736 168.497,176.326 169.527 C 176.917 170.557,178.000 172.570,178.734 174.000 C 179.467 175.430,180.518 177.410,181.069 178.400 C 182.287 180.590,184.640 185.006,187.998 191.400 C 189.384 194.040,190.656 196.380,190.824 196.600 C 190.993 196.820,191.806 198.260,192.633 199.800 C 195.014 204.238,195.595 205.296,196.586 207.000 C 197.098 207.880,198.587 210.670,199.895 213.200 C 203.640 220.444,206.194 225.217,207.597 227.597 C 208.310 228.805,209.056 230.155,209.255 230.597 C 209.858 231.940,217.412 246.072,218.449 247.800 C 218.846 248.460,219.590 249.810,220.104 250.800 C 221.623 253.727,224.816 259.677,225.793 261.400 C 226.292 262.280,227.746 264.980,229.025 267.400 C 230.304 269.820,231.850 272.700,232.461 273.800 C 233.073 274.900,233.845 276.340,234.177 277.000 C 234.509 277.660,235.580 279.640,236.557 281.400 C 237.534 283.160,238.900 285.680,239.592 287.000 C 240.285 288.320,241.644 290.840,242.613 292.600 C 243.582 294.360,244.560 296.250,244.787 296.800 C 246.154 300.113,247.364 300.773,250.304 299.813 C 263.001 295.664,274.460 287.846,281.985 278.200 C 282.672 277.320,283.452 276.330,283.719 276.000 C 284.157 275.458,286.272 272.393,288.101 269.651 C 288.486 269.073,289.074 268.060,289.407 267.400 C 289.740 266.740,290.182 265.930,290.390 265.600 C 291.642 263.614,293.999 259.003,294.989 256.600 C 295.624 255.060,296.291 253.629,296.472 253.420 C 296.652 253.211,296.800 252.781,296.800 252.464 C 296.800 252.147,297.145 251.148,297.567 250.244 C 298.783 247.638,300.425 242.307,301.275 238.200 C 301.503 237.100,301.950 235.324,302.268 234.254 C 302.586 233.184,303.014 230.844,303.219 229.054 C 303.424 227.264,303.773 225.173,303.995 224.407 C 305.110 220.548,305.552 202.975,304.830 191.200 C 304.483 185.546,303.914 181.739,301.994 172.200 C 301.482 169.655,300.243 164.999,299.547 163.000 C 299.317 162.340,298.961 161.080,298.755 160.200 C 298.550 159.320,298.120 158.060,297.801 157.400 C 297.482 156.740,296.396 154.220,295.388 151.800 C 293.419 147.073,289.447 139.275,287.660 136.627 C 287.056 135.732,286.442 134.686,286.295 134.303 C 285.161 131.347,271.617 116.278,268.200 114.169 C 267.540 113.762,266.280 112.868,265.400 112.182 C 264.520 111.497,261.910 109.849,259.600 108.522 C 249.594 102.771,249.615 102.755,249.606 115.713 C 249.602 122.088,249.456 124.771,249.063 125.713 C 248.767 126.421,248.401 127.663,248.250 128.473 C 247.652 131.662,243.251 138.703,240.429 140.985 C 239.895 141.416,239.005 142.190,238.450 142.704 C 230.841 149.755,213.793 151.220,205.538 145.532 C 204.954 145.129,204.344 144.800,204.183 144.800 C 201.919 144.800,192.412 133.396,192.398 130.663 C 192.396 130.408,192.106 129.660,191.754 129.000 C 189.958 125.641,189.013 74.008,190.559 63.718 C 191.640 56.514,197.839 46.670,203.053 43.874 C 208.020 41.210,210.747 40.127,214.000 39.525 C 217.177 38.937,236.759 39.418,239.600 40.154 C 240.810 40.467,243.116 40.843,244.725 40.988 C 246.334 41.134,248.382 41.511,249.276 41.827 C 250.169 42.142,251.507 42.400,252.249 42.400 C 252.990 42.400,254.633 42.734,255.898 43.142 C 257.164 43.551,259.010 44.099,260.000 44.360 C 264.177 45.463,266.224 46.093,266.600 46.391 C 266.820 46.565,267.630 46.836,268.400 46.993 C 269.170 47.150,270.163 47.507,270.606 47.787 C 271.049 48.066,272.039 48.429,272.806 48.592 C 273.573 48.755,274.470 49.118,274.800 49.397 C 275.130 49.677,275.850 50.043,276.399 50.211 C 280.096 51.342,294.592 59.356,298.271 62.302 C 298.751 62.686,300.066 63.630,301.194 64.400 C 312.344 72.009,328.552 88.890,334.800 99.400 C 335.323 100.280,336.092 101.450,336.509 102.000 C 337.976 103.934,340.114 107.439,342.121 111.200 C 345.571 117.664,349.600 125.889,349.600 126.469 C 349.600 126.875,351.277 130.701,352.227 132.462 C 352.542 133.046,352.800 133.818,352.800 134.178 C 352.800 134.537,353.160 135.538,353.600 136.400 C 354.040 137.262,354.406 138.290,354.414 138.684 C 354.421 139.078,354.775 140.120,355.200 141.000 C 355.625 141.880,355.979 142.960,355.986 143.400 C 355.994 143.840,356.352 145.280,356.782 146.600 C 357.212 147.920,357.839 150.080,358.174 151.400 C 358.510 152.720,359.061 154.880,359.400 156.200 C 359.738 157.520,360.284 160.040,360.613 161.800 C 360.942 163.560,361.374 165.540,361.574 166.200 C 361.774 166.860,362.052 168.660,362.191 170.200 C 362.331 171.740,362.712 173.954,363.039 175.120 C 363.366 176.285,363.804 179.795,364.013 182.920 C 364.222 186.044,364.565 190.580,364.776 193.000 C 365.255 198.501,365.259 210.237,364.784 215.000 C 364.586 216.980,364.241 221.328,364.016 224.663 C 363.792 227.998,363.412 231.238,363.172 231.863 C 362.933 232.488,362.489 234.890,362.186 237.200 C 361.599 241.683,360.734 246.149,359.824 249.400 C 359.516 250.500,359.139 252.210,358.986 253.200 C 358.833 254.190,358.524 255.347,358.301 255.772 C 358.078 256.196,357.662 257.546,357.376 258.772 C 356.500 262.532,354.667 268.286,353.572 270.711 C 353.148 271.652,352.800 272.687,352.800 273.012 C 352.800 273.337,352.440 274.275,352.000 275.096 C 351.560 275.916,351.200 276.801,351.200 277.062 C 351.200 277.322,350.937 278.045,350.616 278.668 C 349.623 280.592,348.000 284.332,348.000 284.695 C 348.000 284.885,347.799 285.241,347.553 285.487 C 347.308 285.732,346.541 287.163,345.849 288.667 C 334.802 312.678,311.858 336.671,289.000 348.114 C 283.954 350.639,275.576 354.400,274.993 354.400 C 274.844 354.400,274.154 354.641,273.460 354.936 C 271.578 355.737,267.034 357.083,263.200 357.975 C 256.133 359.619,254.110 360.027,251.000 360.435 C 249.240 360.665,246.630 361.022,245.200 361.228 C 229.270 363.521,216.896 361.091,209.981 354.314 C 208.067 352.438,205.200 349.236,205.200 348.975 C 205.200 348.887,204.600 347.867,203.866 346.708 C 203.132 345.548,201.761 343.070,200.820 341.200 C 199.879 339.330,198.467 336.644,197.681 335.231 C 195.242 330.841,193.224 327.057,192.573 325.651 C 192.230 324.910,191.495 323.584,190.940 322.705 C 190.386 321.827,188.670 318.654,187.128 315.654 C 185.586 312.654,184.183 310.020,184.011 309.800 C 183.839 309.580,182.577 307.242,181.208 304.604 C 179.838 301.966,178.408 299.356,178.029 298.804 C 177.651 298.252,176.741 296.630,176.009 295.200 C 173.890 291.065,171.844 287.192,170.409 284.600 C 169.678 283.280,168.456 281.030,167.692 279.600 C 166.929 278.170,165.124 274.840,163.681 272.200 C 162.239 269.560,160.289 265.900,159.350 264.066 C 158.410 262.232,157.474 260.522,157.268 260.266 C 157.063 260.010,156.005 258.090,154.917 256.000 C 153.089 252.487,152.098 250.637,147.955 243.000 C 147.120 241.460,145.711 238.760,144.825 237.000 C 143.082 233.541,140.518 228.845,140.019 228.200 C 139.849 227.980,138.852 226.180,137.803 224.200 C 136.754 222.220,135.219 219.340,134.393 217.800 C 133.566 216.260,131.812 212.930,130.494 210.400 C 129.177 207.870,127.221 204.267,126.149 202.393 C 125.077 200.520,123.600 197.820,122.866 196.393 C 122.133 194.967,121.085 192.990,120.538 192.000 C 119.991 191.010,118.611 188.447,117.472 186.305 C 116.332 184.163,114.919 181.553,114.331 180.505 C 112.977 178.090,112.181 176.626,109.925 172.400 C 108.927 170.530,107.476 167.830,106.701 166.400 C 105.926 164.970,104.317 161.910,103.125 159.600 C 99.801 153.155,98.854 152.116,97.749 153.700 C 96.915 154.895,97.732 301.215,98.576 301.832 C 99.201 302.289,101.439 302.400,110.016 302.400 C 124.122 302.400,128.465 303.275,134.844 307.401 C 150.484 317.518,152.831 340.052,139.614 353.200 C 135.492 357.300,133.490 358.525,127.400 360.672 L 124.200 361.800 94.264 361.917 C 64.877 362.031,64.264 362.018,60.864 361.183 C 54.048 359.508,49.474 356.642,44.200 350.742 C 42.663 349.024,39.886 343.354,38.938 340.000 C 38.032 336.792,37.524 70.255,38.413 64.400 C 40.149 52.980,47.082 44.504,57.995 40.460 C 61.683 39.093,87.370 38.487,94.200 39.605 " stroke="none" fill="#ac89c8" fill-rule="evenodd"></path><path id="path4" d="M70.674 38.299 C 74.455 38.365,80.755 38.365,84.674 38.299 C 88.593 38.234,85.500 38.180,77.800 38.180 C 70.100 38.180,66.893 38.234,70.674 38.299 M219.519 38.298 C 221.344 38.372,224.224 38.372,225.919 38.297 C 227.614 38.222,226.120 38.161,222.600 38.162 C 219.080 38.162,217.694 38.224,219.519 38.298 M230.307 38.690 C 231.026 38.779,232.106 38.777,232.707 38.686 C 233.308 38.595,232.720 38.522,231.400 38.524 C 230.080 38.526,229.588 38.601,230.307 38.690 M236.705 39.083 C 237.202 39.179,237.922 39.175,238.305 39.075 C 238.687 38.975,238.280 38.896,237.400 38.901 C 236.520 38.905,236.207 38.987,236.705 39.083 M98.400 39.933 C 98.730 40.136,99.450 40.424,100.000 40.571 C 100.695 40.757,100.817 40.725,100.400 40.467 C 100.070 40.264,99.350 39.976,98.800 39.829 C 98.105 39.643,97.983 39.675,98.400 39.933 M242.100 39.876 C 242.485 39.976,243.115 39.976,243.500 39.876 C 243.885 39.775,243.570 39.693,242.800 39.693 C 242.030 39.693,241.715 39.775,242.100 39.876 M101.200 40.984 C 101.200 41.094,101.920 41.551,102.800 42.000 C 103.680 42.449,104.400 42.726,104.400 42.616 C 104.400 42.506,103.680 42.049,102.800 41.600 C 101.920 41.151,101.200 40.874,101.200 40.984 M45.787 47.300 L 43.400 49.800 45.900 47.413 C 48.222 45.195,48.583 44.800,48.287 44.800 C 48.226 44.800,47.101 45.925,45.787 47.300 M198.181 46.900 L 196.600 48.600 198.300 47.019 C 199.235 46.149,200.000 45.384,200.000 45.319 C 200.000 45.016,199.652 45.319,198.181 46.900 M273.600 48.286 C 273.930 48.408,274.560 48.674,275.000 48.876 C 275.787 49.238,275.788 49.234,275.024 48.622 C 274.596 48.280,273.966 48.014,273.624 48.032 C 273.085 48.059,273.082 48.093,273.600 48.286 M111.983 49.900 C 112.726 50.835,113.406 51.600,113.494 51.600 C 113.777 51.600,112.063 49.349,111.335 48.764 C 110.948 48.454,111.240 48.965,111.983 49.900 M282.000 51.788 C 282.000 51.898,283.080 52.534,284.400 53.200 C 285.720 53.866,286.800 54.322,286.800 54.212 C 286.800 54.102,285.720 53.466,284.400 52.800 C 283.080 52.134,282.000 51.678,282.000 51.788 M293.400 58.207 C 293.840 58.566,294.560 59.035,295.000 59.251 L 295.800 59.644 295.000 58.993 C 294.560 58.634,293.840 58.165,293.400 57.949 L 292.600 57.556 293.400 58.207 M120.124 63.800 C 120.462 64.460,121.038 65.360,121.404 65.800 C 121.770 66.240,121.665 65.880,121.170 65.000 C 120.080 63.058,119.264 62.122,120.124 63.800 M37.324 66.200 C 37.326 67.520,37.401 68.012,37.490 67.293 C 37.579 66.574,37.577 65.494,37.486 64.893 C 37.395 64.292,37.322 64.880,37.324 66.200 M189.309 65.600 C 189.309 66.590,189.387 66.995,189.482 66.500 C 189.578 66.005,189.578 65.195,189.482 64.700 C 189.387 64.205,189.309 64.610,189.309 65.600 M312.800 73.000 C 313.546 73.770,314.247 74.400,314.357 74.400 C 314.467 74.400,313.946 73.770,313.200 73.000 C 312.454 72.230,311.753 71.600,311.643 71.600 C 311.533 71.600,312.054 72.230,312.800 73.000 M318.400 78.200 C 320.260 80.070,321.872 81.600,321.982 81.600 C 322.092 81.600,320.660 80.070,318.800 78.200 C 316.940 76.330,315.328 74.800,315.218 74.800 C 315.108 74.800,316.540 76.330,318.400 78.200 M131.200 84.400 C 131.649 85.280,132.106 86.000,132.216 86.000 C 132.326 86.000,132.049 85.280,131.600 84.400 C 131.151 83.520,130.694 82.800,130.584 82.800 C 130.474 82.800,130.751 83.520,131.200 84.400 M326.400 87.200 C 327.544 88.520,328.569 89.600,328.679 89.600 C 328.789 89.600,327.944 88.520,326.800 87.200 C 325.656 85.880,324.631 84.800,324.521 84.800 C 324.411 84.800,325.256 85.880,326.400 87.200 M136.282 93.789 C 136.873 94.993,137.423 95.911,137.505 95.829 C 137.684 95.649,135.667 91.600,135.398 91.600 C 135.294 91.600,135.692 92.585,136.282 93.789 M334.349 97.400 C 334.565 97.840,335.034 98.560,335.393 99.000 L 336.044 99.800 335.651 99.000 C 335.435 98.560,334.966 97.840,334.607 97.400 L 333.956 96.600 334.349 97.400 M339.696 105.700 C 340.019 106.195,341.221 108.265,342.367 110.300 C 343.513 112.335,344.543 114.000,344.655 114.000 C 344.767 114.000,344.279 112.965,343.570 111.700 C 341.290 107.632,339.548 104.800,339.325 104.800 C 339.206 104.800,339.372 105.205,339.696 105.700 M250.558 112.200 C 250.558 115.280,250.621 116.487,250.697 114.882 C 250.773 113.278,250.773 110.758,250.696 109.282 C 250.619 107.807,250.557 109.120,250.558 112.200 M143.600 107.386 C 143.600 107.805,145.206 110.400,145.465 110.400 C 145.575 110.400,145.259 109.725,144.763 108.900 C 143.658 107.062,143.600 106.987,143.600 107.386 M275.208 121.900 C 277.711 124.595,279.831 126.800,279.920 126.800 C 280.214 126.800,275.309 121.444,272.961 119.200 C 271.695 117.990,272.706 119.205,275.208 121.900 M189.100 121.276 C 189.431 125.014,189.940 126.453,189.710 123.000 C 189.593 121.240,189.366 119.654,189.205 119.476 C 189.044 119.299,188.997 120.109,189.100 121.276 M250.509 122.000 C 250.509 122.990,250.587 123.395,250.682 122.900 C 250.778 122.405,250.778 121.595,250.682 121.100 C 250.587 120.605,250.509 121.010,250.509 122.000 M348.434 122.200 C 348.434 122.420,348.778 123.230,349.200 124.000 C 349.622 124.770,349.966 125.220,349.966 125.000 C 349.966 124.780,349.622 123.970,349.200 123.200 C 348.778 122.430,348.434 121.980,348.434 122.200 M352.028 130.600 C 352.028 130.820,352.286 131.450,352.600 132.000 C 352.914 132.550,353.172 132.820,353.172 132.600 C 353.172 132.380,352.914 131.750,352.600 131.200 C 352.286 130.650,352.028 130.380,352.028 130.600 M285.323 134.300 C 287.946 138.929,289.307 141.200,289.459 141.200 C 289.562 141.200,289.571 141.065,289.477 140.900 C 286.854 136.271,285.493 134.000,285.341 134.000 C 285.238 134.000,285.229 134.135,285.323 134.300 M353.614 134.454 C 353.606 134.594,353.863 135.314,354.184 136.054 C 354.506 136.794,354.769 137.130,354.770 136.800 C 354.772 136.224,353.643 133.934,353.614 134.454 M194.800 137.200 C 195.270 137.860,195.744 138.400,195.854 138.400 C 195.964 138.400,195.670 137.860,195.200 137.200 C 194.730 136.540,194.256 136.000,194.146 136.000 C 194.036 136.000,194.330 136.540,194.800 137.200 M240.987 141.300 L 238.600 143.800 241.100 141.413 C 242.475 140.099,243.600 138.974,243.600 138.913 C 243.600 138.617,243.205 138.978,240.987 141.300 M198.000 141.000 C 198.746 141.770,199.447 142.400,199.557 142.400 C 199.667 142.400,199.146 141.770,198.400 141.000 C 197.654 140.230,196.953 139.600,196.843 139.600 C 196.733 139.600,197.254 140.230,198.000 141.000 M161.800 141.200 C 162.141 141.860,162.511 142.400,162.621 142.400 C 162.731 142.400,162.541 141.860,162.200 141.200 C 161.859 140.540,161.489 140.000,161.379 140.000 C 161.269 140.000,161.459 140.540,161.800 141.200 M357.454 145.800 C 357.874 147.703,358.448 148.846,358.156 147.200 C 358.020 146.430,357.746 145.530,357.549 145.200 C 357.314 144.808,357.281 145.016,357.454 145.800 M231.200 147.800 C 230.650 148.114,230.380 148.372,230.600 148.372 C 230.820 148.372,231.450 148.114,232.000 147.800 C 232.550 147.486,232.820 147.228,232.600 147.228 C 232.380 147.228,231.750 147.486,231.200 147.800 M292.434 147.400 C 292.434 147.620,292.778 148.430,293.200 149.200 C 293.622 149.970,293.966 150.420,293.966 150.200 C 293.966 149.980,293.622 149.170,293.200 148.400 C 292.778 147.630,292.434 147.180,292.434 147.400 M224.800 149.600 C 223.416 149.891,223.414 149.895,224.600 149.941 C 225.260 149.967,226.070 149.813,226.400 149.600 C 227.066 149.170,226.845 149.170,224.800 149.600 M294.028 151.000 C 294.028 151.220,294.286 151.850,294.600 152.400 C 294.914 152.950,295.172 153.220,295.172 153.000 C 295.172 152.780,294.914 152.150,294.600 151.600 C 294.286 151.050,294.028 150.780,294.028 151.000 M169.481 155.629 C 169.940 156.383,170.694 157.630,171.156 158.400 C 171.619 159.170,171.998 159.662,171.999 159.494 C 172.001 158.986,169.556 154.820,169.085 154.529 C 168.844 154.380,169.023 154.875,169.481 155.629 M107.212 169.400 C 108.373 171.600,109.503 173.580,109.724 173.800 C 109.944 174.020,109.179 172.400,108.025 170.200 C 106.870 168.000,105.740 166.020,105.514 165.800 C 105.287 165.580,106.052 167.200,107.212 169.400 M362.493 167.600 C 362.493 168.370,362.575 168.685,362.676 168.300 C 362.776 167.915,362.776 167.285,362.676 166.900 C 362.575 166.515,362.493 166.830,362.493 167.600 M176.640 168.802 C 177.239 169.903,177.793 170.740,177.871 170.663 C 178.043 170.490,176.008 166.800,175.741 166.800 C 175.636 166.800,176.040 167.701,176.640 168.802 M300.880 172.200 C 300.880 172.640,301.024 173.450,301.200 174.000 C 301.454 174.792,301.520 174.833,301.520 174.200 C 301.520 173.760,301.376 172.950,301.200 172.400 C 300.946 171.608,300.880 171.567,300.880 172.200 M110.800 176.000 C 111.249 176.880,111.706 177.600,111.816 177.600 C 111.926 177.600,111.649 176.880,111.200 176.000 C 110.751 175.120,110.294 174.400,110.184 174.400 C 110.074 174.400,110.351 175.120,110.800 176.000 M182.836 180.407 C 183.542 181.731,184.194 182.739,184.286 182.648 C 184.473 182.460,182.028 178.000,181.738 178.000 C 181.636 178.000,182.130 179.083,182.836 180.407 M364.423 181.233 C 364.436 182.425,364.597 184.120,364.782 185.000 C 365.010 186.088,365.049 185.448,364.903 183.000 C 364.662 178.951,364.388 177.943,364.423 181.233 M185.455 185.000 C 186.380 186.579,186.400 186.603,186.400 186.111 C 186.400 185.879,186.029 185.264,185.576 184.744 L 184.753 183.800 185.455 185.000 M303.293 185.600 C 303.293 186.370,303.375 186.685,303.476 186.300 C 303.576 185.915,303.576 185.285,303.476 184.900 C 303.375 184.515,303.293 184.830,303.293 185.600 M187.000 188.000 C 187.341 188.660,187.711 189.200,187.821 189.200 C 187.931 189.200,187.741 188.660,187.400 188.000 C 187.059 187.340,186.689 186.800,186.579 186.800 C 186.469 186.800,186.659 187.340,187.000 188.000 M365.309 189.200 C 365.309 190.190,365.387 190.595,365.482 190.100 C 365.578 189.605,365.578 188.795,365.482 188.300 C 365.387 187.805,365.309 188.210,365.309 189.200 M303.724 191.400 C 303.726 192.720,303.801 193.212,303.890 192.493 C 303.979 191.774,303.977 190.694,303.886 190.093 C 303.795 189.492,303.722 190.080,303.724 191.400 M365.701 195.400 C 365.705 196.280,365.787 196.593,365.883 196.095 C 365.979 195.598,365.975 194.878,365.875 194.495 C 365.775 194.113,365.696 194.520,365.701 195.400 M304.514 202.200 C 304.517 203.300,304.595 203.703,304.687 203.095 C 304.779 202.486,304.777 201.586,304.682 201.095 C 304.587 200.603,304.511 201.100,304.514 202.200 M196.200 205.200 C 196.541 205.860,196.911 206.400,197.021 206.400 C 197.131 206.400,196.941 205.860,196.600 205.200 C 196.259 204.540,195.889 204.000,195.779 204.000 C 195.669 204.000,195.859 204.540,196.200 205.200 M129.482 210.589 C 130.073 211.793,130.623 212.711,130.705 212.629 C 130.884 212.449,128.867 208.400,128.598 208.400 C 128.494 208.400,128.892 209.385,129.482 210.589 M304.109 211.600 C 304.109 212.590,304.187 212.995,304.282 212.500 C 304.378 212.005,304.378 211.195,304.282 210.700 C 304.187 210.205,304.109 210.610,304.109 211.600 M365.734 213.600 C 365.734 215.250,365.805 215.925,365.891 215.100 C 365.978 214.275,365.978 212.925,365.891 212.100 C 365.805 211.275,365.734 211.950,365.734 213.600 M200.000 211.753 C 200.000 212.182,201.190 214.400,201.421 214.400 C 201.531 214.400,201.323 213.815,200.959 213.100 C 200.217 211.640,200.000 211.336,200.000 211.753 M303.728 216.800 C 303.728 218.230,303.801 218.815,303.889 218.100 C 303.978 217.385,303.978 216.215,303.889 215.500 C 303.801 214.785,303.728 215.370,303.728 216.800 M365.293 218.800 C 365.293 219.570,365.375 219.885,365.476 219.500 C 365.576 219.115,365.576 218.485,365.476 218.100 C 365.375 217.715,365.293 218.030,365.293 218.800 M134.015 219.000 C 134.020 219.220,134.468 220.120,135.010 221.000 C 135.552 221.880,135.991 222.420,135.985 222.200 C 135.980 221.980,135.532 221.080,134.990 220.200 C 134.448 219.320,134.009 218.780,134.015 219.000 M364.893 222.000 C 364.893 222.770,364.975 223.085,365.076 222.700 C 365.176 222.315,365.176 221.685,365.076 221.300 C 364.975 220.915,364.893 221.230,364.893 222.000 M364.524 226.200 C 364.526 227.520,364.601 228.012,364.690 227.293 C 364.779 226.574,364.777 225.494,364.686 224.893 C 364.595 224.292,364.522 224.880,364.524 226.200 M302.093 229.200 C 302.093 229.970,302.175 230.285,302.276 229.900 C 302.376 229.515,302.376 228.885,302.276 228.500 C 302.175 228.115,302.093 228.430,302.093 229.200 M212.200 234.800 C 212.541 235.460,212.911 236.000,213.021 236.000 C 213.131 236.000,212.941 235.460,212.600 234.800 C 212.259 234.140,211.889 233.600,211.779 233.600 C 211.669 233.600,211.859 234.140,212.200 234.800 M145.200 240.000 C 145.649 240.880,146.106 241.600,146.216 241.600 C 146.326 241.600,146.049 240.880,145.600 240.000 C 145.151 239.120,144.694 238.400,144.584 238.400 C 144.474 238.400,144.751 239.120,145.200 240.000 M362.493 240.400 C 362.493 241.170,362.575 241.485,362.676 241.100 C 362.776 240.715,362.776 240.085,362.676 239.700 C 362.575 239.315,362.493 239.630,362.493 240.400 M361.681 243.888 C 361.416 244.771,361.216 245.832,361.236 246.246 C 361.255 246.661,361.522 246.100,361.828 245.000 C 362.496 242.595,362.365 241.604,361.681 243.888 M149.800 248.400 C 150.141 249.060,150.511 249.600,150.621 249.600 C 150.731 249.600,150.541 249.060,150.200 248.400 C 149.859 247.740,149.489 247.200,149.379 247.200 C 149.269 247.200,149.459 247.740,149.800 248.400 M221.600 252.400 C 222.049 253.280,222.506 254.000,222.616 254.000 C 222.726 254.000,222.449 253.280,222.000 252.400 C 221.551 251.520,221.094 250.800,220.984 250.800 C 220.874 250.800,221.151 251.520,221.600 252.400 M223.600 256.000 C 224.049 256.880,224.506 257.600,224.616 257.600 C 224.726 257.600,224.449 256.880,224.000 256.000 C 223.551 255.120,223.094 254.400,222.984 254.400 C 222.874 254.400,223.151 255.120,223.600 256.000 M358.033 259.433 C 357.775 260.459,357.639 261.372,357.731 261.464 C 357.822 261.556,358.109 260.792,358.367 259.767 C 358.625 258.741,358.761 257.828,358.669 257.736 C 358.578 257.644,358.291 258.408,358.033 259.433 M226.856 261.983 C 227.577 263.294,228.231 264.303,228.309 264.224 C 228.482 264.051,226.004 259.600,225.735 259.600 C 225.631 259.600,226.135 260.673,226.856 261.983 M290.012 264.240 C 289.317 265.473,288.812 266.545,288.891 266.624 C 288.969 266.703,289.623 265.694,290.344 264.383 C 291.065 263.073,291.569 262.000,291.465 262.000 C 291.361 262.000,290.707 263.008,290.012 264.240 M356.846 263.239 C 356.601 263.943,356.413 264.718,356.428 264.960 C 356.444 265.202,356.714 264.696,357.030 263.835 C 357.345 262.974,357.533 262.200,357.448 262.115 C 357.362 262.029,357.092 262.535,356.846 263.239 M229.078 266.195 C 229.444 266.962,229.814 267.519,229.901 267.432 C 230.084 267.249,228.870 264.800,228.596 264.800 C 228.495 264.800,228.712 265.428,229.078 266.195 M231.204 270.200 C 231.205 270.420,231.563 271.140,232.000 271.800 C 233.036 273.364,233.037 272.808,232.001 271.110 C 231.562 270.389,231.204 269.980,231.204 270.200 M285.579 271.900 C 284.876 272.945,284.639 273.497,285.051 273.127 C 285.837 272.420,287.385 270.000,287.051 270.000 C 286.944 270.000,286.282 270.855,285.579 271.900 M281.188 277.700 C 280.200 278.895,279.931 279.369,280.565 278.800 C 281.663 277.814,283.410 275.600,283.090 275.600 C 282.999 275.600,282.144 276.545,281.188 277.700 M166.400 279.200 C 167.066 280.520,167.702 281.600,167.812 281.600 C 167.922 281.600,167.466 280.520,166.800 279.200 C 166.134 277.880,165.498 276.800,165.388 276.800 C 165.278 276.800,165.734 277.880,166.400 279.200 M237.200 281.200 C 237.649 282.080,238.106 282.800,238.216 282.800 C 238.326 282.800,238.049 282.080,237.600 281.200 C 237.151 280.320,236.694 279.600,236.584 279.600 C 236.474 279.600,236.751 280.320,237.200 281.200 M275.385 284.100 L 273.400 286.200 275.500 284.215 C 277.451 282.371,277.783 282.000,277.485 282.000 C 277.422 282.000,276.477 282.945,275.385 284.100 M170.446 286.796 C 170.939 287.673,171.408 288.326,171.487 288.246 C 171.659 288.074,170.006 285.200,169.735 285.200 C 169.633 285.200,169.952 285.918,170.446 286.796 M173.636 292.807 C 174.342 294.131,174.994 295.139,175.086 295.048 C 175.273 294.860,172.828 290.400,172.538 290.400 C 172.436 290.400,172.930 291.483,173.636 292.807 M344.678 292.605 C 344.312 293.372,344.095 294.000,344.196 294.000 C 344.470 294.000,345.684 291.551,345.501 291.368 C 345.414 291.281,345.044 291.838,344.678 292.605 M258.700 295.429 C 257.149 296.270,257.325 296.561,258.900 295.759 C 260.408 294.993,260.675 294.794,260.167 294.816 C 259.965 294.825,259.305 295.101,258.700 295.429 M179.000 302.400 C 179.341 303.060,179.711 303.600,179.821 303.600 C 179.931 303.600,179.741 303.060,179.400 302.400 C 179.059 301.740,178.689 301.200,178.579 301.200 C 178.469 301.200,178.659 301.740,179.000 302.400 M131.233 304.549 C 131.645 304.917,134.000 306.000,134.000 305.821 C 134.000 305.590,131.782 304.400,131.353 304.400 C 131.196 304.400,131.142 304.467,131.233 304.549 M140.600 311.600 C 141.459 312.480,142.252 313.200,142.362 313.200 C 142.472 313.200,141.859 312.480,141.000 311.600 C 140.141 310.720,139.348 310.000,139.238 310.000 C 139.128 310.000,139.741 310.720,140.600 311.600 M330.175 314.668 C 329.559 315.476,329.259 316.011,329.509 315.856 C 330.021 315.540,331.753 313.200,331.475 313.200 C 331.376 313.200,330.791 313.861,330.175 314.668 M327.578 317.900 L 326.200 319.400 327.700 318.022 C 329.096 316.738,329.384 316.400,329.078 316.400 C 329.012 316.400,328.337 317.075,327.578 317.900 M145.400 318.000 C 145.741 318.660,146.111 319.200,146.221 319.200 C 146.331 319.200,146.141 318.660,145.800 318.000 C 145.459 317.340,145.089 316.800,144.979 316.800 C 144.869 316.800,145.059 317.340,145.400 318.000 M324.778 321.100 L 323.400 322.600 324.900 321.222 C 325.725 320.463,326.400 319.788,326.400 319.722 C 326.400 319.416,326.062 319.704,324.778 321.100 M147.079 321.400 C 147.214 322.060,147.566 323.230,147.861 324.000 L 148.398 325.400 148.152 324.000 C 148.017 323.230,147.664 322.060,147.370 321.400 L 146.833 320.200 147.079 321.400 M190.760 324.200 C 191.434 325.505,191.988 326.228,191.985 325.800 C 191.983 325.580,191.614 324.950,191.164 324.400 C 190.621 323.736,190.485 323.669,190.760 324.200 M318.591 327.700 L 315.400 331.000 318.700 327.809 C 321.765 324.846,322.182 324.400,321.891 324.400 C 321.830 324.400,320.345 325.885,318.591 327.700 M37.314 334.600 C 37.317 335.700,37.395 336.103,37.487 335.495 C 37.579 334.886,37.577 333.986,37.482 333.495 C 37.387 333.003,37.311 333.500,37.314 334.600 M37.606 339.033 C 37.609 339.455,37.795 340.070,38.018 340.400 C 38.315 340.838,38.352 340.676,38.156 339.800 C 37.827 338.329,37.598 338.010,37.606 339.033 M199.478 340.595 C 199.844 341.362,200.214 341.919,200.301 341.832 C 200.484 341.649,199.270 339.200,198.996 339.200 C 198.895 339.200,199.112 339.828,199.478 340.595 M202.969 347.100 C 203.293 347.705,204.026 348.740,204.599 349.400 C 205.301 350.210,205.160 349.853,204.163 348.300 C 202.609 345.879,201.972 345.239,202.969 347.100 M42.336 349.900 C 42.771 350.505,43.716 351.540,44.435 352.200 C 45.275 352.971,45.046 352.577,43.795 351.100 C 41.723 348.653,41.030 348.083,42.336 349.900 M143.199 350.100 C 142.610 350.904,142.513 351.184,142.945 350.833 C 143.601 350.300,144.593 348.800,144.289 348.800 C 144.213 348.800,143.722 349.385,143.199 350.100 M139.586 354.300 L 137.400 356.600 139.700 354.414 C 141.837 352.382,142.183 352.000,141.886 352.000 C 141.824 352.000,140.789 353.035,139.586 354.300 M207.600 353.325 C 207.600 353.394,208.185 353.979,208.900 354.625 L 210.200 355.800 209.025 354.500 C 207.930 353.288,207.600 353.016,207.600 353.325 M135.800 357.450 C 135.081 358.062,134.934 358.305,135.433 358.057 C 136.166 357.693,137.541 356.376,137.149 356.414 C 137.067 356.422,136.460 356.888,135.800 357.450 M213.600 358.364 C 214.150 358.814,214.780 359.183,215.000 359.185 C 215.428 359.188,214.705 358.634,213.400 357.960 C 212.869 357.685,212.936 357.821,213.600 358.364 M131.200 360.000 C 130.430 360.422,129.980 360.766,130.200 360.766 C 130.420 360.766,131.230 360.422,132.000 360.000 C 132.770 359.578,133.220 359.234,133.000 359.234 C 132.780 359.234,131.970 359.578,131.200 360.000 M54.576 360.178 C 55.004 360.520,55.634 360.786,55.976 360.768 C 56.515 360.741,56.518 360.707,56.000 360.514 C 55.670 360.392,55.040 360.126,54.600 359.924 C 53.813 359.562,53.812 359.566,54.576 360.178 M252.500 361.076 C 252.885 361.176,253.515 361.176,253.900 361.076 C 254.285 360.975,253.970 360.893,253.200 360.893 C 252.430 360.893,252.115 360.975,252.500 361.076 M59.000 361.814 C 59.660 362.117,60.560 362.360,61.000 362.355 C 61.440 362.350,60.990 362.091,60.000 361.779 C 57.779 361.080,57.422 361.092,59.000 361.814 M244.900 362.276 C 245.285 362.376,245.915 362.376,246.300 362.276 C 246.685 362.175,246.370 362.093,245.600 362.093 C 244.830 362.093,244.515 362.175,244.900 362.276 M63.500 362.682 C 63.995 362.778,64.805 362.778,65.300 362.682 C 65.795 362.587,65.390 362.509,64.400 362.509 C 63.410 362.509,63.005 362.587,63.500 362.682 M81.128 362.700 C 87.359 362.762,97.439 362.762,103.528 362.700 C 109.618 362.638,104.520 362.587,92.200 362.587 C 79.880 362.587,74.898 362.638,81.128 362.700 M117.500 362.695 C 118.655 362.776,120.545 362.776,121.700 362.695 C 122.855 362.614,121.910 362.548,119.600 362.548 C 117.290 362.548,116.345 362.614,117.500 362.695 M234.300 362.695 C 235.455 362.776,237.345 362.776,238.500 362.695 C 239.655 362.614,238.710 362.548,236.400 362.548 C 234.090 362.548,233.145 362.614,234.300 362.695 " stroke="none" fill="#ac79cc" fill-rule="evenodd"></path></g></svg>