<svg id="svg" version="1.1" xmlns="http://www.w3.org/2000/svg" xmlns:xlink="http://www.w3.org/1999/xlink" width="400" height="463.5253054101222" viewBox="0, 0, 400,463.5253054101222"><g id="svgg"><path id="path0" d="M0.000 161.166 C 0.000 192.781,0.126 206.000,0.429 206.000 C 1.021 206.000,2.018 207.049,1.714 207.352 C 1.578 207.489,1.857 207.600,2.333 207.600 C 2.810 207.600,3.200 207.760,3.200 207.957 C 3.200 208.153,3.650 208.426,4.200 208.564 C 4.750 208.702,5.200 208.992,5.200 209.208 C 5.200 209.423,5.560 209.600,6.000 209.600 C 6.440 209.600,6.800 209.780,6.800 210.000 C 6.800 210.220,7.070 210.400,7.400 210.400 C 7.730 210.400,8.000 210.580,8.000 210.800 C 8.000 211.020,8.366 211.200,8.813 211.200 C 9.259 211.200,9.729 211.470,9.855 211.800 C 9.982 212.130,10.354 212.400,10.681 212.400 C 11.009 212.400,11.798 212.771,12.436 213.225 C 13.073 213.679,13.743 213.959,13.924 213.847 C 14.106 213.735,14.507 213.993,14.815 214.421 C 15.124 214.850,15.607 215.200,15.888 215.200 C 16.170 215.200,16.400 215.380,16.400 215.600 C 16.400 215.820,16.655 216.000,16.968 216.000 C 17.681 216.000,19.994 217.298,19.997 217.700 C 19.999 217.865,20.270 218.000,20.600 218.000 C 20.930 218.000,21.200 218.180,21.200 218.400 C 21.200 218.620,21.566 218.800,22.013 218.800 C 22.459 218.800,22.929 219.070,23.055 219.400 C 23.182 219.730,23.626 220.000,24.043 220.000 C 24.459 220.000,24.800 220.143,24.800 220.318 C 24.800 220.493,25.610 220.970,26.600 221.378 C 27.590 221.787,28.400 222.273,28.400 222.460 C 28.400 222.647,28.670 222.800,29.000 222.800 C 29.330 222.800,29.600 222.980,29.600 223.200 C 29.600 223.420,29.960 223.600,30.400 223.600 C 30.840 223.600,31.200 223.760,31.200 223.957 C 31.200 224.153,31.650 224.426,32.200 224.564 C 32.750 224.702,33.200 224.992,33.200 225.208 C 33.200 225.423,33.470 225.600,33.800 225.600 C 34.130 225.600,34.400 225.780,34.400 226.000 C 34.400 226.220,34.655 226.400,34.968 226.400 C 35.681 226.400,37.994 227.698,37.997 228.100 C 37.999 228.265,38.360 228.400,38.800 228.400 C 39.240 228.400,39.600 228.580,39.600 228.800 C 39.600 229.020,39.870 229.200,40.200 229.200 C 40.530 229.200,40.800 229.377,40.800 229.592 C 40.800 229.808,41.250 230.098,41.800 230.236 C 42.350 230.374,42.800 230.647,42.800 230.843 C 42.800 231.040,43.160 231.200,43.600 231.200 C 44.040 231.200,44.400 231.380,44.400 231.600 C 44.400 231.820,44.593 232.000,44.829 232.000 C 45.064 232.000,45.527 232.270,45.857 232.600 C 46.187 232.930,46.804 233.200,47.229 233.200 C 47.653 233.200,48.000 233.380,48.000 233.600 C 48.000 233.820,48.270 234.000,48.600 234.000 C 48.930 234.000,49.200 234.180,49.200 234.400 C 49.200 234.620,49.560 234.800,50.000 234.800 C 50.440 234.800,50.800 234.977,50.800 235.192 C 50.800 235.408,51.250 235.698,51.800 235.836 C 52.350 235.974,52.800 236.203,52.800 236.346 C 52.800 236.488,53.385 236.863,54.100 237.178 C 54.815 237.493,55.638 237.987,55.929 238.275 C 56.219 238.564,56.714 238.800,57.029 238.800 C 57.343 238.800,57.600 238.980,57.600 239.200 C 57.600 239.420,57.842 239.600,58.138 239.600 C 58.434 239.600,59.008 239.966,59.413 240.414 C 59.818 240.862,60.386 241.138,60.675 241.027 C 60.964 240.916,61.200 240.999,61.200 241.213 C 61.200 241.426,61.470 241.600,61.800 241.600 C 62.130 241.600,62.400 241.780,62.400 242.000 C 62.400 242.220,62.741 242.400,63.157 242.400 C 63.574 242.400,64.012 242.654,64.131 242.965 C 64.250 243.275,64.990 243.761,65.774 244.045 C 66.558 244.329,67.200 244.705,67.200 244.880 C 67.200 245.056,67.560 245.200,68.000 245.200 C 68.440 245.200,68.800 245.377,68.800 245.592 C 68.800 245.808,69.250 246.098,69.800 246.236 C 70.350 246.374,70.800 246.647,70.800 246.843 C 70.800 247.040,71.148 247.200,71.573 247.200 C 71.998 247.200,72.460 247.560,72.600 248.000 C 72.740 248.440,73.130 248.800,73.467 248.800 C 74.324 248.800,76.844 250.029,77.800 250.914 C 78.240 251.322,79.095 251.755,79.700 251.877 C 80.305 252.000,80.800 252.257,80.800 252.450 C 80.800 252.643,81.004 252.800,81.253 252.800 C 81.502 252.800,81.997 253.136,82.353 253.546 C 82.709 253.957,83.586 254.421,84.300 254.578 C 85.015 254.735,85.600 255.029,85.600 255.232 C 85.600 255.434,85.804 255.600,86.053 255.600 C 86.302 255.600,86.797 255.936,87.153 256.346 C 87.509 256.757,88.351 257.213,89.023 257.361 C 89.695 257.509,90.499 257.983,90.811 258.415 C 91.122 258.847,91.607 259.200,91.888 259.200 C 92.170 259.200,92.400 259.360,92.400 259.555 C 92.400 259.751,93.017 260.027,93.771 260.168 C 94.525 260.310,95.200 260.561,95.271 260.727 C 95.484 261.224,97.728 262.673,98.800 263.005 C 99.350 263.175,100.091 263.649,100.447 264.057 C 100.803 264.466,101.388 264.800,101.747 264.800 C 102.106 264.800,102.400 264.972,102.400 265.182 C 102.400 265.392,103.024 265.681,103.786 265.824 C 104.645 265.985,105.264 266.372,105.413 266.842 C 105.546 267.259,106.002 267.600,106.427 267.600 C 106.852 267.600,107.200 267.791,107.200 268.024 C 107.200 268.257,107.359 268.349,107.553 268.229 C 107.747 268.109,108.361 268.368,108.916 268.805 C 109.472 269.242,110.123 269.600,110.363 269.600 C 110.603 269.600,110.800 269.780,110.800 270.000 C 110.800 270.220,111.070 270.400,111.400 270.400 C 111.730 270.400,112.000 270.599,112.000 270.843 C 112.000 271.086,112.272 271.181,112.604 271.054 C 112.957 270.918,113.411 271.149,113.700 271.611 C 113.971 272.045,114.436 272.400,114.734 272.400 C 115.033 272.400,115.754 272.736,116.338 273.148 C 116.922 273.559,117.805 274.021,118.300 274.174 C 118.795 274.328,119.200 274.622,119.200 274.827 C 119.200 275.032,119.470 275.200,119.800 275.200 C 120.130 275.200,120.400 275.367,120.400 275.572 C 120.400 275.777,120.805 276.002,121.300 276.072 L 122.200 276.200 122.301 347.330 C 122.408 422.807,122.327 419.600,124.129 419.600 C 124.451 419.600,124.818 419.870,124.945 420.200 C 125.071 420.530,125.541 420.800,125.987 420.800 C 126.434 420.800,126.800 420.980,126.800 421.200 C 126.800 421.420,127.070 421.600,127.400 421.600 C 127.730 421.600,128.000 421.780,128.000 422.000 C 128.000 422.220,128.360 422.400,128.800 422.400 C 129.240 422.400,129.600 422.577,129.600 422.792 C 129.600 423.008,130.050 423.298,130.600 423.436 C 131.150 423.574,131.600 423.847,131.600 424.043 C 131.600 424.240,131.804 424.400,132.053 424.400 C 132.302 424.400,132.797 424.736,133.153 425.146 C 133.509 425.557,134.386 426.021,135.100 426.178 C 135.815 426.335,136.400 426.629,136.400 426.832 C 136.400 427.034,136.741 427.200,137.157 427.200 C 137.574 427.200,138.012 427.454,138.131 427.765 C 138.250 428.075,138.990 428.561,139.774 428.845 C 140.558 429.129,141.200 429.505,141.200 429.680 C 141.200 429.856,141.520 430.000,141.912 430.000 C 142.303 430.000,142.882 430.359,143.199 430.798 C 143.515 431.237,144.365 431.707,145.087 431.843 C 145.809 431.978,146.400 432.249,146.400 432.445 C 146.400 432.640,146.630 432.800,146.912 432.800 C 147.193 432.800,147.676 433.150,147.985 433.579 C 148.293 434.007,148.680 434.274,148.845 434.172 C 149.010 434.070,149.258 434.170,149.396 434.393 C 149.534 434.617,149.957 434.800,150.335 434.800 C 150.714 434.800,151.283 435.160,151.600 435.600 C 151.917 436.040,152.407 436.400,152.688 436.400 C 152.970 436.400,153.200 436.558,153.200 436.750 C 153.200 436.943,153.764 437.213,154.454 437.351 C 155.143 437.489,155.998 437.925,156.354 438.321 C 156.986 439.026,159.577 440.400,160.272 440.400 C 160.465 440.400,160.883 440.760,161.200 441.200 C 161.517 441.640,162.097 442.000,162.488 442.000 C 162.880 442.000,163.200 442.160,163.200 442.357 C 163.200 442.553,163.650 442.826,164.200 442.964 C 164.750 443.102,165.200 443.392,165.200 443.608 C 165.200 443.823,165.470 444.000,165.800 444.000 C 166.130 444.000,166.400 444.180,166.400 444.400 C 166.400 444.620,166.760 444.800,167.200 444.800 C 167.640 444.800,168.000 444.980,168.000 445.200 C 168.000 445.420,168.257 445.600,168.571 445.600 C 168.886 445.600,169.381 445.832,169.671 446.114 C 169.962 446.397,171.235 447.115,172.500 447.709 C 173.765 448.303,174.800 448.972,174.800 449.195 C 174.800 449.418,175.115 449.606,175.500 449.613 C 175.885 449.620,176.549 449.890,176.976 450.213 C 177.404 450.536,178.066 450.800,178.449 450.800 C 178.833 450.800,179.260 451.160,179.400 451.600 C 179.540 452.040,180.002 452.400,180.427 452.400 C 180.852 452.400,181.200 452.560,181.200 452.757 C 181.200 452.953,181.650 453.226,182.200 453.364 C 182.750 453.502,183.200 453.792,183.200 454.008 C 183.200 454.223,183.560 454.400,184.000 454.400 C 184.440 454.400,184.800 454.580,184.800 454.800 C 184.800 455.020,185.070 455.200,185.400 455.200 C 185.730 455.200,186.000 455.380,186.000 455.600 C 186.000 455.820,186.366 456.000,186.813 456.000 C 187.259 456.000,187.729 456.270,187.855 456.600 C 187.982 456.930,188.426 457.200,188.843 457.200 C 189.259 457.200,189.600 457.380,189.600 457.600 C 189.600 457.820,189.870 458.000,190.200 458.000 C 190.530 458.000,190.800 458.180,190.800 458.400 C 190.800 458.620,191.147 458.800,191.571 458.800 C 191.996 458.800,192.581 459.036,192.871 459.325 C 193.162 459.613,193.985 460.107,194.700 460.422 C 195.415 460.737,196.000 461.131,196.000 461.298 C 196.000 461.464,196.257 461.600,196.571 461.600 C 196.886 461.600,197.404 461.861,197.723 462.180 C 198.042 462.499,198.730 462.868,199.252 462.999 L 200.200 463.237 200.097 418.342 C 200.028 388.552,200.129 373.311,200.397 373.043 C 200.665 372.775,200.800 348.801,200.800 301.510 L 200.800 230.380 199.600 230.140 C 198.940 230.008,198.400 229.743,198.400 229.550 C 198.400 229.357,198.130 229.200,197.800 229.200 C 197.470 229.200,197.200 229.020,197.200 228.800 C 197.200 228.580,196.952 228.400,196.649 228.400 C 196.346 228.400,195.874 228.130,195.600 227.800 C 195.326 227.470,194.764 227.200,194.351 227.200 C 193.938 227.200,193.600 227.062,193.600 226.894 C 193.600 226.726,192.880 226.277,192.000 225.896 C 191.120 225.514,190.400 225.022,190.400 224.801 C 190.400 224.581,190.040 224.400,189.600 224.400 C 189.160 224.400,188.800 224.220,188.800 224.000 C 188.800 223.780,188.612 223.600,188.383 223.600 C 188.154 223.600,187.575 223.236,187.097 222.790 C 186.619 222.345,185.997 222.069,185.714 222.178 C 185.431 222.286,185.200 222.201,185.200 221.987 C 185.200 221.774,184.930 221.600,184.600 221.600 C 184.270 221.600,184.000 221.420,184.000 221.200 C 184.000 220.980,183.659 220.800,183.243 220.800 C 182.826 220.800,182.388 220.546,182.269 220.235 C 182.150 219.925,181.410 219.439,180.626 219.155 C 179.842 218.871,179.200 218.495,179.200 218.320 C 179.200 218.144,178.840 218.000,178.400 218.000 C 177.960 218.000,177.600 217.823,177.600 217.608 C 177.600 217.392,177.150 217.102,176.600 216.964 C 176.050 216.826,175.600 216.553,175.600 216.357 C 175.600 216.160,175.240 216.000,174.800 216.000 C 174.360 216.000,174.000 215.820,174.000 215.600 C 174.000 215.380,173.730 215.200,173.400 215.200 C 173.070 215.200,172.800 215.023,172.800 214.808 C 172.800 214.592,172.350 214.302,171.800 214.164 C 171.250 214.026,170.800 213.753,170.800 213.557 C 170.800 213.360,170.522 213.200,170.183 213.200 C 169.844 213.200,169.169 212.828,168.683 212.373 C 168.197 211.917,167.305 211.445,166.700 211.323 C 166.095 211.200,165.600 210.943,165.600 210.750 C 165.600 210.558,165.370 210.400,165.088 210.400 C 164.807 210.400,164.318 210.041,164.001 209.602 C 163.685 209.163,162.835 208.693,162.113 208.557 C 161.391 208.422,160.800 208.151,160.800 207.955 C 160.800 207.760,160.570 207.600,160.288 207.600 C 160.007 207.600,159.522 207.247,159.211 206.815 C 158.899 206.383,158.095 205.909,157.423 205.761 C 156.751 205.613,155.909 205.157,155.553 204.746 C 155.197 204.336,154.702 204.000,154.453 204.000 C 154.204 204.000,154.000 203.820,154.000 203.600 C 154.000 203.380,153.865 203.236,153.700 203.279 C 153.126 203.431,151.396 202.681,150.800 202.022 C 150.202 201.361,147.595 200.000,146.928 200.000 C 146.735 200.000,146.317 199.640,146.000 199.200 C 145.683 198.760,145.103 198.400,144.712 198.400 C 144.320 198.400,144.000 198.209,144.000 197.976 C 144.000 197.743,143.832 197.656,143.628 197.783 C 143.423 197.909,143.142 197.830,143.004 197.607 C 142.866 197.383,142.481 197.200,142.148 197.200 C 141.421 197.200,140.336 196.197,140.686 195.848 C 140.822 195.711,140.543 195.600,140.067 195.600 C 139.590 195.600,139.200 195.440,139.200 195.243 C 139.200 195.047,138.750 194.774,138.200 194.636 C 137.650 194.498,137.200 194.208,137.200 193.992 C 137.200 193.777,136.840 193.600,136.400 193.600 C 135.960 193.600,135.600 193.420,135.600 193.200 C 135.600 192.980,135.330 192.800,135.000 192.800 C 134.670 192.800,134.400 192.601,134.400 192.357 C 134.400 192.114,134.128 192.019,133.796 192.146 C 133.443 192.282,132.989 192.051,132.700 191.589 C 132.429 191.155,131.964 190.800,131.666 190.800 C 131.367 190.800,130.646 190.464,130.062 190.052 C 129.478 189.641,128.595 189.179,128.100 189.026 C 127.605 188.872,127.200 188.578,127.200 188.373 C 127.200 188.168,126.930 188.000,126.600 188.000 C 126.270 188.000,126.000 187.834,126.000 187.632 C 126.000 187.429,125.415 187.135,124.700 186.978 C 123.986 186.821,123.109 186.357,122.753 185.946 C 122.397 185.536,121.902 185.200,121.653 185.200 C 121.404 185.200,121.200 185.020,121.200 184.800 C 121.200 184.580,120.834 184.400,120.387 184.400 C 119.941 184.400,119.471 184.130,119.345 183.800 C 119.218 183.470,118.774 183.200,118.357 183.200 C 117.941 183.200,117.600 183.020,117.600 182.800 C 117.600 182.580,117.229 182.400,116.776 182.400 C 116.323 182.400,116.064 182.220,116.200 182.000 C 116.336 181.780,116.089 181.600,115.652 181.600 C 115.215 181.600,114.587 181.330,114.257 181.000 C 113.927 180.670,113.464 180.400,113.229 180.400 C 112.993 180.400,112.800 180.220,112.800 180.000 C 112.800 179.780,112.440 179.600,112.000 179.600 C 111.560 179.600,111.200 179.440,111.200 179.243 C 111.200 179.047,110.750 178.774,110.200 178.636 C 109.650 178.498,109.200 178.208,109.200 177.992 C 109.200 177.777,108.829 177.600,108.376 177.600 C 107.923 177.600,107.664 177.420,107.800 177.200 C 107.936 176.980,107.781 176.800,107.456 176.800 C 106.724 176.800,104.406 175.509,104.403 175.100 C 104.401 174.935,104.040 174.800,103.600 174.800 C 103.160 174.800,102.800 174.620,102.800 174.400 C 102.800 174.180,102.530 174.000,102.200 174.000 C 101.870 174.000,101.600 173.823,101.600 173.608 C 101.600 173.392,101.150 173.102,100.600 172.964 C 100.050 172.826,99.600 172.553,99.600 172.357 C 99.600 172.160,99.240 172.000,98.800 172.000 C 98.360 172.000,98.000 171.820,98.000 171.600 C 98.000 171.380,97.807 171.200,97.571 171.200 C 97.336 171.200,96.873 170.930,96.543 170.600 C 96.213 170.270,95.596 170.000,95.171 170.000 C 94.747 170.000,94.400 169.820,94.400 169.600 C 94.400 169.380,94.130 169.200,93.800 169.200 C 93.470 169.200,93.200 169.020,93.200 168.800 C 93.200 168.580,92.840 168.400,92.400 168.400 C 91.960 168.400,91.600 168.223,91.600 168.008 C 91.600 167.792,91.150 167.502,90.600 167.364 C 90.050 167.226,89.600 166.953,89.600 166.757 C 89.600 166.560,89.340 166.400,89.023 166.400 C 88.705 166.400,88.194 166.041,87.887 165.603 C 87.580 165.164,86.760 164.692,86.064 164.553 C 85.369 164.414,84.800 164.143,84.800 163.950 C 84.800 163.758,84.612 163.600,84.383 163.600 C 84.154 163.600,83.590 163.249,83.129 162.820 C 82.669 162.391,81.776 161.927,81.146 161.788 C 80.516 161.650,80.000 161.371,80.000 161.168 C 80.000 160.966,79.358 160.800,78.574 160.800 C 77.251 160.800,75.672 160.244,75.200 159.613 C 75.090 159.465,74.139 158.933,73.086 158.430 C 72.034 157.927,70.954 157.304,70.686 157.046 C 70.419 156.787,69.165 156.057,67.900 155.423 C 66.635 154.788,65.600 154.119,65.600 153.935 C 65.600 153.751,65.240 153.600,64.800 153.600 C 64.360 153.600,64.000 153.420,64.000 153.200 C 64.000 152.980,63.743 152.800,63.429 152.800 C 63.114 152.800,62.619 152.575,62.329 152.300 C 62.038 152.025,60.810 151.274,59.600 150.631 C 58.390 149.989,57.310 149.357,57.200 149.228 C 57.090 149.099,56.010 148.469,54.800 147.827 C 51.287 145.965,51.011 145.811,50.800 145.600 C 50.582 145.382,48.336 144.136,46.903 143.437 C 46.410 143.197,46.005 142.865,46.003 142.700 C 46.001 142.535,45.772 142.400,45.493 142.400 C 45.214 142.400,44.359 141.980,43.593 141.467 C 42.827 140.954,41.210 140.011,40.000 139.370 C 38.790 138.730,37.710 138.115,37.600 138.003 C 37.420 137.821,36.063 137.044,33.800 135.829 C 33.360 135.593,32.910 135.310,32.800 135.199 C 32.690 135.089,32.060 134.733,31.400 134.407 C 30.740 134.082,29.643 133.408,28.962 132.908 C 28.281 132.409,27.603 132.000,27.454 132.000 C 27.306 132.000,26.426 131.522,25.500 130.937 C 24.574 130.352,22.732 129.301,21.408 128.602 C 20.084 127.902,18.370 126.943,17.600 126.470 C 16.830 125.997,15.840 125.431,15.400 125.212 C 14.960 124.993,13.880 124.371,13.000 123.829 C 11.533 122.927,6.607 120.077,1.900 117.409 L 0.000 116.332 0.000 161.166 " stroke="none" fill="#1c242c" fill-rule="evenodd"></path><path id="path1" d="M397.111 118.413 C 396.072 119.046,394.182 120.137,392.911 120.838 C 391.640 121.540,390.122 122.448,389.538 122.857 C 388.954 123.265,388.395 123.600,388.296 123.600 C 388.103 123.600,383.419 126.281,378.267 129.340 C 376.544 130.363,375.062 131.200,374.975 131.200 C 374.887 131.200,373.831 131.830,372.627 132.600 C 371.423 133.370,370.348 134.000,370.238 134.000 C 370.127 134.000,367.436 135.530,364.257 137.400 C 361.079 139.270,358.353 140.800,358.201 140.800 C 358.048 140.800,357.446 141.139,356.862 141.553 C 356.278 141.967,355.170 142.659,354.400 143.091 C 353.630 143.522,350.630 145.253,347.733 146.938 C 344.835 148.622,342.362 150.000,342.237 150.000 C 342.111 150.000,340.745 150.810,339.200 151.800 C 337.655 152.790,336.309 153.600,336.208 153.600 C 336.046 153.600,333.908 154.835,327.600 158.573 C 326.610 159.159,325.127 159.945,324.304 160.320 L 322.808 161.000 322.804 231.700 C 322.800 294.276,322.731 302.400,322.200 302.400 C 321.870 302.400,321.600 302.580,321.600 302.800 C 321.600 303.020,321.240 303.200,320.800 303.200 C 320.360 303.200,320.000 303.380,320.000 303.600 C 320.000 303.820,319.743 304.000,319.429 304.000 C 319.114 304.000,318.619 304.232,318.329 304.515 C 318.038 304.799,317.108 305.384,316.261 305.815 C 315.415 306.247,314.380 306.778,313.961 306.995 C 313.543 307.212,313.200 307.527,313.200 307.695 C 313.200 307.863,312.840 308.000,312.400 308.000 C 311.960 308.000,311.600 308.160,311.600 308.357 C 311.600 308.553,311.150 308.826,310.600 308.964 C 310.050 309.102,309.600 309.392,309.600 309.608 C 309.600 309.823,309.330 310.000,309.000 310.000 C 308.670 310.000,308.400 310.180,308.400 310.400 C 308.400 310.620,308.040 310.800,307.600 310.800 C 307.160 310.800,306.800 310.960,306.800 311.157 C 306.800 311.353,306.350 311.626,305.800 311.764 C 305.250 311.902,304.800 312.192,304.800 312.408 C 304.800 312.623,304.440 312.800,304.000 312.800 C 303.560 312.800,303.200 312.980,303.200 313.200 C 303.200 313.420,302.930 313.600,302.600 313.600 C 302.270 313.600,302.000 313.780,302.000 314.000 C 302.000 314.220,301.634 314.400,301.187 314.400 C 300.741 314.400,300.271 314.670,300.145 315.000 C 300.018 315.330,299.574 315.600,299.157 315.600 C 298.741 315.600,298.400 315.780,298.400 316.000 C 298.400 316.220,298.130 316.400,297.800 316.400 C 297.470 316.400,297.200 316.553,297.200 316.740 C 297.200 316.927,296.390 317.413,295.400 317.822 C 294.410 318.230,293.600 318.707,293.600 318.882 C 293.600 319.057,293.259 319.200,292.843 319.200 C 292.426 319.200,291.982 319.470,291.855 319.800 C 291.729 320.130,291.259 320.400,290.813 320.400 C 290.366 320.400,290.000 320.580,290.000 320.800 C 290.000 321.020,289.730 321.200,289.400 321.200 C 289.070 321.200,288.800 321.380,288.800 321.600 C 288.800 321.820,288.440 322.000,288.000 322.000 C 287.560 322.000,287.200 322.177,287.200 322.392 C 287.200 322.608,286.750 322.898,286.200 323.036 C 285.650 323.174,285.200 323.447,285.200 323.643 C 285.200 323.840,284.930 324.000,284.600 324.000 C 284.270 324.000,284.000 324.180,284.000 324.400 C 284.000 324.620,283.640 324.800,283.200 324.800 C 282.760 324.800,282.400 324.977,282.400 325.192 C 282.400 325.408,281.950 325.698,281.400 325.836 C 280.850 325.974,280.400 326.247,280.400 326.443 C 280.400 326.640,280.080 326.800,279.688 326.800 C 279.297 326.800,278.722 327.153,278.411 327.585 C 278.099 328.017,277.340 328.481,276.722 328.617 C 276.105 328.753,275.600 329.029,275.600 329.232 C 275.600 329.434,275.280 329.600,274.888 329.600 C 274.497 329.600,273.917 329.960,273.600 330.400 C 273.283 330.840,272.865 331.200,272.672 331.200 C 271.977 331.200,269.386 332.574,268.754 333.279 C 268.398 333.675,267.543 334.111,266.854 334.249 C 266.164 334.387,265.600 334.658,265.600 334.850 C 265.600 335.043,265.330 335.200,265.000 335.200 C 264.670 335.200,264.400 335.353,264.400 335.539 C 264.400 335.726,263.635 336.216,262.700 336.627 C 261.765 337.039,260.709 337.697,260.353 338.088 C 259.997 338.480,259.574 338.800,259.414 338.800 C 258.766 338.800,256.160 340.204,255.553 340.880 C 255.197 341.276,254.708 341.600,254.465 341.600 C 253.725 341.600,250.742 343.285,250.537 343.819 C 250.431 344.095,249.766 344.430,249.059 344.562 C 248.352 344.695,247.515 345.163,247.199 345.602 C 246.882 346.041,246.303 346.400,245.912 346.400 C 245.520 346.400,245.200 346.566,245.200 346.768 C 245.200 346.971,244.695 347.247,244.078 347.383 C 243.460 347.519,242.701 347.983,242.389 348.415 C 242.078 348.847,241.503 349.200,241.112 349.200 C 240.720 349.200,240.400 349.366,240.400 349.568 C 240.400 349.771,239.851 350.057,239.181 350.204 C 238.510 350.351,237.747 350.816,237.485 351.236 C 237.222 351.656,236.691 352.000,236.304 352.000 C 235.917 352.000,235.600 352.166,235.600 352.368 C 235.600 352.571,235.015 352.865,234.300 353.022 C 233.586 353.179,232.709 353.643,232.353 354.054 C 231.997 354.464,231.502 354.800,231.253 354.800 C 231.004 354.800,230.800 354.980,230.800 355.200 C 230.800 355.420,230.434 355.600,229.987 355.600 C 229.541 355.600,229.071 355.870,228.945 356.200 C 228.818 356.530,228.374 356.800,227.957 356.800 C 227.541 356.800,227.200 356.980,227.200 357.200 C 227.200 357.420,226.930 357.600,226.600 357.600 C 226.270 357.600,226.000 357.780,226.000 358.000 C 226.000 358.220,225.662 358.400,225.249 358.400 C 224.836 358.400,224.274 358.670,224.000 359.000 C 223.726 359.330,223.254 359.600,222.951 359.600 C 222.648 359.600,222.400 359.780,222.400 360.000 C 222.400 360.220,222.040 360.400,221.600 360.400 C 221.160 360.400,220.800 360.560,220.800 360.757 C 220.800 360.953,220.350 361.226,219.800 361.364 C 219.250 361.502,218.800 361.792,218.800 362.008 C 218.800 362.223,218.530 362.400,218.200 362.400 C 217.870 362.400,217.600 362.580,217.600 362.800 C 217.600 363.020,217.240 363.200,216.800 363.200 C 216.360 363.200,216.000 363.380,216.000 363.600 C 216.000 363.820,215.743 364.000,215.429 364.000 C 215.114 364.000,214.619 364.232,214.329 364.515 C 214.038 364.799,213.108 365.384,212.261 365.815 C 211.415 366.247,210.380 366.778,209.961 366.995 C 209.543 367.212,209.200 367.527,209.200 367.695 C 209.200 367.863,208.840 368.000,208.400 368.000 C 207.960 368.000,207.600 368.137,207.600 368.305 C 207.600 368.610,207.422 368.719,204.539 370.179 C 203.692 370.608,202.910 371.078,202.800 371.225 C 202.690 371.372,202.214 371.612,201.743 371.759 C 201.272 371.906,200.779 372.426,200.649 372.913 C 200.244 374.423,200.365 463.200,200.771 463.200 C 200.976 463.200,201.391 462.952,201.694 462.649 C 201.997 462.346,202.820 461.971,203.523 461.817 C 204.225 461.663,204.800 461.371,204.800 461.168 C 204.800 460.966,205.148 460.800,205.573 460.800 C 205.998 460.800,206.454 460.459,206.587 460.042 C 206.736 459.572,207.355 459.185,208.214 459.024 C 208.976 458.881,209.600 458.592,209.600 458.382 C 209.600 458.172,209.920 458.000,210.312 458.000 C 210.703 458.000,211.278 457.647,211.589 457.215 C 211.901 456.783,212.669 456.317,213.297 456.179 C 213.925 456.041,214.653 455.584,214.915 455.164 C 215.178 454.744,215.709 454.400,216.096 454.400 C 216.483 454.400,216.800 454.234,216.800 454.032 C 216.800 453.829,217.385 453.535,218.100 453.378 C 218.814 453.221,219.691 452.757,220.047 452.346 C 220.403 451.936,220.898 451.600,221.147 451.600 C 221.396 451.600,221.600 451.440,221.600 451.245 C 221.600 451.049,222.191 450.778,222.913 450.643 C 223.635 450.507,224.485 450.037,224.801 449.598 C 225.118 449.159,225.607 448.800,225.888 448.800 C 226.170 448.800,226.400 448.643,226.400 448.450 C 226.400 448.257,226.964 447.987,227.654 447.849 C 228.343 447.711,229.198 447.279,229.554 446.887 C 229.909 446.496,230.965 445.839,231.900 445.427 C 232.835 445.016,233.600 444.526,233.600 444.339 C 233.600 444.153,233.870 444.000,234.200 444.000 C 234.530 444.000,234.800 443.843,234.800 443.650 C 234.800 443.457,235.295 443.200,235.900 443.077 C 236.505 442.955,237.397 442.483,237.883 442.027 C 238.369 441.572,238.954 441.200,239.183 441.200 C 239.412 441.200,239.600 441.040,239.600 440.845 C 239.600 440.649,240.191 440.378,240.913 440.243 C 241.635 440.107,242.485 439.637,242.801 439.198 C 243.118 438.759,243.697 438.400,244.088 438.400 C 244.480 438.400,244.800 438.240,244.800 438.043 C 244.800 437.847,245.250 437.574,245.800 437.436 C 246.350 437.298,246.800 437.008,246.800 436.792 C 246.800 436.577,247.070 436.400,247.400 436.400 C 247.730 436.400,248.000 436.220,248.000 436.000 C 248.000 435.780,248.360 435.600,248.800 435.600 C 249.240 435.600,249.600 435.440,249.600 435.243 C 249.600 435.047,250.050 434.774,250.600 434.636 C 251.150 434.498,251.600 434.208,251.600 433.992 C 251.600 433.777,251.960 433.600,252.400 433.600 C 252.840 433.600,253.200 433.420,253.200 433.200 C 253.200 432.980,253.470 432.800,253.800 432.800 C 254.130 432.800,254.400 432.620,254.400 432.400 C 254.400 432.180,254.766 432.000,255.213 432.000 C 255.659 432.000,256.129 431.730,256.255 431.400 C 256.382 431.070,256.826 430.800,257.243 430.800 C 257.659 430.800,258.000 430.620,258.000 430.400 C 258.000 430.180,258.270 430.000,258.600 430.000 C 258.930 430.000,259.200 429.820,259.200 429.600 C 259.200 429.380,259.538 429.200,259.951 429.200 C 260.364 429.200,260.926 428.930,261.200 428.600 C 261.474 428.270,261.946 428.000,262.249 428.000 C 262.552 428.000,262.800 427.863,262.800 427.695 C 262.800 427.370,263.297 427.071,265.941 425.806 C 266.853 425.369,267.600 424.874,267.600 424.706 C 267.600 424.538,267.941 424.400,268.357 424.400 C 268.774 424.400,269.218 424.130,269.345 423.800 C 269.471 423.470,269.941 423.200,270.387 423.200 C 270.834 423.200,271.200 423.020,271.200 422.800 C 271.200 422.580,271.470 422.400,271.800 422.400 C 272.130 422.400,272.400 422.220,272.400 422.000 C 272.400 421.780,272.760 421.600,273.200 421.600 C 273.640 421.600,274.000 421.423,274.000 421.208 C 274.000 420.992,274.450 420.702,275.000 420.564 C 275.550 420.426,276.000 420.197,276.000 420.054 C 276.000 419.912,276.585 419.537,277.300 419.222 C 278.015 418.907,278.838 418.413,279.129 418.125 C 279.419 417.836,279.914 417.600,280.229 417.600 C 280.543 417.600,280.800 417.420,280.800 417.200 C 280.800 416.980,281.160 416.800,281.600 416.800 C 282.040 416.800,282.400 416.658,282.400 416.484 C 282.400 416.311,283.435 415.637,284.700 414.987 C 285.965 414.336,287.090 413.709,287.200 413.593 C 287.751 413.011,289.645 412.000,290.186 412.000 C 290.524 412.000,290.800 411.820,290.800 411.600 C 290.800 411.380,291.070 411.200,291.400 411.200 C 291.730 411.200,292.000 411.055,292.000 410.877 C 292.000 410.699,292.765 410.219,293.700 409.810 C 294.635 409.401,295.691 408.737,296.047 408.333 C 296.403 407.930,296.826 407.600,296.986 407.600 C 297.609 407.600,300.230 406.208,300.800 405.574 C 301.131 405.207,301.986 404.779,302.700 404.622 C 303.415 404.465,304.000 404.171,304.000 403.968 C 304.000 403.766,304.230 403.600,304.512 403.600 C 304.793 403.600,305.283 403.240,305.600 402.800 C 305.917 402.360,306.462 402.000,306.812 402.000 C 307.161 402.000,307.796 401.736,308.224 401.413 C 308.651 401.090,309.303 400.820,309.673 400.813 C 310.043 400.806,310.454 400.459,310.587 400.042 C 310.731 399.586,311.345 399.187,312.127 399.040 C 312.841 398.906,313.685 398.437,314.001 397.998 C 314.318 397.559,314.897 397.200,315.288 397.200 C 315.680 397.200,316.000 397.034,316.000 396.832 C 316.000 396.629,316.549 396.343,317.219 396.196 C 317.890 396.049,318.653 395.584,318.915 395.164 C 319.178 394.744,319.709 394.400,320.096 394.400 C 320.483 394.400,320.800 394.234,320.800 394.032 C 320.800 393.829,321.385 393.535,322.100 393.378 C 322.814 393.221,323.691 392.757,324.047 392.346 C 324.403 391.936,324.898 391.600,325.147 391.600 C 325.396 391.600,325.600 391.442,325.600 391.250 C 325.600 391.058,326.164 390.787,326.854 390.649 C 327.543 390.511,328.398 390.069,328.754 389.666 C 329.109 389.263,330.165 388.599,331.100 388.190 C 332.035 387.781,332.800 387.301,332.800 387.123 C 332.800 386.945,333.070 386.800,333.400 386.800 C 333.730 386.800,334.000 386.634,334.000 386.432 C 334.000 386.229,334.516 385.950,335.146 385.812 C 335.776 385.673,336.669 385.209,337.129 384.780 C 337.590 384.351,338.154 384.000,338.383 384.000 C 338.612 384.000,338.800 383.843,338.800 383.650 C 338.800 383.457,339.295 383.200,339.900 383.077 C 340.505 382.955,341.397 382.483,341.883 382.027 C 342.369 381.572,342.954 381.200,343.183 381.200 C 343.412 381.200,343.600 381.040,343.600 380.845 C 343.600 380.649,344.191 380.378,344.913 380.243 C 345.635 380.107,346.485 379.637,346.801 379.198 C 347.118 378.759,347.697 378.400,348.088 378.400 C 348.480 378.400,348.800 378.240,348.800 378.043 C 348.800 377.847,349.250 377.574,349.800 377.436 C 350.350 377.298,350.800 377.008,350.800 376.792 C 350.800 376.577,351.070 376.400,351.400 376.400 C 351.730 376.400,352.000 376.220,352.000 376.000 C 352.000 375.780,352.360 375.600,352.800 375.600 C 353.240 375.600,353.600 375.440,353.600 375.243 C 353.600 375.047,354.050 374.774,354.600 374.636 C 355.150 374.498,355.600 374.208,355.600 373.992 C 355.600 373.777,355.960 373.600,356.400 373.600 C 356.840 373.600,357.200 373.420,357.200 373.200 C 357.200 372.980,357.470 372.800,357.800 372.800 C 358.130 372.800,358.400 372.620,358.400 372.400 C 358.400 372.180,358.766 372.000,359.213 372.000 C 359.659 372.000,360.129 371.730,360.255 371.400 C 360.382 371.070,360.826 370.800,361.243 370.800 C 361.659 370.800,362.000 370.620,362.000 370.400 C 362.000 370.180,362.270 370.000,362.600 370.000 C 362.930 370.000,363.200 369.847,363.200 369.660 C 363.200 369.473,364.010 368.987,365.000 368.578 C 365.990 368.170,366.800 367.693,366.800 367.518 C 366.800 367.343,367.048 367.200,367.351 367.200 C 367.654 367.200,368.126 366.930,368.400 366.600 C 368.674 366.270,369.236 366.000,369.649 366.000 C 370.062 366.000,370.400 365.820,370.400 365.600 C 370.400 365.380,370.670 365.200,371.000 365.200 C 371.330 365.200,371.600 365.020,371.600 364.800 C 371.600 364.580,371.941 364.400,372.357 364.400 C 372.774 364.400,373.218 364.130,373.345 363.800 C 373.471 363.470,373.941 363.200,374.387 363.200 C 374.834 363.200,375.200 363.020,375.200 362.800 C 375.200 362.580,375.470 362.400,375.800 362.400 C 376.130 362.400,376.400 362.220,376.400 362.000 C 376.400 361.780,376.760 361.600,377.200 361.600 C 377.640 361.600,378.000 361.423,378.000 361.208 C 378.000 360.992,378.450 360.702,379.000 360.564 C 379.550 360.426,380.000 360.153,380.000 359.957 C 380.000 359.760,380.295 359.600,380.656 359.600 C 381.017 359.600,381.542 359.285,381.824 358.900 C 382.105 358.515,382.485 358.176,382.668 358.146 C 383.680 357.982,384.800 357.461,384.800 357.153 C 384.800 356.959,385.160 356.800,385.600 356.800 C 386.040 356.800,386.400 356.623,386.400 356.408 C 386.400 356.192,386.850 355.902,387.400 355.764 C 387.950 355.626,388.400 355.397,388.400 355.254 C 388.400 355.112,388.985 354.737,389.700 354.422 C 390.415 354.107,391.238 353.613,391.529 353.325 C 391.819 353.036,392.314 352.800,392.629 352.800 C 392.943 352.800,393.200 352.620,393.200 352.400 C 393.200 352.180,393.560 352.000,394.000 352.000 C 394.440 352.000,394.800 351.820,394.800 351.600 C 394.800 351.380,395.070 351.200,395.400 351.200 C 395.730 351.200,396.000 351.047,396.000 350.861 C 396.000 350.674,396.765 350.184,397.700 349.772 C 398.635 349.359,399.532 348.837,399.694 348.611 C 400.254 347.828,400.060 117.196,399.500 117.231 C 399.225 117.248,398.150 117.779,397.111 118.413 " stroke="none" fill="#04ac6c" fill-rule="evenodd"></path><path id="path2" d="M198.807 0.296 C 198.481 0.424,197.973 0.770,197.679 1.064 C 197.384 1.359,196.886 1.600,196.571 1.600 C 196.257 1.600,196.000 1.736,196.000 1.902 C 196.000 2.069,195.415 2.463,194.700 2.778 C 193.985 3.093,193.162 3.587,192.871 3.875 C 192.581 4.164,191.996 4.400,191.571 4.400 C 191.147 4.400,190.800 4.580,190.800 4.800 C 190.800 5.020,190.530 5.200,190.200 5.200 C 189.870 5.200,189.600 5.380,189.600 5.600 C 189.600 5.820,189.259 6.000,188.843 6.000 C 188.426 6.000,187.982 6.270,187.855 6.600 C 187.729 6.930,187.259 7.200,186.813 7.200 C 186.366 7.200,186.000 7.380,186.000 7.600 C 186.000 7.820,185.730 8.000,185.400 8.000 C 185.070 8.000,184.800 8.180,184.800 8.400 C 184.800 8.620,184.440 8.800,184.000 8.800 C 183.560 8.800,183.199 8.935,183.197 9.100 C 183.194 9.494,180.888 10.800,180.195 10.800 C 179.897 10.800,179.546 11.141,179.413 11.558 C 179.264 12.028,178.645 12.415,177.786 12.576 C 177.024 12.719,176.400 13.008,176.400 13.218 C 176.400 13.428,176.083 13.600,175.696 13.600 C 175.309 13.600,174.768 13.960,174.493 14.400 C 174.218 14.840,173.797 15.200,173.557 15.200 C 173.021 15.200,170.275 16.457,170.000 16.828 C 169.890 16.977,168.810 17.616,167.600 18.249 C 166.390 18.882,165.162 19.625,164.871 19.900 C 164.581 20.175,164.086 20.400,163.771 20.400 C 163.457 20.400,163.200 20.580,163.200 20.800 C 163.200 21.020,162.880 21.200,162.488 21.200 C 162.097 21.200,161.522 21.553,161.211 21.985 C 160.899 22.417,160.140 22.881,159.522 23.017 C 158.905 23.153,158.400 23.429,158.400 23.632 C 158.400 23.834,158.080 24.000,157.688 24.000 C 157.297 24.000,156.717 24.360,156.400 24.800 C 156.083 25.240,155.665 25.600,155.472 25.600 C 154.802 25.600,152.197 26.963,151.600 27.626 C 151.269 27.993,150.449 28.413,149.777 28.561 C 149.105 28.709,148.301 29.183,147.989 29.615 C 147.678 30.047,147.193 30.400,146.912 30.400 C 146.630 30.400,146.400 30.558,146.400 30.750 C 146.400 30.942,145.905 31.200,145.300 31.323 C 144.695 31.445,143.840 31.878,143.400 32.285 C 142.960 32.692,141.565 33.512,140.300 34.107 C 139.035 34.703,138.000 35.372,138.000 35.595 C 138.000 35.818,137.640 36.000,137.200 36.000 C 136.760 36.000,136.400 36.166,136.400 36.368 C 136.400 36.571,135.815 36.865,135.100 37.022 C 134.385 37.179,133.565 37.643,133.277 38.054 C 132.990 38.464,132.495 38.800,132.177 38.800 C 131.860 38.800,131.600 38.960,131.600 39.157 C 131.600 39.353,131.150 39.626,130.600 39.764 C 130.050 39.902,129.600 40.192,129.600 40.408 C 129.600 40.623,129.240 40.800,128.800 40.800 C 128.360 40.800,128.000 40.980,128.000 41.200 C 128.000 41.420,127.730 41.600,127.400 41.600 C 127.070 41.600,126.800 41.780,126.800 42.000 C 126.800 42.220,126.434 42.400,125.987 42.400 C 125.541 42.400,125.071 42.670,124.945 43.000 C 124.818 43.330,124.374 43.600,123.957 43.600 C 123.541 43.600,123.200 43.743,123.200 43.918 C 123.200 44.093,122.390 44.570,121.400 44.978 C 120.410 45.387,119.600 45.873,119.600 46.060 C 119.600 46.247,119.330 46.400,119.000 46.400 C 118.670 46.400,118.400 46.558,118.400 46.750 C 118.400 46.943,117.905 47.200,117.300 47.323 C 116.695 47.445,115.803 47.917,115.317 48.373 C 114.831 48.828,114.246 49.200,114.017 49.200 C 113.788 49.200,113.600 49.380,113.600 49.600 C 113.600 49.820,113.262 50.000,112.849 50.000 C 112.436 50.000,111.874 50.270,111.600 50.600 C 111.326 50.930,110.854 51.200,110.551 51.200 C 110.248 51.200,110.000 51.380,110.000 51.600 C 110.000 51.820,109.640 52.000,109.200 52.000 C 108.760 52.000,108.400 52.160,108.400 52.357 C 108.400 52.553,107.950 52.826,107.400 52.964 C 106.850 53.102,106.400 53.392,106.400 53.608 C 106.400 53.823,106.130 54.000,105.800 54.000 C 105.470 54.000,105.200 54.180,105.200 54.400 C 105.200 54.620,104.840 54.800,104.400 54.800 C 103.960 54.800,103.600 54.937,103.600 55.105 C 103.600 55.411,102.415 56.133,101.100 56.629 C 100.715 56.774,100.400 57.052,100.400 57.247 C 100.400 57.441,100.040 57.600,99.600 57.600 C 99.160 57.600,98.800 57.780,98.800 58.000 C 98.800 58.220,98.552 58.400,98.249 58.400 C 97.946 58.400,97.474 58.670,97.200 59.000 C 96.926 59.330,96.364 59.600,95.951 59.600 C 95.538 59.600,95.200 59.780,95.200 60.000 C 95.200 60.220,94.930 60.400,94.600 60.400 C 94.270 60.400,94.000 60.577,94.000 60.792 C 94.000 61.008,93.550 61.298,93.000 61.436 C 92.450 61.574,92.000 61.847,92.000 62.043 C 92.000 62.240,91.640 62.400,91.200 62.400 C 90.760 62.400,90.400 62.580,90.400 62.800 C 90.400 63.020,90.207 63.200,89.971 63.200 C 89.736 63.200,89.273 63.470,88.943 63.800 C 88.613 64.130,87.996 64.400,87.571 64.400 C 87.147 64.400,86.800 64.580,86.800 64.800 C 86.800 65.020,86.530 65.200,86.200 65.200 C 85.870 65.200,85.600 65.380,85.600 65.600 C 85.600 65.820,85.240 66.000,84.800 66.000 C 84.360 66.000,84.000 66.172,84.000 66.381 C 84.000 66.591,83.325 67.077,82.500 67.461 C 81.675 67.845,80.730 68.459,80.400 68.826 C 80.069 69.193,79.214 69.621,78.500 69.778 C 77.785 69.935,77.200 70.229,77.200 70.432 C 77.200 70.634,76.852 70.800,76.427 70.800 C 76.002 70.800,75.540 71.160,75.400 71.600 C 75.260 72.040,74.833 72.400,74.449 72.400 C 74.066 72.400,73.404 72.664,72.976 72.987 C 72.549 73.310,71.885 73.580,71.500 73.587 C 71.115 73.594,70.800 73.767,70.800 73.971 C 70.800 74.174,69.765 74.844,68.500 75.459 C 67.235 76.074,65.844 76.904,65.408 77.304 C 64.972 77.704,64.164 78.144,63.612 78.283 C 62.471 78.569,61.516 79.382,61.886 79.752 C 62.022 79.889,61.754 80.000,61.290 80.000 C 60.827 80.000,60.334 80.183,60.196 80.407 C 60.058 80.630,59.777 80.709,59.572 80.583 C 59.368 80.456,59.200 80.543,59.200 80.776 C 59.200 81.009,58.964 81.200,58.675 81.200 C 58.387 81.200,57.802 81.517,57.375 81.905 C 56.949 82.293,55.790 82.963,54.800 83.393 C 53.810 83.824,52.730 84.471,52.400 84.831 C 51.802 85.484,50.069 86.230,49.500 86.079 C 49.335 86.036,49.200 86.180,49.200 86.400 C 49.200 86.620,48.970 86.800,48.688 86.800 C 48.407 86.800,47.922 87.153,47.611 87.585 C 47.299 88.017,46.495 88.491,45.823 88.639 C 45.151 88.787,44.309 89.243,43.953 89.654 C 43.597 90.064,43.102 90.400,42.853 90.400 C 42.604 90.400,42.400 90.558,42.400 90.750 C 42.400 90.942,41.836 91.213,41.146 91.351 C 40.457 91.489,39.602 91.925,39.246 92.321 C 38.577 93.066,36.009 94.400,35.243 94.400 C 35.003 94.400,34.582 94.760,34.307 95.200 C 34.032 95.640,33.491 96.000,33.104 96.000 C 32.717 96.000,32.400 96.166,32.400 96.368 C 32.400 96.571,31.825 96.863,31.123 97.017 C 29.767 97.315,28.673 98.140,29.086 98.552 C 29.222 98.689,28.943 98.800,28.467 98.800 C 27.990 98.800,27.600 98.980,27.600 99.200 C 27.600 99.420,27.234 99.600,26.787 99.600 C 26.341 99.600,25.871 99.870,25.745 100.200 C 25.618 100.530,25.174 100.800,24.757 100.800 C 24.341 100.800,24.000 100.980,24.000 101.200 C 24.000 101.420,23.730 101.600,23.400 101.600 C 23.070 101.600,22.800 101.780,22.800 102.000 C 22.800 102.220,22.434 102.400,21.987 102.400 C 21.541 102.400,21.071 102.670,20.945 103.000 C 20.818 103.330,20.374 103.600,19.957 103.600 C 19.541 103.600,19.200 103.780,19.200 104.000 C 19.200 104.220,18.930 104.400,18.600 104.400 C 18.270 104.400,18.000 104.574,18.000 104.787 C 18.000 105.001,17.769 105.086,17.486 104.978 C 17.203 104.869,16.581 105.145,16.103 105.590 C 15.625 106.036,15.046 106.400,14.817 106.400 C 14.588 106.400,14.400 106.560,14.400 106.757 C 14.400 106.953,13.950 107.226,13.400 107.364 C 12.850 107.502,12.400 107.792,12.400 108.008 C 12.400 108.223,12.040 108.400,11.600 108.400 C 11.160 108.400,10.800 108.580,10.800 108.800 C 10.800 109.020,10.530 109.200,10.200 109.200 C 9.870 109.200,9.600 109.380,9.600 109.600 C 9.600 109.820,9.262 110.000,8.849 110.000 C 8.436 110.000,7.874 110.270,7.600 110.600 C 7.326 110.930,6.854 111.200,6.551 111.200 C 6.248 111.200,6.000 111.380,6.000 111.600 C 6.000 111.820,5.640 112.000,5.200 112.000 C 4.760 112.000,4.400 112.160,4.400 112.357 C 4.400 112.553,3.950 112.826,3.400 112.964 C 2.850 113.102,2.400 113.392,2.400 113.608 C 2.400 113.823,2.130 114.000,1.800 114.000 C 1.470 114.000,1.200 114.180,1.200 114.400 C 1.200 114.620,0.930 114.800,0.600 114.800 C -0.226 114.800,-0.156 115.454,0.700 115.742 C 1.085 115.871,2.543 116.702,3.940 117.589 C 5.337 118.475,6.556 119.200,6.648 119.200 C 6.740 119.200,7.577 119.681,8.508 120.268 C 9.439 120.856,11.190 121.871,12.400 122.524 C 13.610 123.178,14.870 123.919,15.200 124.173 C 15.530 124.426,16.655 125.043,17.699 125.544 C 18.743 126.045,19.832 126.668,20.117 126.928 C 20.634 127.398,21.047 127.636,26.000 130.324 C 27.430 131.100,28.690 131.841,28.800 131.971 C 28.910 132.100,29.990 132.731,31.200 133.372 C 32.410 134.013,33.490 134.654,33.600 134.798 C 33.710 134.941,34.070 135.174,34.400 135.315 C 34.730 135.456,36.080 136.212,37.400 136.995 C 38.720 137.779,40.295 138.613,40.900 138.849 C 41.505 139.085,42.000 139.441,42.000 139.639 C 42.000 139.838,42.157 140.000,42.350 140.000 C 42.660 140.000,43.990 140.725,47.540 142.828 C 48.123 143.174,49.590 143.982,50.800 144.625 C 52.010 145.268,53.090 145.898,53.200 146.026 C 53.310 146.154,53.670 146.382,54.000 146.533 C 54.330 146.683,55.230 147.191,56.000 147.660 C 56.770 148.129,58.120 148.910,59.000 149.397 C 59.880 149.883,62.850 151.593,65.600 153.197 C 68.350 154.801,71.410 156.562,72.400 157.110 C 73.390 157.658,74.380 158.246,74.600 158.415 C 76.809 160.116,78.920 160.784,79.602 159.998 C 79.983 159.559,80.426 159.200,80.586 159.200 C 81.245 159.200,83.846 157.790,84.470 157.094 C 84.838 156.683,85.288 156.351,85.470 156.356 C 86.277 156.378,87.600 155.881,87.600 155.557 C 87.600 155.360,87.870 155.200,88.200 155.200 C 88.530 155.200,88.800 155.045,88.800 154.855 C 88.800 154.665,89.965 153.936,91.388 153.236 C 92.812 152.535,94.083 151.790,94.212 151.581 C 94.341 151.371,94.797 151.200,95.224 151.200 C 95.651 151.200,96.000 151.020,96.000 150.800 C 96.000 150.580,96.204 150.400,96.453 150.400 C 96.702 150.400,97.197 150.064,97.553 149.654 C 97.909 149.243,98.786 148.779,99.500 148.622 C 100.215 148.465,100.800 148.171,100.800 147.968 C 100.800 147.766,101.190 147.600,101.667 147.600 C 102.143 147.600,102.422 147.489,102.286 147.352 C 101.873 146.940,102.967 146.115,104.323 145.817 C 105.025 145.663,105.600 145.371,105.600 145.168 C 105.600 144.966,105.917 144.800,106.304 144.800 C 106.691 144.800,107.232 144.440,107.507 144.000 C 107.782 143.560,108.203 143.200,108.443 143.200 C 109.180 143.200,111.766 141.879,112.400 141.178 C 112.970 140.548,114.213 139.984,114.930 140.031 C 115.112 140.043,115.583 139.681,115.977 139.226 C 116.371 138.772,116.898 138.400,117.147 138.400 C 117.396 138.400,117.600 138.240,117.600 138.045 C 117.600 137.849,118.191 137.578,118.913 137.443 C 119.635 137.307,120.485 136.837,120.801 136.398 C 121.118 135.959,121.607 135.600,121.888 135.600 C 122.170 135.600,122.400 135.440,122.400 135.245 C 122.400 135.049,122.991 134.778,123.713 134.643 C 124.435 134.507,125.285 134.037,125.601 133.598 C 125.918 133.159,126.407 132.800,126.688 132.800 C 126.970 132.800,127.200 132.640,127.200 132.445 C 127.200 132.249,127.791 131.978,128.513 131.843 C 129.235 131.707,130.085 131.237,130.401 130.798 C 130.718 130.359,131.297 130.000,131.688 130.000 C 132.080 130.000,132.400 129.840,132.400 129.643 C 132.400 129.447,132.850 129.174,133.400 129.036 C 133.950 128.898,134.400 128.608,134.400 128.392 C 134.400 128.177,134.670 128.000,135.000 128.000 C 135.330 128.000,135.600 127.820,135.600 127.600 C 135.600 127.380,135.876 127.200,136.214 127.200 C 136.771 127.200,138.708 126.155,139.200 125.588 C 139.510 125.232,142.268 124.000,142.757 124.000 C 142.997 124.000,143.418 123.640,143.693 123.200 C 143.968 122.760,144.509 122.400,144.896 122.400 C 145.283 122.400,145.600 122.240,145.600 122.043 C 145.600 121.847,146.050 121.574,146.600 121.436 C 147.150 121.298,147.600 121.008,147.600 120.792 C 147.600 120.577,147.960 120.400,148.400 120.400 C 148.840 120.400,149.200 120.220,149.200 120.000 C 149.200 119.780,149.470 119.600,149.800 119.600 C 150.130 119.600,150.400 119.420,150.400 119.200 C 150.400 118.980,150.766 118.800,151.213 118.800 C 151.659 118.800,152.117 118.561,152.229 118.268 C 152.341 117.976,153.056 117.492,153.817 117.193 C 154.577 116.895,155.200 116.504,155.200 116.325 C 155.200 116.146,155.538 116.000,155.951 116.000 C 156.364 116.000,156.926 115.730,157.200 115.400 C 157.474 115.070,157.946 114.800,158.249 114.800 C 158.552 114.800,158.800 114.620,158.800 114.400 C 158.800 114.180,159.070 114.000,159.400 114.000 C 159.730 114.000,160.000 113.820,160.000 113.600 C 160.000 113.380,160.338 113.200,160.751 113.200 C 161.164 113.200,161.726 112.930,162.000 112.600 C 162.274 112.270,162.746 112.000,163.049 112.000 C 163.352 112.000,163.600 111.820,163.600 111.600 C 163.600 111.380,163.960 111.200,164.400 111.200 C 164.840 111.200,165.200 111.019,165.200 110.799 C 165.200 110.578,165.920 110.086,166.800 109.704 C 167.680 109.323,168.400 108.874,168.400 108.706 C 168.400 108.538,168.760 108.400,169.200 108.400 C 169.640 108.400,170.000 108.223,170.000 108.008 C 170.000 107.792,170.450 107.502,171.000 107.364 C 171.550 107.226,172.000 106.953,172.000 106.757 C 172.000 106.560,172.360 106.400,172.800 106.400 C 173.240 106.400,173.600 106.220,173.600 106.000 C 173.600 105.780,173.870 105.600,174.200 105.600 C 174.530 105.600,174.800 105.423,174.800 105.208 C 174.800 104.992,175.250 104.702,175.800 104.564 C 176.350 104.426,176.800 104.153,176.800 103.957 C 176.800 103.760,177.160 103.600,177.600 103.600 C 178.040 103.600,178.400 103.420,178.400 103.200 C 178.400 102.980,178.670 102.800,179.000 102.800 C 179.330 102.800,179.600 102.655,179.600 102.477 C 179.600 102.299,180.365 101.819,181.300 101.410 C 182.235 101.001,183.315 100.309,183.700 99.872 C 184.085 99.435,184.400 99.231,184.400 99.419 C 184.400 99.606,184.616 99.544,184.880 99.280 C 185.144 99.016,185.684 98.800,186.080 98.800 C 186.476 98.800,186.800 98.620,186.800 98.400 C 186.800 98.180,186.978 98.000,187.195 98.000 C 187.413 98.000,187.908 97.729,188.295 97.397 C 188.683 97.065,189.090 96.839,189.200 96.895 C 189.310 96.951,189.968 96.593,190.662 96.098 C 191.356 95.604,192.121 95.200,192.362 95.200 C 192.603 95.200,192.800 95.047,192.800 94.861 C 192.800 94.674,193.565 94.184,194.500 93.773 C 195.435 93.361,196.491 92.703,196.847 92.312 C 197.203 91.920,197.653 91.599,197.847 91.598 C 198.041 91.596,198.710 91.329,199.334 91.003 C 200.336 90.481,200.538 90.481,201.063 91.006 C 201.390 91.333,201.914 91.600,202.229 91.600 C 202.543 91.600,202.800 91.780,202.800 92.000 C 202.800 92.220,203.160 92.400,203.600 92.400 C 204.040 92.400,204.400 92.580,204.400 92.800 C 204.400 93.020,204.670 93.200,205.000 93.200 C 205.330 93.200,205.600 93.377,205.600 93.592 C 205.600 93.808,206.050 94.098,206.600 94.236 C 207.150 94.374,207.600 94.647,207.600 94.843 C 207.600 95.040,207.960 95.200,208.400 95.200 C 208.840 95.200,209.200 95.337,209.200 95.505 C 209.200 95.811,210.385 96.533,211.700 97.029 C 212.085 97.174,212.400 97.452,212.400 97.647 C 212.400 97.841,212.760 98.000,213.200 98.000 C 213.640 98.000,214.001 98.135,214.003 98.300 C 214.006 98.702,216.319 100.000,217.032 100.000 C 217.345 100.000,217.600 100.180,217.600 100.400 C 217.600 100.620,217.870 100.800,218.200 100.800 C 218.530 100.800,218.800 100.977,218.800 101.192 C 218.800 101.408,219.250 101.698,219.800 101.836 C 220.350 101.974,220.800 102.247,220.800 102.443 C 220.800 102.640,221.160 102.800,221.600 102.800 C 222.040 102.800,222.400 102.980,222.400 103.200 C 222.400 103.420,222.593 103.600,222.829 103.600 C 223.064 103.600,223.527 103.870,223.857 104.200 C 224.187 104.530,224.804 104.800,225.229 104.800 C 225.653 104.800,226.000 104.980,226.000 105.200 C 226.000 105.420,226.270 105.600,226.600 105.600 C 226.930 105.600,227.200 105.780,227.200 106.000 C 227.200 106.220,227.541 106.400,227.957 106.400 C 228.374 106.400,228.818 106.670,228.945 107.000 C 229.071 107.330,229.541 107.600,229.987 107.600 C 230.434 107.600,230.800 107.780,230.800 108.000 C 230.800 108.220,231.004 108.400,231.253 108.400 C 231.502 108.400,231.997 108.736,232.353 109.146 C 232.709 109.557,233.586 110.021,234.300 110.178 C 235.015 110.335,235.600 110.629,235.600 110.832 C 235.600 111.034,235.917 111.200,236.304 111.200 C 236.691 111.200,237.222 111.544,237.485 111.964 C 237.747 112.384,238.510 112.849,239.181 112.996 C 239.851 113.143,240.400 113.429,240.400 113.632 C 240.400 113.834,240.717 114.000,241.104 114.000 C 241.491 114.000,242.032 114.360,242.307 114.800 C 242.582 115.240,243.003 115.600,243.243 115.600 C 243.996 115.600,246.572 116.928,247.224 117.653 C 247.567 118.034,248.377 118.478,249.024 118.638 C 249.671 118.798,250.435 119.260,250.723 119.665 C 251.010 120.069,251.505 120.400,251.823 120.400 C 252.140 120.400,252.400 120.566,252.400 120.768 C 252.400 120.971,252.985 121.265,253.700 121.422 C 254.414 121.579,255.269 122.003,255.600 122.365 C 255.930 122.727,257.010 123.373,258.000 123.800 C 258.990 124.227,260.091 124.897,260.447 125.288 C 260.803 125.680,261.304 126.000,261.561 126.000 C 262.003 126.000,263.969 127.116,264.400 127.612 C 264.681 127.935,267.447 129.200,267.872 129.200 C 268.065 129.200,268.483 129.560,268.800 130.000 C 269.117 130.440,269.607 130.800,269.888 130.800 C 270.170 130.800,270.400 130.960,270.400 131.155 C 270.400 131.351,270.991 131.622,271.713 131.757 C 272.435 131.893,273.285 132.363,273.601 132.802 C 273.918 133.241,274.392 133.600,274.656 133.600 C 275.359 133.600,277.685 134.891,278.441 135.700 C 278.800 136.085,279.388 136.400,279.747 136.400 C 280.106 136.400,280.400 136.580,280.400 136.800 C 280.400 137.020,280.657 137.200,280.971 137.200 C 281.286 137.200,281.781 137.436,282.071 137.725 C 282.362 138.013,283.185 138.507,283.900 138.822 C 284.615 139.137,285.200 139.531,285.200 139.698 C 285.200 139.864,285.538 140.000,285.951 140.000 C 286.364 140.000,286.926 140.270,287.200 140.600 C 287.474 140.930,287.946 141.200,288.249 141.200 C 288.552 141.200,288.800 141.380,288.800 141.600 C 288.800 141.820,289.070 142.000,289.400 142.000 C 289.730 142.000,290.000 142.157,290.000 142.350 C 290.000 142.542,290.552 142.810,291.227 142.945 C 291.908 143.082,292.342 143.370,292.203 143.595 C 292.065 143.818,292.323 144.000,292.776 144.000 C 293.229 144.000,293.600 144.143,293.600 144.318 C 293.600 144.493,294.410 144.970,295.400 145.378 C 296.390 145.787,297.200 146.273,297.200 146.460 C 297.200 146.647,297.470 146.800,297.800 146.800 C 298.130 146.800,298.400 146.980,298.400 147.200 C 298.400 147.420,298.766 147.600,299.213 147.600 C 299.659 147.600,300.129 147.870,300.255 148.200 C 300.382 148.530,300.826 148.800,301.243 148.800 C 301.659 148.800,302.000 148.980,302.000 149.200 C 302.000 149.420,302.270 149.600,302.600 149.600 C 302.930 149.600,303.200 149.780,303.200 150.000 C 303.200 150.220,303.560 150.400,304.000 150.400 C 304.440 150.400,304.800 150.577,304.800 150.792 C 304.800 151.008,305.250 151.298,305.800 151.436 C 306.350 151.574,306.800 151.847,306.800 152.043 C 306.800 152.240,307.160 152.400,307.600 152.400 C 308.040 152.400,308.400 152.560,308.400 152.757 C 308.400 152.953,308.850 153.226,309.400 153.364 C 309.950 153.502,310.400 153.792,310.400 154.008 C 310.400 154.223,310.670 154.400,311.000 154.400 C 311.330 154.400,311.600 154.580,311.600 154.800 C 311.600 155.020,311.960 155.200,312.400 155.200 C 312.840 155.200,313.200 155.360,313.200 155.557 C 313.200 155.753,313.650 156.026,314.200 156.164 C 314.750 156.302,315.200 156.592,315.200 156.808 C 315.200 157.023,315.470 157.200,315.800 157.200 C 316.130 157.200,316.400 157.380,316.400 157.600 C 316.400 157.820,316.760 158.000,317.200 158.000 C 317.640 158.000,318.000 158.177,318.000 158.392 C 318.000 158.608,318.450 158.898,319.000 159.036 C 319.550 159.174,320.000 159.447,320.000 159.643 C 320.000 159.840,320.360 160.000,320.800 160.000 C 321.240 160.000,321.600 160.202,321.600 160.450 C 321.600 161.614,324.473 160.265,334.058 154.600 C 334.430 154.380,335.244 153.914,335.867 153.565 C 339.059 151.774,341.388 150.433,346.300 147.556 C 349.263 145.820,351.755 144.400,351.836 144.400 C 351.918 144.400,352.969 143.770,354.173 143.000 C 355.377 142.230,356.440 141.600,356.537 141.600 C 356.633 141.600,359.137 140.180,362.100 138.444 C 365.063 136.708,368.278 134.844,369.244 134.301 C 373.120 132.121,374.421 131.372,379.800 128.227 C 382.880 126.425,385.670 124.826,386.000 124.673 C 386.330 124.520,387.258 123.991,388.062 123.497 C 388.866 123.004,391.881 121.254,394.762 119.608 C 401.048 116.017,401.551 114.470,396.900 113.026 C 396.405 112.872,396.000 112.578,396.000 112.373 C 396.000 112.168,395.730 112.000,395.400 112.000 C 395.070 112.000,394.800 111.820,394.800 111.600 C 394.800 111.380,394.440 111.200,394.000 111.200 C 393.560 111.200,393.200 111.040,393.200 110.843 C 393.200 110.647,392.750 110.374,392.200 110.236 C 391.650 110.098,391.200 109.808,391.200 109.592 C 391.200 109.377,390.930 109.200,390.600 109.200 C 390.270 109.200,390.000 109.020,390.000 108.800 C 390.000 108.580,389.745 108.400,389.432 108.400 C 388.719 108.400,386.406 107.102,386.403 106.700 C 386.401 106.535,386.040 106.400,385.600 106.400 C 385.160 106.400,384.800 106.241,384.800 106.047 C 384.800 105.722,383.338 105.077,382.748 105.141 C 382.609 105.156,382.176 104.815,381.786 104.384 C 381.395 103.953,380.834 103.600,380.538 103.600 C 380.242 103.600,380.000 103.420,380.000 103.200 C 380.000 102.980,379.743 102.800,379.429 102.800 C 379.114 102.800,378.619 102.575,378.329 102.300 C 378.038 102.025,377.260 101.530,376.600 101.201 C 375.940 100.871,375.310 100.508,375.200 100.395 C 375.090 100.281,374.237 99.831,373.305 99.394 C 372.372 98.957,371.607 98.465,371.605 98.300 C 371.602 98.135,371.330 98.000,371.000 98.000 C 370.670 98.000,370.400 97.820,370.400 97.600 C 370.400 97.380,370.034 97.200,369.587 97.200 C 369.141 97.200,368.671 96.930,368.545 96.600 C 368.418 96.270,367.974 96.000,367.557 96.000 C 367.141 96.000,366.800 95.857,366.800 95.682 C 366.800 95.507,365.990 95.030,365.000 94.622 C 364.010 94.213,363.200 93.727,363.200 93.540 C 363.200 93.353,362.930 93.200,362.600 93.200 C 362.270 93.200,362.000 93.020,362.000 92.800 C 362.000 92.580,361.659 92.400,361.243 92.400 C 360.826 92.400,360.382 92.130,360.255 91.800 C 360.129 91.470,359.659 91.200,359.213 91.200 C 358.766 91.200,358.400 91.020,358.400 90.800 C 358.400 90.580,358.130 90.400,357.800 90.400 C 357.470 90.400,357.200 90.220,357.200 90.000 C 357.200 89.780,356.840 89.600,356.400 89.600 C 355.960 89.600,355.600 89.423,355.600 89.208 C 355.600 88.992,355.150 88.702,354.600 88.564 C 354.050 88.426,353.600 88.153,353.600 87.957 C 353.600 87.760,353.240 87.600,352.800 87.600 C 352.360 87.600,352.000 87.420,352.000 87.200 C 352.000 86.980,351.730 86.800,351.400 86.800 C 351.070 86.800,350.800 86.623,350.800 86.408 C 350.800 86.192,350.350 85.902,349.800 85.764 C 349.250 85.626,348.800 85.353,348.800 85.157 C 348.800 84.960,348.480 84.800,348.088 84.800 C 347.697 84.800,347.118 84.441,346.801 84.002 C 346.485 83.563,345.635 83.093,344.913 82.957 C 344.191 82.822,343.600 82.551,343.600 82.355 C 343.600 82.160,343.370 82.000,343.088 82.000 C 342.807 82.000,342.324 81.650,342.015 81.221 C 341.707 80.793,341.320 80.526,341.155 80.628 C 340.990 80.730,340.742 80.630,340.604 80.407 C 340.466 80.183,340.003 80.000,339.576 80.000 C 339.149 80.000,338.800 79.820,338.800 79.600 C 338.800 79.380,338.530 79.200,338.200 79.200 C 337.870 79.200,337.599 79.065,337.597 78.900 C 337.594 78.498,335.281 77.200,334.568 77.200 C 334.255 77.200,334.000 77.063,334.000 76.895 C 334.000 76.582,333.687 76.387,330.967 75.002 C 330.105 74.562,329.130 73.912,328.800 73.555 C 328.469 73.199,327.614 72.779,326.900 72.622 C 326.185 72.465,325.600 72.171,325.600 71.968 C 325.600 71.766,325.396 71.600,325.147 71.600 C 324.898 71.600,324.403 71.264,324.047 70.854 C 323.691 70.443,322.814 69.979,322.100 69.822 C 321.385 69.665,320.800 69.371,320.800 69.168 C 320.800 68.966,320.480 68.800,320.088 68.800 C 319.697 68.800,319.122 68.447,318.811 68.015 C 318.499 67.583,317.740 67.119,317.122 66.983 C 316.505 66.847,316.000 66.571,316.000 66.368 C 316.000 66.166,315.722 66.000,315.383 66.000 C 315.044 66.000,314.369 65.628,313.883 65.173 C 313.397 64.717,312.510 64.246,311.912 64.125 C 311.313 64.004,310.716 63.566,310.585 63.152 C 310.454 62.739,309.998 62.400,309.573 62.400 C 309.148 62.400,308.800 62.234,308.800 62.032 C 308.800 61.829,308.215 61.535,307.500 61.378 C 306.786 61.221,305.931 60.802,305.600 60.446 C 304.861 59.651,302.652 58.400,301.985 58.400 C 301.715 58.400,301.203 58.076,300.847 57.680 C 300.214 56.975,297.623 55.600,296.928 55.600 C 296.735 55.600,296.317 55.240,296.000 54.800 C 295.683 54.360,295.103 54.000,294.712 54.000 C 294.320 54.000,294.000 53.820,294.000 53.600 C 294.000 53.380,293.743 53.200,293.429 53.200 C 293.114 53.200,292.619 52.964,292.329 52.675 C 292.038 52.387,291.215 51.893,290.500 51.578 C 289.785 51.263,289.200 50.869,289.200 50.702 C 289.200 50.536,288.943 50.400,288.629 50.400 C 288.314 50.400,287.819 50.164,287.529 49.875 C 287.238 49.587,286.415 49.093,285.700 48.778 C 284.985 48.463,284.400 48.054,284.400 47.869 C 284.400 47.684,284.179 47.607,283.909 47.697 C 283.638 47.787,283.064 47.532,282.633 47.130 C 282.202 46.729,281.613 46.400,281.325 46.400 C 281.036 46.400,280.800 46.240,280.800 46.043 C 280.800 45.847,280.350 45.574,279.800 45.436 C 279.250 45.298,278.800 45.008,278.800 44.792 C 278.800 44.577,278.530 44.400,278.200 44.400 C 277.870 44.400,277.600 44.220,277.600 44.000 C 277.600 43.780,277.240 43.600,276.800 43.600 C 276.360 43.600,276.000 43.440,276.000 43.243 C 276.000 43.047,275.550 42.774,275.000 42.636 C 274.450 42.498,274.000 42.208,274.000 41.992 C 274.000 41.777,273.640 41.600,273.200 41.600 C 272.760 41.600,272.398 41.465,272.395 41.300 C 272.393 41.135,271.673 40.656,270.795 40.236 C 269.918 39.815,269.200 39.320,269.200 39.136 C 269.200 38.951,268.840 38.800,268.400 38.800 C 267.960 38.800,267.600 38.620,267.600 38.400 C 267.600 38.180,267.330 38.000,267.000 38.000 C 266.670 38.000,266.400 37.820,266.400 37.600 C 266.400 37.380,266.062 37.200,265.649 37.200 C 265.236 37.200,264.674 36.930,264.400 36.600 C 264.126 36.270,263.654 36.000,263.351 36.000 C 263.048 36.000,262.800 35.820,262.800 35.600 C 262.800 35.380,262.459 35.200,262.043 35.200 C 261.626 35.200,261.182 34.930,261.055 34.600 C 260.929 34.270,260.459 34.000,260.013 34.000 C 259.566 34.000,259.200 33.820,259.200 33.600 C 259.200 33.380,258.930 33.200,258.600 33.200 C 258.270 33.200,258.000 33.020,258.000 32.800 C 258.000 32.580,257.659 32.400,257.243 32.400 C 256.826 32.400,256.382 32.130,256.255 31.800 C 256.129 31.470,255.659 31.200,255.213 31.200 C 254.766 31.200,254.400 31.020,254.400 30.800 C 254.400 30.580,254.130 30.400,253.800 30.400 C 253.470 30.400,253.200 30.220,253.200 30.000 C 253.200 29.780,252.840 29.600,252.400 29.600 C 251.960 29.600,251.600 29.423,251.600 29.208 C 251.600 28.992,251.150 28.702,250.600 28.564 C 250.050 28.426,249.600 28.153,249.600 27.957 C 249.600 27.760,249.240 27.600,248.800 27.600 C 248.360 27.600,248.000 27.463,248.000 27.295 C 248.000 27.127,247.657 26.812,247.239 26.595 C 246.820 26.378,245.785 25.846,244.939 25.413 C 244.092 24.980,243.040 24.293,242.600 23.886 C 242.160 23.478,241.305 23.045,240.700 22.923 C 240.095 22.800,239.600 22.543,239.600 22.350 C 239.600 22.157,239.412 22.000,239.183 22.000 C 238.954 22.000,238.369 21.628,237.883 21.173 C 237.397 20.717,236.505 20.245,235.900 20.123 C 235.295 20.000,234.800 19.743,234.800 19.550 C 234.800 19.358,234.530 19.200,234.200 19.200 C 233.870 19.200,233.600 19.047,233.600 18.861 C 233.600 18.674,232.835 18.184,231.900 17.773 C 230.965 17.361,229.909 16.704,229.554 16.313 C 229.198 15.921,228.343 15.489,227.654 15.351 C 226.964 15.213,226.400 14.942,226.400 14.750 C 226.400 14.557,226.170 14.400,225.888 14.400 C 225.607 14.400,225.118 14.041,224.801 13.602 C 224.485 13.163,223.635 12.693,222.913 12.557 C 222.191 12.422,221.600 12.151,221.600 11.955 C 221.600 11.760,221.412 11.600,221.183 11.600 C 220.954 11.600,220.390 11.249,219.929 10.820 C 219.469 10.391,218.576 9.927,217.946 9.788 C 217.316 9.650,216.800 9.371,216.800 9.168 C 216.800 8.966,216.440 8.800,216.000 8.800 C 215.560 8.800,215.200 8.636,215.200 8.436 C 215.200 8.235,214.405 7.686,213.432 7.216 C 212.460 6.745,211.448 6.099,211.183 5.780 C 210.919 5.461,210.454 5.200,210.151 5.200 C 209.848 5.200,209.600 5.028,209.600 4.818 C 209.600 4.608,208.976 4.319,208.214 4.176 C 207.355 4.015,206.736 3.628,206.587 3.158 C 206.454 2.741,205.998 2.400,205.573 2.400 C 205.148 2.400,204.800 2.234,204.800 2.032 C 204.800 1.829,204.225 1.537,203.523 1.383 C 202.820 1.229,201.997 0.854,201.694 0.551 C 201.132 -0.011,199.873 -0.122,198.807 0.296 " stroke="none" fill="#1ce484" fill-rule="evenodd"></path><path id="path3" d="M0.000 115.987 C 0.000 116.159,1.665 117.251,3.700 118.413 C 8.171 120.965,8.321 121.041,7.800 120.507 C 7.080 119.767,-0.000 115.664,0.000 115.987 M8.400 120.992 C 8.400 121.097,9.075 121.552,9.900 122.001 C 10.725 122.451,12.120 123.268,13.000 123.816 C 13.880 124.365,14.960 124.993,15.400 125.212 C 15.840 125.431,16.830 125.993,17.600 126.461 C 20.149 128.010,22.350 129.200,22.664 129.200 C 23.038 129.200,20.301 127.518,13.658 123.666 C 8.697 120.789,8.400 120.638,8.400 120.992 M23.800 129.807 C 24.240 130.166,24.960 130.635,25.400 130.851 L 26.200 131.244 25.400 130.593 C 24.960 130.234,24.240 129.765,23.800 129.549 L 23.000 129.156 23.800 129.807 M28.800 132.776 C 29.350 133.246,30.475 133.936,31.300 134.310 C 32.125 134.683,32.800 135.126,32.800 135.294 C 32.800 135.462,32.984 135.600,33.208 135.600 C 33.432 135.600,34.349 136.063,35.246 136.629 C 36.142 137.195,36.957 137.577,37.056 137.477 C 37.212 137.321,33.843 135.271,29.200 132.697 L 27.800 131.921 28.800 132.776 M37.611 137.887 C 37.617 138.059,38.652 138.715,39.911 139.344 C 41.170 139.973,42.020 140.304,41.800 140.080 C 41.133 139.402,37.599 137.552,37.611 137.887 M42.400 140.580 C 42.400 140.877,45.244 142.490,45.434 142.300 C 45.539 142.195,45.214 141.846,44.712 141.524 C 43.691 140.871,42.400 140.343,42.400 140.580 M46.003 142.676 C 46.005 142.854,46.410 143.197,46.903 143.437 C 48.354 144.145,50.583 145.384,50.800 145.603 C 51.177 145.985,55.200 148.050,55.200 147.862 C 55.200 147.721,49.289 144.172,46.300 142.519 C 46.135 142.427,46.001 142.498,46.003 142.676 M57.233 149.349 C 57.325 149.431,58.030 149.802,58.800 150.173 L 60.200 150.848 59.200 150.033 C 58.414 149.392,56.562 148.748,57.233 149.349 M60.600 151.200 C 60.736 151.420,61.107 151.600,61.424 151.600 C 61.741 151.600,62.000 151.761,62.000 151.957 C 62.000 152.347,63.213 152.920,63.478 152.655 C 63.656 152.477,61.081 150.800,60.629 150.800 C 60.477 150.800,60.464 150.980,60.600 151.200 M65.600 153.949 C 65.600 154.268,69.654 156.480,69.860 156.273 C 69.925 156.209,68.993 155.590,67.789 154.899 C 66.585 154.207,65.600 153.780,65.600 153.949 M70.400 156.746 C 70.400 157.014,71.099 157.449,72.900 158.305 C 73.808 158.736,72.994 157.957,71.800 157.253 C 71.030 156.799,70.400 156.570,70.400 156.746 M75.200 159.505 C 75.200 160.036,77.422 160.935,78.080 160.672 C 78.409 160.540,78.338 160.452,77.886 160.432 C 77.493 160.414,76.728 160.109,76.186 159.754 C 75.644 159.399,75.200 159.287,75.200 159.505 M200.184 373.300 C 200.080 373.575,200.040 393.870,200.097 418.400 L 200.200 463.000 200.400 417.900 C 200.510 393.095,200.549 372.800,200.487 372.800 C 200.426 372.800,200.289 373.025,200.184 373.300 " stroke="none" fill="#1c5444" fill-rule="evenodd"></path><path id="path4" d="M1.200 116.400 C 1.750 116.830,2.359 117.186,2.554 117.191 C 2.749 117.196,2.450 116.840,1.891 116.400 C 1.331 115.960,0.722 115.604,0.537 115.609 C 0.352 115.614,0.650 115.970,1.200 116.400 M3.377 117.563 C 3.528 117.806,4.224 118.283,4.925 118.622 C 6.109 119.194,6.143 119.192,5.400 118.590 C 4.185 117.605,3.045 117.026,3.377 117.563 M6.400 119.392 C 6.400 119.497,7.120 119.951,8.000 120.400 C 9.983 121.412,10.100 121.174,8.177 120.040 C 6.712 119.175,6.400 119.061,6.400 119.392 M11.200 122.170 C 11.200 122.263,12.190 122.876,13.400 123.531 C 14.610 124.187,15.508 124.575,15.396 124.393 C 15.027 123.797,11.200 121.769,11.200 122.170 M16.033 124.958 C 16.638 125.530,20.400 127.520,20.400 127.268 C 20.400 126.963,16.664 124.800,16.136 124.800 C 15.988 124.800,15.942 124.871,16.033 124.958 M20.800 127.760 C 20.800 127.847,21.520 128.295,22.400 128.753 C 24.349 129.769,24.501 129.575,22.653 128.433 C 21.349 127.627,20.800 127.427,20.800 127.760 M26.013 130.706 C 26.030 131.082,28.800 132.391,28.800 132.023 C 28.800 131.872,28.170 131.448,27.400 131.081 C 26.630 130.713,26.006 130.545,26.013 130.706 M29.200 132.503 C 29.720 133.055,33.600 135.142,33.600 134.869 C 33.600 134.699,32.745 134.123,31.700 133.589 C 29.464 132.447,28.928 132.214,29.200 132.503 M35.600 136.153 C 35.600 136.380,39.519 138.800,39.886 138.800 C 40.037 138.800,39.989 138.637,39.780 138.437 C 39.248 137.929,35.600 135.935,35.600 136.153 M40.971 139.409 C 41.395 139.729,41.840 139.894,41.959 139.774 C 42.210 139.523,41.194 138.809,40.600 138.819 C 40.380 138.822,40.547 139.088,40.971 139.409 M44.000 140.950 C 44.000 141.044,44.641 141.499,45.424 141.961 C 46.207 142.423,46.736 142.620,46.599 142.398 C 46.331 141.964,44.000 140.666,44.000 140.950 M47.811 143.332 C 49.993 144.803,53.200 146.408,53.200 146.029 C 53.200 145.793,53.037 145.600,52.838 145.600 C 52.640 145.600,51.362 144.970,50.000 144.200 C 47.532 142.805,46.311 142.321,47.811 143.332 M54.200 147.044 C 54.640 147.384,55.720 148.019,56.600 148.454 L 58.200 149.245 57.200 148.432 C 56.650 147.984,55.997 147.614,55.749 147.609 C 55.501 147.604,55.074 147.330,54.800 147.000 C 54.526 146.670,54.099 146.406,53.851 146.413 C 53.603 146.420,53.760 146.704,54.200 147.044 M58.400 149.360 C 58.400 149.447,59.120 149.895,60.000 150.353 C 61.949 151.369,62.101 151.175,60.253 150.033 C 58.949 149.227,58.400 149.027,58.400 149.360 M62.000 151.340 C 62.000 151.442,63.935 152.649,66.300 154.021 C 71.444 157.005,71.523 157.046,71.000 156.496 C 70.780 156.265,68.800 155.046,66.600 153.789 C 64.400 152.531,62.465 151.423,62.300 151.327 C 62.135 151.231,62.000 151.237,62.000 151.340 M73.800 158.207 C 74.240 158.566,74.960 159.035,75.400 159.251 L 76.200 159.644 75.400 158.993 C 74.960 158.634,74.240 158.165,73.800 157.949 L 73.000 157.556 73.800 158.207 " stroke="none" fill="#1cb46c" fill-rule="evenodd"></path></g></svg>