<svg id="svg" version="1.1" width="400" height="400" viewBox="0 0 400 400" xmlns="http://www.w3.org/2000/svg" xmlns:xlink="http://www.w3.org/1999/xlink"><g id="svgg"><path id="path0" d="M246.600 79.832 C 243.520 80.119,240.232 80.543,239.294 80.776 C 238.356 81.009,237.109 81.200,236.523 81.200 C 235.936 81.200,234.904 81.374,234.228 81.587 C 233.553 81.800,231.920 82.271,230.600 82.633 C 227.847 83.389,222.148 86.104,220.691 87.354 C 220.149 87.819,219.166 88.650,218.508 89.200 C 206.112 99.558,184.815 120.856,186.063 121.647 C 186.358 121.835,199.200 121.993,214.600 122.000 C 243.131 122.012,243.635 122.036,246.238 123.493 C 246.699 123.751,247.599 124.645,248.238 125.481 L 249.400 127.000 249.600 159.800 C 249.785 190.182,249.850 192.600,250.473 192.600 C 250.875 192.600,253.413 189.627,256.791 185.200 C 259.896 181.130,262.654 177.529,262.918 177.199 C 263.183 176.868,264.030 175.789,264.800 174.800 C 265.570 173.811,266.419 172.732,266.686 172.401 C 266.953 172.071,268.295 170.270,269.669 168.400 C 271.042 166.530,272.264 164.910,272.385 164.800 C 272.506 164.690,273.414 163.538,274.402 162.240 C 275.391 160.942,276.920 158.939,277.800 157.790 C 278.680 156.640,280.202 154.642,281.182 153.349 C 282.163 152.057,283.102 150.820,283.269 150.600 C 283.436 150.380,284.082 149.570,284.706 148.800 C 287.607 145.217,290.800 139.894,290.800 138.640 C 290.800 138.282,290.971 137.677,291.180 137.295 C 292.834 134.269,293.748 119.290,292.883 109.400 C 292.316 102.915,290.363 94.360,289.145 93.020 C 288.955 92.811,288.800 92.415,288.800 92.140 C 288.800 90.407,284.539 85.002,282.348 83.956 C 278.989 82.352,275.645 81.200,274.346 81.200 C 273.782 81.200,272.798 81.030,272.160 80.822 C 268.043 79.482,255.569 78.999,246.600 79.832 M174.567 134.388 C 173.655 134.757,171.092 137.636,166.192 143.800 C 164.443 146.000,162.918 147.890,162.805 148.000 C 162.602 148.197,158.374 153.441,157.200 154.953 C 156.870 155.378,156.043 156.372,155.363 157.163 C 154.683 157.953,153.842 158.960,153.495 159.400 C 151.927 161.387,146.102 168.680,145.509 169.400 C 145.146 169.840,144.193 171.010,143.391 172.000 C 142.589 172.990,141.633 174.161,141.266 174.601 C 140.900 175.042,139.975 176.212,139.210 177.201 C 138.446 178.191,137.720 179.090,137.597 179.200 C 137.020 179.717,134.524 183.551,133.953 184.800 C 131.295 190.607,131.433 188.930,131.207 218.200 L 131.000 245.000 130.051 247.600 C 129.529 249.030,128.967 250.476,128.802 250.813 C 128.637 251.150,128.375 252.003,128.220 252.709 C 128.065 253.414,127.772 254.094,127.569 254.219 C 127.366 254.345,127.200 254.876,127.200 255.400 C 127.200 255.924,127.020 256.464,126.800 256.600 C 126.580 256.736,126.400 257.124,126.400 257.463 C 126.400 257.802,126.158 258.646,125.861 259.340 C 125.565 260.033,125.095 261.320,124.815 262.200 C 124.536 263.080,124.081 264.340,123.804 265.000 C 123.527 265.660,123.019 267.100,122.675 268.200 C 122.016 270.311,121.284 272.469,120.774 273.800 C 120.606 274.240,120.158 275.590,119.779 276.800 C 119.401 278.010,118.951 279.360,118.779 279.800 C 118.608 280.240,118.158 281.590,117.779 282.800 C 117.401 284.010,116.954 285.360,116.788 285.800 C 116.260 287.193,115.317 290.118,114.595 292.600 C 114.211 293.920,113.740 295.171,113.549 295.380 C 113.357 295.589,113.200 296.099,113.200 296.513 C 113.200 296.927,112.772 298.556,112.249 300.133 C 111.725 301.710,110.992 304.080,110.618 305.400 C 110.245 306.720,109.786 308.160,109.600 308.600 C 109.413 309.040,109.172 309.850,109.063 310.400 C 108.955 310.950,108.567 312.390,108.202 313.600 C 106.186 320.281,106.326 320.800,110.142 320.800 C 113.555 320.800,114.981 319.858,116.194 316.800 C 117.054 314.635,117.902 312.556,118.481 311.200 C 118.715 310.650,119.080 309.750,119.291 309.200 C 119.501 308.650,119.927 307.690,120.237 307.068 C 120.547 306.445,120.800 305.775,120.800 305.579 C 120.800 305.382,121.269 304.182,121.841 302.911 C 122.414 301.640,123.032 300.240,123.214 299.800 C 124.159 297.521,124.857 295.870,125.372 294.699 C 125.686 293.984,126.329 292.499,126.800 291.400 C 127.911 288.808,128.684 287.064,129.815 284.600 C 130.319 283.500,131.269 281.430,131.924 280.000 C 136.741 269.498,146.815 249.312,150.728 242.324 C 151.136 241.596,152.068 239.920,152.800 238.600 C 153.532 237.280,154.432 235.660,154.800 235.000 C 155.168 234.340,156.067 232.720,156.798 231.400 C 157.529 230.080,159.580 226.570,161.356 223.600 C 163.132 220.630,164.783 217.840,165.025 217.400 C 166.179 215.304,168.202 212.186,168.484 212.067 C 168.658 211.993,168.800 211.740,168.800 211.504 C 168.800 211.269,169.250 210.486,169.800 209.764 C 170.350 209.043,170.800 208.351,170.800 208.225 C 170.800 208.100,172.150 205.995,173.800 203.548 C 175.450 201.101,176.800 199.037,176.800 198.963 C 176.800 198.794,181.752 191.692,182.631 190.600 C 182.986 190.160,183.467 189.395,183.702 188.900 C 183.936 188.405,184.280 188.000,184.464 188.000 C 184.649 188.000,184.800 187.730,184.800 187.400 C 184.800 187.070,184.951 186.800,185.136 186.800 C 185.320 186.800,185.664 186.395,185.900 185.900 C 186.136 185.405,186.693 184.550,187.139 184.000 C 187.585 183.450,190.238 179.940,193.035 176.200 C 195.833 172.460,198.589 168.841,199.161 168.157 C 199.732 167.473,200.470 166.573,200.800 166.155 C 203.154 163.178,207.663 157.626,208.399 156.800 C 208.889 156.250,209.944 154.990,210.745 154.001 C 211.545 153.011,212.380 152.007,212.600 151.771 C 212.820 151.534,213.900 150.282,215.000 148.989 C 216.995 146.644,220.496 142.696,222.263 140.800 C 225.660 137.155,226.783 135.691,226.791 134.900 L 226.800 134.000 201.100 134.025 C 186.965 134.039,175.025 134.202,174.567 134.388 M235.503 146.514 C 235.004 147.002,233.337 148.838,231.798 150.594 C 230.259 152.351,228.512 154.331,227.915 154.994 C 227.319 155.658,224.828 158.630,222.381 161.600 C 219.934 164.570,217.632 167.361,217.266 167.801 C 216.900 168.242,215.975 169.412,215.210 170.401 C 214.446 171.391,213.725 172.290,213.608 172.400 C 213.491 172.510,212.866 173.320,212.219 174.200 C 211.572 175.080,210.931 175.890,210.794 176.000 C 210.592 176.163,209.265 177.916,206.706 181.400 C 206.544 181.620,205.986 182.340,205.464 183.000 C 203.867 185.022,191.200 202.777,191.200 202.994 C 191.200 203.106,190.345 204.423,189.300 205.922 C 188.255 207.420,187.220 208.934,187.000 209.285 C 184.406 213.428,177.974 223.493,177.725 223.800 C 177.546 224.020,177.044 224.875,176.609 225.700 C 176.174 226.525,175.679 227.200,175.509 227.200 C 175.339 227.200,175.200 227.389,175.200 227.619 C 175.200 227.850,174.604 228.975,173.876 230.119 C 173.147 231.264,172.420 232.470,172.260 232.800 C 172.100 233.130,171.748 233.760,171.479 234.200 C 171.210 234.640,170.286 236.260,169.426 237.800 C 168.566 239.340,167.559 241.050,167.188 241.600 C 166.818 242.150,166.068 243.410,165.523 244.400 C 163.903 247.341,161.924 250.904,161.079 252.400 C 160.256 253.856,158.361 257.398,155.566 262.700 C 154.668 264.405,153.768 265.971,153.566 266.180 C 153.365 266.389,153.200 266.798,153.200 267.088 C 153.200 267.378,152.750 268.329,152.200 269.200 C 150.191 272.383,150.858 273.105,154.634 271.837 C 156.155 271.326,158.480 270.603,159.800 270.230 C 161.120 269.858,162.513 269.384,162.895 269.177 C 163.277 268.969,163.954 268.800,164.400 268.800 C 164.846 268.800,165.523 268.631,165.905 268.423 C 166.287 268.216,167.680 267.748,169.000 267.383 C 170.320 267.019,171.760 266.572,172.200 266.391 C 172.640 266.209,174.080 265.755,175.400 265.382 C 176.720 265.008,179.060 264.299,180.600 263.806 C 182.140 263.313,184.480 262.605,185.800 262.232 C 187.120 261.858,188.513 261.384,188.895 261.177 C 189.277 260.969,189.954 260.800,190.400 260.800 C 190.846 260.800,191.523 260.631,191.905 260.423 C 192.287 260.216,193.680 259.748,195.000 259.383 C 196.320 259.019,197.760 258.574,198.200 258.396 C 199.439 257.894,203.104 256.800,203.547 256.800 C 205.958 256.800,214.800 250.054,214.800 248.214 C 214.800 248.093,216.150 245.837,217.800 243.200 C 219.450 240.563,220.800 238.287,220.800 238.141 C 220.800 237.995,221.250 237.286,221.800 236.564 C 222.350 235.843,222.800 235.165,222.800 235.057 C 222.800 234.949,224.150 232.685,225.800 230.026 C 227.450 227.367,228.800 225.120,228.800 225.031 C 228.800 224.943,230.555 222.019,232.700 218.535 C 238.125 209.723,237.600 214.094,237.600 177.714 C 237.600 143.394,237.668 144.401,235.503 146.514 " stroke="none" fill="#1c1c0c" fill-rule="evenodd"></path><path id="path1" d="M0.000 200.000 L 0.000 400.000 200.000 400.000 L 400.000 400.000 400.000 200.000 L 400.000 0.000 200.000 0.000 L 0.000 0.000 0.000 200.000 M270.943 79.542 C 272.452 79.782,274.252 80.154,274.943 80.368 C 275.634 80.581,277.235 81.053,278.499 81.415 C 279.764 81.777,280.899 82.237,281.023 82.437 C 281.146 82.637,281.596 82.800,282.023 82.800 C 282.975 82.800,286.753 86.418,288.079 88.600 C 290.376 92.379,292.934 100.487,293.379 105.400 C 293.499 106.720,293.767 109.240,293.977 111.000 C 294.468 115.138,294.462 121.355,293.961 125.400 C 293.743 127.160,293.408 129.950,293.217 131.600 C 292.818 135.053,292.196 138.042,291.661 139.080 C 291.457 139.476,290.820 140.790,290.246 142.000 C 289.418 143.744,281.858 154.349,280.836 155.200 C 280.704 155.310,279.795 156.480,278.817 157.800 C 277.838 159.120,276.804 160.438,276.519 160.729 C 276.234 161.019,276.000 161.390,276.000 161.553 C 276.000 161.716,275.681 162.198,275.292 162.625 C 274.902 163.051,273.064 165.380,271.208 167.800 C 269.352 170.220,267.734 172.290,267.614 172.400 C 267.363 172.630,264.096 176.955,263.200 178.244 C 262.137 179.774,259.064 183.794,258.800 184.000 C 258.659 184.110,257.759 185.280,256.800 186.600 C 255.841 187.920,254.944 189.090,254.807 189.200 C 254.671 189.310,253.955 190.252,253.217 191.293 C 251.797 193.296,250.906 193.814,249.600 193.400 C 248.809 193.149,248.800 192.795,248.800 160.727 L 248.800 128.308 247.736 126.354 C 247.151 125.279,246.454 124.400,246.185 124.400 C 245.917 124.400,245.474 124.130,245.200 123.800 C 244.766 123.277,240.967 123.200,215.483 123.200 C 183.718 123.200,184.800 123.276,184.800 121.059 C 184.800 120.212,205.109 99.680,210.588 94.988 C 212.121 93.674,213.741 92.237,214.188 91.793 C 215.914 90.079,220.888 86.058,222.118 85.382 C 226.061 83.216,226.908 82.800,227.375 82.800 C 227.669 82.800,228.424 82.531,229.054 82.202 C 229.684 81.874,230.594 81.604,231.076 81.602 C 231.558 81.601,232.064 81.420,232.200 81.200 C 232.336 80.980,233.211 80.800,234.144 80.800 C 235.077 80.800,236.011 80.633,236.220 80.429 C 236.429 80.225,238.289 79.871,240.352 79.643 C 242.416 79.415,244.211 79.123,244.340 78.993 C 244.738 78.595,268.022 79.076,270.943 79.542 M227.269 133.462 C 228.552 134.623,227.747 136.295,224.213 139.808 C 223.766 140.253,222.790 141.333,222.044 142.208 C 220.390 144.150,216.024 149.116,215.200 149.994 C 214.870 150.345,213.917 151.476,213.081 152.506 C 212.246 153.537,211.346 154.610,211.081 154.891 C 210.817 155.171,209.945 156.211,209.145 157.201 C 208.344 158.190,207.298 159.450,206.820 160.000 C 205.267 161.788,204.623 162.574,203.210 164.401 C 202.446 165.391,201.725 166.290,201.608 166.400 C 201.491 166.510,200.866 167.320,200.219 168.200 C 199.572 169.080,198.930 169.890,198.793 170.000 C 198.656 170.110,197.759 171.280,196.800 172.600 C 195.841 173.920,194.950 175.090,194.820 175.200 C 194.690 175.310,193.331 177.110,191.800 179.200 C 190.269 181.290,188.921 183.090,188.805 183.200 C 188.688 183.310,188.106 184.120,187.512 185.000 C 186.918 185.880,185.351 188.130,184.029 190.000 C 178.132 198.343,163.200 221.396,163.200 222.158 C 163.200 222.256,162.300 223.788,161.200 225.561 C 160.100 227.335,159.200 228.896,159.200 229.031 C 159.200 229.166,158.863 229.754,158.451 230.338 C 158.039 230.922,157.169 232.390,156.517 233.600 C 155.865 234.810,154.861 236.628,154.287 237.640 C 149.248 246.511,136.183 272.390,132.599 280.600 C 132.215 281.480,131.319 283.460,130.608 285.000 C 127.865 290.939,127.200 292.429,127.200 292.636 C 127.200 292.753,126.735 293.873,126.168 295.125 C 125.600 296.376,124.951 297.850,124.726 298.400 C 124.038 300.078,123.336 301.692,122.244 304.111 C 121.670 305.382,121.200 306.563,121.200 306.736 C 121.200 306.909,120.750 307.983,120.200 309.123 C 119.650 310.263,119.200 311.379,119.200 311.603 C 119.200 312.019,119.044 312.384,117.868 314.732 C 117.500 315.465,117.200 316.293,117.200 316.571 C 117.200 317.411,115.896 319.755,115.021 320.487 C 113.720 321.575,106.595 321.513,106.004 320.408 C 105.593 319.639,105.808 317.811,106.405 317.000 C 106.567 316.780,106.792 316.060,106.905 315.400 C 107.018 314.740,107.413 313.210,107.782 312.000 C 108.152 310.790,108.554 309.260,108.677 308.600 C 108.800 307.940,109.038 307.220,109.205 307.000 C 109.373 306.780,109.636 305.836,109.790 304.902 C 109.944 303.968,110.234 303.103,110.435 302.978 C 110.636 302.854,110.800 302.234,110.800 301.600 C 110.800 300.966,110.960 300.349,111.155 300.228 C 111.350 300.107,111.632 299.355,111.782 298.555 C 111.932 297.756,112.205 296.809,112.388 296.451 C 112.572 296.093,112.937 294.990,113.199 294.000 C 113.462 293.010,113.930 291.609,114.238 290.886 C 114.547 290.164,114.800 289.230,114.800 288.810 C 114.800 288.390,114.959 287.949,115.154 287.829 C 115.349 287.708,115.598 287.113,115.708 286.505 C 115.818 285.897,116.136 284.770,116.414 284.000 C 116.692 283.230,117.046 282.240,117.200 281.800 C 117.354 281.360,117.703 280.370,117.974 279.600 C 118.246 278.830,118.558 277.840,118.668 277.400 C 118.777 276.960,119.005 276.240,119.174 275.800 C 120.061 273.487,120.511 272.090,120.692 271.095 C 120.802 270.487,121.051 269.892,121.246 269.771 C 121.441 269.651,121.601 269.248,121.602 268.876 C 121.604 268.504,121.874 267.684,122.202 267.054 C 122.531 266.424,122.800 265.605,122.800 265.234 C 122.800 264.863,122.946 264.389,123.124 264.180 C 123.303 263.971,124.051 261.910,124.787 259.600 C 125.524 257.290,126.278 255.229,126.463 255.020 C 126.648 254.811,126.800 254.314,126.800 253.915 C 126.800 253.516,126.958 252.877,127.151 252.495 C 128.057 250.703,128.800 248.708,128.800 248.066 C 128.800 247.678,129.025 247.135,129.300 246.860 C 129.685 246.476,129.857 240.260,130.048 219.880 C 130.311 191.741,130.405 190.394,132.436 185.800 C 133.642 183.070,137.307 177.954,142.751 171.400 C 143.116 170.960,144.661 169.070,146.185 167.200 C 147.708 165.330,149.059 163.710,149.187 163.600 C 149.316 163.490,150.041 162.590,150.800 161.600 C 151.559 160.610,152.275 159.710,152.392 159.600 C 152.509 159.490,153.137 158.680,153.788 157.800 C 154.439 156.920,155.158 156.005,155.386 155.766 C 155.613 155.527,156.430 154.546,157.200 153.586 C 157.970 152.625,159.060 151.291,159.622 150.620 C 160.183 149.949,160.993 148.923,161.422 148.341 C 162.397 147.013,168.225 139.840,168.906 139.128 C 169.184 138.838,170.039 137.790,170.805 136.800 C 172.547 134.551,173.608 133.630,174.476 133.613 C 174.848 133.606,175.264 133.420,175.400 133.200 C 175.881 132.421,226.400 132.676,227.269 133.462 M237.920 145.280 C 238.285 145.645,238.400 153.467,238.400 178.039 L 238.400 210.319 237.262 212.459 C 235.295 216.158,235.172 216.362,226.334 230.600 C 225.924 231.260,225.480 232.115,225.348 232.500 C 225.215 232.885,224.969 233.200,224.800 233.200 C 224.631 233.200,224.388 233.515,224.258 233.900 C 224.129 234.285,223.846 234.870,223.629 235.200 C 222.584 236.792,218.525 243.471,218.281 244.000 C 217.968 244.680,217.368 245.658,216.193 247.400 C 215.748 248.060,215.123 249.112,214.804 249.739 C 213.114 253.056,208.215 256.251,201.800 258.222 C 199.820 258.830,196.926 259.749,195.370 260.264 C 193.813 260.779,192.259 261.200,191.916 261.200 C 191.572 261.200,190.776 261.469,190.146 261.798 C 189.516 262.126,188.606 262.396,188.124 262.398 C 187.642 262.399,187.136 262.580,187.000 262.800 C 186.864 263.020,186.234 263.200,185.600 263.200 C 184.966 263.200,184.346 263.364,184.222 263.565 C 184.097 263.766,183.278 264.052,182.400 264.200 C 181.522 264.348,180.703 264.634,180.578 264.835 C 180.454 265.036,179.989 265.200,179.544 265.200 C 179.099 265.200,177.444 265.625,175.867 266.145 C 168.407 268.603,166.458 269.200,165.897 269.200 C 165.564 269.200,164.776 269.469,164.146 269.798 C 163.516 270.126,162.606 270.396,162.124 270.398 C 161.642 270.399,161.136 270.580,161.000 270.800 C 160.864 271.020,160.234 271.200,159.600 271.200 C 158.966 271.200,158.346 271.364,158.222 271.565 C 158.097 271.766,157.278 272.052,156.400 272.200 C 155.522 272.348,154.703 272.634,154.578 272.835 C 154.011 273.753,150.824 273.236,150.560 272.183 C 150.322 271.235,153.288 264.773,156.795 258.600 C 157.892 256.668,160.293 252.210,161.857 249.200 C 162.486 247.990,163.090 246.910,163.200 246.800 C 163.310 246.690,163.687 246.060,164.038 245.400 C 164.390 244.740,165.605 242.599,166.738 240.643 C 167.872 238.686,168.800 237.032,168.800 236.967 C 168.800 236.902,169.844 235.172,171.121 233.124 C 172.397 231.076,173.568 229.130,173.724 228.800 C 173.880 228.470,174.338 227.660,174.744 227.000 C 178.994 220.078,180.959 216.967,181.186 216.800 C 181.336 216.690,181.587 216.330,181.745 216.000 C 182.500 214.420,190.627 202.165,194.278 197.103 C 195.665 195.180,196.800 193.440,196.800 193.237 C 196.800 193.033,196.942 192.807,197.114 192.733 C 197.287 192.660,198.855 190.620,200.597 188.200 C 203.236 184.536,204.944 182.259,209.299 176.600 C 209.469 176.380,210.366 175.210,211.294 174.000 C 212.221 172.790,213.079 171.710,213.201 171.600 C 213.322 171.490,214.041 170.590,214.800 169.600 C 215.559 168.610,216.275 167.710,216.392 167.600 C 216.509 167.490,217.134 166.680,217.781 165.800 C 218.428 164.920,219.063 164.110,219.191 164.000 C 219.319 163.890,220.844 162.090,222.579 160.000 C 224.315 157.910,225.938 156.020,226.186 155.800 C 226.434 155.580,226.899 155.018,227.220 154.551 C 227.975 153.454,233.008 147.790,234.728 146.103 C 236.124 144.735,237.118 144.478,237.920 145.280 " stroke="none" fill="#ccfc04" fill-rule="evenodd"></path><path id="path2" d="M254.115 79.096 C 255.388 79.176,257.368 79.175,258.515 79.094 C 259.662 79.014,258.620 78.949,256.200 78.950 C 253.780 78.951,252.842 79.016,254.115 79.096 M283.600 84.125 C 283.600 84.194,284.185 84.779,284.900 85.425 L 286.200 86.600 285.025 85.300 C 283.930 84.088,283.600 83.816,283.600 84.125 M293.755 118.200 C 293.756 121.060,293.820 122.178,293.897 120.683 C 293.974 119.189,293.974 116.849,293.896 115.483 C 293.818 114.118,293.755 115.340,293.755 118.200 M200.529 122.700 C 208.411 122.761,221.191 122.761,228.929 122.700 C 236.668 122.639,230.220 122.589,214.600 122.590 C 198.980 122.590,192.648 122.639,200.529 122.700 M188.700 133.500 C 195.575 133.561,206.825 133.561,213.700 133.500 C 220.575 133.438,214.950 133.388,201.200 133.388 C 187.450 133.388,181.825 133.438,188.700 133.500 M108.711 321.093 C 109.651 321.178,111.091 321.177,111.911 321.091 C 112.730 321.005,111.960 320.936,110.200 320.937 C 108.440 320.939,107.770 321.009,108.711 321.093 " stroke="none" fill="#748c04" fill-rule="evenodd"></path><path id="path3" d="M243.600 79.188 C 243.050 79.358,244.670 79.406,247.200 79.294 C 249.730 79.182,251.875 79.025,251.967 78.945 C 252.292 78.661,244.583 78.885,243.600 79.188 M263.800 79.192 C 267.433 79.500,272.556 80.191,274.400 80.621 C 275.175 80.803,275.259 80.764,274.771 80.448 C 273.869 79.863,268.428 79.131,264.000 79.000 L 260.200 78.887 263.800 79.192 M237.800 79.891 C 237.140 79.985,236.420 80.251,236.200 80.482 C 235.922 80.775,236.165 80.812,237.000 80.603 C 237.660 80.438,239.190 80.169,240.400 80.004 C 242.556 79.711,242.564 79.705,240.800 79.712 C 239.810 79.716,238.460 79.797,237.800 79.891 M232.200 81.200 C 232.064 81.420,231.615 81.600,231.202 81.600 C 230.277 81.600,228.222 82.355,228.471 82.604 C 228.571 82.704,229.181 82.608,229.826 82.390 C 230.472 82.172,231.900 81.738,233.000 81.425 C 234.766 80.922,234.851 80.852,233.724 80.828 C 233.022 80.813,232.336 80.980,232.200 81.200 M277.879 81.554 C 279.023 81.923,280.088 82.354,280.246 82.512 C 280.655 82.922,281.290 82.870,281.030 82.448 C 280.776 82.038,277.096 80.781,276.325 80.841 C 276.036 80.864,276.736 81.184,277.879 81.554 M224.800 83.877 C 223.810 84.437,222.603 85.114,222.118 85.381 C 220.886 86.059,215.911 90.082,214.188 91.793 C 213.741 92.237,212.121 93.674,210.588 94.988 C 205.109 99.680,184.800 120.212,184.800 121.059 C 184.800 123.281,183.718 123.209,215.231 123.103 L 244.200 123.005 215.600 122.907 C 185.825 122.805,185.200 122.769,185.200 121.129 C 185.200 120.444,200.277 104.967,206.400 99.367 C 219.100 87.751,221.031 86.211,226.000 83.738 C 226.990 83.245,227.530 82.846,227.200 82.851 C 226.870 82.856,225.790 83.318,224.800 83.877 M282.224 83.387 C 282.651 83.710,283.211 83.980,283.469 83.987 C 284.076 84.004,286.584 86.919,287.883 89.118 C 288.441 90.063,288.978 90.755,289.077 90.656 C 289.787 89.946,283.461 82.800,282.123 82.800 C 281.534 82.800,281.547 82.876,282.224 83.387 M289.240 91.200 C 289.225 91.310,289.651 92.570,290.186 94.000 C 290.721 95.430,291.157 96.240,291.155 95.800 C 291.151 95.101,289.310 90.677,289.240 91.200 M291.402 97.600 C 291.544 98.150,292.001 100.130,292.418 102.000 C 292.904 104.184,293.121 104.756,293.025 103.600 C 292.824 101.202,292.120 98.119,291.581 97.279 C 291.222 96.720,291.191 96.777,291.402 97.600 M293.519 109.800 C 293.876 113.868,293.881 122.505,293.528 126.400 C 293.316 128.749,293.349 129.139,293.681 128.200 C 294.237 126.625,294.220 109.860,293.660 108.000 C 293.326 106.892,293.297 107.266,293.519 109.800 M245.200 123.800 C 245.474 124.130,245.980 124.400,246.325 124.400 C 246.828 124.400,246.798 124.283,246.176 123.813 C 245.161 123.044,244.566 123.037,245.200 123.800 M247.725 126.368 C 248.200 127.235,248.650 127.884,248.724 127.809 C 248.918 127.616,247.677 125.295,247.234 125.021 C 247.029 124.894,247.250 125.500,247.725 126.368 M248.896 161.057 C 248.792 195.662,248.680 193.683,250.733 193.560 C 251.109 193.538,250.964 193.399,250.400 193.242 L 249.400 192.964 249.196 160.982 L 248.993 129.000 248.896 161.057 M292.353 134.400 C 291.997 136.270,291.561 138.145,291.385 138.566 C 291.163 139.095,291.204 139.245,291.517 139.052 C 291.765 138.898,292.080 138.103,292.215 137.286 C 292.350 136.469,292.640 135.326,292.859 134.747 C 293.078 134.169,293.200 133.089,293.129 132.347 C 293.031 131.327,292.843 131.824,292.353 134.400 M175.400 133.200 C 175.264 133.420,174.848 133.606,174.476 133.613 C 173.608 133.630,172.547 134.551,170.805 136.800 C 170.039 137.790,169.184 138.838,168.906 139.128 C 168.225 139.840,162.397 147.013,161.422 148.341 C 160.993 148.923,160.183 149.949,159.622 150.620 C 159.060 151.291,157.970 152.625,157.200 153.586 C 156.430 154.546,155.613 155.527,155.386 155.766 C 154.526 156.666,152.714 159.200,152.930 159.200 C 153.054 159.200,156.006 155.645,159.492 151.300 C 162.977 146.955,166.212 142.950,166.681 142.400 C 167.150 141.850,168.867 139.780,170.496 137.800 C 174.563 132.858,172.254 133.200,201.517 133.200 C 230.746 133.200,229.931 133.037,225.357 137.977 C 224.123 139.310,223.273 140.400,223.468 140.400 C 223.663 140.400,224.087 140.083,224.411 139.696 C 224.735 139.309,225.675 138.197,226.500 137.224 C 228.176 135.249,228.342 134.434,227.269 133.462 C 226.400 132.676,175.881 132.421,175.400 133.200 M290.422 140.921 C 290.118 141.625,289.262 143.190,288.520 144.400 C 287.507 146.053,287.424 146.302,288.185 145.400 C 289.321 144.055,291.428 140.095,291.154 139.821 C 291.056 139.723,290.727 140.218,290.422 140.921 M218.537 145.700 C 214.622 150.093,206.755 159.416,202.672 164.500 C 201.833 165.545,201.293 166.399,201.473 166.397 C 201.653 166.396,202.201 165.811,202.691 165.097 C 203.182 164.384,204.047 163.260,204.615 162.600 C 206.253 160.697,206.885 159.942,208.801 157.610 C 209.790 156.405,210.817 155.186,211.081 154.900 C 211.346 154.614,212.246 153.537,213.081 152.506 C 213.917 151.476,214.870 150.345,215.200 149.994 C 215.860 149.291,219.940 144.665,221.985 142.300 C 222.699 141.475,223.198 140.800,223.094 140.800 C 222.989 140.800,220.939 143.005,218.537 145.700 M234.728 146.103 C 232.853 147.942,227.909 153.536,227.263 154.551 C 226.650 155.513,228.369 153.728,232.947 148.648 C 235.303 146.034,236.308 145.187,236.947 145.278 L 237.800 145.400 237.800 178.230 L 237.800 211.060 236.343 213.430 C 235.542 214.734,234.534 216.430,234.104 217.200 C 233.673 217.970,231.703 221.210,229.727 224.400 C 225.241 231.642,224.821 232.405,225.735 231.651 C 226.101 231.349,226.400 230.962,226.400 230.791 C 226.400 230.621,228.228 227.538,230.462 223.940 C 234.806 216.947,235.490 215.792,237.262 212.459 L 238.400 210.319 238.400 178.039 C 238.400 153.467,238.285 145.645,237.920 145.280 C 237.118 144.478,236.124 144.735,234.728 146.103 M285.098 149.047 C 284.164 150.284,282.590 152.343,281.600 153.623 C 279.764 155.998,278.809 157.245,271.424 166.900 C 269.110 169.925,267.348 172.392,267.508 172.381 C 267.669 172.371,269.150 170.566,270.800 168.369 C 272.450 166.173,274.295 163.796,274.899 163.088 C 275.504 162.380,275.999 161.678,275.999 161.529 C 276.000 161.379,276.234 161.019,276.519 160.729 C 276.804 160.438,277.838 159.120,278.817 157.800 C 279.795 156.480,280.692 155.310,280.809 155.200 C 280.979 155.040,283.527 151.745,286.917 147.300 C 287.126 147.025,287.185 146.800,287.047 146.800 C 286.909 146.800,286.032 147.811,285.098 149.047 M223.329 159.105 C 221.750 161.027,220.125 162.960,219.717 163.400 C 219.309 163.840,218.464 164.920,217.837 165.800 L 216.699 167.400 217.850 166.162 C 218.482 165.481,220.080 163.605,221.400 161.993 C 222.720 160.381,224.498 158.284,225.351 157.331 C 226.204 156.379,226.744 155.602,226.551 155.605 C 226.358 155.608,224.908 157.183,223.329 159.105 M151.300 160.927 C 150.806 161.654,150.080 162.597,149.687 163.024 C 149.295 163.451,147.723 165.330,146.194 167.200 C 144.666 169.070,143.116 170.960,142.751 171.400 C 136.744 178.632,133.503 183.255,132.237 186.400 C 130.890 189.746,130.800 190.036,130.831 190.919 C 130.847 191.403,131.192 190.681,131.596 189.313 C 132.719 185.509,135.023 181.603,139.200 176.424 C 145.471 168.649,145.724 168.337,147.805 165.823 C 151.700 161.115,152.850 159.600,152.527 159.603 C 152.347 159.604,151.795 160.200,151.300 160.927 M200.126 167.700 C 196.996 171.163,178.299 197.004,179.429 196.305 C 179.637 196.177,181.066 194.249,182.604 192.020 C 185.018 188.523,187.686 184.752,188.703 183.400 C 188.869 183.180,190.260 181.290,191.794 179.200 C 193.328 177.110,194.690 175.310,194.820 175.200 C 194.950 175.090,195.841 173.920,196.800 172.600 C 197.759 171.280,198.656 170.110,198.793 170.000 C 199.234 169.646,201.301 166.800,201.117 166.800 C 201.019 166.800,200.573 167.205,200.126 167.700 M215.300 168.927 C 214.806 169.654,214.084 170.597,213.697 171.024 C 213.310 171.451,212.232 172.790,211.300 174.000 C 210.369 175.210,209.469 176.380,209.299 176.600 C 204.937 182.267,203.237 184.535,200.602 188.200 C 198.862 190.620,197.255 192.725,197.031 192.878 C 196.807 193.031,196.733 193.267,196.868 193.401 C 197.003 193.536,197.529 193.051,198.037 192.323 C 198.899 191.090,207.392 179.722,211.000 174.971 C 211.880 173.813,213.548 171.680,214.707 170.232 C 215.865 168.785,216.675 167.601,216.507 167.603 C 216.338 167.604,215.795 168.200,215.300 168.927 M261.647 179.700 C 258.751 183.495,255.602 187.590,254.650 188.800 C 252.738 191.231,251.411 193.200,251.686 193.200 C 251.784 193.200,252.471 192.345,253.212 191.300 C 253.953 190.255,254.671 189.310,254.807 189.200 C 254.944 189.090,255.841 187.920,256.800 186.600 C 257.759 185.280,258.659 184.110,258.800 184.000 C 258.941 183.890,259.853 182.737,260.828 181.438 C 262.536 179.161,263.033 178.493,265.925 174.589 C 266.654 173.605,267.174 172.800,267.082 172.800 C 266.989 172.800,264.544 175.905,261.647 179.700 M130.319 192.833 C 130.275 192.925,130.140 205.006,130.019 219.680 C 129.850 240.251,129.686 246.475,129.300 246.860 C 129.025 247.135,128.807 247.729,128.816 248.180 C 128.827 248.792,129.004 248.645,129.512 247.600 C 130.126 246.338,130.214 243.578,130.397 219.600 C 130.582 195.353,130.573 192.308,130.319 192.833 M193.699 197.900 C 190.561 202.308,188.694 205.200,188.989 205.200 C 189.098 205.200,190.086 203.843,191.184 202.185 C 192.282 200.527,194.011 198.007,195.026 196.585 C 196.040 195.163,196.781 194.000,196.673 194.000 C 196.564 194.000,195.226 195.755,193.699 197.900 M178.084 197.900 C 176.613 199.999,175.111 202.597,175.714 202.000 C 176.437 201.283,179.304 196.800,179.040 196.800 C 178.938 196.800,178.508 197.295,178.084 197.900 M174.498 203.300 C 173.875 204.078,163.315 221.040,162.149 223.133 C 161.578 224.160,160.648 225.810,160.084 226.800 C 159.519 227.790,159.190 228.484,159.353 228.343 C 159.698 228.042,163.200 222.406,163.200 222.152 C 163.200 221.995,170.636 209.987,173.884 204.900 C 175.121 202.962,175.446 202.115,174.498 203.300 M187.684 206.700 C 186.213 208.799,184.711 211.397,185.314 210.800 C 186.037 210.083,188.904 205.600,188.640 205.600 C 188.538 205.600,188.108 206.095,187.684 206.700 M183.584 212.823 C 183.105 213.496,182.800 214.133,182.907 214.240 C 183.014 214.347,183.477 213.796,183.937 213.017 C 184.964 211.277,184.763 211.167,183.584 212.823 M177.893 221.867 C 176.184 224.646,174.849 226.982,174.925 227.058 C 175.001 227.135,176.518 224.858,178.295 221.999 C 180.073 219.139,181.408 216.803,181.263 216.807 C 181.119 216.811,179.602 219.088,177.893 221.867 M174.080 228.080 C 173.816 228.344,173.600 228.693,173.600 228.856 C 173.600 229.019,172.513 230.895,171.184 233.026 C 169.855 235.157,168.836 236.969,168.920 237.053 C 169.064 237.197,172.106 232.383,173.946 229.100 C 174.834 227.515,174.862 227.298,174.080 228.080 M157.894 230.482 C 157.343 231.427,156.540 232.830,156.111 233.600 C 154.683 236.162,152.680 239.778,151.681 241.600 C 151.137 242.590,150.572 243.580,150.425 243.800 C 149.962 244.490,149.209 246.400,149.399 246.400 C 149.499 246.400,149.921 245.725,150.337 244.900 C 151.177 243.233,152.701 240.431,154.287 237.640 C 154.861 236.628,155.865 234.810,156.517 233.600 C 157.169 232.390,158.059 230.895,158.495 230.277 C 158.931 229.659,159.200 229.066,159.092 228.959 C 158.985 228.852,158.446 229.537,157.894 230.482 M220.201 240.097 C 216.821 245.678,216.907 245.513,217.723 244.851 C 218.095 244.549,218.400 244.153,218.400 243.972 C 218.400 243.790,219.494 241.906,220.830 239.784 C 222.167 237.663,223.186 235.852,223.094 235.761 C 223.003 235.670,221.701 237.621,220.201 240.097 M166.684 240.700 C 165.713 242.405,164.578 244.430,164.160 245.200 C 163.742 245.970,163.310 246.690,163.200 246.800 C 163.089 246.910,162.593 247.810,162.097 248.800 C 161.600 249.790,160.648 251.568,159.980 252.750 C 159.313 253.933,158.832 254.965,158.912 255.045 C 158.992 255.125,159.417 254.517,159.858 253.695 C 160.572 252.362,161.199 251.227,164.110 246.000 C 164.539 245.230,165.565 243.430,166.391 242.000 C 168.379 238.554,168.867 237.600,168.638 237.600 C 168.533 237.600,167.654 238.995,166.684 240.700 M216.063 246.983 C 215.603 247.762,215.299 248.400,215.386 248.400 C 215.699 248.400,217.283 245.950,217.093 245.760 C 216.986 245.653,216.523 246.204,216.063 246.983 M147.895 248.670 C 147.357 249.731,146.521 251.296,146.039 252.147 C 145.556 252.998,145.243 253.777,145.344 253.877 C 145.445 253.978,145.968 253.192,146.505 252.130 C 147.043 251.069,147.879 249.504,148.361 248.653 C 148.844 247.802,149.157 247.023,149.056 246.923 C 148.955 246.822,148.432 247.608,147.895 248.670 M214.473 249.287 C 214.213 249.547,214.000 249.969,214.000 250.225 C 214.000 251.447,209.439 254.922,205.800 256.473 C 204.920 256.848,204.498 257.165,204.863 257.178 C 206.724 257.240,212.428 253.169,214.441 250.342 C 215.306 249.128,215.327 248.433,214.473 249.287 M128.013 250.487 C 127.742 251.209,127.337 252.187,127.113 252.661 C 126.890 253.134,126.778 253.733,126.864 253.993 C 126.951 254.252,127.413 253.331,127.892 251.947 C 128.791 249.346,128.890 248.159,128.013 250.487 M144.062 256.062 C 143.577 256.970,143.262 257.795,143.362 257.895 C 143.462 257.995,143.915 257.309,144.369 256.369 C 144.823 255.430,145.138 254.605,145.069 254.535 C 145.000 254.466,144.546 255.153,144.062 256.062 M126.222 255.243 C 125.311 257.822,124.768 259.701,124.896 259.829 C 124.981 259.914,125.435 258.868,125.906 257.506 C 126.377 256.143,126.685 254.952,126.590 254.857 C 126.496 254.763,126.330 254.936,126.222 255.243 M157.623 257.050 C 157.153 257.848,156.852 258.586,156.956 258.689 C 157.059 258.793,157.520 258.140,157.980 257.239 C 159.015 255.211,158.781 255.088,157.623 257.050 M200.400 258.214 C 198.970 258.718,198.032 259.146,198.316 259.165 C 198.933 259.207,204.000 257.602,204.000 257.365 C 204.000 257.060,203.016 257.292,200.400 258.214 M142.062 260.062 C 141.577 260.970,141.262 261.795,141.362 261.895 C 141.462 261.995,141.915 261.309,142.369 260.369 C 142.823 259.430,143.138 258.605,143.069 258.535 C 143.000 258.466,142.546 259.153,142.062 260.062 M155.759 260.463 C 153.804 264.197,152.849 266.183,152.956 266.290 C 153.022 266.355,153.911 264.845,154.933 262.933 C 155.955 261.022,156.717 259.383,156.625 259.292 C 156.534 259.201,156.144 259.727,155.759 260.463 M194.000 260.214 C 192.570 260.718,191.632 261.146,191.916 261.165 C 192.533 261.207,197.600 259.602,197.600 259.365 C 197.600 259.060,196.616 259.292,194.000 260.214 M123.960 262.061 C 123.688 263.017,123.315 263.971,123.133 264.180 C 122.950 264.389,122.805 264.839,122.812 265.180 C 122.823 265.732,122.865 265.731,123.194 265.169 C 123.807 264.121,124.872 260.738,124.656 260.523 C 124.546 260.413,124.233 261.105,123.960 262.061 M189.000 261.698 C 185.645 262.853,185.000 263.159,185.876 263.179 C 186.358 263.191,186.849 263.044,186.968 262.853 C 187.086 262.661,187.896 262.391,188.768 262.251 C 189.640 262.112,190.465 261.818,190.601 261.599 C 190.892 261.127,190.608 261.144,189.000 261.698 M140.062 264.062 C 139.577 264.970,139.262 265.795,139.362 265.895 C 139.462 265.995,139.915 265.309,140.369 264.369 C 140.823 263.430,141.138 262.605,141.069 262.535 C 141.000 262.466,140.546 263.153,140.062 264.062 M181.000 264.207 C 179.115 264.839,178.552 265.155,179.276 265.173 C 179.868 265.188,180.454 265.036,180.578 264.835 C 180.703 264.634,181.522 264.348,182.400 264.200 C 183.278 264.052,184.097 263.766,184.222 263.565 C 184.531 263.065,184.216 263.127,181.000 264.207 M174.400 266.214 C 172.970 266.718,172.032 267.146,172.316 267.165 C 172.933 267.207,178.000 265.602,178.000 265.365 C 178.000 265.060,177.016 265.292,174.400 266.214 M122.011 267.371 C 121.785 267.965,121.600 268.674,121.600 268.946 C 121.600 269.218,121.403 269.637,121.162 269.878 C 120.922 270.118,120.787 270.634,120.862 271.023 C 120.938 271.412,121.396 270.583,121.881 269.180 C 122.733 266.712,122.844 265.181,122.011 267.371 M138.062 268.062 C 137.577 268.970,137.262 269.795,137.362 269.895 C 137.462 269.995,137.915 269.309,138.369 268.369 C 138.823 267.430,139.138 266.605,139.069 266.535 C 139.000 266.466,138.546 267.153,138.062 268.062 M151.631 268.431 C 151.177 269.370,150.862 270.195,150.931 270.265 C 151.000 270.334,151.454 269.647,151.938 268.738 C 152.423 267.830,152.738 267.005,152.638 266.905 C 152.538 266.805,152.085 267.491,151.631 268.431 M168.000 268.214 C 166.570 268.718,165.632 269.146,165.916 269.165 C 166.533 269.207,171.600 267.602,171.600 267.365 C 171.600 267.060,170.616 267.292,168.000 268.214 M163.000 269.698 C 159.645 270.853,159.000 271.159,159.876 271.179 C 160.358 271.191,160.849 271.044,160.968 270.853 C 161.086 270.661,161.896 270.391,162.768 270.251 C 163.640 270.112,164.465 269.818,164.601 269.599 C 164.892 269.127,164.608 269.144,163.000 269.698 M135.418 273.717 C 134.566 275.523,133.712 277.315,133.521 277.700 C 133.329 278.085,133.257 278.400,133.361 278.400 C 133.641 278.400,137.319 270.785,137.129 270.596 C 137.040 270.507,136.270 271.911,135.418 273.717 M150.446 271.267 C 150.381 272.212,150.813 273.200,151.292 273.200 C 151.567 273.200,151.567 273.038,151.292 272.700 C 151.069 272.425,150.798 271.840,150.689 271.400 C 150.544 270.810,150.481 270.775,150.446 271.267 M155.000 272.207 C 153.115 272.839,152.552 273.155,153.276 273.173 C 153.868 273.188,154.454 273.036,154.578 272.835 C 154.703 272.634,155.522 272.348,156.400 272.200 C 157.278 272.052,158.097 271.766,158.222 271.565 C 158.531 271.065,158.216 271.127,155.000 272.207 M120.065 273.017 C 119.809 273.578,119.600 274.379,119.600 274.795 C 119.600 275.212,119.420 275.664,119.200 275.800 C 118.980 275.936,118.809 276.442,118.821 276.924 C 118.842 277.814,119.214 277.002,120.331 273.626 C 120.879 271.973,120.713 271.595,120.065 273.017 M118.065 279.017 C 117.809 279.578,117.600 280.379,117.600 280.795 C 117.600 281.212,117.420 281.664,117.200 281.800 C 116.980 281.936,116.809 282.442,116.821 282.924 C 116.842 283.814,117.214 283.002,118.331 279.626 C 118.879 277.973,118.713 277.595,118.065 279.017 M132.007 280.903 C 131.494 282.056,130.654 283.886,130.140 284.969 C 129.626 286.052,129.286 287.019,129.385 287.118 C 129.484 287.217,130.128 286.061,130.817 284.549 C 131.506 283.037,132.348 281.209,132.687 280.486 C 133.027 279.763,133.223 279.089,133.122 278.989 C 133.022 278.889,132.520 279.750,132.007 280.903 M116.065 285.017 C 115.809 285.578,115.600 286.379,115.600 286.795 C 115.600 287.212,115.420 287.664,115.200 287.800 C 114.980 287.936,114.809 288.442,114.821 288.924 C 114.842 289.814,115.214 289.002,116.331 285.626 C 116.879 283.973,116.713 283.595,116.065 285.017 M128.053 289.653 C 126.935 292.346,127.187 292.598,128.373 289.973 C 128.876 288.862,129.203 287.869,129.100 287.767 C 128.998 287.665,128.527 288.514,128.053 289.653 M114.110 291.087 C 113.132 293.822,112.742 295.275,112.936 295.469 C 113.051 295.584,113.355 294.895,113.612 293.939 C 113.870 292.983,114.249 291.772,114.455 291.248 C 114.661 290.725,114.757 290.224,114.669 290.135 C 114.580 290.047,114.329 290.475,114.110 291.087 M126.086 294.286 C 125.612 295.315,125.304 296.238,125.402 296.336 C 125.500 296.433,125.949 295.652,126.400 294.600 C 127.467 292.111,127.206 291.850,126.086 294.286 M112.276 296.676 C 112.164 296.858,111.946 297.682,111.791 298.507 C 111.636 299.333,111.350 300.107,111.155 300.228 C 110.960 300.349,110.811 300.932,110.825 301.524 C 110.841 302.215,111.196 301.536,111.817 299.625 C 112.673 296.991,112.872 295.713,112.276 296.676 M124.420 298.087 C 124.153 298.809,123.756 299.733,123.539 300.139 C 123.322 300.545,123.240 300.974,123.357 301.091 C 123.474 301.208,123.779 300.785,124.035 300.152 C 124.290 299.518,124.687 298.595,124.917 298.101 C 125.147 297.606,125.238 297.105,125.121 296.988 C 125.004 296.870,124.688 297.365,124.420 298.087 M122.053 303.653 C 120.935 306.346,121.187 306.598,122.373 303.973 C 122.876 302.862,123.203 301.869,123.100 301.767 C 122.998 301.665,122.527 302.514,122.053 303.653 M110.255 303.112 C 110.131 303.312,109.909 304.228,109.762 305.147 C 109.615 306.066,109.339 306.914,109.147 307.032 C 108.956 307.151,108.811 307.642,108.825 308.124 C 108.849 308.953,108.873 308.946,109.262 308.000 C 110.219 305.675,110.976 301.944,110.255 303.112 M120.053 308.453 C 118.935 311.146,119.187 311.398,120.373 308.773 C 120.876 307.662,121.203 306.669,121.100 306.567 C 120.998 306.465,120.527 307.314,120.053 308.453 M108.023 311.073 C 107.772 311.913,107.365 313.276,107.119 314.102 C 106.872 314.928,106.765 315.698,106.880 315.813 C 106.995 315.929,107.312 315.163,107.583 314.111 C 107.854 313.060,108.264 311.699,108.492 311.087 C 108.721 310.475,108.811 309.878,108.694 309.760 C 108.576 309.643,108.274 310.233,108.023 311.073 M118.462 312.521 C 118.179 313.225,117.767 314.133,117.546 314.539 C 117.325 314.945,117.240 315.374,117.357 315.491 C 117.474 315.608,117.779 315.185,118.035 314.552 C 118.290 313.918,118.687 312.995,118.917 312.501 C 119.147 312.006,119.254 311.521,119.155 311.422 C 119.057 311.324,118.745 311.818,118.462 312.521 M116.251 317.989 C 115.859 318.968,115.087 319.925,114.301 320.404 C 113.586 320.840,113.270 321.192,113.600 321.185 C 114.858 321.160,117.807 317.273,117.102 316.569 C 116.991 316.458,116.608 317.097,116.251 317.989 M106.295 317.073 C 105.440 318.585,105.787 321.200,106.843 321.200 C 107.071 321.200,106.974 320.917,106.629 320.571 C 105.888 319.831,105.867 319.601,106.411 318.171 C 106.794 317.163,106.708 316.344,106.295 317.073 " stroke="none" fill="#8cac04" fill-rule="evenodd"></path><path id="path4" d="M245.600 79.600 L 243.800 79.880 245.600 79.897 C 246.590 79.906,248.480 79.779,249.800 79.615 L 252.200 79.318 249.800 79.319 C 248.480 79.320,246.590 79.446,245.600 79.600 M262.400 79.617 C 263.610 79.784,265.320 79.916,266.200 79.910 L 267.800 79.900 266.000 79.580 C 265.010 79.403,263.300 79.271,262.200 79.286 L 260.200 79.313 262.400 79.617 M237.600 80.648 L 235.400 81.186 237.400 80.963 C 238.500 80.840,240.300 80.598,241.400 80.426 L 243.400 80.113 241.600 80.112 C 240.610 80.111,238.810 80.353,237.600 80.648 M270.000 80.419 C 274.353 81.175,275.600 81.251,273.200 80.616 C 271.990 80.296,270.370 80.050,269.600 80.070 C 268.289 80.105,268.315 80.127,270.000 80.419 M233.000 81.600 L 232.200 81.944 233.000 81.966 C 233.440 81.978,234.070 81.813,234.400 81.600 C 235.195 81.086,234.196 81.086,233.000 81.600 M277.000 81.814 C 277.660 82.117,278.504 82.372,278.876 82.382 C 279.248 82.392,279.664 82.580,279.800 82.800 C 279.936 83.020,280.337 83.200,280.690 83.200 C 281.675 83.200,281.110 82.844,278.756 81.984 C 276.323 81.095,275.189 80.985,277.000 81.814 M229.400 82.614 C 227.813 83.341,228.580 83.339,230.600 82.612 C 231.480 82.295,231.840 82.042,231.400 82.050 C 230.960 82.058,230.060 82.312,229.400 82.614 M225.457 84.067 C 224.608 84.496,223.992 84.925,224.087 85.021 C 224.286 85.219,227.600 83.681,227.600 83.391 C 227.600 83.081,227.091 83.241,225.457 84.067 M281.600 83.350 C 281.600 83.444,282.241 83.899,283.024 84.361 C 283.807 84.823,284.336 85.020,284.199 84.798 C 283.931 84.364,281.600 83.066,281.600 83.350 M285.434 86.403 C 286.632 87.834,288.800 91.521,288.800 92.126 C 288.800 92.409,288.958 92.811,289.152 93.020 C 289.345 93.229,289.723 94.087,289.992 94.927 C 290.260 95.767,290.575 96.358,290.692 96.241 C 291.328 95.605,287.222 87.621,285.519 86.182 L 284.600 85.406 285.434 86.403 M216.122 90.727 C 213.886 92.637,211.943 94.470,211.803 94.799 C 211.663 95.129,212.055 94.933,212.674 94.365 C 216.185 91.141,218.794 88.864,219.776 88.168 C 220.203 87.866,220.470 87.536,220.369 87.436 C 220.269 87.336,218.358 88.817,216.122 90.727 M207.223 98.735 C 202.289 103.261,187.457 118.116,186.116 119.874 C 184.131 122.477,182.916 122.367,215.066 122.490 C 230.938 122.550,243.716 122.468,243.462 122.306 C 243.208 122.144,230.310 122.007,214.800 122.000 C 199.290 121.993,186.358 121.835,186.063 121.647 C 185.150 121.069,192.673 113.148,207.911 98.641 C 212.399 94.368,211.910 94.435,207.223 98.735 M290.969 97.800 C 291.252 99.729,291.915 101.882,291.953 101.000 C 291.972 100.560,291.719 99.390,291.390 98.400 C 291.000 97.226,290.854 97.017,290.969 97.800 M292.068 102.800 C 292.062 103.350,292.211 104.160,292.400 104.600 L 292.744 105.400 292.732 104.600 C 292.726 104.160,292.576 103.350,292.400 102.800 L 292.080 101.800 292.068 102.800 M292.896 109.600 C 292.887 111.250,293.024 113.050,293.200 113.600 C 293.632 114.948,293.642 111.878,293.217 108.800 L 292.913 106.600 292.896 109.600 M293.105 123.200 C 292.943 123.750,292.830 125.460,292.854 127.000 L 292.898 129.800 293.257 127.400 C 293.691 124.503,293.585 121.572,293.105 123.200 M244.833 122.916 C 244.925 122.980,245.720 123.533,246.600 124.145 L 248.200 125.258 246.815 124.029 C 246.053 123.353,245.258 122.800,245.048 122.800 C 244.838 122.800,244.742 122.852,244.833 122.916 M248.504 126.759 C 248.845 127.670,249.043 127.868,249.138 127.394 C 249.215 127.015,248.991 126.420,248.642 126.071 C 248.063 125.491,248.051 125.551,248.504 126.759 M249.298 160.900 C 249.244 178.445,249.275 192.800,249.367 192.800 C 249.459 192.800,249.864 192.914,250.267 193.054 C 250.959 193.294,250.961 193.277,250.300 192.754 C 249.645 192.236,249.593 190.148,249.497 160.600 L 249.395 129.000 249.298 160.900 M292.178 132.578 C 292.027 133.381,292.004 134.137,292.126 134.260 C 292.248 134.382,292.472 133.825,292.622 133.022 C 292.773 132.219,292.796 131.463,292.674 131.340 C 292.552 131.218,292.328 131.775,292.178 132.578 M201.100 133.900 L 226.800 134.006 226.795 134.903 C 226.792 135.396,226.117 136.530,225.295 137.423 C 224.473 138.316,223.555 139.396,223.256 139.823 C 222.956 140.250,223.643 139.610,224.781 138.400 C 229.594 133.285,231.099 133.583,201.051 133.697 L 175.400 133.794 201.100 133.900 M172.942 135.112 C 171.701 136.320,171.295 136.805,168.010 141.002 C 166.805 142.541,165.722 143.890,165.604 144.000 C 164.727 144.814,157.224 154.395,157.477 154.377 C 157.655 154.364,158.700 153.183,159.800 151.752 C 160.900 150.322,162.070 148.847,162.400 148.475 C 162.730 148.104,164.434 146.000,166.186 143.800 C 171.121 137.604,173.658 134.755,174.567 134.388 C 175.186 134.137,175.231 134.044,174.742 134.025 C 174.381 134.011,173.571 134.500,172.942 135.112 M291.067 137.467 C 290.920 137.613,290.811 138.108,290.825 138.567 C 290.849 139.333,290.882 139.323,291.234 138.442 C 291.626 137.463,291.544 136.989,291.067 137.467 M289.692 141.292 C 289.199 142.193,288.874 143.007,288.970 143.103 C 289.066 143.199,289.529 142.523,290.000 141.600 C 291.113 139.418,290.859 139.163,289.692 141.292 M219.103 144.300 C 217.417 146.225,215.655 148.250,215.188 148.800 C 214.721 149.350,213.858 150.347,213.270 151.016 C 211.133 153.444,208.757 156.400,208.941 156.400 C 209.044 156.400,210.555 154.733,212.298 152.695 C 214.041 150.657,215.722 148.720,216.034 148.391 C 216.345 148.061,217.679 146.534,218.998 144.996 C 220.317 143.458,221.622 141.962,221.898 141.671 C 222.374 141.170,222.538 140.800,222.285 140.800 C 222.221 140.800,220.790 142.375,219.103 144.300 M287.200 145.400 C 286.519 146.390,286.052 147.200,286.162 147.200 C 286.272 147.200,286.919 146.390,287.600 145.400 C 288.281 144.410,288.748 143.600,288.638 143.600 C 288.528 143.600,287.881 144.410,287.200 145.400 M234.845 146.700 C 232.706 148.851,227.600 154.755,227.600 155.078 C 227.600 155.381,227.808 155.159,231.798 150.598 C 235.635 146.212,236.316 145.593,237.010 145.859 C 237.661 146.109,237.737 209.020,237.089 211.200 C 236.861 211.965,236.929 211.918,237.378 211.000 C 237.877 209.977,237.967 205.096,237.982 177.980 C 238.002 141.965,238.145 143.383,234.845 146.700 M284.630 148.900 C 283.249 150.623,283.160 150.742,281.838 152.600 L 280.701 154.200 281.955 152.800 C 283.404 151.182,286.077 147.600,285.835 147.600 C 285.745 147.600,285.202 148.185,284.630 148.900 M278.795 156.500 C 277.902 157.655,276.334 159.680,275.309 161.000 C 272.544 164.562,272.515 164.605,273.134 164.232 C 273.427 164.056,274.947 162.176,276.511 160.055 C 278.075 157.935,279.455 156.110,279.577 156.000 C 280.127 155.506,280.875 154.400,280.658 154.400 C 280.526 154.400,279.688 155.345,278.795 156.500 M156.159 155.700 C 155.730 156.195,155.024 157.050,154.589 157.600 L 153.800 158.600 154.743 157.800 C 155.669 157.015,157.407 154.800,157.097 154.800 C 157.010 154.800,156.588 155.205,156.159 155.700 M224.903 158.100 C 223.782 159.475,222.530 160.960,222.120 161.400 C 221.449 162.119,219.083 165.010,214.673 170.500 C 213.833 171.545,213.293 172.396,213.473 172.391 C 213.653 172.387,214.280 171.712,214.867 170.891 C 215.454 170.071,216.444 168.783,217.067 168.030 C 217.690 167.276,220.000 164.486,222.200 161.829 C 227.073 155.943,227.344 155.600,227.119 155.600 C 227.020 155.600,226.023 156.725,224.903 158.100 M205.000 160.875 C 203.240 163.101,201.620 165.119,201.400 165.362 C 201.180 165.605,200.752 166.162,200.448 166.602 C 199.423 168.084,202.178 164.958,205.504 160.865 C 207.321 158.629,208.671 156.807,208.504 156.815 C 208.337 156.823,206.760 158.650,205.000 160.875 M151.292 161.700 C 150.411 162.855,149.354 164.160,148.944 164.600 C 147.856 165.770,145.927 168.400,146.157 168.400 C 146.265 168.400,147.748 166.645,149.451 164.500 C 153.313 159.638,153.341 159.600,153.097 159.600 C 152.987 159.600,152.174 160.545,151.292 161.700 M271.150 166.315 C 270.573 167.132,269.348 168.835,268.428 170.100 C 267.508 171.365,266.841 172.400,266.944 172.400 C 267.047 172.400,267.816 171.455,268.653 170.300 C 269.489 169.145,270.279 168.110,270.408 168.000 C 271.085 167.422,272.845 164.802,272.547 164.815 C 272.356 164.824,271.728 165.499,271.150 166.315 M198.921 168.500 C 198.470 168.995,195.819 172.460,193.030 176.200 C 190.240 179.940,187.709 183.303,187.405 183.674 C 187.102 184.044,186.530 184.854,186.136 185.474 C 185.741 186.093,185.240 186.725,185.021 186.878 C 184.802 187.031,184.728 187.261,184.856 187.389 C 184.984 187.517,187.083 184.872,189.520 181.511 C 191.958 178.150,195.318 173.645,196.987 171.500 C 199.909 167.745,200.640 166.610,198.921 168.500 M141.751 173.500 C 140.049 175.645,138.297 177.805,137.858 178.300 C 137.420 178.795,137.227 179.199,137.430 179.197 C 137.634 179.196,138.205 178.600,138.700 177.873 C 139.194 177.146,139.914 176.197,140.300 175.762 C 140.965 175.012,143.583 171.801,144.753 170.300 C 145.053 169.915,145.196 169.600,145.072 169.600 C 144.948 169.600,143.453 171.355,141.751 173.500 M210.792 175.500 C 208.599 178.257,207.617 179.691,208.930 178.219 C 210.963 175.940,213.389 172.800,213.117 172.800 C 213.020 172.800,211.973 174.015,210.792 175.500 M264.554 175.100 C 263.927 175.925,263.195 176.870,262.927 177.200 C 261.454 179.016,251.706 191.893,251.421 192.400 C 250.730 193.625,251.985 192.067,257.860 184.400 C 265.798 174.043,266.127 173.600,265.895 173.600 C 265.785 173.600,265.182 174.275,264.554 175.100 M136.000 180.800 C 135.530 181.460,135.236 182.000,135.346 182.000 C 135.456 182.000,135.930 181.460,136.400 180.800 C 136.870 180.140,137.164 179.600,137.054 179.600 C 136.944 179.600,136.470 180.140,136.000 180.800 M206.930 180.500 C 205.299 182.315,193.844 198.400,194.183 198.400 C 194.278 198.400,196.642 195.205,199.436 191.300 C 202.229 187.395,204.942 183.660,205.463 183.000 C 205.985 182.340,206.544 181.618,206.706 181.395 C 206.868 181.172,207.247 180.677,207.549 180.295 C 208.344 179.288,207.882 179.441,206.930 180.500 M134.526 182.900 C 133.744 184.115,133.200 185.333,133.365 185.498 C 133.463 185.597,133.900 184.940,134.336 184.039 C 135.096 182.465,135.198 181.855,134.526 182.900 M132.483 187.087 C 131.637 189.305,131.125 191.258,131.334 191.467 C 131.451 191.585,131.747 190.898,131.990 189.940 C 132.234 188.983,132.636 187.795,132.884 187.301 C 133.132 186.806,133.238 186.305,133.121 186.188 C 133.004 186.070,132.717 186.475,132.483 187.087 M183.519 189.203 C 182.642 190.743,182.902 190.742,184.000 189.200 C 184.470 188.540,184.707 188.001,184.527 188.003 C 184.347 188.004,183.893 188.544,183.519 189.203 M180.051 194.129 C 177.573 197.900,178.180 197.488,180.977 193.500 C 182.018 192.015,182.719 190.813,182.535 190.829 C 182.351 190.844,181.233 192.329,180.051 194.129 M130.686 196.400 C 130.111 203.374,130.125 246.866,130.703 245.491 C 131.093 244.563,131.183 238.494,131.103 218.447 C 131.038 202.203,130.883 194.012,130.686 196.400 M175.200 201.400 C 174.519 202.390,174.052 203.200,174.162 203.200 C 174.272 203.200,174.919 202.390,175.600 201.400 C 176.281 200.410,176.748 199.600,176.638 199.600 C 176.528 199.600,175.881 200.410,175.200 201.400 M192.000 201.200 C 191.530 201.860,191.236 202.400,191.346 202.400 C 191.456 202.400,191.930 201.860,192.400 201.200 C 192.870 200.540,193.164 200.000,193.054 200.000 C 192.944 200.000,192.470 200.540,192.000 201.200 M172.253 205.853 C 171.426 207.080,170.816 208.150,170.898 208.231 C 170.979 208.312,171.721 207.374,172.547 206.147 C 173.374 204.920,173.984 203.850,173.902 203.769 C 173.821 203.688,173.079 204.626,172.253 205.853 M188.400 206.600 C 187.719 207.590,187.252 208.400,187.362 208.400 C 187.472 208.400,188.119 207.590,188.800 206.600 C 189.481 205.610,189.948 204.800,189.838 204.800 C 189.728 204.800,189.081 205.610,188.400 206.600 M169.584 210.023 C 169.105 210.696,168.779 211.313,168.861 211.394 C 168.943 211.476,169.414 210.926,169.908 210.171 C 171.023 208.471,170.771 208.356,169.584 210.023 M183.455 214.100 C 179.494 220.246,177.238 224.000,177.520 223.976 C 177.830 223.950,186.060 210.800,185.766 210.800 C 185.665 210.800,184.625 212.285,183.455 214.100 M166.492 214.873 C 165.552 216.437,164.849 217.782,164.928 217.862 C 165.008 217.941,165.899 216.655,166.908 215.003 C 167.917 213.351,168.621 212.006,168.471 212.014 C 168.322 212.022,167.431 213.308,166.492 214.873 M232.261 219.261 C 230.350 222.373,228.847 224.981,228.922 225.056 C 228.997 225.130,230.628 222.652,232.548 219.548 C 234.467 216.444,235.970 213.836,235.887 213.753 C 235.803 213.670,234.172 216.149,232.261 219.261 M160.238 225.438 C 158.334 228.667,156.836 231.370,156.910 231.444 C 156.984 231.517,157.649 230.548,158.388 229.289 C 159.127 228.030,160.703 225.406,161.890 223.457 C 163.077 221.509,163.969 219.836,163.874 219.741 C 163.779 219.645,162.143 222.209,160.238 225.438 M176.092 225.829 C 175.597 226.583,175.329 227.199,175.496 227.197 C 175.819 227.195,177.307 224.773,177.108 224.574 C 177.043 224.510,176.586 225.074,176.092 225.829 M225.273 230.873 C 223.899 233.092,222.832 234.966,222.902 235.036 C 222.972 235.106,224.154 233.347,225.527 231.127 C 226.901 228.908,227.968 227.034,227.898 226.964 C 227.828 226.894,226.646 228.653,225.273 230.873 M173.587 229.917 C 171.390 233.553,171.075 234.202,171.797 233.602 C 172.129 233.327,172.400 232.948,172.400 232.759 C 172.400 232.570,173.045 231.407,173.834 230.175 C 174.622 228.942,175.199 227.866,175.117 227.784 C 175.034 227.701,174.346 228.661,173.587 229.917 M155.623 233.450 C 155.153 234.248,154.833 234.966,154.913 235.046 C 154.992 235.126,155.461 234.473,155.954 233.596 C 157.075 231.602,156.788 231.477,155.623 233.450 M170.418 235.318 C 167.989 239.200,165.037 244.753,166.555 242.586 C 167.540 241.179,171.211 234.677,171.088 234.555 C 171.023 234.490,170.721 234.833,170.418 235.318 M153.623 237.050 C 153.153 237.848,152.833 238.566,152.913 238.646 C 152.992 238.726,153.461 238.073,153.954 237.196 C 155.075 235.202,154.788 235.077,153.623 237.050 M221.584 236.823 C 221.105 237.496,220.800 238.133,220.907 238.240 C 221.014 238.347,221.477 237.796,221.937 237.017 C 222.964 235.277,222.763 235.167,221.584 236.823 M217.641 243.444 C 216.053 245.998,214.819 248.153,214.899 248.232 C 215.027 248.360,218.960 242.183,220.313 239.730 C 221.653 237.299,220.236 239.269,217.641 243.444 M149.750 244.100 C 149.381 244.815,148.557 246.366,147.919 247.546 C 147.281 248.727,146.829 249.763,146.915 249.848 C 147.000 249.934,147.919 248.383,148.956 246.402 C 149.992 244.421,150.746 242.800,150.631 242.800 C 150.515 242.800,150.119 243.385,149.750 244.100 M164.046 246.404 C 163.552 247.282,163.233 248.000,163.335 248.000 C 163.606 248.000,165.259 245.126,165.087 244.954 C 165.008 244.874,164.539 245.527,164.046 246.404 M213.807 249.578 C 213.389 250.894,209.217 254.386,206.745 255.489 C 205.456 256.064,204.471 256.604,204.557 256.690 C 205.012 257.145,210.381 254.001,212.214 252.206 C 213.285 251.158,214.849 248.800,214.474 248.800 C 214.243 248.800,213.943 249.150,213.807 249.578 M128.330 251.000 C 127.969 252.100,127.536 253.345,127.369 253.766 C 127.165 254.279,127.208 254.442,127.501 254.261 C 127.742 254.112,128.063 253.408,128.215 252.695 C 128.368 251.983,128.666 251.184,128.879 250.919 C 129.092 250.655,129.203 250.115,129.127 249.719 C 129.044 249.291,128.722 249.808,128.330 251.000 M144.999 253.086 C 144.611 253.919,144.217 254.735,144.123 254.900 C 144.030 255.065,144.050 255.200,144.168 255.200 C 144.480 255.200,146.089 251.956,145.880 251.747 C 145.784 251.650,145.387 252.253,144.999 253.086 M160.046 253.604 C 159.552 254.482,159.233 255.200,159.335 255.200 C 159.606 255.200,161.259 252.326,161.087 252.154 C 161.008 252.074,160.539 252.727,160.046 253.604 M126.330 256.600 C 125.969 257.700,125.536 258.945,125.369 259.366 C 125.165 259.879,125.208 260.042,125.501 259.861 C 125.742 259.712,126.063 259.008,126.215 258.295 C 126.368 257.583,126.666 256.784,126.879 256.519 C 127.092 256.255,127.203 255.715,127.127 255.319 C 127.044 254.891,126.722 255.408,126.330 256.600 M142.999 257.086 C 142.611 257.919,142.217 258.735,142.123 258.900 C 142.030 259.065,142.050 259.200,142.168 259.200 C 142.480 259.200,144.089 255.956,143.880 255.747 C 143.784 255.650,143.387 256.253,142.999 257.086 M200.800 257.484 C 199.810 257.804,198.749 258.146,198.443 258.243 C 198.136 258.340,197.968 258.501,198.068 258.601 C 198.168 258.701,199.589 258.349,201.225 257.817 C 202.861 257.285,203.840 256.862,203.400 256.876 C 202.960 256.890,201.790 257.163,200.800 257.484 M157.167 258.866 C 156.893 259.380,156.330 260.406,155.915 261.147 C 155.500 261.888,155.253 262.586,155.365 262.699 C 155.478 262.811,155.793 262.385,156.066 261.752 C 156.338 261.118,156.904 260.095,157.324 259.477 C 157.744 258.859,157.992 258.259,157.876 258.143 C 157.760 258.027,157.441 258.352,157.167 258.866 M194.400 259.484 C 193.410 259.804,192.349 260.146,192.043 260.243 C 191.736 260.340,191.568 260.501,191.668 260.601 C 191.768 260.701,193.189 260.349,194.825 259.817 C 196.461 259.285,197.440 258.862,197.000 258.876 C 196.560 258.890,195.390 259.163,194.400 259.484 M140.999 261.086 C 140.611 261.919,140.217 262.735,140.123 262.900 C 140.030 263.065,140.050 263.200,140.168 263.200 C 140.480 263.200,142.089 259.956,141.880 259.747 C 141.784 259.650,141.387 260.253,140.999 261.086 M124.712 261.200 C 124.576 261.750,124.350 262.650,124.210 263.200 C 124.052 263.822,124.197 263.679,124.592 262.821 C 124.942 262.062,125.168 261.162,125.094 260.821 C 125.010 260.431,124.868 260.572,124.712 261.200 M189.000 261.200 C 188.864 261.420,188.358 261.621,187.876 261.646 C 187.333 261.675,187.236 261.756,187.621 261.860 C 187.962 261.953,188.862 261.759,189.621 261.430 C 190.707 260.958,190.814 260.828,190.124 260.816 C 189.642 260.807,189.136 260.980,189.000 261.200 M185.200 262.400 C 184.667 262.745,184.667 262.788,185.200 262.788 C 185.530 262.788,186.070 262.613,186.400 262.400 C 186.933 262.055,186.933 262.012,186.400 262.012 C 186.070 262.012,185.530 262.187,185.200 262.400 M181.800 263.414 C 180.259 264.120,181.360 264.109,183.200 263.400 C 184.076 263.063,184.300 262.862,183.800 262.863 C 183.360 262.864,182.460 263.112,181.800 263.414 M138.999 265.086 C 138.611 265.919,138.217 266.735,138.123 266.900 C 138.030 267.065,138.050 267.200,138.168 267.200 C 138.480 267.200,140.089 263.956,139.880 263.747 C 139.784 263.650,139.387 264.253,138.999 265.086 M178.800 264.400 C 178.267 264.745,178.267 264.788,178.800 264.788 C 179.130 264.788,179.670 264.613,180.000 264.400 C 180.533 264.055,180.533 264.012,180.000 264.012 C 179.670 264.012,179.130 264.187,178.800 264.400 M174.800 265.484 C 173.810 265.804,172.749 266.146,172.443 266.243 C 172.136 266.340,171.968 266.501,172.068 266.601 C 172.168 266.701,173.589 266.349,175.225 265.817 C 176.861 265.285,177.840 264.862,177.400 264.876 C 176.960 264.890,175.790 265.163,174.800 265.484 M122.299 268.296 C 121.955 269.343,121.553 270.560,121.406 271.000 C 121.189 271.651,121.216 271.682,121.551 271.169 C 122.114 270.306,123.297 266.763,123.091 266.558 C 122.999 266.466,122.643 267.248,122.299 268.296 M152.097 268.575 C 151.609 269.579,151.280 270.400,151.366 270.400 C 151.679 270.400,153.229 267.487,153.108 267.125 C 153.040 266.919,152.585 267.572,152.097 268.575 M168.400 267.484 C 167.410 267.804,166.349 268.146,166.043 268.243 C 165.736 268.340,165.568 268.501,165.668 268.601 C 165.768 268.701,167.189 268.349,168.825 267.817 C 170.461 267.285,171.440 266.862,171.000 266.876 C 170.560 266.890,169.390 267.163,168.400 267.484 M137.285 268.413 C 137.018 268.840,136.807 269.417,136.816 269.695 C 136.825 269.973,137.109 269.689,137.447 269.065 C 138.150 267.768,138.018 267.238,137.285 268.413 M163.000 269.200 C 162.864 269.420,162.358 269.621,161.876 269.646 C 161.333 269.675,161.236 269.756,161.621 269.860 C 161.962 269.953,162.862 269.759,163.621 269.430 C 164.707 268.958,164.814 268.828,164.124 268.816 C 163.642 268.807,163.136 268.980,163.000 269.200 M159.200 270.400 C 158.667 270.745,158.667 270.788,159.200 270.788 C 159.530 270.788,160.070 270.613,160.400 270.400 C 160.933 270.055,160.933 270.012,160.400 270.012 C 160.070 270.012,159.530 270.187,159.200 270.400 M135.631 272.031 C 135.177 272.970,134.862 273.795,134.931 273.865 C 135.000 273.934,135.454 273.247,135.938 272.338 C 136.423 271.430,136.738 270.605,136.638 270.505 C 136.538 270.405,136.085 271.091,135.631 272.031 M155.800 271.414 C 154.259 272.120,155.360 272.109,157.200 271.400 C 158.076 271.063,158.300 270.862,157.800 270.863 C 157.360 270.864,156.460 271.112,155.800 271.414 M120.431 273.507 C 120.123 274.440,119.990 275.323,120.135 275.469 C 120.281 275.614,120.400 275.379,120.400 274.947 C 120.400 274.514,120.597 273.963,120.838 273.722 C 121.078 273.482,121.211 272.953,121.133 272.547 C 121.040 272.063,120.798 272.393,120.431 273.507 M152.800 272.400 C 152.267 272.745,152.267 272.788,152.800 272.788 C 153.130 272.788,153.670 272.613,154.000 272.400 C 154.533 272.055,154.533 272.012,154.000 272.012 C 153.670 272.012,153.130 272.187,152.800 272.400 M133.265 277.017 C 132.595 278.488,132.723 278.802,133.447 277.465 C 133.786 276.840,133.988 276.254,133.896 276.163 C 133.805 276.071,133.521 276.456,133.265 277.017 M118.431 279.507 C 118.123 280.440,117.990 281.323,118.135 281.469 C 118.281 281.614,118.400 281.379,118.400 280.947 C 118.400 280.514,118.597 279.963,118.838 279.722 C 119.078 279.482,119.211 278.953,119.133 278.547 C 119.040 278.063,118.798 278.393,118.431 279.507 M131.285 281.213 C 131.018 281.640,130.807 282.217,130.816 282.495 C 130.825 282.773,131.109 282.489,131.447 281.865 C 132.150 280.568,132.018 280.038,131.285 281.213 M116.431 285.507 C 116.123 286.440,115.990 287.323,116.135 287.469 C 116.281 287.614,116.400 287.379,116.400 286.947 C 116.400 286.514,116.597 285.963,116.838 285.722 C 117.078 285.482,117.211 284.953,117.133 284.547 C 117.040 284.063,116.798 284.393,116.431 285.507 M129.285 285.613 C 129.018 286.040,128.807 286.617,128.816 286.895 C 128.825 287.173,129.109 286.889,129.447 286.265 C 130.150 284.968,130.018 284.438,129.285 285.613 M127.265 290.217 C 126.595 291.688,126.723 292.002,127.447 290.665 C 127.786 290.040,127.988 289.454,127.896 289.363 C 127.805 289.271,127.521 289.656,127.265 290.217 M114.227 292.289 C 113.850 293.560,113.442 294.870,113.321 295.200 C 113.174 295.599,113.233 295.666,113.499 295.400 C 114.008 294.889,115.381 290.448,115.113 290.180 C 115.002 290.069,114.603 291.018,114.227 292.289 M125.627 294.027 C 125.124 295.138,124.797 296.131,124.900 296.233 C 125.002 296.335,125.473 295.486,125.947 294.347 C 127.065 291.654,126.813 291.402,125.627 294.027 M112.436 298.036 C 111.796 300.174,112.110 300.489,112.800 298.400 C 113.091 297.518,113.239 296.706,113.129 296.595 C 113.018 296.485,112.707 297.134,112.436 298.036 M123.300 299.493 C 122.588 301.011,122.684 301.633,123.413 300.233 C 123.748 299.591,123.972 298.922,123.911 298.746 C 123.850 298.570,123.575 298.906,123.300 299.493 M111.400 301.200 C 111.250 301.673,111.217 302.150,111.327 302.260 C 111.437 302.370,111.650 302.073,111.800 301.600 C 111.950 301.127,111.983 300.650,111.873 300.540 C 111.763 300.430,111.550 300.727,111.400 301.200 M110.481 304.288 C 109.796 306.575,109.921 307.334,110.643 305.273 C 110.976 304.323,111.184 303.352,111.105 303.115 C 111.026 302.878,110.745 303.406,110.481 304.288 M121.265 304.217 C 121.009 304.778,120.807 305.454,120.816 305.719 C 120.824 305.983,121.097 305.588,121.422 304.839 C 122.105 303.265,121.961 302.690,121.265 304.217 M120.032 307.139 C 119.795 307.584,119.601 308.184,119.602 308.474 C 119.604 308.763,119.877 308.478,120.210 307.840 C 120.542 307.203,120.736 306.602,120.640 306.506 C 120.543 306.410,120.270 306.695,120.032 307.139 M108.499 311.190 C 107.796 313.442,107.913 314.158,108.643 312.073 C 108.976 311.123,109.192 310.176,109.123 309.969 C 109.054 309.761,108.773 310.311,108.499 311.190 M118.003 312.245 C 117.772 312.880,117.377 313.805,117.124 314.299 C 116.872 314.794,116.760 315.293,116.875 315.409 C 116.991 315.524,117.473 314.686,117.947 313.547 C 118.420 312.407,118.721 311.388,118.615 311.282 C 118.509 311.176,118.234 311.609,118.003 312.245 M107.400 314.800 C 107.250 315.273,107.217 315.750,107.327 315.860 C 107.437 315.970,107.650 315.673,107.800 315.200 C 107.950 314.727,107.983 314.250,107.873 314.140 C 107.763 314.030,107.550 314.327,107.400 314.800 M115.859 317.568 C 115.507 318.449,114.759 319.471,114.197 319.839 C 112.966 320.645,113.151 321.077,114.405 320.328 C 115.223 319.839,117.022 316.488,116.660 316.127 C 116.572 316.039,116.212 316.687,115.859 317.568 M106.575 318.230 C 106.424 319.237,106.458 320.217,106.650 320.409 C 106.850 320.608,107.033 319.822,107.077 318.579 C 107.171 315.921,106.944 315.764,106.575 318.230 " stroke="none" fill="#6c7c04" fill-rule="evenodd"></path></g></svg>