<svg id="svg" version="1.1" xmlns="http://www.w3.org/2000/svg" xmlns:xlink="http://www.w3.org/1999/xlink" width="400" height="400" viewBox="0, 0, 400,400"><g id="svgg"><path id="path0" d="M50.400 140.299 L 50.400 170.198 80.052 199.852 C 97.640 217.441,109.593 229.689,109.429 229.953 C 109.230 230.276,100.972 230.400,79.776 230.400 L 50.400 230.400 50.400 260.000 L 50.400 289.600 80.000 289.600 L 109.600 289.600 109.600 260.024 C 109.600 243.757,109.746 230.357,109.924 230.247 C 110.103 230.137,123.647 243.446,140.023 259.823 L 169.798 289.600 229.699 289.600 L 289.600 289.600 289.600 230.080 C 289.600 184.320,289.711 170.449,290.080 170.080 C 290.445 169.715,297.653 169.600,320.080 169.600 L 349.600 169.600 349.600 140.000 L 349.600 110.400 260.000 110.400 L 170.400 110.400 170.400 139.997 L 170.400 169.595 200.300 169.697 L 230.200 169.800 230.303 199.377 C 230.372 219.275,230.270 229.090,229.993 229.367 C 229.540 229.820,170.400 171.005,170.400 170.101 C 170.400 169.825,170.175 169.600,169.899 169.600 C 169.623 169.600,156.079 156.280,139.800 140.000 L 110.202 110.400 80.301 110.400 L 50.400 110.400 50.400 140.299 " stroke="none" fill="#fb4404" fill-rule="evenodd"></path><path id="path1" d="M0.000 200.000 L 0.000 400.000 200.000 400.000 L 400.000 400.000 400.000 200.000 L 400.000 0.000 200.000 0.000 L 0.000 0.000 0.000 200.000 M139.886 139.303 L 169.400 168.806 169.500 139.703 C 169.592 112.849,169.653 110.561,170.280 110.098 C 171.024 109.547,347.210 109.412,349.200 109.961 L 350.200 110.236 350.303 139.774 C 350.378 161.419,350.283 169.458,349.949 169.861 C 349.571 170.317,344.591 170.408,320.447 170.400 C 304.471 170.394,291.175 170.392,290.900 170.395 C 290.502 170.399,290.400 182.629,290.400 230.200 L 290.400 290.000 229.900 289.994 L 169.400 289.987 140.000 260.572 L 110.600 231.156 110.400 260.478 L 110.200 289.800 80.000 289.800 L 49.800 289.800 49.697 260.244 C 49.623 238.825,49.719 230.539,50.044 230.147 C 50.413 229.702,55.718 229.587,79.669 229.503 L 108.845 229.400 79.228 199.800 L 49.612 170.200 49.606 140.380 C 49.602 118.091,49.719 110.441,50.069 110.091 C 50.422 109.738,57.997 109.644,80.455 109.711 L 110.372 109.800 139.886 139.303 M200.200 199.600 C 216.259 215.660,229.443 228.800,229.499 228.800 C 229.555 228.800,229.600 215.660,229.600 199.600 L 229.600 170.400 200.301 170.400 L 171.002 170.400 200.200 199.600 " stroke="none" fill="#fcfbfb" fill-rule="evenodd"></path><path id="path2" d="M50.080 110.080 C 49.715 110.445,49.600 117.727,49.600 140.410 L 49.600 170.261 50.700 171.230 L 51.800 172.200 50.897 171.171 L 49.995 170.143 50.097 140.171 L 50.200 110.200 52.000 109.960 L 53.800 109.720 52.180 109.660 C 51.289 109.627,50.344 109.816,50.080 110.080 M68.929 109.900 C 75.930 109.961,87.270 109.961,94.129 109.900 C 100.988 109.838,95.260 109.788,81.400 109.788 C 67.540 109.788,61.928 109.839,68.929 109.900 M214.332 109.900 C 238.385 109.957,277.625 109.957,301.532 109.900 C 325.439 109.843,305.760 109.796,257.800 109.796 C 209.840 109.796,190.279 109.843,214.332 109.900 M346.305 109.883 C 346.802 109.979,347.522 109.975,347.905 109.875 C 348.287 109.775,347.880 109.696,347.000 109.701 C 346.120 109.705,345.807 109.787,346.305 109.883 M169.867 110.267 C 169.720 110.413,169.600 123.665,169.600 139.716 C 169.600 167.451,169.565 168.871,168.900 168.349 C 168.266 167.851,168.251 167.866,168.749 168.500 C 169.051 168.885,169.454 169.200,169.644 169.200 C 169.834 169.200,170.037 155.902,170.095 139.600 C 170.153 123.320,170.185 110.000,170.167 110.000 C 170.148 110.000,170.013 110.120,169.867 110.267 M350.000 139.920 L 350.200 169.800 350.303 140.223 C 350.359 123.955,350.269 110.509,350.103 110.343 C 349.936 110.176,349.890 123.486,350.000 139.920 M113.983 113.700 C 114.964 114.745,115.819 115.600,115.883 115.600 C 116.184 115.600,115.866 115.241,114.100 113.583 L 112.200 111.800 113.983 113.700 M117.983 117.700 C 118.964 118.745,119.819 119.600,119.883 119.600 C 120.184 119.600,119.866 119.241,118.100 117.583 L 116.200 115.800 117.983 117.700 M124.000 123.800 C 126.081 125.890,127.874 127.600,127.984 127.600 C 128.094 127.600,126.481 125.890,124.400 123.800 C 122.319 121.710,120.526 120.000,120.416 120.000 C 120.306 120.000,121.919 121.710,124.000 123.800 M140.000 139.800 C 146.487 146.290,151.885 151.600,151.995 151.600 C 152.105 151.600,146.887 146.290,140.400 139.800 C 133.913 133.310,128.515 128.000,128.405 128.000 C 128.295 128.000,133.513 133.310,140.000 139.800 M152.400 152.104 C 152.400 152.161,155.955 155.716,160.300 160.004 L 168.200 167.800 160.404 159.900 C 153.160 152.560,152.400 151.819,152.400 152.104 M170.800 170.301 C 170.800 170.693,229.309 229.200,229.701 229.200 C 229.865 229.200,230.000 215.880,230.000 199.600 L 230.000 170.000 200.400 170.000 C 184.120 170.000,170.800 170.135,170.800 170.301 M290.187 170.500 C 289.867 171.349,289.781 290.000,290.100 290.000 C 290.265 290.000,290.400 263.105,290.400 230.233 C 290.400 182.794,290.503 170.425,290.900 170.265 C 291.292 170.107,291.289 170.056,290.887 170.032 C 290.606 170.014,290.290 170.225,290.187 170.500 M306.129 170.300 C 314.231 170.360,327.371 170.360,335.329 170.300 C 343.288 170.239,336.660 170.190,320.600 170.190 C 304.540 170.190,298.028 170.239,306.129 170.300 M229.600 199.600 C 229.600 215.660,229.555 228.800,229.499 228.800 C 229.443 228.800,216.259 215.660,200.200 199.600 L 171.002 170.400 200.301 170.400 L 229.600 170.400 229.600 199.600 M53.583 174.100 C 54.564 175.145,55.419 176.000,55.483 176.000 C 55.784 176.000,55.466 175.641,53.700 173.983 L 51.800 172.200 53.583 174.100 M57.583 178.100 C 58.564 179.145,59.419 180.000,59.483 180.000 C 59.784 180.000,59.466 179.641,57.700 177.983 L 55.800 176.200 57.583 178.100 M61.583 182.100 C 62.564 183.145,63.419 184.000,63.483 184.000 C 63.784 184.000,63.466 183.641,61.700 181.983 L 59.800 180.200 61.583 182.100 M65.583 186.100 C 66.564 187.145,67.419 188.000,67.483 188.000 C 67.784 188.000,67.466 187.641,65.700 185.983 L 63.800 184.200 65.583 186.100 M69.583 190.100 C 71.241 191.866,71.600 192.184,71.600 191.883 C 71.600 191.819,70.745 190.964,69.700 189.983 L 67.800 188.200 69.583 190.100 M73.583 194.100 C 74.564 195.145,75.419 196.000,75.483 196.000 C 75.784 196.000,75.466 195.641,73.700 193.983 L 71.800 192.200 73.583 194.100 M77.583 198.100 C 78.564 199.145,79.419 200.000,79.483 200.000 C 79.784 200.000,79.466 199.641,77.700 197.983 L 75.800 196.200 77.583 198.100 M81.583 202.100 C 82.564 203.145,83.419 204.000,83.483 204.000 C 83.784 204.000,83.466 203.641,81.700 201.983 L 79.800 200.200 81.583 202.100 M85.583 206.100 C 86.564 207.145,87.419 208.000,87.483 208.000 C 87.784 208.000,87.466 207.641,85.700 205.983 L 83.800 204.200 85.583 206.100 M89.583 210.100 C 90.564 211.145,91.419 212.000,91.483 212.000 C 91.784 212.000,91.466 211.641,89.700 209.983 L 87.800 208.200 89.583 210.100 M93.583 214.100 C 94.564 215.145,95.419 216.000,95.483 216.000 C 95.784 216.000,95.466 215.641,93.700 213.983 L 91.800 212.200 93.583 214.100 M97.583 218.100 C 98.564 219.145,99.419 220.000,99.483 220.000 C 99.784 220.000,99.466 219.641,97.700 217.983 L 95.800 216.200 97.583 218.100 M101.583 222.100 C 103.241 223.866,103.600 224.184,103.600 223.883 C 103.600 223.819,102.745 222.964,101.700 221.983 L 99.800 220.200 101.583 222.100 M105.583 226.100 C 107.241 227.866,107.600 228.184,107.600 227.883 C 107.600 227.819,106.745 226.964,105.700 225.983 L 103.800 224.200 105.583 226.100 M108.347 228.897 C 108.866 229.559,107.388 229.600,79.547 229.700 L 50.200 229.805 79.700 229.903 C 96.430 229.958,109.200 229.848,109.200 229.649 C 109.200 229.456,108.885 229.051,108.500 228.749 C 107.866 228.252,107.852 228.266,108.347 228.897 M49.693 259.876 C 49.642 276.198,49.735 289.636,49.900 289.738 C 50.172 289.907,50.169 268.377,49.893 240.800 C 49.834 234.970,49.744 243.554,49.693 259.876 M109.905 260.362 C 109.847 276.621,109.935 289.840,110.100 289.738 C 110.265 289.636,110.400 276.401,110.400 260.327 C 110.400 232.551,110.435 231.129,111.100 231.651 C 111.734 232.149,111.749 232.134,111.251 231.500 C 110.949 231.115,110.546 230.800,110.356 230.800 C 110.166 230.800,109.963 244.081,109.905 260.362 M113.583 234.100 C 115.241 235.866,115.600 236.184,115.600 235.883 C 115.600 235.819,114.745 234.964,113.700 233.983 L 111.800 232.200 113.583 234.100 M117.583 238.100 C 119.241 239.866,119.600 240.184,119.600 239.883 C 119.600 239.819,118.745 238.964,117.700 237.983 L 115.800 236.200 117.583 238.100 M121.583 242.100 C 123.241 243.866,123.600 244.184,123.600 243.883 C 123.600 243.819,122.745 242.964,121.700 241.983 L 119.800 240.200 121.583 242.100 M125.583 246.100 C 127.241 247.866,127.600 248.184,127.600 247.883 C 127.600 247.819,126.745 246.964,125.700 245.983 L 123.800 244.200 125.583 246.100 M129.583 250.100 C 131.241 251.866,131.600 252.184,131.600 251.883 C 131.600 251.819,130.745 250.964,129.700 249.983 L 127.800 248.200 129.583 250.100 M133.583 254.100 C 135.241 255.866,135.600 256.184,135.600 255.883 C 135.600 255.819,134.745 254.964,133.700 253.983 L 131.800 252.200 133.583 254.100 M137.583 258.100 C 139.241 259.866,139.600 260.184,139.600 259.883 C 139.600 259.819,138.745 258.964,137.700 257.983 L 135.800 256.200 137.583 258.100 M141.583 262.100 C 143.241 263.866,143.600 264.184,143.600 263.883 C 143.600 263.819,142.745 262.964,141.700 261.983 L 139.800 260.200 141.583 262.100 M145.583 266.100 C 147.241 267.866,147.600 268.184,147.600 267.883 C 147.600 267.819,146.745 266.964,145.700 265.983 L 143.800 264.200 145.583 266.100 M149.583 270.100 C 151.241 271.866,151.600 272.184,151.600 271.883 C 151.600 271.819,150.745 270.964,149.700 269.983 L 147.800 268.200 149.583 270.100 M153.583 274.100 C 155.241 275.866,155.600 276.184,155.600 275.883 C 155.600 275.819,154.745 274.964,153.700 273.983 L 151.800 272.200 153.583 274.100 M157.583 278.100 C 159.241 279.866,159.600 280.184,159.600 279.883 C 159.600 279.819,158.745 278.964,157.700 277.983 L 155.800 276.200 157.583 278.100 M161.583 282.100 C 163.241 283.866,163.600 284.184,163.600 283.883 C 163.600 283.819,162.745 282.964,161.700 281.983 L 159.800 280.200 161.583 282.100 M165.583 286.100 C 167.241 287.866,167.600 288.184,167.600 287.883 C 167.600 287.819,166.745 286.964,165.700 285.983 L 163.800 284.200 165.583 286.100 " stroke="none" fill="#fab9a1" fill-rule="evenodd"></path><path id="path3" d="M50.267 110.267 C 50.120 110.413,50.000 123.975,50.000 140.405 L 50.000 170.276 50.900 171.038 C 51.799 171.799,51.799 171.799,51.100 170.969 C 50.447 170.193,50.400 168.131,50.400 140.271 L 50.400 110.405 80.300 110.300 L 110.200 110.195 80.367 110.097 C 63.958 110.044,50.413 110.120,50.267 110.267 M260.097 110.300 L 349.595 110.402 349.701 137.901 L 349.808 165.400 349.804 137.800 L 349.800 110.200 260.200 110.199 L 170.600 110.197 260.097 110.300 M111.600 111.800 C 112.346 112.570,113.047 113.200,113.157 113.200 C 113.267 113.200,112.746 112.570,112.000 111.800 C 111.254 111.030,110.553 110.400,110.443 110.400 C 110.333 110.400,110.854 111.030,111.600 111.800 M170.187 135.200 C 170.187 147.190,170.238 152.095,170.300 146.100 C 170.362 140.105,170.362 130.295,170.300 124.300 C 170.238 118.305,170.187 123.210,170.187 135.200 M118.600 118.800 C 119.459 119.680,120.252 120.400,120.362 120.400 C 120.472 120.400,119.859 119.680,119.000 118.800 C 118.141 117.920,117.348 117.200,117.238 117.200 C 117.128 117.200,117.741 117.920,118.600 118.800 M143.800 144.000 C 156.559 156.760,167.087 167.200,167.197 167.200 C 167.307 167.200,156.959 156.760,144.200 144.000 C 131.441 131.240,120.913 120.800,120.803 120.800 C 120.693 120.800,131.041 131.240,143.800 144.000 M170.114 161.800 C 170.117 162.900,170.195 163.303,170.287 162.695 C 170.379 162.086,170.377 161.186,170.282 160.695 C 170.187 160.203,170.111 160.700,170.114 161.800 M349.664 167.897 L 349.600 169.595 319.900 169.700 L 290.200 169.805 319.913 169.903 C 352.551 170.010,350.218 170.194,349.892 167.538 C 349.744 166.329,349.722 166.364,349.664 167.897 M170.067 167.900 C 169.988 169.441,169.783 169.491,168.426 168.300 L 167.400 167.400 168.370 168.500 C 168.903 169.105,169.578 169.600,169.870 169.600 C 170.161 169.600,170.400 169.825,170.400 170.101 C 170.400 171.005,229.540 229.820,229.993 229.367 C 230.270 229.090,230.372 219.275,230.303 199.377 L 230.200 169.800 200.324 169.697 L 170.448 169.595 170.291 168.097 C 170.140 166.654,170.132 166.647,170.067 167.900 M230.000 199.600 C 230.000 215.880,229.865 229.200,229.701 229.200 C 229.309 229.200,170.800 170.693,170.800 170.301 C 170.800 170.135,184.120 170.000,200.400 170.000 L 230.000 170.000 230.000 199.600 M289.699 229.899 L 289.600 289.597 229.700 289.700 L 169.800 289.803 229.713 289.901 C 277.347 289.980,289.664 289.898,289.815 289.500 C 289.920 289.225,289.959 262.270,289.901 229.600 L 289.797 170.200 289.699 229.899 M54.600 174.800 C 55.683 175.900,56.660 176.800,56.770 176.800 C 56.880 176.800,56.083 175.900,55.000 174.800 C 53.917 173.700,52.940 172.800,52.830 172.800 C 52.720 172.800,53.517 173.700,54.600 174.800 M59.800 180.000 C 60.883 181.100,61.860 182.000,61.970 182.000 C 62.080 182.000,61.283 181.100,60.200 180.000 C 59.117 178.900,58.140 178.000,58.030 178.000 C 57.920 178.000,58.717 178.900,59.800 180.000 M65.400 185.600 C 66.706 186.920,67.865 188.000,67.975 188.000 C 68.085 188.000,67.106 186.920,65.800 185.600 C 64.494 184.280,63.335 183.200,63.225 183.200 C 63.115 183.200,64.094 184.280,65.400 185.600 M70.400 190.600 C 71.595 191.810,72.663 192.800,72.773 192.800 C 72.883 192.800,71.995 191.810,70.800 190.600 C 69.605 189.390,68.537 188.400,68.427 188.400 C 68.317 188.400,69.205 189.390,70.400 190.600 M76.000 196.200 C 77.195 197.410,78.263 198.400,78.373 198.400 C 78.483 198.400,77.595 197.410,76.400 196.200 C 75.205 194.990,74.137 194.000,74.027 194.000 C 73.917 194.000,74.805 194.990,76.000 196.200 M81.200 201.400 C 82.395 202.610,83.463 203.600,83.573 203.600 C 83.683 203.600,82.795 202.610,81.600 201.400 C 80.405 200.190,79.337 199.200,79.227 199.200 C 79.117 199.200,80.005 200.190,81.200 201.400 M86.600 206.800 C 87.906 208.120,89.065 209.200,89.175 209.200 C 89.285 209.200,88.306 208.120,87.000 206.800 C 85.694 205.480,84.535 204.400,84.425 204.400 C 84.315 204.400,85.294 205.480,86.600 206.800 M91.800 212.000 C 93.106 213.320,94.265 214.400,94.375 214.400 C 94.485 214.400,93.506 213.320,92.200 212.000 C 90.894 210.680,89.735 209.600,89.625 209.600 C 89.515 209.600,90.494 210.680,91.800 212.000 M97.200 217.400 C 98.395 218.610,99.463 219.600,99.573 219.600 C 99.683 219.600,98.795 218.610,97.600 217.400 C 96.405 216.190,95.337 215.200,95.227 215.200 C 95.117 215.200,96.005 216.190,97.200 217.400 M102.400 222.600 C 103.595 223.810,104.663 224.800,104.773 224.800 C 104.883 224.800,103.995 223.810,102.800 222.600 C 101.605 221.390,100.537 220.400,100.427 220.400 C 100.317 220.400,101.205 221.390,102.400 222.600 M106.800 227.000 C 107.546 227.770,108.247 228.400,108.357 228.400 C 108.467 228.400,107.946 227.770,107.200 227.000 C 106.454 226.230,105.753 225.600,105.643 225.600 C 105.533 225.600,106.054 226.230,106.800 227.000 M109.200 229.531 C 109.200 229.878,101.757 230.021,79.700 230.097 L 50.200 230.200 50.196 258.400 L 50.192 286.600 50.299 258.500 L 50.405 230.400 79.779 230.400 C 107.906 230.400,110.440 230.307,109.440 229.307 C 109.308 229.175,109.200 229.276,109.200 229.531 M109.867 230.267 C 109.428 230.706,109.566 231.269,110.040 230.975 C 110.285 230.824,111.660 231.833,113.140 233.251 L 115.800 235.800 113.011 232.900 C 111.477 231.305,110.202 230.000,110.177 230.000 C 110.153 230.000,110.013 230.120,109.867 230.267 M118.600 238.800 C 119.683 239.900,120.660 240.800,120.770 240.800 C 120.880 240.800,120.083 239.900,119.000 238.800 C 117.917 237.700,116.940 236.800,116.830 236.800 C 116.720 236.800,117.517 237.700,118.600 238.800 M109.788 261.800 C 109.788 275.000,109.838 280.342,109.900 273.671 C 109.961 267.001,109.961 256.201,109.900 249.671 C 109.838 243.142,109.788 248.600,109.788 261.800 M123.800 244.000 C 124.883 245.100,125.860 246.000,125.970 246.000 C 126.080 246.000,125.283 245.100,124.200 244.000 C 123.117 242.900,122.140 242.000,122.030 242.000 C 121.920 242.000,122.717 242.900,123.800 244.000 M129.400 249.600 C 130.706 250.920,131.865 252.000,131.975 252.000 C 132.085 252.000,131.106 250.920,129.800 249.600 C 128.494 248.280,127.335 247.200,127.225 247.200 C 127.115 247.200,128.094 248.280,129.400 249.600 M134.400 254.600 C 135.595 255.810,136.663 256.800,136.773 256.800 C 136.883 256.800,135.995 255.810,134.800 254.600 C 133.605 253.390,132.537 252.400,132.427 252.400 C 132.317 252.400,133.205 253.390,134.400 254.600 M140.000 260.200 C 141.195 261.410,142.263 262.400,142.373 262.400 C 142.483 262.400,141.595 261.410,140.400 260.200 C 139.205 258.990,138.137 258.000,138.027 258.000 C 137.917 258.000,138.805 258.990,140.000 260.200 M145.200 265.400 C 146.395 266.610,147.463 267.600,147.573 267.600 C 147.683 267.600,146.795 266.610,145.600 265.400 C 144.405 264.190,143.337 263.200,143.227 263.200 C 143.117 263.200,144.005 264.190,145.200 265.400 M150.600 270.800 C 151.906 272.120,153.065 273.200,153.175 273.200 C 153.285 273.200,152.306 272.120,151.000 270.800 C 149.694 269.480,148.535 268.400,148.425 268.400 C 148.315 268.400,149.294 269.480,150.600 270.800 M155.800 276.000 C 157.106 277.320,158.265 278.400,158.375 278.400 C 158.485 278.400,157.506 277.320,156.200 276.000 C 154.894 274.680,153.735 273.600,153.625 273.600 C 153.515 273.600,154.494 274.680,155.800 276.000 M161.200 281.400 C 162.395 282.610,163.463 283.600,163.573 283.600 C 163.683 283.600,162.795 282.610,161.600 281.400 C 160.405 280.190,159.337 279.200,159.227 279.200 C 159.117 279.200,160.005 280.190,161.200 281.400 M166.600 286.800 C 167.906 288.120,169.065 289.200,169.175 289.200 C 169.285 289.200,168.306 288.120,167.000 286.800 C 165.694 285.480,164.535 284.400,164.425 284.400 C 164.315 284.400,165.294 285.480,166.600 286.800 M109.667 287.700 L 109.600 289.600 80.028 289.600 L 50.456 289.600 50.262 288.700 C 50.092 287.907,50.077 287.919,50.134 288.800 L 50.200 289.800 79.912 289.903 C 112.755 290.016,110.193 290.235,109.894 287.342 C 109.742 285.877,109.731 285.895,109.667 287.700 " stroke="none" fill="#f29c74" fill-rule="evenodd"></path><path id="path4" d="M170.109 158.400 C 170.109 159.390,170.187 159.795,170.282 159.300 C 170.378 158.805,170.378 157.995,170.282 157.500 C 170.187 157.005,170.109 157.410,170.109 158.400 M170.109 165.200 C 170.109 166.190,170.187 166.595,170.282 166.100 C 170.378 165.605,170.378 164.795,170.282 164.300 C 170.187 163.805,170.109 164.210,170.109 165.200 M109.731 235.400 C 109.733 236.940,109.805 237.521,109.892 236.691 C 109.979 235.861,109.977 234.601,109.889 233.891 C 109.800 233.181,109.729 233.860,109.731 235.400 " stroke="none" fill="#f4947c" fill-rule="evenodd"></path></g></svg>