<svg id="svg" version="1.1" xmlns="http://www.w3.org/2000/svg" xmlns:xlink="http://www.w3.org/1999/xlink" width="400" height="400" viewBox="0, 0, 400,400"><g id="svgg"><path id="path0" d="M335.000 82.256 C 308.123 83.703,290.748 104.174,297.971 125.884 C 301.770 137.301,310.002 144.143,326.000 149.183 C 343.912 154.826,346.869 155.834,350.299 157.470 C 358.425 161.343,361.650 168.137,359.001 175.800 C 354.389 189.141,329.440 191.876,303.931 181.837 C 295.845 178.656,295.200 179.039,295.200 187.029 C 295.200 194.155,296.317 196.282,301.101 198.262 C 301.926 198.604,303.320 199.198,304.200 199.583 C 316.091 204.789,338.019 206.603,350.200 203.388 C 357.024 201.586,362.374 199.302,366.655 196.361 C 385.068 183.710,386.249 156.512,368.915 144.293 C 364.071 140.878,360.109 139.305,342.000 133.605 C 335.892 131.682,332.569 130.553,331.400 130.003 C 330.960 129.796,329.610 129.199,328.400 128.675 C 317.651 124.024,314.216 113.161,321.089 105.554 C 327.950 97.960,348.738 97.142,365.315 103.814 C 374.304 107.431,375.762 106.109,374.613 95.380 C 373.757 87.395,354.997 81.179,335.000 82.256 M57.000 83.014 C 45.150 84.721,31.222 89.481,28.147 92.877 C 26.815 94.347,26.400 96.223,26.401 100.760 C 26.402 108.247,27.693 109.217,34.254 106.661 C 40.897 104.073,47.555 102.029,52.000 101.213 C 53.430 100.950,55.464 100.570,56.520 100.368 C 57.576 100.166,61.111 100.000,64.376 100.000 C 81.688 100.000,89.299 105.273,91.561 118.833 C 92.199 122.656,92.151 136.800,91.500 136.800 C 91.225 136.800,89.740 136.532,88.200 136.205 C 60.373 130.287,42.092 132.892,29.295 144.600 C 15.976 156.785,15.228 181.193,27.771 194.348 C 36.412 203.412,52.428 207.136,66.400 203.330 C 67.610 203.000,69.140 202.583,69.800 202.403 C 71.662 201.896,74.956 200.718,75.400 200.401 C 75.620 200.245,77.060 199.434,78.600 198.600 C 82.431 196.526,86.408 193.470,90.102 189.759 C 91.981 187.873,93.343 186.793,93.556 187.022 C 93.749 187.230,94.758 189.014,95.798 190.987 C 100.648 200.188,104.291 203.370,108.064 201.701 C 110.683 200.543,118.284 195.286,119.200 194.000 C 120.393 192.325,120.214 191.353,117.755 186.150 C 113.424 176.987,113.543 178.077,113.211 144.600 C 112.862 109.483,112.497 107.110,105.963 97.400 C 98.091 85.703,78.436 79.928,57.000 83.014 M127.023 86.489 C 126.106 87.798,126.255 89.687,127.628 94.181 C 129.445 100.124,131.850 107.942,133.603 113.600 C 134.455 116.350,135.358 119.410,135.608 120.400 C 135.859 121.390,136.588 123.820,137.228 125.800 C 137.867 127.780,139.098 131.740,139.963 134.600 C 143.609 146.651,146.159 155.032,150.186 168.200 C 150.926 170.620,152.015 174.220,152.607 176.200 C 154.050 181.031,154.833 183.607,156.799 190.000 C 160.524 202.108,159.587 201.400,171.874 201.400 L 181.147 201.400 182.378 200.221 C 183.847 198.813,184.868 195.521,187.657 183.200 C 188.080 181.330,189.043 177.280,189.796 174.200 C 190.549 171.120,191.982 165.180,192.980 161.000 C 194.785 153.440,195.787 149.255,199.539 133.600 C 200.620 129.090,202.080 122.970,202.783 120.000 C 204.923 110.964,205.100 110.552,205.926 112.700 C 206.326 113.742,207.756 119.489,209.035 125.200 C 209.355 126.630,209.780 128.340,209.978 129.000 C 210.177 129.660,210.728 131.910,211.205 134.000 C 212.759 140.823,213.656 144.579,214.023 145.800 C 214.221 146.460,214.644 148.170,214.963 149.600 C 215.875 153.678,219.172 167.483,220.028 170.800 C 220.453 172.450,221.349 176.140,222.018 179.000 C 226.248 197.082,226.371 197.537,227.507 199.273 C 228.895 201.394,229.911 201.600,239.011 201.600 C 251.792 201.600,249.300 205.273,260.046 170.600 C 260.932 167.740,262.170 163.780,262.797 161.800 C 263.423 159.820,264.750 155.590,265.744 152.400 C 266.739 149.210,268.451 143.720,269.550 140.200 C 270.649 136.680,272.383 131.100,273.403 127.800 C 274.424 124.500,275.761 120.270,276.375 118.400 C 276.988 116.530,277.722 114.190,278.005 113.200 C 278.288 112.210,279.201 109.240,280.034 106.600 C 287.165 84.003,287.534 85.600,275.183 85.600 C 263.141 85.600,264.175 84.444,259.444 103.200 C 258.862 105.510,257.942 109.020,257.400 111.000 C 256.857 112.980,255.691 117.435,254.807 120.900 C 253.422 126.330,250.747 136.676,249.558 141.200 C 249.355 141.970,249.015 143.410,248.800 144.400 C 248.586 145.390,248.033 147.550,247.572 149.200 C 247.111 150.850,246.045 154.900,245.203 158.200 C 244.361 161.500,242.811 167.575,241.760 171.700 C 239.508 180.535,239.224 180.819,238.061 175.400 C 237.825 174.300,236.884 170.250,235.969 166.400 C 232.076 150.006,231.184 146.228,229.592 139.400 C 228.669 135.440,227.324 129.770,226.603 126.800 C 225.882 123.830,224.980 119.960,224.598 118.200 C 224.216 116.440,223.577 113.830,223.180 112.400 C 222.782 110.970,222.081 108.036,221.622 105.879 C 217.191 85.058,217.775 85.847,206.670 85.676 C 194.001 85.481,194.016 85.470,191.641 96.655 C 191.227 98.605,190.432 102.000,189.874 104.200 C 189.316 106.400,188.103 111.440,187.179 115.400 C 185.485 122.656,184.213 128.068,180.407 144.200 C 179.266 149.040,177.612 156.060,176.732 159.800 C 175.852 163.540,174.616 168.760,173.985 171.400 C 173.354 174.040,172.782 176.560,172.714 177.000 C 172.505 178.340,171.438 177.930,171.151 176.400 C 171.006 175.630,170.508 173.650,170.043 172.000 C 169.578 170.350,168.839 167.470,168.400 165.600 C 167.961 163.730,167.439 161.570,167.241 160.800 C 167.043 160.030,165.343 153.370,163.464 146.000 C 161.585 138.630,159.748 131.520,159.382 130.200 C 159.017 128.880,158.399 126.351,158.010 124.579 C 157.621 122.808,156.849 119.748,156.294 117.779 C 155.740 115.811,155.068 113.210,154.802 112.000 C 154.536 110.790,153.812 108.000,153.193 105.800 C 152.574 103.600,151.760 100.360,151.383 98.600 C 149.695 90.703,147.973 86.840,145.791 86.051 C 143.160 85.100,127.744 85.459,127.023 86.489 M78.000 148.793 C 81.142 149.102,86.179 149.985,91.104 151.092 C 93.722 151.680,92.340 167.249,89.137 173.258 C 83.196 184.404,62.981 191.485,51.704 186.369 C 50.772 185.946,49.841 185.600,49.637 185.600 C 48.715 185.600,44.661 181.300,43.637 179.235 C 40.923 173.767,40.718 164.687,43.198 159.803 C 45.970 154.345,50.045 151.197,56.600 149.452 C 60.627 148.381,70.647 148.072,78.000 148.793 " stroke="none" fill="#232c3b" fill-rule="evenodd"></path><path id="path1" d="M358.354 230.221 C 341.562 232.520,324.400 239.957,324.400 244.935 C 324.400 246.965,325.725 247.003,339.000 245.353 C 348.478 244.174,369.350 244.293,372.818 245.545 C 378.820 247.712,379.796 249.307,379.457 256.400 C 379.174 262.312,375.154 277.663,372.150 284.302 C 371.826 285.018,371.314 286.368,371.014 287.302 C 370.156 289.963,367.758 296.133,367.046 297.512 C 365.713 300.089,366.823 301.910,369.430 301.421 C 371.266 301.076,377.576 295.114,380.340 291.112 C 385.240 284.017,388.505 278.225,390.663 272.800 C 391.232 271.370,391.939 269.660,392.235 269.000 C 392.530 268.340,392.936 267.080,393.137 266.200 C 393.482 264.688,394.565 260.664,395.829 256.200 C 397.846 249.070,398.002 237.221,396.106 235.104 C 392.212 230.755,372.794 228.244,358.354 230.221 M3.679 238.300 C 1.154 240.483,3.469 243.440,14.600 252.246 C 16.360 253.639,18.455 255.324,19.255 255.992 C 22.634 258.810,33.758 266.926,36.537 268.600 C 37.267 269.040,39.380 270.409,41.233 271.643 C 43.085 272.877,45.230 274.203,46.000 274.590 C 46.770 274.977,47.760 275.613,48.200 276.004 C 48.640 276.394,49.990 277.215,51.200 277.828 C 52.410 278.441,53.930 279.315,54.578 279.771 C 55.853 280.668,57.705 281.672,65.043 285.447 C 67.659 286.792,70.250 288.032,70.800 288.202 C 71.350 288.371,72.213 288.833,72.718 289.227 C 73.224 289.621,74.934 290.434,76.518 291.033 C 78.103 291.631,79.850 292.429,80.400 292.806 C 80.950 293.182,83.830 294.436,86.800 295.591 C 89.770 296.747,93.910 298.377,96.000 299.213 C 102.569 301.841,115.387 305.959,122.800 307.823 C 125.110 308.403,127.360 309.035,127.800 309.227 C 129.715 310.061,148.160 313.607,155.800 314.611 C 158.440 314.958,162.340 315.516,164.467 315.851 C 177.448 317.897,205.652 318.354,224.200 316.818 C 235.867 315.852,263.673 311.196,269.400 309.249 C 270.060 309.025,272.670 308.369,275.200 307.793 C 277.730 307.216,280.700 306.415,281.800 306.012 C 284.116 305.165,293.312 302.275,297.400 301.109 C 298.940 300.670,300.380 300.180,300.600 300.021 C 300.820 299.861,302.080 299.325,303.400 298.829 C 310.213 296.269,316.980 293.396,324.000 290.084 C 331.765 286.421,347.497 277.633,351.897 274.500 C 352.284 274.225,353.690 273.235,355.022 272.300 C 362.840 266.813,364.073 264.376,360.853 260.770 C 358.497 258.130,353.588 258.798,345.961 262.796 C 345.609 262.980,342.819 264.058,339.761 265.192 C 327.682 269.669,326.725 269.987,312.800 274.144 C 304.823 276.525,297.724 278.405,296.714 278.402 C 296.116 278.401,295.036 278.658,294.314 278.974 C 293.020 279.539,286.868 280.976,280.600 282.179 C 278.840 282.516,276.140 283.064,274.600 283.396 C 273.060 283.728,271.363 284.000,270.829 284.000 C 270.294 284.000,269.304 284.174,268.628 284.387 C 266.604 285.026,245.322 287.948,240.800 288.209 C 238.490 288.342,233.900 288.749,230.600 289.113 C 223.023 289.949,185.912 290.073,178.200 289.288 C 175.560 289.020,170.070 288.521,166.000 288.179 C 161.930 287.838,157.430 287.388,156.000 287.180 C 154.570 286.972,152.050 286.635,150.400 286.432 C 148.750 286.230,147.130 285.960,146.800 285.834 C 146.470 285.707,144.040 285.342,141.400 285.023 C 138.760 284.704,134.440 283.964,131.800 283.380 C 129.160 282.796,125.560 282.084,123.800 281.799 C 122.040 281.513,118.800 280.828,116.600 280.277 C 114.400 279.725,110.800 278.885,108.600 278.410 C 106.400 277.935,103.790 277.294,102.800 276.985 C 101.810 276.676,98.930 275.862,96.400 275.177 C 87.580 272.787,66.535 265.759,60.886 263.317 C 60.163 263.005,58.003 262.150,56.086 261.417 C 54.169 260.685,51.160 259.455,49.400 258.684 C 47.640 257.913,44.670 256.623,42.800 255.817 C 38.810 254.098,20.080 244.841,16.600 242.869 C 6.449 237.117,5.455 236.765,3.679 238.300 " stroke="none" fill="#f89c0b" fill-rule="evenodd"></path><path id="path2" d="M0.000 200.000 L 0.000 400.000 200.000 400.000 L 400.000 400.000 400.000 200.000 L 400.000 0.000 200.000 0.000 L 0.000 0.000 0.000 200.000 M74.800 82.018 C 97.988 84.111,109.426 93.679,112.793 113.800 C 113.533 118.223,113.596 120.438,113.599 142.000 C 113.603 174.001,114.394 180.333,119.372 188.200 C 122.109 192.523,120.923 194.379,111.600 200.363 C 104.735 204.770,100.851 202.453,94.770 190.323 C 94.074 188.935,93.437 187.725,93.353 187.634 C 93.269 187.542,91.716 188.942,89.901 190.744 C 69.664 210.835,35.677 210.069,23.023 189.238 C 17.930 180.855,16.831 166.955,20.472 157.000 C 26.184 141.385,41.309 132.684,62.800 132.650 C 70.279 132.639,72.801 132.891,83.000 134.669 C 86.080 135.207,89.304 135.753,90.165 135.884 L 91.731 136.123 91.467 127.761 C 90.855 108.402,86.118 102.496,69.800 100.750 C 59.226 99.619,48.656 101.654,32.406 107.950 C 29.043 109.253,27.569 108.999,26.465 106.926 C 25.893 105.851,25.837 96.765,26.390 94.833 C 27.590 90.650,35.686 86.994,52.200 83.178 C 57.771 81.890,67.726 81.379,74.800 82.018 M348.523 82.026 C 360.714 83.829,369.568 86.825,372.876 90.265 C 374.950 92.422,375.200 93.378,375.200 99.172 C 375.200 107.145,373.904 107.948,366.166 104.772 C 345.913 96.460,322.237 99.126,319.053 110.076 C 316.219 119.824,322.538 127.519,336.400 131.202 C 337.390 131.465,340.000 132.270,342.200 132.992 C 344.400 133.714,349.170 135.252,352.800 136.411 C 373.322 142.961,381.641 152.303,381.641 168.800 C 381.641 197.118,350.676 212.414,312.777 202.818 C 302.352 200.179,296.181 196.985,294.964 193.600 C 293.586 189.768,294.436 180.477,296.239 179.655 C 297.837 178.927,298.437 179.063,305.497 181.761 C 336.113 193.459,364.123 185.541,358.656 166.733 C 357.047 161.200,352.672 158.266,340.000 154.224 C 330.857 151.307,323.251 148.919,322.000 148.572 C 302.484 143.158,291.345 123.608,297.583 105.719 C 303.474 88.828,325.441 78.611,348.523 82.026 M146.668 85.696 C 148.903 86.915,150.465 91.557,155.046 110.600 C 155.576 112.800,156.541 116.580,157.192 119.000 C 157.843 121.420,158.832 125.290,159.390 127.600 C 159.949 129.910,160.773 133.150,161.222 134.800 C 161.671 136.450,162.193 138.520,162.381 139.400 C 162.570 140.280,163.836 145.320,165.194 150.600 C 166.552 155.880,168.575 163.839,169.689 168.288 C 170.804 172.736,171.848 176.294,172.009 176.195 C 172.170 176.095,172.789 173.896,173.386 171.307 C 173.982 168.718,175.161 163.720,176.005 160.200 C 177.833 152.575,180.975 139.286,183.238 129.600 C 184.137 125.750,185.566 119.720,186.413 116.200 C 188.404 107.918,190.952 97.008,191.784 93.200 C 193.470 85.477,194.770 84.740,206.400 84.901 C 218.341 85.067,216.930 82.976,223.201 109.800 C 225.272 118.658,228.355 131.681,230.396 140.200 C 231.240 143.720,232.681 149.840,233.598 153.800 C 235.272 161.025,238.061 172.712,238.875 175.911 C 239.464 178.226,239.572 178.015,241.247 171.273 C 242.050 168.043,243.555 162.160,244.591 158.200 C 245.627 154.240,247.154 148.300,247.984 145.000 C 248.815 141.700,249.852 137.740,250.289 136.200 C 250.727 134.660,251.309 132.410,251.583 131.200 C 251.856 129.990,252.575 127.200,253.181 125.000 C 253.786 122.800,254.506 120.010,254.783 118.800 C 255.059 117.590,255.792 114.710,256.412 112.400 C 257.032 110.090,258.027 106.310,258.623 104.000 C 263.873 83.670,262.710 85.000,275.238 85.000 C 286.976 85.000,287.478 85.662,283.886 96.400 C 283.113 98.710,281.546 103.660,280.402 107.400 C 279.259 111.140,277.631 116.360,276.784 119.000 C 275.938 121.640,274.525 126.140,273.645 129.000 C 269.385 142.836,268.637 145.239,267.603 148.400 C 266.992 150.270,266.092 153.150,265.603 154.800 C 265.115 156.450,264.109 159.690,263.369 162.000 C 262.629 164.310,261.193 168.900,260.179 172.200 C 249.995 205.347,252.055 202.555,237.958 202.330 C 227.414 202.163,226.554 201.624,224.982 194.200 C 224.609 192.440,224.169 190.370,224.005 189.600 C 223.840 188.830,223.247 186.400,222.686 184.200 C 220.980 177.505,218.759 168.381,218.013 165.000 C 217.625 163.240,216.747 159.550,216.063 156.800 C 214.754 151.542,213.368 145.788,209.993 131.600 C 208.237 124.219,206.922 118.865,205.620 113.800 C 205.237 112.307,205.189 112.432,203.632 119.000 C 202.955 121.860,201.490 127.980,200.378 132.600 C 199.266 137.220,197.630 144.060,196.742 147.800 C 195.853 151.540,194.434 157.480,193.587 161.000 C 192.740 164.520,191.298 170.550,190.382 174.400 C 184.723 198.199,184.186 199.992,182.385 201.117 C 180.058 202.570,165.084 202.839,161.909 201.484 C 159.607 200.502,158.580 198.185,154.780 185.400 C 154.584 184.740,153.887 182.490,153.231 180.400 C 152.576 178.310,151.589 175.070,151.038 173.200 C 150.487 171.330,149.241 167.190,148.269 164.000 C 147.296 160.810,145.385 154.510,144.022 150.000 C 142.659 145.490,140.852 139.550,140.006 136.800 C 139.161 134.050,137.539 128.740,136.403 125.000 C 135.266 121.260,133.623 115.860,132.752 113.000 C 127.712 96.464,128.293 98.378,126.760 93.273 C 125.338 88.537,125.412 86.921,127.110 85.585 C 128.588 84.422,144.498 84.513,146.668 85.696 M59.755 149.377 C 44.960 151.851,37.792 164.940,43.844 178.427 C 50.932 194.221,83.950 187.749,90.200 169.340 C 91.438 165.693,92.214 152.427,91.225 151.816 C 87.930 149.779,67.032 148.160,59.755 149.377 M378.200 229.011 C 397.411 231.236,400.803 234.566,398.081 248.532 C 397.597 251.020,397.200 253.547,397.200 254.147 C 397.200 254.748,396.954 255.726,396.654 256.320 C 396.354 256.914,395.986 258.360,395.836 259.534 C 395.686 260.707,395.234 262.597,394.831 263.734 C 394.429 264.870,393.598 267.330,392.986 269.200 C 392.374 271.070,391.383 273.680,390.785 275.000 C 388.001 281.146,386.380 284.318,385.335 285.671 C 384.711 286.479,383.120 288.707,381.800 290.622 C 377.307 297.138,370.953 302.785,368.100 302.796 C 365.956 302.805,364.883 299.773,366.148 297.280 C 366.449 296.686,367.093 295.030,367.579 293.600 C 368.416 291.135,369.735 287.786,371.853 282.750 C 372.374 281.512,372.800 280.295,372.800 280.044 C 372.800 279.794,373.790 276.632,375.000 273.018 C 376.210 269.404,377.200 266.056,377.200 265.578 C 377.200 265.100,377.578 263.155,378.040 261.255 C 381.788 245.842,373.023 242.776,336.200 246.618 C 325.099 247.776,325.148 247.776,323.844 246.700 L 322.687 245.746 323.359 243.724 C 323.956 241.925,324.304 241.537,326.515 240.202 C 330.662 237.698,335.374 235.271,338.057 234.256 C 339.456 233.727,341.320 233.015,342.200 232.674 C 344.190 231.903,353.036 230.000,354.628 230.000 C 355.276 230.000,356.434 229.807,357.203 229.572 C 358.542 229.162,365.548 228.583,370.600 228.465 C 371.920 228.435,375.340 228.680,378.200 229.011 M11.800 238.931 C 14.000 240.030,16.290 241.334,16.888 241.829 C 17.487 242.324,20.277 243.833,23.088 245.183 C 25.900 246.532,28.650 247.897,29.200 248.215 C 30.342 248.875,34.193 250.738,38.000 252.473 C 39.430 253.125,41.500 254.079,42.600 254.594 C 45.741 256.064,48.020 257.061,50.400 258.006 C 51.610 258.487,53.500 259.295,54.600 259.802 C 58.590 261.640,71.399 266.353,80.000 269.146 C 82.750 270.040,86.170 271.152,87.600 271.618 C 89.030 272.084,91.190 272.702,92.400 272.990 C 93.610 273.278,96.490 274.085,98.800 274.783 C 102.786 275.987,106.642 276.972,112.343 278.240 C 113.741 278.551,115.013 278.884,115.168 278.980 C 115.547 279.215,122.843 280.775,125.600 281.212 C 126.810 281.404,129.960 282.023,132.600 282.588 C 135.240 283.153,138.750 283.801,140.400 284.028 C 142.050 284.254,145.470 284.789,148.000 285.216 C 155.490 286.481,170.832 287.946,185.600 288.807 C 195.025 289.356,215.036 289.244,224.000 288.592 C 228.510 288.264,235.080 287.812,238.600 287.587 C 242.120 287.362,246.076 286.988,247.391 286.755 C 248.706 286.522,250.956 286.181,252.391 285.997 C 253.826 285.813,256.890 285.370,259.200 285.013 C 261.510 284.656,264.570 284.194,266.000 283.986 C 270.513 283.329,283.334 280.834,286.229 280.048 C 287.093 279.814,289.960 279.152,292.600 278.577 C 295.240 278.003,298.120 277.283,299.000 276.979 C 299.880 276.674,302.137 276.070,304.015 275.636 C 314.646 273.179,335.832 266.010,349.400 260.279 C 356.807 257.150,359.576 257.245,362.227 260.717 C 364.410 263.576,363.865 266.885,360.844 269.107 C 360.050 269.692,359.109 270.447,358.754 270.785 C 355.754 273.640,343.720 281.120,334.600 285.798 C 319.369 293.609,314.998 295.600,306.800 298.457 C 304.930 299.109,302.680 299.984,301.800 300.402 C 299.930 301.290,285.702 305.992,284.808 306.018 C 284.474 306.027,283.480 306.305,282.600 306.635 C 280.149 307.553,275.625 308.819,273.400 309.209 C 272.300 309.402,270.410 309.830,269.200 310.160 C 264.603 311.416,260.131 312.400,259.022 312.400 C 258.389 312.400,256.954 312.665,255.835 312.989 C 253.550 313.651,246.444 315.032,243.400 315.406 C 242.300 315.541,239.600 315.908,237.400 316.221 C 222.530 318.339,198.479 319.351,184.600 318.444 C 168.240 317.374,155.382 315.875,146.384 313.988 C 143.203 313.321,139.315 312.604,137.745 312.395 C 136.175 312.186,134.377 311.820,133.751 311.581 C 133.124 311.343,131.439 310.876,130.006 310.544 C 120.460 308.330,116.304 307.223,115.138 306.583 C 114.554 306.262,113.725 306.000,113.295 306.000 C 112.864 306.000,110.192 305.173,107.356 304.163 C 104.520 303.152,101.518 302.160,100.685 301.957 C 99.852 301.755,97.422 300.861,95.285 299.972 C 93.148 299.082,90.109 297.920,88.532 297.391 C 86.955 296.861,85.065 296.062,84.332 295.615 C 83.599 295.168,82.730 294.802,82.401 294.801 C 82.071 294.801,80.361 294.086,78.601 293.213 C 76.840 292.341,74.770 291.360,74.000 291.035 C 73.230 290.710,72.150 290.170,71.600 289.835 C 70.271 289.026,61.407 284.800,61.040 284.800 C 60.882 284.800,59.927 284.170,58.918 283.400 C 57.910 282.630,56.878 282.000,56.624 282.000 C 56.371 282.000,54.849 281.190,53.244 280.200 C 51.638 279.210,50.175 278.400,49.993 278.400 C 49.810 278.400,48.851 277.782,47.862 277.026 C 46.872 276.271,45.463 275.345,44.731 274.969 C 42.802 273.979,38.093 270.875,37.800 270.400 C 37.662 270.177,36.824 269.644,35.938 269.216 C 35.052 268.788,33.578 267.886,32.663 267.212 C 30.988 265.979,27.716 263.633,25.288 261.924 C 24.566 261.416,22.522 259.830,20.745 258.400 C 18.969 256.970,17.028 255.440,16.433 255.000 C 11.968 251.701,4.408 245.027,2.706 242.882 C 0.935 240.652,0.889 240.243,2.196 238.320 C 3.869 235.858,5.906 235.988,11.800 238.931 " stroke="none" fill="#fbfbfb" fill-rule="evenodd"></path><path id="path3" d="M59.200 82.199 C 46.072 83.527,30.253 89.001,27.038 93.329 C 25.398 95.537,25.577 106.402,27.280 107.989 C 28.673 109.286,28.580 109.305,38.200 105.803 C 50.312 101.395,60.541 99.759,69.800 100.750 C 86.146 102.501,90.854 108.370,91.467 127.761 L 91.731 136.123 90.165 135.884 C 89.304 135.753,86.080 135.207,83.000 134.669 C 72.801 132.891,70.279 132.639,62.800 132.650 C 41.272 132.684,26.141 141.407,20.469 157.055 C 16.836 167.078,17.929 180.852,23.023 189.238 C 35.677 210.069,69.695 210.836,89.879 190.745 C 91.698 188.934,93.258 187.531,93.346 187.626 C 93.433 187.722,94.074 188.935,94.770 190.323 C 100.851 202.453,104.735 204.770,111.600 200.363 C 120.923 194.379,122.109 192.523,119.372 188.200 C 114.394 180.333,113.603 174.001,113.599 142.000 C 113.596 116.755,113.358 113.275,111.170 106.439 C 105.287 88.061,86.748 79.414,59.200 82.199 M329.400 82.211 C 300.818 86.850,286.934 112.926,301.613 134.400 C 305.607 140.243,314.660 146.536,322.000 148.572 C 322.550 148.725,325.250 149.557,328.000 150.421 C 330.750 151.286,335.970 152.921,339.600 154.055 C 352.100 157.961,357.015 161.188,358.601 166.529 C 364.264 185.598,335.987 193.583,305.114 181.633 C 295.157 177.779,294.373 178.200,294.430 187.360 C 294.487 196.424,297.475 198.940,312.800 202.827 C 350.704 212.440,381.600 197.130,381.600 168.734 C 381.600 152.737,373.662 143.384,354.703 137.043 C 349.644 135.350,337.716 131.567,335.600 130.983 C 322.377 127.333,316.277 119.626,319.053 110.076 C 322.237 99.126,345.913 96.460,366.166 104.772 C 373.904 107.948,375.200 107.145,375.200 99.172 C 375.200 93.378,374.950 92.422,372.876 90.265 C 367.008 84.163,343.830 79.869,329.400 82.211 M350.891 83.017 C 366.213 85.394,373.977 89.440,374.613 95.380 C 375.762 106.109,374.304 107.431,365.315 103.814 C 348.738 97.142,327.950 97.960,321.089 105.554 C 314.216 113.161,317.651 124.024,328.400 128.675 C 329.610 129.199,330.960 129.796,331.400 130.003 C 332.569 130.553,335.892 131.682,342.000 133.605 C 360.109 139.305,364.071 140.878,368.915 144.293 C 386.249 156.512,385.068 183.710,366.655 196.361 C 362.374 199.302,357.024 201.586,350.200 203.388 C 338.019 206.603,316.091 204.789,304.200 199.583 C 303.320 199.198,301.926 198.604,301.101 198.262 C 296.317 196.282,295.200 194.155,295.200 187.029 C 295.200 179.039,295.845 178.656,303.931 181.837 C 329.440 191.876,354.389 189.141,359.001 175.800 C 361.650 168.137,358.425 161.343,350.299 157.470 C 346.869 155.834,343.912 154.826,326.000 149.183 C 306.677 143.096,297.310 133.122,296.518 117.792 C 295.274 93.709,319.587 78.159,350.891 83.017 M78.625 82.988 C 98.120 85.611,108.251 94.528,112.042 112.400 C 112.896 116.428,112.944 117.748,113.211 144.600 C 113.543 178.077,113.424 176.987,117.755 186.150 C 120.214 191.353,120.393 192.325,119.200 194.000 C 118.284 195.286,110.683 200.543,108.064 201.701 C 104.291 203.370,100.648 200.188,95.798 190.987 C 94.758 189.014,93.749 187.230,93.556 187.022 C 93.343 186.793,91.981 187.873,90.102 189.759 C 86.408 193.470,82.431 196.526,78.600 198.600 C 77.060 199.434,75.620 200.245,75.400 200.401 C 74.956 200.718,71.662 201.896,69.800 202.403 C 69.140 202.583,67.610 203.000,66.400 203.330 C 52.428 207.136,36.412 203.412,27.771 194.348 C 15.228 181.193,15.976 156.785,29.295 144.600 C 42.092 132.892,60.373 130.287,88.200 136.205 C 89.740 136.532,91.225 136.800,91.500 136.800 C 92.151 136.800,92.199 122.656,91.561 118.833 C 89.299 105.273,81.688 100.000,64.376 100.000 C 61.111 100.000,57.576 100.166,56.520 100.368 C 55.464 100.570,53.430 100.950,52.000 101.213 C 47.555 102.029,40.897 104.073,34.254 106.661 C 27.693 109.217,26.402 108.247,26.401 100.760 C 26.400 96.223,26.815 94.347,28.147 92.877 C 31.222 89.481,45.150 84.721,57.000 83.014 C 62.044 82.288,73.319 82.275,78.625 82.988 M126.961 85.732 C 125.451 87.031,125.442 88.912,126.922 93.800 C 127.522 95.780,128.174 97.940,128.371 98.600 C 128.568 99.260,129.277 101.600,129.948 103.800 C 130.618 106.000,131.880 110.140,132.752 113.000 C 133.623 115.860,135.266 121.260,136.403 125.000 C 137.539 128.740,139.161 134.050,140.006 136.800 C 140.852 139.550,142.659 145.490,144.022 150.000 C 145.385 154.510,147.296 160.810,148.269 164.000 C 149.241 167.190,150.487 171.330,151.038 173.200 C 151.589 175.070,152.576 178.310,153.231 180.400 C 153.887 182.490,154.584 184.740,154.780 185.400 C 158.580 198.185,159.607 200.502,161.909 201.484 C 165.084 202.839,180.058 202.570,182.385 201.117 C 184.186 199.992,184.723 198.199,190.382 174.400 C 191.298 170.550,192.740 164.520,193.587 161.000 C 194.434 157.480,195.853 151.540,196.742 147.800 C 197.630 144.060,199.266 137.220,200.378 132.600 C 201.490 127.980,202.955 121.860,203.632 119.000 C 205.189 112.432,205.237 112.307,205.620 113.800 C 206.922 118.865,208.237 124.219,209.993 131.600 C 213.219 145.161,214.738 151.433,216.049 156.600 C 216.718 159.240,217.593 162.930,217.993 164.800 C 218.726 168.225,220.800 176.801,222.686 184.200 C 223.247 186.400,223.840 188.830,224.005 189.600 C 224.169 190.370,224.609 192.440,224.982 194.200 C 226.542 201.565,227.464 202.160,237.581 202.336 C 251.654 202.582,250.400 203.920,257.386 181.200 C 259.698 173.679,260.945 169.680,263.437 161.800 C 264.202 159.380,264.984 156.860,265.176 156.200 C 265.521 155.013,268.046 146.929,270.610 138.800 C 271.339 136.490,272.680 132.170,273.590 129.200 C 274.501 126.230,275.938 121.640,276.784 119.000 C 277.631 116.360,279.259 111.140,280.402 107.400 C 281.546 103.660,283.113 98.710,283.886 96.400 C 287.478 85.662,286.976 85.000,275.238 85.000 C 263.794 85.000,263.510 85.194,261.026 94.736 C 260.301 97.521,259.220 101.690,258.623 104.000 C 258.027 106.310,257.032 110.090,256.412 112.400 C 255.792 114.710,255.059 117.590,254.783 118.800 C 254.506 120.010,253.786 122.800,253.181 125.000 C 252.575 127.200,251.856 129.990,251.583 131.200 C 251.309 132.410,250.727 134.660,250.289 136.200 C 249.852 137.740,248.815 141.700,247.984 145.000 C 247.154 148.300,245.631 154.240,244.600 158.200 C 243.568 162.160,242.061 168.046,241.250 171.279 C 239.555 178.036,239.462 178.218,238.875 175.911 C 238.061 172.712,235.272 161.025,233.598 153.800 C 232.681 149.840,231.240 143.720,230.396 140.200 C 228.355 131.681,225.272 118.658,223.201 109.800 C 216.930 82.976,218.341 85.067,206.400 84.901 C 194.768 84.740,193.456 85.485,191.792 93.200 C 191.075 96.518,188.771 106.366,186.410 116.200 C 185.565 119.720,184.117 125.840,183.192 129.800 C 182.267 133.760,180.830 139.880,179.999 143.400 C 179.167 146.920,177.552 153.760,176.409 158.600 C 172.666 174.449,172.329 175.796,172.028 176.115 C 171.864 176.289,170.815 172.779,169.696 168.315 C 168.578 163.852,166.552 155.880,165.194 150.600 C 163.836 145.320,162.570 140.280,162.381 139.400 C 162.193 138.520,161.671 136.450,161.222 134.800 C 160.773 133.150,159.949 129.910,159.390 127.600 C 158.832 125.290,157.843 121.420,157.192 119.000 C 156.541 116.580,155.576 112.800,155.046 110.600 C 148.566 83.665,149.565 85.070,136.761 84.869 L 128.121 84.734 126.961 85.732 M145.791 86.051 C 147.973 86.840,149.695 90.703,151.383 98.600 C 151.760 100.360,152.574 103.600,153.193 105.800 C 153.812 108.000,154.536 110.790,154.802 112.000 C 155.068 113.210,155.740 115.811,156.294 117.779 C 156.849 119.748,157.621 122.808,158.010 124.579 C 158.399 126.351,159.017 128.880,159.382 130.200 C 159.748 131.520,161.585 138.630,163.464 146.000 C 165.343 153.370,167.043 160.030,167.241 160.800 C 167.439 161.570,167.961 163.730,168.400 165.600 C 168.839 167.470,169.578 170.350,170.043 172.000 C 170.508 173.650,171.006 175.630,171.151 176.400 C 171.438 177.930,172.505 178.340,172.714 177.000 C 172.782 176.560,173.354 174.040,173.985 171.400 C 174.616 168.760,175.852 163.540,176.732 159.800 C 177.612 156.060,179.266 149.040,180.407 144.200 C 184.213 128.068,185.485 122.656,187.179 115.400 C 188.103 111.440,189.316 106.400,189.874 104.200 C 190.432 102.000,191.227 98.605,191.641 96.655 C 194.016 85.470,194.001 85.481,206.670 85.676 C 217.775 85.847,217.191 85.058,221.622 105.879 C 222.081 108.036,222.782 110.970,223.180 112.400 C 223.577 113.830,224.216 116.440,224.598 118.200 C 224.980 119.960,225.882 123.830,226.603 126.800 C 227.324 129.770,228.669 135.440,229.592 139.400 C 231.184 146.228,232.076 150.006,235.969 166.400 C 236.884 170.250,237.825 174.300,238.061 175.400 C 239.224 180.819,239.508 180.535,241.760 171.700 C 242.811 167.575,244.361 161.500,245.203 158.200 C 246.045 154.900,247.111 150.850,247.572 149.200 C 248.033 147.550,248.586 145.390,248.800 144.400 C 249.015 143.410,249.355 141.970,249.558 141.200 C 250.747 136.676,253.422 126.330,254.807 120.900 C 255.691 117.435,256.857 112.980,257.400 111.000 C 257.942 109.020,258.862 105.510,259.444 103.200 C 264.175 84.444,263.141 85.600,275.183 85.600 C 286.491 85.600,286.609 85.757,283.252 96.400 C 282.316 99.370,280.867 103.960,280.034 106.600 C 279.201 109.240,278.288 112.210,278.005 113.200 C 277.722 114.190,276.988 116.530,276.375 118.400 C 275.761 120.270,274.424 124.500,273.403 127.800 C 272.383 131.100,270.649 136.680,269.550 140.200 C 268.451 143.720,266.739 149.210,265.744 152.400 C 264.750 155.590,263.423 159.820,262.797 161.800 C 262.170 163.780,260.932 167.740,260.046 170.600 C 249.300 205.273,251.792 201.600,239.011 201.600 C 229.911 201.600,228.895 201.394,227.507 199.273 C 226.371 197.537,226.248 197.082,222.018 179.000 C 221.349 176.140,220.453 172.450,220.028 170.800 C 219.172 167.483,215.875 153.678,214.963 149.600 C 214.644 148.170,214.221 146.460,214.023 145.800 C 213.656 144.579,212.759 140.823,211.205 134.000 C 210.728 131.910,210.177 129.660,209.978 129.000 C 209.780 128.340,209.355 126.630,209.035 125.200 C 207.756 119.489,206.326 113.742,205.926 112.700 C 205.100 110.552,204.923 110.964,202.783 120.000 C 202.080 122.970,200.620 129.090,199.539 133.600 C 195.787 149.255,194.785 153.440,192.980 161.000 C 191.982 165.180,190.549 171.120,189.796 174.200 C 189.043 177.280,188.080 181.330,187.657 183.200 C 184.868 195.521,183.847 198.813,182.378 200.221 L 181.147 201.400 171.874 201.400 C 159.587 201.400,160.524 202.108,156.799 190.000 C 154.833 183.607,154.050 181.031,152.607 176.200 C 152.015 174.220,150.926 170.620,150.186 168.200 C 146.159 155.032,143.609 146.651,139.963 134.600 C 139.098 131.740,137.867 127.780,137.228 125.800 C 136.588 123.820,135.859 121.390,135.608 120.400 C 135.358 119.410,134.455 116.350,133.603 113.600 C 132.751 110.850,131.335 106.260,130.455 103.400 C 124.553 84.203,124.111 85.600,136.094 85.600 C 141.363 85.600,145.013 85.770,145.791 86.051 M60.200 148.667 C 52.408 149.620,46.356 153.584,43.198 159.803 C 40.718 164.687,40.923 173.767,43.637 179.235 C 44.661 181.300,48.715 185.600,49.637 185.600 C 49.841 185.600,50.772 185.946,51.704 186.369 C 62.981 191.485,83.196 184.404,89.137 173.258 C 92.340 167.249,93.722 151.680,91.104 151.092 C 80.518 148.713,67.906 147.724,60.200 148.667 M77.800 149.376 C 82.689 149.902,90.394 151.302,91.225 151.816 C 91.703 152.111,91.691 160.910,91.208 164.627 C 89.481 177.909,76.875 187.198,60.573 187.199 C 47.779 187.201,41.416 180.367,42.126 167.388 C 42.924 152.799,54.640 146.883,77.800 149.376 " stroke="none" fill="#9ba1a8" fill-rule="evenodd"></path><path id="path4" d="M363.400 228.833 C 360.760 229.004,357.971 229.337,357.203 229.572 C 356.434 229.807,355.276 230.000,354.628 230.000 C 353.036 230.000,344.190 231.903,342.200 232.674 C 341.320 233.015,339.456 233.727,338.057 234.256 C 335.374 235.271,330.662 237.698,326.515 240.202 C 324.304 241.537,323.956 241.925,323.359 243.724 L 322.687 245.746 323.844 246.700 C 325.148 247.776,325.099 247.776,336.200 246.618 C 373.023 242.776,381.788 245.842,378.040 261.255 C 377.578 263.155,377.200 265.100,377.200 265.578 C 377.200 266.056,376.210 269.404,375.000 273.018 C 373.790 276.632,372.800 279.794,372.800 280.044 C 372.800 280.295,372.374 281.512,371.853 282.750 C 369.735 287.786,368.416 291.135,367.579 293.600 C 367.093 295.030,366.449 296.686,366.148 297.280 C 364.883 299.773,365.956 302.805,368.100 302.796 C 370.953 302.785,377.307 297.138,381.800 290.622 C 383.120 288.707,384.711 286.479,385.335 285.671 C 386.380 284.318,388.001 281.146,390.785 275.000 C 391.383 273.680,392.374 271.070,392.986 269.200 C 393.598 267.330,394.429 264.870,394.831 263.734 C 395.234 262.597,395.686 260.707,395.836 259.534 C 395.986 258.360,396.354 256.914,396.654 256.320 C 396.954 255.726,397.200 254.748,397.200 254.147 C 397.200 253.547,397.597 251.020,398.081 248.532 C 400.450 236.377,397.444 231.972,385.400 229.949 C 377.055 228.548,371.857 228.284,363.400 228.833 M381.138 230.208 C 388.873 231.166,394.115 232.880,396.106 235.104 C 398.002 237.221,397.846 249.070,395.829 256.200 C 394.565 260.664,393.482 264.688,393.137 266.200 C 392.936 267.080,392.530 268.340,392.235 269.000 C 391.939 269.660,391.232 271.370,390.663 272.800 C 384.613 288.010,370.959 304.402,367.184 300.986 C 366.231 300.123,366.193 299.161,367.046 297.512 C 367.758 296.133,370.156 289.963,371.014 287.302 C 371.314 286.368,371.826 285.018,372.150 284.302 C 375.154 277.663,379.174 262.312,379.457 256.400 C 379.796 249.307,378.820 247.712,372.818 245.545 C 369.350 244.293,348.478 244.174,339.000 245.353 C 325.725 247.003,324.400 246.965,324.400 244.935 C 324.400 243.377,325.011 242.600,327.652 240.797 C 340.452 232.059,361.859 227.822,381.138 230.208 M4.296 236.703 C 3.154 236.859,1.195 239.198,1.206 240.393 C 1.221 242.018,9.120 249.596,16.433 255.000 C 17.028 255.440,18.969 256.970,20.745 258.400 C 22.522 259.830,24.566 261.416,25.288 261.924 C 27.716 263.633,30.988 265.979,32.663 267.212 C 33.578 267.886,35.052 268.788,35.938 269.216 C 36.824 269.644,37.662 270.177,37.800 270.400 C 38.093 270.875,42.802 273.979,44.731 274.969 C 45.463 275.345,46.872 276.271,47.862 277.026 C 48.851 277.782,49.810 278.400,49.993 278.400 C 50.175 278.400,51.638 279.210,53.244 280.200 C 54.849 281.190,56.371 282.000,56.624 282.000 C 56.878 282.000,57.910 282.630,58.918 283.400 C 59.927 284.170,60.882 284.800,61.040 284.800 C 61.407 284.800,70.271 289.026,71.600 289.835 C 72.150 290.170,73.230 290.710,74.000 291.035 C 74.770 291.360,76.840 292.341,78.601 293.213 C 80.361 294.086,82.071 294.801,82.401 294.801 C 82.730 294.802,83.599 295.168,84.332 295.615 C 85.065 296.062,86.955 296.861,88.532 297.391 C 90.109 297.920,93.148 299.082,95.285 299.972 C 97.422 300.861,99.852 301.755,100.685 301.957 C 101.518 302.160,104.520 303.152,107.356 304.163 C 110.192 305.173,112.864 306.000,113.295 306.000 C 113.725 306.000,114.554 306.262,115.138 306.583 C 116.304 307.223,120.460 308.330,130.006 310.544 C 131.439 310.876,133.124 311.343,133.751 311.581 C 134.377 311.820,136.175 312.186,137.745 312.395 C 139.315 312.604,143.203 313.321,146.384 313.988 C 155.382 315.875,168.240 317.374,184.600 318.444 C 198.479 319.351,222.530 318.339,237.400 316.221 C 239.600 315.908,242.300 315.541,243.400 315.406 C 246.444 315.032,253.550 313.651,255.835 312.989 C 256.954 312.665,258.389 312.400,259.022 312.400 C 260.131 312.400,264.603 311.416,269.200 310.160 C 270.410 309.830,272.300 309.402,273.400 309.209 C 275.625 308.819,280.149 307.553,282.600 306.635 C 283.480 306.305,284.474 306.027,284.808 306.018 C 285.702 305.992,299.930 301.290,301.800 300.402 C 302.680 299.984,304.930 299.109,306.800 298.457 C 313.507 296.120,317.882 294.236,325.600 290.360 C 339.709 283.275,344.228 280.779,350.659 276.519 C 354.854 273.740,357.965 271.536,358.754 270.785 C 359.109 270.447,360.050 269.692,360.844 269.107 C 363.865 266.885,364.410 263.576,362.227 260.717 C 359.576 257.245,356.807 257.150,349.400 260.279 C 335.832 266.010,314.646 273.179,304.015 275.636 C 302.137 276.070,299.880 276.674,299.000 276.979 C 298.120 277.283,295.240 278.003,292.600 278.577 C 289.960 279.152,287.093 279.814,286.229 280.048 C 283.334 280.834,270.513 283.329,266.000 283.986 C 264.570 284.194,261.510 284.656,259.200 285.013 C 256.890 285.370,253.826 285.813,252.391 285.997 C 250.956 286.181,248.706 286.522,247.391 286.755 C 246.076 286.988,242.120 287.362,238.600 287.587 C 235.080 287.812,228.510 288.264,224.000 288.592 C 215.036 289.244,195.025 289.356,185.600 288.807 C 170.832 287.946,155.490 286.481,148.000 285.216 C 145.470 284.789,142.050 284.254,140.400 284.028 C 138.750 283.801,135.240 283.153,132.600 282.588 C 129.960 282.023,126.810 281.404,125.600 281.212 C 122.843 280.775,115.547 279.215,115.168 278.980 C 115.013 278.884,113.741 278.551,112.343 278.240 C 106.642 276.972,102.786 275.987,98.800 274.783 C 96.490 274.085,93.610 273.278,92.400 272.990 C 91.190 272.702,89.030 272.084,87.600 271.618 C 86.170 271.152,82.750 270.040,80.000 269.146 C 71.399 266.353,58.590 261.640,54.600 259.802 C 53.500 259.295,51.610 258.487,50.400 258.006 C 48.020 257.061,45.741 256.064,42.600 254.594 C 41.500 254.079,39.430 253.125,38.000 252.473 C 34.193 250.738,30.342 248.875,29.200 248.215 C 28.650 247.897,25.900 246.532,23.088 245.183 C 20.277 243.833,17.487 242.324,16.888 241.829 C 13.851 239.318,6.639 236.382,4.296 236.703 M10.699 239.555 C 12.625 240.630,15.280 242.121,16.600 242.869 C 20.080 244.841,38.810 254.098,42.800 255.817 C 44.670 256.623,47.640 257.913,49.400 258.684 C 51.160 259.455,54.169 260.685,56.086 261.417 C 58.003 262.150,60.163 263.005,60.886 263.317 C 66.535 265.759,87.580 272.787,96.400 275.177 C 98.930 275.862,101.810 276.676,102.800 276.985 C 103.790 277.294,106.400 277.935,108.600 278.410 C 110.800 278.885,114.400 279.725,116.600 280.277 C 118.800 280.828,122.040 281.513,123.800 281.799 C 125.560 282.084,129.160 282.796,131.800 283.380 C 134.440 283.964,138.760 284.704,141.400 285.023 C 144.040 285.342,146.470 285.707,146.800 285.834 C 147.130 285.960,148.750 286.230,150.400 286.432 C 152.050 286.635,154.570 286.972,156.000 287.180 C 157.430 287.388,161.930 287.838,166.000 288.179 C 170.070 288.521,175.560 289.020,178.200 289.288 C 185.912 290.073,223.023 289.949,230.600 289.113 C 233.900 288.749,238.490 288.342,240.800 288.209 C 245.322 287.948,266.604 285.026,268.628 284.387 C 269.304 284.174,270.294 284.000,270.829 284.000 C 271.363 284.000,273.060 283.728,274.600 283.396 C 276.140 283.064,278.840 282.516,280.600 282.179 C 286.868 280.976,293.020 279.539,294.314 278.974 C 295.036 278.658,296.116 278.401,296.714 278.402 C 297.724 278.405,304.823 276.525,312.800 274.144 C 326.725 269.987,327.682 269.669,339.761 265.192 C 342.819 264.058,345.609 262.980,345.961 262.796 C 353.588 258.798,358.497 258.130,360.853 260.770 C 364.073 264.376,362.840 266.813,355.022 272.300 C 353.690 273.235,352.284 274.225,351.897 274.500 C 347.497 277.633,331.765 286.421,324.000 290.084 C 316.980 293.396,310.213 296.269,303.400 298.829 C 302.080 299.325,300.820 299.861,300.600 300.021 C 300.380 300.180,298.940 300.670,297.400 301.109 C 293.312 302.275,284.116 305.165,281.800 306.012 C 280.700 306.415,277.730 307.216,275.200 307.793 C 272.670 308.369,270.060 309.025,269.400 309.249 C 263.673 311.196,235.867 315.852,224.200 316.818 C 205.652 318.354,177.448 317.897,164.467 315.851 C 162.340 315.516,158.440 314.958,155.800 314.611 C 148.160 313.607,129.715 310.061,127.800 309.227 C 127.360 309.035,125.110 308.403,122.800 307.823 C 115.387 305.959,102.569 301.841,96.000 299.213 C 93.910 298.377,89.770 296.747,86.800 295.591 C 83.830 294.436,80.950 293.182,80.400 292.806 C 79.850 292.429,78.103 291.631,76.518 291.033 C 74.934 290.434,73.224 289.621,72.718 289.227 C 72.213 288.833,71.350 288.371,70.800 288.202 C 70.250 288.032,67.659 286.792,65.043 285.447 C 57.705 281.672,55.853 280.668,54.578 279.771 C 53.930 279.315,52.410 278.441,51.200 277.828 C 49.990 277.215,48.640 276.394,48.200 276.004 C 47.760 275.613,46.770 274.977,46.000 274.590 C 45.230 274.203,43.085 272.877,41.233 271.643 C 39.380 270.409,37.267 269.040,36.537 268.600 C 33.758 266.926,22.634 258.810,19.255 255.992 C 18.455 255.324,16.360 253.639,14.600 252.246 C 5.988 245.432,2.159 241.462,2.629 239.833 C 3.436 237.037,6.029 236.947,10.699 239.555 " stroke="none" fill="#f9d794" fill-rule="evenodd"></path></g></svg>