<svg id="svg" version="1.1" xmlns="http://www.w3.org/2000/svg" xmlns:xlink="http://www.w3.org/1999/xlink" width="400" height="400" viewBox="0, 0, 400,400"><g id="svgg"><path id="path0" d="M190.600 35.873 C 143.435 39.943,104.533 66.384,83.797 108.466 C 52.254 172.478,78.467 250.934,142.055 282.831 C 158.354 291.007,164.314 292.073,166.775 287.250 C 167.558 285.715,167.600 284.974,167.600 272.762 L 167.600 259.891 165.900 260.143 C 164.965 260.282,163.030 260.572,161.600 260.789 C 143.537 263.530,128.915 256.709,123.370 242.953 C 120.330 235.413,115.382 228.918,109.952 225.341 C 103.563 221.132,102.821 218.316,107.806 217.199 C 115.161 215.550,124.048 220.813,130.845 230.842 C 139.609 243.773,150.792 247.516,165.161 242.325 C 168.083 241.270,168.089 241.262,168.986 237.135 C 169.768 233.535,171.824 229.044,174.030 226.117 C 175.984 223.525,176.079 223.760,172.942 223.438 C 141.236 220.190,122.470 203.091,118.194 173.553 C 115.284 153.452,118.629 139.019,129.337 125.467 C 130.472 124.030,130.473 124.026,129.846 122.114 C 127.133 113.837,127.530 102.156,130.863 92.200 L 131.800 89.400 135.800 89.434 C 142.800 89.494,150.620 92.355,161.073 98.681 C 168.060 102.909,167.516 102.768,172.417 101.617 C 190.395 97.397,214.954 97.711,231.098 102.368 C 232.289 102.712,232.732 102.531,236.498 100.164 C 247.893 93.001,258.472 89.005,265.310 89.283 L 268.200 89.400 269.485 93.223 C 272.535 102.302,272.890 113.190,270.409 121.540 L 269.654 124.080 272.018 127.055 C 279.387 136.328,282.795 146.697,282.798 159.858 C 282.809 197.255,265.366 217.839,229.224 223.078 C 223.763 223.870,223.912 223.740,225.834 226.040 C 231.636 232.985,232.459 237.910,232.375 265.187 C 232.305 287.769,232.260 287.288,234.620 289.144 C 237.177 291.156,240.715 290.555,249.994 286.533 C 339.076 247.919,357.289 130.176,284.000 66.689 C 258.679 44.754,223.226 33.057,190.600 35.873 M127.327 318.201 C 117.372 320.365,113.440 326.864,113.414 341.200 C 113.396 351.308,114.504 355.125,118.716 359.466 C 123.791 364.695,136.334 366.036,144.634 362.236 L 146.800 361.244 146.800 349.622 L 146.800 338.000 139.000 338.000 L 131.200 338.000 131.200 342.000 L 131.200 346.000 134.400 346.000 L 137.600 346.000 137.600 350.592 C 137.600 356.005,137.808 355.816,132.171 355.520 C 125.076 355.148,121.738 349.403,122.572 339.000 C 123.472 327.790,128.612 324.805,142.425 327.471 C 143.809 327.738,145.696 320.620,144.487 319.692 C 142.198 317.934,132.451 317.087,127.327 318.201 M190.279 319.454 C 190.126 319.608,190.000 329.603,190.000 341.667 L 190.000 363.600 194.593 363.600 L 199.186 363.600 199.293 354.100 L 199.400 344.600 205.800 344.600 L 212.200 344.600 212.307 354.100 L 212.414 363.600 217.011 363.600 L 221.607 363.600 221.503 341.500 L 221.400 319.400 217.000 319.400 L 212.600 319.400 212.492 327.710 L 212.384 336.020 205.892 335.910 L 199.400 335.800 199.200 327.600 L 199.000 319.400 194.779 319.287 C 192.458 319.225,190.433 319.300,190.279 319.454 M258.400 341.403 L 258.400 363.632 261.700 363.516 C 264.777 363.408,265.009 363.339,265.128 362.500 C 265.285 361.393,264.990 361.356,268.255 362.887 C 274.093 365.625,281.498 364.480,284.059 360.442 C 288.361 353.660,287.595 339.102,282.720 334.991 C 279.912 332.624,274.722 331.924,270.800 333.383 C 269.810 333.752,268.689 334.151,268.309 334.271 C 267.674 334.471,267.609 333.882,267.509 326.944 L 267.400 319.400 262.900 319.287 L 258.400 319.174 258.400 341.403 M153.153 321.953 C 151.752 323.353,151.600 323.707,151.600 325.559 C 151.600 330.743,158.366 332.751,160.972 328.339 C 164.100 323.045,157.473 317.633,153.153 321.953 M169.513 329.269 L 169.400 333.765 167.097 334.326 C 164.473 334.966,164.277 335.303,164.476 338.821 L 164.600 341.000 167.072 341.118 L 169.543 341.237 169.672 349.718 L 169.800 358.200 170.941 360.141 C 172.600 362.964,175.364 364.201,180.000 364.197 C 185.627 364.192,185.600 364.211,185.600 360.192 L 185.600 356.800 183.182 356.800 C 179.027 356.800,178.800 356.346,178.800 348.018 L 178.800 341.200 182.200 341.200 L 185.600 341.200 185.600 337.416 L 185.600 333.632 182.300 333.516 L 179.000 333.400 178.800 329.200 L 178.600 325.000 174.113 324.887 L 169.626 324.774 169.513 329.269 M152.095 348.500 L 152.200 363.400 156.600 363.400 L 161.000 363.400 161.105 348.500 L 161.210 333.600 156.600 333.600 L 151.990 333.600 152.095 348.500 M226.267 333.867 C 225.835 334.298,225.981 355.632,226.429 357.600 C 227.519 362.386,230.370 364.200,236.800 364.200 C 241.090 364.200,241.217 364.169,246.668 361.747 C 246.936 361.628,247.193 361.937,247.268 362.469 C 247.392 363.340,247.600 363.408,250.500 363.517 L 253.600 363.634 253.600 348.604 L 253.600 333.574 249.100 333.687 L 244.600 333.800 244.494 344.659 L 244.387 355.518 242.786 356.159 C 236.213 358.789,235.224 357.084,235.210 343.100 L 235.200 333.600 230.867 333.600 C 228.483 333.600,226.413 333.720,226.267 333.867 M275.296 340.859 C 278.056 342.305,278.566 353.095,275.997 355.665 C 274.216 357.445,268.631 357.126,267.592 355.184 C 266.895 353.883,267.093 342.186,267.822 341.581 C 269.431 340.246,273.395 339.863,275.296 340.859 " stroke="none" fill="#040404" fill-rule="evenodd"></path><path id="path1" d="M0.000 200.000 L 0.000 400.000 200.000 400.000 L 400.000 400.000 400.000 200.000 L 400.000 0.000 200.000 0.000 L 0.000 0.000 0.000 200.000 M211.800 35.613 C 270.251 41.090,318.441 85.891,327.957 143.600 C 338.404 206.958,303.801 266.911,243.800 289.411 C 238.731 291.312,234.974 290.694,232.901 287.619 L 232.000 286.282 232.000 264.993 C 232.000 236.687,231.270 232.645,224.868 225.515 C 223.178 223.634,223.368 223.375,226.689 223.036 C 263.217 219.302,282.101 198.191,282.180 161.000 C 282.213 145.291,279.224 136.107,270.783 125.986 L 269.270 124.173 270.229 120.861 C 272.603 112.666,272.199 102.263,269.141 92.800 C 268.054 89.437,268.135 89.498,264.862 89.529 C 257.803 89.596,245.940 94.287,235.845 101.004 L 232.442 103.269 230.321 102.665 C 213.338 97.832,189.601 97.647,171.512 102.206 L 167.624 103.186 163.912 100.766 C 153.044 93.680,139.760 88.782,133.422 89.521 C 128.754 90.066,126.779 113.793,130.584 123.620 C 130.734 124.007,130.086 125.158,128.856 126.691 C 119.043 138.918,115.743 154.051,118.583 173.800 C 122.738 202.688,140.409 218.969,171.800 222.830 C 176.783 223.443,176.877 223.535,174.871 225.815 C 171.955 229.127,169.863 233.759,168.796 239.266 L 168.357 241.532 165.879 242.517 C 151.165 248.367,138.274 243.918,130.000 230.135 C 125.045 221.880,114.865 216.133,107.797 217.601 C 103.431 218.507,104.088 220.947,109.694 224.650 C 115.663 228.593,119.684 233.774,123.760 242.772 C 130.397 257.423,144.099 263.453,163.400 260.217 C 165.380 259.886,167.225 259.611,167.500 259.607 C 168.389 259.595,168.201 285.402,167.299 287.172 C 164.644 292.379,157.566 291.275,141.800 283.197 C 58.938 240.739,45.065 128.584,115.052 66.957 C 140.966 44.138,177.268 32.377,211.800 35.613 M138.200 317.615 C 145.334 318.632,145.892 319.183,144.707 324.052 C 143.658 328.362,144.043 328.169,138.405 327.216 C 128.543 325.547,123.780 329.229,122.957 339.157 C 122.111 349.354,125.778 355.169,133.067 355.191 C 137.356 355.204,137.200 355.379,137.200 350.574 L 137.200 346.434 134.100 346.317 L 131.000 346.200 131.000 342.000 L 131.000 337.800 139.100 337.692 L 147.200 337.583 147.200 349.382 L 147.200 361.182 146.188 361.845 C 140.768 365.396,129.416 365.838,122.911 362.751 C 115.906 359.427,112.695 352.699,112.721 341.400 C 112.762 323.291,121.407 315.221,138.200 317.615 M197.100 319.035 L 199.600 319.264 199.600 327.432 L 199.600 335.600 205.800 335.600 L 212.000 335.600 212.000 327.447 C 212.000 319.329,212.004 319.292,212.900 319.052 C 214.087 318.734,219.166 318.733,220.753 319.051 L 222.007 319.301 221.903 341.551 L 221.800 363.800 217.000 363.800 L 212.200 363.800 212.093 354.300 L 211.986 344.800 205.800 344.800 L 199.614 344.800 199.507 354.300 L 199.400 363.800 194.600 363.800 L 189.800 363.800 189.697 341.626 C 189.632 327.795,189.737 319.362,189.977 319.214 C 190.540 318.866,194.233 318.773,197.100 319.035 M267.226 319.214 C 267.947 319.600,268.000 320.118,268.000 326.752 L 268.000 333.876 270.300 333.092 C 282.218 329.030,289.369 338.035,286.812 353.884 C 285.178 364.014,275.814 368.197,266.945 362.760 L 265.689 361.990 265.433 363.010 C 265.180 364.018,265.135 364.029,261.689 363.915 L 258.200 363.800 258.097 341.527 L 257.993 319.254 259.097 319.087 C 261.404 318.738,266.485 318.817,267.226 319.214 M159.087 320.668 C 162.151 322.122,163.036 326.392,160.802 328.937 C 158.333 331.749,155.357 331.851,152.720 329.214 C 148.370 324.864,153.479 318.007,159.087 320.668 M179.113 328.884 L 179.227 333.168 182.513 333.284 L 185.800 333.400 185.800 337.400 L 185.800 341.400 182.500 341.516 L 179.200 341.632 179.200 348.188 C 179.200 356.203,179.206 356.214,184.000 356.495 L 185.800 356.600 185.915 360.078 C 186.060 364.449,185.894 364.580,180.200 364.592 C 171.220 364.610,169.200 361.670,169.200 348.580 L 169.200 341.600 167.080 341.600 C 164.338 341.600,163.999 341.204,164.006 338.020 C 164.014 334.743,164.116 334.593,166.800 333.937 L 169.000 333.400 169.106 329.400 C 169.252 323.938,168.810 324.356,174.292 324.487 L 179.000 324.600 179.113 328.884 M161.400 348.600 L 161.400 363.800 156.600 363.800 L 151.800 363.800 151.695 349.002 C 151.637 340.862,151.679 333.972,151.787 333.689 C 151.936 333.301,153.142 333.202,156.692 333.287 L 161.400 333.400 161.400 348.600 M235.757 333.833 C 235.891 334.181,236.000 339.041,236.000 344.633 C 236.000 354.267,236.042 354.842,236.800 355.600 C 237.773 356.573,240.556 356.680,242.606 355.823 L 243.987 355.246 244.094 344.323 L 244.200 333.400 249.000 333.400 L 253.800 333.400 253.800 348.600 L 253.800 363.800 250.532 363.916 C 247.506 364.023,247.244 363.969,246.996 363.187 C 246.804 362.582,246.539 362.426,246.064 362.637 C 236.476 366.889,228.231 365.014,226.152 358.107 C 225.571 356.175,225.314 334.019,225.867 333.467 C 226.491 332.842,235.505 333.176,235.757 333.833 M270.000 340.852 C 267.582 341.577,267.600 341.520,267.600 348.659 L 267.600 355.220 268.700 355.670 C 274.520 358.050,277.196 355.823,277.196 348.600 C 277.196 341.885,274.878 339.390,270.000 340.852 " stroke="none" fill="#fbfbfb" fill-rule="evenodd"></path><path id="path2" d="M191.907 35.490 C 192.626 35.579,193.706 35.577,194.307 35.486 C 194.908 35.395,194.320 35.322,193.000 35.324 C 191.680 35.326,191.188 35.401,191.907 35.490 M206.100 35.487 C 206.705 35.578,207.695 35.578,208.300 35.487 C 208.905 35.395,208.410 35.320,207.200 35.320 C 205.990 35.320,205.495 35.395,206.100 35.487 M186.900 35.876 C 187.285 35.976,187.915 35.976,188.300 35.876 C 188.685 35.775,188.370 35.693,187.600 35.693 C 186.830 35.693,186.515 35.775,186.900 35.876 M211.905 35.883 C 212.402 35.979,213.122 35.975,213.505 35.875 C 213.887 35.775,213.480 35.696,212.600 35.701 C 211.720 35.705,211.407 35.787,211.905 35.883 M106.981 74.500 L 105.400 76.200 107.100 74.619 C 108.681 73.148,108.984 72.800,108.681 72.800 C 108.616 72.800,107.851 73.565,106.981 74.500 M292.600 74.400 C 293.459 75.280,294.252 76.000,294.362 76.000 C 294.472 76.000,293.859 75.280,293.000 74.400 C 292.141 73.520,291.348 72.800,291.238 72.800 C 291.128 72.800,291.741 73.520,292.600 74.400 M191.700 99.076 C 192.085 99.176,192.715 99.176,193.100 99.076 C 193.485 98.975,193.170 98.893,192.400 98.893 C 191.630 98.893,191.315 98.975,191.700 99.076 M271.693 106.400 C 271.693 107.170,271.775 107.485,271.876 107.100 C 271.976 106.715,271.976 106.085,271.876 105.700 C 271.775 105.315,271.693 105.630,271.693 106.400 M128.124 109.000 C 128.126 110.320,128.201 110.812,128.290 110.093 C 128.379 109.374,128.377 108.294,128.286 107.693 C 128.195 107.092,128.122 107.680,128.124 109.000 M271.693 112.000 C 271.693 112.770,271.775 113.085,271.876 112.700 C 271.976 112.315,271.976 111.685,271.876 111.300 C 271.775 110.915,271.693 111.230,271.693 112.000 M282.542 159.800 C 282.541 161.780,282.608 162.640,282.692 161.712 C 282.776 160.784,282.777 159.164,282.695 158.112 C 282.612 157.060,282.543 157.820,282.542 159.800 M70.157 166.400 C 70.157 169.370,70.220 170.585,70.297 169.100 C 70.374 167.615,70.374 165.185,70.297 163.700 C 70.220 162.215,70.157 163.430,70.157 166.400 M329.709 166.400 C 329.709 167.390,329.787 167.795,329.882 167.300 C 329.978 166.805,329.978 165.995,329.882 165.500 C 329.787 165.005,329.709 165.410,329.709 166.400 M117.701 167.000 C 117.705 167.880,117.787 168.193,117.883 167.695 C 117.979 167.198,117.975 166.478,117.875 166.095 C 117.775 165.713,117.696 166.120,117.701 167.000 M329.293 175.600 C 329.293 176.370,329.375 176.685,329.476 176.300 C 329.576 175.915,329.576 175.285,329.476 174.900 C 329.375 174.515,329.293 174.830,329.293 175.600 M253.600 215.400 C 252.610 215.930,251.942 216.372,252.116 216.382 C 252.541 216.406,255.600 214.834,255.600 214.592 C 255.600 214.327,255.617 214.320,253.600 215.400 M175.100 223.482 C 176.220 223.698,176.221 223.893,175.111 225.174 L 174.223 226.200 175.361 225.142 C 176.595 223.994,176.470 223.168,175.076 223.254 C 174.200 223.309,174.200 223.309,175.100 223.482 M114.600 228.800 C 115.459 229.680,116.252 230.400,116.362 230.400 C 116.472 230.400,115.859 229.680,115.000 228.800 C 114.141 227.920,113.348 227.200,113.238 227.200 C 113.128 227.200,113.741 227.920,114.600 228.800 M108.400 259.000 C 110.923 261.530,113.077 263.600,113.187 263.600 C 113.297 263.600,111.323 261.530,108.800 259.000 C 106.277 256.470,104.123 254.400,104.013 254.400 C 103.903 254.400,105.877 256.470,108.400 259.000 M292.587 257.700 L 290.200 260.200 292.700 257.813 C 294.075 256.499,295.200 255.374,295.200 255.313 C 295.200 255.017,294.805 255.378,292.587 257.700 M167.766 266.800 C 167.766 270.870,167.825 272.535,167.898 270.500 C 167.971 268.465,167.971 265.135,167.898 263.100 C 167.825 261.065,167.766 262.730,167.766 266.800 M150.500 261.076 C 150.885 261.176,151.515 261.176,151.900 261.076 C 152.285 260.975,151.970 260.893,151.200 260.893 C 150.430 260.893,150.115 260.975,150.500 261.076 M155.905 261.083 C 156.402 261.179,157.122 261.175,157.505 261.075 C 157.887 260.975,157.480 260.896,156.600 260.901 C 155.720 260.905,155.407 260.987,155.905 261.083 M131.312 317.495 C 132.364 317.577,133.984 317.576,134.912 317.492 C 135.840 317.408,134.980 317.341,133.000 317.342 C 131.020 317.343,130.260 317.412,131.312 317.495 M194.100 319.087 C 194.705 319.178,195.695 319.178,196.300 319.087 C 196.905 318.995,196.410 318.920,195.200 318.920 C 193.990 318.920,193.495 318.995,194.100 319.087 M214.900 319.094 C 215.945 319.176,217.655 319.176,218.700 319.094 C 219.745 319.012,218.890 318.944,216.800 318.944 C 214.710 318.944,213.855 319.012,214.900 319.094 M261.712 319.095 C 262.764 319.177,264.384 319.176,265.312 319.092 C 266.240 319.008,265.380 318.941,263.400 318.942 C 261.420 318.943,260.660 319.012,261.712 319.095 M169.468 324.688 C 169.362 324.859,171.411 324.945,174.023 324.877 L 178.772 324.753 178.909 329.077 L 179.045 333.400 179.022 329.000 L 179.000 324.600 174.331 324.488 C 171.763 324.426,169.575 324.516,169.468 324.688 M156.100 331.076 C 156.485 331.176,157.115 331.176,157.500 331.076 C 157.885 330.975,157.570 330.893,156.800 330.893 C 156.030 330.893,155.715 330.975,156.100 331.076 M225.781 333.705 C 225.674 333.983,225.635 339.338,225.694 345.605 L 225.801 357.000 226.001 345.100 C 226.110 338.555,226.149 333.200,226.087 333.200 C 226.026 333.200,225.888 333.427,225.781 333.705 M235.774 344.200 C 235.775 349.920,235.831 352.204,235.899 349.276 C 235.968 346.348,235.967 341.668,235.899 338.876 C 235.830 336.084,235.774 338.480,235.774 344.200 M164.134 338.000 C 164.134 339.650,164.205 340.325,164.291 339.500 C 164.378 338.675,164.378 337.325,164.291 336.500 C 164.205 335.675,164.134 336.350,164.134 338.000 M130.867 341.876 C 130.830 344.118,130.935 346.037,131.100 346.140 C 131.265 346.242,131.351 345.038,131.291 343.463 C 131.094 338.318,130.936 337.724,130.867 341.876 M112.501 341.800 C 112.505 342.680,112.587 342.993,112.683 342.495 C 112.779 341.998,112.775 341.278,112.675 340.895 C 112.575 340.513,112.496 340.920,112.501 341.800 M178.962 347.800 C 178.962 351.320,179.024 352.706,179.098 350.881 C 179.172 349.056,179.172 346.176,179.097 344.481 C 179.022 342.786,178.961 344.280,178.962 347.800 M277.328 348.400 C 277.328 349.830,277.401 350.415,277.489 349.700 C 277.578 348.985,277.578 347.815,277.489 347.100 C 277.401 346.385,277.328 346.970,277.328 348.400 M137.284 350.467 C 137.225 353.440,137.048 354.795,136.700 354.935 C 136.308 355.093,136.311 355.144,136.713 355.168 C 137.516 355.218,137.640 354.428,137.499 350.172 L 137.367 346.200 137.284 350.467 M132.105 355.487 C 132.714 355.579,133.614 355.577,134.105 355.482 C 134.597 355.387,134.100 355.311,133.000 355.314 C 131.900 355.317,131.497 355.395,132.105 355.487 M182.500 356.676 C 182.885 356.776,183.515 356.776,183.900 356.676 C 184.285 356.575,183.970 356.493,183.200 356.493 C 182.430 356.493,182.115 356.575,182.500 356.676 M238.705 356.683 C 239.202 356.779,239.922 356.775,240.305 356.675 C 240.687 356.575,240.280 356.496,239.400 356.501 C 238.520 356.505,238.207 356.587,238.705 356.683 M271.905 356.683 C 272.402 356.779,273.122 356.775,273.505 356.675 C 273.887 356.575,273.480 356.496,272.600 356.501 C 271.720 356.505,271.407 356.587,271.905 356.683 M282.975 362.100 L 281.800 363.400 283.100 362.225 C 283.815 361.579,284.400 360.994,284.400 360.925 C 284.400 360.616,284.070 360.888,282.975 362.100 M161.200 363.157 C 161.200 363.523,159.997 363.616,156.437 363.524 C 153.818 363.456,151.758 363.535,151.861 363.700 C 152.159 364.179,161.115 364.061,161.416 363.573 C 161.561 363.339,161.572 363.039,161.440 362.907 C 161.308 362.775,161.200 362.887,161.200 363.157 M189.862 363.700 C 189.964 363.865,192.096 364.000,194.600 364.000 C 197.104 364.000,199.236 363.865,199.338 363.700 C 199.440 363.535,197.308 363.400,194.600 363.400 C 191.892 363.400,189.760 363.535,189.862 363.700 M212.262 363.700 C 212.364 363.865,214.496 364.000,217.000 364.000 C 219.504 364.000,221.636 363.865,221.738 363.700 C 221.840 363.535,219.708 363.400,217.000 363.400 C 214.292 363.400,212.160 363.535,212.262 363.700 M260.112 363.895 C 261.164 363.977,262.784 363.976,263.712 363.892 C 264.640 363.808,263.780 363.741,261.800 363.742 C 259.820 363.743,259.060 363.812,260.112 363.895 M177.905 364.683 C 178.402 364.779,179.122 364.775,179.505 364.675 C 179.887 364.575,179.480 364.496,178.600 364.501 C 177.720 364.505,177.407 364.587,177.905 364.683 " stroke="none" fill="#a0a0a0" fill-rule="evenodd"></path><path id="path3" d="M198.100 35.494 C 199.145 35.576,200.855 35.576,201.900 35.494 C 202.945 35.412,202.090 35.344,200.000 35.344 C 197.910 35.344,197.055 35.412,198.100 35.494 M189.905 35.883 C 190.402 35.979,191.122 35.975,191.505 35.875 C 191.887 35.775,191.480 35.696,190.600 35.701 C 189.720 35.705,189.407 35.787,189.905 35.883 M208.705 35.883 C 209.202 35.979,209.922 35.975,210.305 35.875 C 210.687 35.775,210.280 35.696,209.400 35.701 C 208.520 35.705,208.207 35.787,208.705 35.883 M290.800 73.000 C 292.881 75.090,294.674 76.800,294.784 76.800 C 294.894 76.800,293.281 75.090,291.200 73.000 C 289.119 70.910,287.326 69.200,287.216 69.200 C 287.106 69.200,288.719 70.910,290.800 73.000 M108.592 73.300 L 105.000 77.000 108.700 73.408 C 112.136 70.072,112.582 69.600,112.292 69.600 C 112.232 69.600,110.567 71.265,108.592 73.300 M197.717 98.697 C 199.211 98.774,201.551 98.774,202.917 98.696 C 204.282 98.618,203.060 98.555,200.200 98.555 C 197.340 98.556,196.222 98.620,197.717 98.697 M282.493 154.400 C 282.493 155.170,282.575 155.485,282.676 155.100 C 282.776 154.715,282.776 154.085,282.676 153.700 C 282.575 153.315,282.493 153.630,282.493 154.400 M117.314 156.200 C 117.317 157.300,117.395 157.703,117.487 157.095 C 117.579 156.486,117.577 155.586,117.482 155.095 C 117.387 154.603,117.311 155.100,117.314 156.200 M70.493 157.600 C 70.493 158.370,70.575 158.685,70.676 158.300 C 70.776 157.915,70.776 157.285,70.676 156.900 C 70.575 156.515,70.493 156.830,70.493 157.600 M329.309 159.200 C 329.309 160.190,329.387 160.595,329.482 160.100 C 329.578 159.605,329.578 158.795,329.482 158.300 C 329.387 157.805,329.309 158.210,329.309 159.200 M117.328 163.200 C 117.328 164.630,117.401 165.215,117.489 164.500 C 117.578 163.785,117.578 162.615,117.489 161.900 C 117.401 161.185,117.328 161.770,117.328 163.200 M282.501 165.800 C 282.505 166.680,282.587 166.993,282.683 166.495 C 282.779 165.998,282.775 165.278,282.675 164.895 C 282.575 164.513,282.496 164.920,282.501 165.800 M329.293 172.800 C 329.293 173.570,329.375 173.885,329.476 173.500 C 329.576 173.115,329.576 172.485,329.476 172.100 C 329.375 171.715,329.293 172.030,329.293 172.800 M70.493 174.400 C 70.493 175.170,70.575 175.485,70.676 175.100 C 70.776 174.715,70.776 174.085,70.676 173.700 C 70.575 173.315,70.493 173.630,70.493 174.400 M130.400 203.725 C 130.400 203.794,130.985 204.379,131.700 205.025 L 133.000 206.200 131.825 204.900 C 130.730 203.688,130.400 203.416,130.400 203.725 M109.505 217.083 C 110.002 217.179,110.722 217.175,111.105 217.075 C 111.487 216.975,111.080 216.896,110.200 216.901 C 109.320 216.905,109.007 216.987,109.505 217.083 M114.600 229.200 C 115.683 230.300,116.660 231.200,116.770 231.200 C 116.880 231.200,116.083 230.300,115.000 229.200 C 113.917 228.100,112.940 227.200,112.830 227.200 C 112.720 227.200,113.517 228.100,114.600 229.200 M135.800 237.600 C 136.659 238.480,137.452 239.200,137.562 239.200 C 137.672 239.200,137.059 238.480,136.200 237.600 C 135.341 236.720,134.548 236.000,134.438 236.000 C 134.328 236.000,134.941 236.720,135.800 237.600 M232.109 244.800 C 232.109 245.790,232.187 246.195,232.282 245.700 C 232.378 245.205,232.378 244.395,232.282 243.900 C 232.187 243.405,232.109 243.810,232.109 244.800 M152.100 244.691 C 152.925 244.778,154.275 244.778,155.100 244.691 C 155.925 244.605,155.250 244.534,153.600 244.534 C 151.950 244.534,151.275 244.605,152.100 244.691 M232.167 254.400 C 232.167 258.690,232.226 260.445,232.298 258.300 C 232.370 256.155,232.370 252.645,232.298 250.500 C 232.226 248.355,232.167 250.110,232.167 254.400 M129.400 252.400 C 130.483 253.500,131.460 254.400,131.570 254.400 C 131.680 254.400,130.883 253.500,129.800 252.400 C 128.717 251.300,127.740 250.400,127.630 250.400 C 127.520 250.400,128.317 251.300,129.400 252.400 M105.000 255.200 C 105.859 256.080,106.652 256.800,106.762 256.800 C 106.872 256.800,106.259 256.080,105.400 255.200 C 104.541 254.320,103.748 253.600,103.638 253.600 C 103.528 253.600,104.141 254.320,105.000 255.200 M293.600 256.200 C 292.628 257.190,291.923 258.000,292.033 258.000 C 292.143 258.000,293.028 257.190,294.000 256.200 C 294.972 255.210,295.677 254.400,295.567 254.400 C 295.457 254.400,294.572 255.210,293.600 256.200 M288.400 261.400 C 287.428 262.390,286.723 263.200,286.833 263.200 C 286.943 263.200,287.828 262.390,288.800 261.400 C 289.772 260.410,290.477 259.600,290.367 259.600 C 290.257 259.600,289.372 260.410,288.400 261.400 M232.173 272.200 C 232.173 277.700,232.230 280.005,232.299 277.323 C 232.368 274.641,232.368 270.141,232.299 267.323 C 232.230 264.505,232.174 266.700,232.173 272.200 M167.742 281.400 C 167.741 283.380,167.808 284.240,167.892 283.312 C 167.976 282.384,167.977 280.764,167.895 279.712 C 167.812 278.660,167.743 279.420,167.742 281.400 M189.784 319.700 C 189.678 319.975,189.639 329.920,189.696 341.800 L 189.800 363.400 190.000 341.300 C 190.110 329.145,190.149 319.200,190.087 319.200 C 190.026 319.200,189.889 319.425,189.784 319.700 M199.199 327.519 L 199.398 335.800 199.508 327.829 C 199.568 323.444,199.478 319.718,199.309 319.548 C 199.139 319.378,199.090 322.965,199.199 327.519 M212.179 319.711 C 212.071 319.992,212.032 323.817,212.092 328.211 L 212.202 336.200 212.401 327.700 C 212.596 319.371,212.577 318.674,212.179 319.711 M221.600 341.320 L 221.800 363.400 221.903 341.623 C 221.960 329.646,221.870 319.710,221.703 319.543 C 221.537 319.376,221.490 329.176,221.600 341.320 M258.187 341.400 C 258.187 353.500,258.237 358.508,258.300 352.528 C 258.362 346.549,258.362 336.649,258.300 330.528 C 258.238 324.408,258.187 329.300,258.187 341.400 M151.293 325.600 C 151.293 326.370,151.375 326.685,151.476 326.300 C 151.576 325.915,151.576 325.285,151.476 324.900 C 151.375 324.515,151.293 324.830,151.293 325.600 M169.283 329.467 C 169.226 332.280,169.046 333.596,168.700 333.735 C 168.308 333.893,168.311 333.944,168.713 333.968 C 169.512 334.018,169.642 333.223,169.499 329.170 L 169.366 325.400 169.283 329.467 M133.300 326.691 C 134.125 326.778,135.475 326.778,136.300 326.691 C 137.125 326.605,136.450 326.534,134.800 326.534 C 133.150 326.534,132.475 326.605,133.300 326.691 M154.515 333.496 C 155.788 333.576,157.768 333.575,158.915 333.494 C 160.062 333.414,159.020 333.349,156.600 333.350 C 154.180 333.351,153.242 333.416,154.515 333.496 M180.711 333.493 C 181.651 333.578,183.091 333.577,183.911 333.491 C 184.730 333.405,183.960 333.336,182.200 333.337 C 180.440 333.339,179.770 333.409,180.711 333.493 M226.260 333.500 C 226.158 333.665,227.452 333.751,229.137 333.692 C 234.511 333.501,235.127 333.336,230.724 333.267 C 228.372 333.230,226.363 333.335,226.260 333.500 M244.660 333.500 C 244.558 333.665,245.852 333.751,247.537 333.692 C 252.911 333.501,253.527 333.336,249.124 333.267 C 246.772 333.230,244.763 333.335,244.660 333.500 M235.373 343.400 C 235.373 348.900,235.430 351.205,235.499 348.523 C 235.568 345.841,235.568 341.341,235.499 338.523 C 235.430 335.705,235.374 337.900,235.373 343.400 M151.687 348.476 C 151.639 356.548,151.735 363.236,151.900 363.339 C 152.173 363.508,152.166 352.160,151.886 339.000 C 151.825 336.140,151.735 340.404,151.687 348.476 M253.781 348.600 C 253.781 356.740,253.834 360.013,253.900 355.874 C 253.965 351.734,253.965 345.074,253.899 341.074 C 253.834 337.073,253.781 340.460,253.781 348.600 M185.728 338.000 C 185.728 339.430,185.801 340.015,185.889 339.300 C 185.978 338.585,185.978 337.415,185.889 336.700 C 185.801 335.985,185.728 336.570,185.728 338.000 M112.951 341.600 C 112.951 344.130,113.016 345.165,113.096 343.900 C 113.175 342.635,113.175 340.565,113.096 339.300 C 113.016 338.035,112.951 339.070,112.951 341.600 M139.112 337.895 L 146.823 338.017 146.712 349.789 C 146.650 356.264,146.738 361.423,146.906 361.254 C 147.075 361.086,147.165 355.739,147.106 349.374 L 147.000 337.800 139.200 337.786 L 131.400 337.773 139.112 337.895 M122.534 341.200 C 122.534 342.850,122.605 343.525,122.691 342.700 C 122.778 341.875,122.778 340.525,122.691 339.700 C 122.605 338.875,122.534 339.550,122.534 341.200 M169.365 348.000 C 169.365 351.850,169.425 353.425,169.498 351.500 C 169.571 349.575,169.571 346.425,169.498 344.500 C 169.425 342.575,169.365 344.150,169.365 348.000 M267.363 348.400 C 267.363 352.030,267.423 353.515,267.498 351.700 C 267.572 349.885,267.572 346.915,267.498 345.100 C 267.423 343.285,267.363 344.770,267.363 348.400 M199.383 344.899 C 199.274 345.184,199.236 349.464,199.300 354.409 L 199.416 363.400 199.508 354.100 L 199.600 344.800 205.793 344.800 L 211.985 344.800 212.104 354.000 L 212.223 363.200 212.211 353.900 L 212.200 344.600 205.891 344.490 C 201.008 344.405,199.538 344.497,199.383 344.899 M286.937 347.800 C 286.939 349.560,287.009 350.230,287.093 349.289 C 287.178 348.349,287.177 346.909,287.091 346.089 C 287.005 345.270,286.936 346.040,286.937 347.800 M133.111 346.293 C 134.051 346.378,135.491 346.377,136.311 346.291 C 137.130 346.205,136.360 346.136,134.600 346.137 C 132.840 346.139,132.170 346.209,133.111 346.293 M185.737 360.200 C 185.739 361.960,185.809 362.630,185.893 361.689 C 185.978 360.749,185.977 359.309,185.891 358.489 C 185.805 357.670,185.736 358.440,185.737 360.200 M132.500 364.687 C 133.105 364.778,134.095 364.778,134.700 364.687 C 135.305 364.595,134.810 364.520,133.600 364.520 C 132.390 364.520,131.895 364.595,132.500 364.687 M236.305 364.683 C 236.802 364.779,237.522 364.775,237.905 364.675 C 238.287 364.575,237.880 364.496,237.000 364.501 C 236.120 364.505,235.807 364.587,236.305 364.683 " stroke="none" fill="#7c7c7c" fill-rule="evenodd"></path><path id="path4" d="M267.765 327.000 C 267.766 330.960,267.826 332.526,267.898 330.480 C 267.971 328.434,267.971 325.194,267.898 323.280 C 267.824 321.366,267.765 323.040,267.765 327.000 M244.174 345.200 C 244.174 350.810,244.230 353.105,244.299 350.300 C 244.368 347.495,244.368 342.905,244.299 340.100 C 244.230 337.295,244.174 339.590,244.174 345.200 M202.719 335.898 C 204.544 335.972,207.424 335.972,209.119 335.897 C 210.814 335.822,209.320 335.761,205.800 335.762 C 202.280 335.762,200.894 335.824,202.719 335.898 M161.379 348.800 C 161.379 355.950,161.433 358.875,161.499 355.300 C 161.566 351.725,161.566 345.875,161.499 342.300 C 161.433 338.725,161.379 341.650,161.379 348.800 M166.100 341.487 C 166.705 341.578,167.695 341.578,168.300 341.487 C 168.905 341.395,168.410 341.320,167.200 341.320 C 165.990 341.320,165.495 341.395,166.100 341.487 M180.307 341.490 C 181.026 341.579,182.106 341.577,182.707 341.486 C 183.308 341.395,182.720 341.322,181.400 341.324 C 180.080 341.326,179.588 341.401,180.307 341.490 M248.691 363.889 C 249.401 363.977,250.661 363.979,251.491 363.892 C 252.321 363.805,251.740 363.733,250.200 363.731 C 248.660 363.729,247.981 363.800,248.691 363.889 M274.705 364.683 C 275.202 364.779,275.922 364.775,276.305 364.675 C 276.687 364.575,276.280 364.496,275.400 364.501 C 274.520 364.505,274.207 364.587,274.705 364.683 " stroke="none" fill="#848484" fill-rule="evenodd"></path></g></svg>